<?xml version="1.0" encoding="UTF-8" standalone="no"?>
<!DOCTYPE svg PUBLIC "-//W3C//DTD SVG 1.1//EN" "http://www.w3.org/Graphics/SVG/1.1/DTD/svg11.dtd">
<svg width="100%" height="100%" viewBox="0 0 700 300" version="1.1" xmlns="http://www.w3.org/2000/svg" xmlns:xlink="http://www.w3.org/1999/xlink" xml:space="preserve" xmlns:serif="http://www.serif.com/" style="fill-rule:evenodd;clip-rule:evenodd;stroke-linejoin:round;stroke-miterlimit:2;">
    <g id="Layer_2" transform="matrix(1,0,0,1,43.05,59.44)">
        <g id="Capa_1">
            <path d="M181.56,163.11L177.5,172.61C176.953,173.866 176.541,175.177 176.27,176.52C175.961,178.034 175.81,179.575 175.82,181.12L163.65,181.12C164.858,179.44 165.967,177.69 166.97,175.88C167.99,174.033 169.127,171.723 170.38,168.95L191.46,121.95L188.78,117.8L209.46,117.8L232.81,169.15C234.143,172.123 235.317,174.613 236.33,176.62C237.114,178.305 238.202,179.831 239.54,181.12L216.19,181.12C216.316,180.637 216.384,180.14 216.39,179.64C216.344,178.397 216.129,177.165 215.75,175.98C215.188,174.159 214.52,172.373 213.75,170.63L210.38,163.11L181.56,163.11ZM206.69,155L195.91,131.06L185.32,155L206.69,155ZM282.49,117.8L284.08,127.4C282.491,126.719 280.803,126.301 279.08,126.16C277.26,126 275.67,125.91 274.28,125.91L264.58,125.91L264.58,172.61C264.58,174.06 264.65,175.47 264.78,176.82C264.939,178.288 265.275,179.732 265.78,181.12L244.78,181.12C245.276,179.729 245.611,178.287 245.78,176.82C245.91,175.47 245.97,174.06 245.97,172.61L245.97,125.91L236.28,125.91C234.89,125.91 233.28,126 231.48,126.16C229.757,126.301 228.069,126.719 226.48,127.4L228.06,117.8L282.49,117.8ZM344.23,117.8L345.81,127.4C344.221,126.719 342.533,126.301 340.81,126.16C339,126 337.4,125.91 336.01,125.91L326.32,125.91L326.32,172.61C326.32,174.06 326.38,175.47 326.51,176.82C326.679,178.287 327.014,179.729 327.51,181.12L306.51,181.12C307.015,179.732 307.351,178.288 307.51,176.82C307.64,175.47 307.71,174.06 307.71,172.61L307.71,125.91L298,125.91C296.61,125.91 295,126 293.2,126.16C291.477,126.301 289.789,126.719 288.2,127.4L289.79,117.8L344.23,117.8ZM371,172.61C371,174.06 371.07,175.47 371.2,176.82C371.359,178.288 371.695,179.732 372.2,181.12L351.2,181.12C351.705,179.732 352.041,178.288 352.2,176.82C352.33,175.47 352.4,174.06 352.4,172.61L352.4,126.31C352.4,124.86 352.33,123.46 352.2,122.1C352.04,120.632 351.704,119.188 351.2,117.8L401.37,117.8C405.323,117.8 408.407,118.8 410.62,120.8C412.833,122.8 413.937,125.883 413.93,130.05L413.93,142.91C414.025,145.408 413.294,147.869 411.85,149.91C410.47,151.75 407.9,152.937 404.14,153.47L412.35,174.34C413.329,176.903 414.886,179.207 416.9,181.07L395.69,181.07L384.8,153.17L371,153.17L371,172.61ZM371,145.11L392.67,145.11C393.611,145.212 394.546,144.863 395.19,144.17C395.782,143.17 396.041,142.007 395.93,140.85L395.93,130.17C396.041,129.013 395.782,127.85 395.19,126.85C394.546,126.157 393.611,125.808 392.67,125.91L371,125.91L371,145.11ZM438.44,163.11L434.38,172.61C433.829,173.865 433.417,175.176 433.15,176.52C432.841,178.034 432.69,179.575 432.7,181.12L420.53,181.12C421.738,179.442 422.844,177.692 423.84,175.88C424.84,174.03 426,171.72 427.26,168.95L448.33,121.95L445.66,117.8L466.34,117.8L489.69,169.15C491.023,172.123 492.193,174.613 493.2,176.62C493.99,178.304 495.082,179.829 496.42,181.12L473.07,181.12C473.196,180.637 473.264,180.14 473.27,179.64C473.225,178.396 473.006,177.164 472.62,175.98C472.059,174.159 471.391,172.373 470.62,170.63L467.25,163.11L438.44,163.11ZM463.57,155L452.79,131.06L442.2,155L463.57,155ZM511.09,181.12C506.93,181.12 503.78,180.083 501.64,178.01C499.5,175.937 498.43,172.687 498.43,168.26L498.43,130.66C498.43,126.24 499.5,122.993 501.64,120.92C503.78,118.847 506.93,117.807 511.09,117.8L547.9,117.8L549.48,127.4C547.891,126.719 546.203,126.301 544.48,126.16C542.67,126 541.07,125.91 539.69,125.91L520.59,125.91C519.6,125.81 518.608,126.093 517.82,126.7C517.185,127.563 516.902,128.636 517.03,129.7L517.03,169.28C516.902,170.344 517.185,171.417 517.82,172.28C518.606,172.892 519.6,173.175 520.59,173.07L539.69,173.07C541.07,173.07 542.69,172.99 544.48,172.82C546.204,172.685 547.893,172.266 549.48,171.58L547.9,181.18L511.09,181.12ZM612.32,117.8L613.9,127.4C612.311,126.719 610.623,126.301 608.9,126.16C607.08,126 605.48,125.91 604.1,125.91L594.4,125.91L594.4,172.61C594.4,174.06 594.47,175.47 594.6,176.82C594.759,178.288 595.095,179.732 595.6,181.12L574.6,181.12C575.105,179.732 575.441,178.288 575.6,176.82C575.73,175.47 575.8,174.06 575.8,172.61L575.8,125.91L566.1,125.91C564.72,125.91 563.1,126 561.3,126.16C559.577,126.299 557.888,126.718 556.3,127.4L557.88,117.8L612.32,117.8Z" style="fill-rule:nonzero;"/>
            <path d="M183.54,89.33L183.25,90.19C182.668,92.607 181.933,94.985 181.05,97.31C179.46,100.97 172.25,112.55 156.21,122.12C145.92,128.26 133.27,133.38 113.9,131.9C112.58,131.8 111.66,131.74 110.48,131.57C109.08,131.37 107.7,131.05 106.25,130.79C96.68,129.13 83.61,121.51 75.66,108.03C67.71,94.55 63.56,75.3 81.35,68.19C93.86,63.19 107.67,66.05 125.46,70.32C137.31,73.16 143.14,74.22 152.21,78.56C153.31,78.56 157.58,81.56 158.67,81.56C139.47,69.04 114.85,51.15 100.91,37.22C77.44,13.76 50.4,-2.6 24.79,4.51C-0.82,11.62 -4.38,43.64 4.16,72.1C12.7,100.56 32.61,128.3 55.38,144.67C78.15,161.04 122.69,174.96 152.14,148.22C168.87,133.04 180.81,98.53 180.81,98.53C181.18,97.53 181.63,96.06 182.09,94.53C182.89,92 183.54,89.33 183.54,89.33Z" style="fill:url(#_Linear1);fill-rule:nonzero;"/>
            <path d="M111.19,46.53L111.2,46.53L111.19,46.53Z" style="fill:url(#_Linear2);fill-rule:nonzero;"/>
            <path d="M115.45,50C113.15,48.38 91.32,33.82 69.64,33.2L70.31,33.2L68.42,33.2C65.293,33.17 62.17,33.455 59.1,34.05C58.55,34.15 58.01,34.26 57.51,34.38C38.2,39 36.87,61.06 44.29,80.76C47.428,88.431 51.773,95.551 57.16,101.85C73.88,120.7 87.61,130.5 109.49,131.85C110.882,131.935 112.278,131.935 113.67,131.85C111.173,131.666 108.693,131.298 106.25,130.75C93.469,127.473 82.476,119.298 75.66,108C67.66,94.51 63.56,75.27 81.35,68.16C93.86,63.16 107.67,66.02 125.46,70.29C136.838,72.918 147.902,76.76 158.46,81.75C159.14,81.63 159.93,82.15 160.6,82.03C147.08,73.23 129.53,61.29 115.45,50Z" style="fill:url(#_Linear3);fill-rule:nonzero;"/>
            <path d="M52.25,32.25C53.044,31.975 53.852,31.742 54.67,31.55C53.852,31.742 53.044,31.975 52.25,32.25Z" style="fill:url(#_Linear4);fill-rule:nonzero;"/>
            <path d="M106.25,130.79C103.414,130.098 100.651,129.134 98,127.91C97.65,127.76 97.31,127.61 97,127.46L95.77,126.84L95.29,126.59C94.09,125.95 92.88,125.25 91.67,124.48L91,124C90.68,123.79 90.36,123.58 90,123.36L89,122.58C88.63,122.31 88.25,122.03 87.88,121.74L86.75,120.84C86.51,120.65 86.27,120.44 86.03,120.24C85.63,119.9 85.23,119.55 84.84,119.24L84.32,118.77C83.78,118.26 83.24,117.77 82.72,117.2L82.2,116.66C81.79,116.23 81.39,115.78 80.98,115.33L80.54,114.82C80.01,114.21 79.54,113.58 79,112.94L78.7,112.53C78.29,111.99 77.89,111.42 77.49,110.85L77.09,110.27C76.62,109.55 76.15,108.83 75.71,108.08C67.71,94.59 63.61,75.35 81.4,68.24C81.83,68.06 82.25,67.91 82.68,67.75L82.94,67.67C83.3,67.537 83.66,67.417 84.02,67.31L84.2,67.26C84.6,67.13 85,67.02 85.4,66.91L85.48,66.91L86.8,66.59C85.67,63.06 89.74,60.79 89.58,60.79C65.44,60.79 61.2,82.92 68.24,99.2C73.08,110.42 83.18,121.26 83.18,121.26C40.44,90.6 44.71,50 44.71,50L43,49.2C38.12,64.69 45.65,88.36 58,102.3C73.45,119.72 86.94,129.06 106.14,131.5L110.41,131.91L112.72,131.91L113.72,131.84C111.204,131.713 108.704,131.361 106.25,130.79Z" style="fill:url(#_Linear5);fill-rule:nonzero;"/>
            <path d="M188,76.9C185.444,82.7 183.435,88.726 182,94.9C180.565,101.074 187.52,73.33 192.69,43.05C197.69,13.88 202.69,-1.06 219.37,0C249.37,1.92 261.78,66.29 238.94,92.85C221.54,113.1 197.38,103.06 187,98L181.83,95.5C183.162,96.106 184.562,96.549 186,96.82C192.698,98.353 199.694,97.979 206.19,95.74C219.71,91.48 228.19,81.09 229.67,71.55C231.53,59.86 223.99,45.82 215.44,45.94C204.36,46.1 194,64 188,76.9Z" style="fill:url(#_Linear6);fill-rule:nonzero;"/>
            <path d="M219,88.89C227.5,82.74 231.13,74.4 232.55,64.44C233.97,54.48 234.69,20.33 214.77,21.04C199.29,21.59 193.44,40.87 191.61,49.44C191.36,50.8 191.12,52.15 190.88,53.44C186.44,77.83 181.98,94.9 181.98,94.9C183.712,88.858 185.871,82.947 188.44,77.21C194.44,64.35 204.44,46.06 215.44,45.9C223.99,45.78 231.53,59.82 229.67,71.51C228.71,77.58 225,83.94 219,88.89Z" style="fill:url(#_Linear7);fill-rule:nonzero;"/>
            <path d="M187.81,69.38C187.68,69.64 188,69.14 187.81,69.38Z" style="fill:url(#_Linear8);fill-rule:nonzero;"/>
            <path d="M220,88.06C219.74,88.24 219.51,88.44 219.24,88.62C219.43,88.48 219.69,88.28 220,88.06Z" style="fill:url(#_Linear9);fill-rule:nonzero;"/>
            <path d="M231.5,36.75C229.31,27.3 224.5,19.27 214.74,19.62C199.26,20.17 193.41,39.44 191.58,48.01C191.33,49.38 191.09,50.73 190.85,52.01C189.62,58.75 188.85,64.09 187.85,69.34C188.79,64.6 189.85,59.27 190.85,53.44C191.09,52.12 191.33,50.77 191.58,49.44C193.41,40.87 199.26,21.59 214.74,21.04C224.87,20.68 229.65,29.34 231.74,39.25C232.54,43.32 233.69,52.16 232.18,64.8C230.49,78.8 223.07,85.8 220,88.06C234.17,78.39 233,58 233.14,54.12C233.321,48.284 232.77,42.449 231.5,36.75Z" style="fill:url(#_Linear10);fill-rule:nonzero;"/>
            <path d="M216.55,46C201.32,39.86 190.64,62.68 187.81,69.37C187.69,69.94 187.89,68.96 187.81,69.52C194.43,56 203.32,42.37 216.55,46Z" style="fill:rgb(56,148,209);fill-rule:nonzero;"/>
            <path d="M216.55,46C201.32,39.86 190.64,62.68 187.81,69.37C187.69,69.94 187.89,68.96 187.81,69.52C194.43,56 203.32,42.37 216.55,46Z" style="fill:rgb(56,148,209);fill-rule:nonzero;"/>
            <path d="M187.77,69.59C185.01,83.34 181.89,94.94 181.89,94.94L182,94.94C183.714,88.893 185.863,82.977 188.43,77.24C194.43,64.38 204.43,46.09 215.43,45.93C215.791,45.93 216.151,45.95 216.51,45.99C211.957,44.643 207.028,45.467 203.16,48.22C196.76,52.57 191.85,61.34 187.77,69.59Z" style="fill:url(#_Linear11);fill-rule:nonzero;"/>
            <path d="M105.47,131.37C108.218,131.768 110.994,131.939 113.77,131.88C111.325,132.051 108.869,131.974 106.44,131.65L105.47,131.37Z" style="fill:rgb(239,143,71);fill-rule:nonzero;"/>
            <path d="M26.05,5.91C50.74,-0.94 77.17,14.19 100,36.4C76.84,13.42 49.84,-2.5 24.64,4.5C-0.82,11.57 -4.35,43.39 4.13,71.68C10.79,93.89 24.43,115.68 40.94,131.86C25.07,115.82 12,94.67 5.55,73.09C-2.94,44.81 0.6,13 26.05,5.91Z" style="fill:rgb(219,51,39);fill-rule:nonzero;"/>
            <path d="M60.4,105.91C61.04,106.6 61.68,107.28 62.32,107.91C61.68,107.28 61,106.6 60.4,105.91ZM63.19,108.84C63.92,109.58 64.65,110.3 65.38,111.01L65.22,110.84C64.55,110.19 63.87,109.53 63.19,108.84ZM56.8,102C57.71,103 58.61,104 59.51,105C58.61,104 57.71,103 56.8,102ZM111.19,46.53C111.19,46.53 81.71,25.14 54.67,31.53C27.63,37.92 39,81.39 57.16,101.85C39,81.39 30.48,40.79 57.52,34.39C58.02,34.27 58.52,34.16 59.11,34.06C62.18,33.465 65.303,33.18 68.43,33.21L70.32,33.21L69.65,33.21C91.33,33.83 113.16,48.39 115.46,50.01C115.51,49.88 111.19,46.53 111.19,46.53Z" style="fill:rgb(217,31,39);fill-rule:nonzero;"/>
            <path d="M164,84.28C164,84.28 123.47,56.28 94.85,59.12C79,60.71 72.9,70 70.6,77.36C70.622,77.263 70.656,77.169 70.7,77.08C73.08,69.87 79.22,61.25 94.87,59.65C122.61,56.8 164,84.29 164,84.28Z" style="fill:rgb(236,223,59);fill-rule:nonzero;"/>
            <path d="M111.05,131.92C89.17,130.55 74.17,120.67 57.72,102C39.72,81.47 31.9,40.82 58.94,34.42C62.685,33.647 66.496,33.239 70.32,33.2C66.023,33.129 61.731,33.528 57.52,34.39C30.52,40.79 38.92,81.31 56.8,101.98C73.21,120.98 87.8,130.55 109.63,131.92C110.156,131.95 110.684,131.95 111.21,131.92L111.05,131.92Z" style="fill:rgb(239,143,71);fill-rule:nonzero;"/>
            <path d="M181.72,95.45C180.78,94.87 170.43,88.51 162.05,83.08L160.78,82.22C160.78,82.22 122.61,56.8 94.87,59.65C78.07,61.37 72.21,71.18 70.21,78.65C71.94,74.26 75.44,70.55 81.35,68.19C93.86,63.19 107.7,65.94 125.46,70.32C141.62,74.27 157.087,80.653 171.33,89.25L170.88,88.95C176,91.89 181.72,95.45 181.72,95.45Z" style="fill:url(#_Linear12);fill-rule:nonzero;"/>
        </g>
    </g>
    <defs>
        <linearGradient id="_Linear1" x1="0" y1="0" x2="1" y2="0" gradientUnits="userSpaceOnUse" gradientTransform="matrix(-75.52,-132.64,132.64,-75.52,130.17,147.86)"><stop offset="0" style="stop-color:rgb(74,38,63);stop-opacity:1"/><stop offset="0.04" style="stop-color:rgb(74,38,63);stop-opacity:1"/><stop offset="0.53" style="stop-color:rgb(181,48,38);stop-opacity:1"/><stop offset="0.69" style="stop-color:rgb(202,54,39);stop-opacity:1"/><stop offset="0.74" style="stop-color:rgb(211,56,39);stop-opacity:1"/><stop offset="1" style="stop-color:rgb(245,177,74);stop-opacity:1"/></linearGradient>
        <linearGradient id="_Linear2" x1="0" y1="0" x2="1" y2="0" gradientUnits="userSpaceOnUse" gradientTransform="matrix(2e-06,0,0,2e-06,111.2,46.53)"><stop offset="0" style="stop-color:rgb(211,56,39);stop-opacity:1"/><stop offset="0.35" style="stop-color:rgb(211,56,39);stop-opacity:1"/><stop offset="0.48" style="stop-color:rgb(212,60,39);stop-opacity:1"/><stop offset="0.58" style="stop-color:rgb(215,70,40);stop-opacity:1"/><stop offset="0.69" style="stop-color:rgb(220,89,41);stop-opacity:1"/><stop offset="0.79" style="stop-color:rgb(227,115,42);stop-opacity:1"/><stop offset="0.89" style="stop-color:rgb(236,148,44);stop-opacity:1"/><stop offset="0.99" style="stop-color:rgb(246,188,46);stop-opacity:1"/><stop offset="1" style="stop-color:rgb(248,194,46);stop-opacity:1"/></linearGradient>
        <linearGradient id="_Linear3" x1="0" y1="0" x2="1" y2="0" gradientUnits="userSpaceOnUse" gradientTransform="matrix(-1256.72,-8507.36,8507.36,-1256.72,12947.1,12672.8)"><stop offset="0" style="stop-color:rgb(211,56,39);stop-opacity:1"/><stop offset="0.35" style="stop-color:rgb(211,56,39);stop-opacity:1"/><stop offset="0.48" style="stop-color:rgb(212,60,39);stop-opacity:1"/><stop offset="0.58" style="stop-color:rgb(215,70,40);stop-opacity:1"/><stop offset="0.69" style="stop-color:rgb(220,89,41);stop-opacity:1"/><stop offset="0.79" style="stop-color:rgb(227,115,42);stop-opacity:1"/><stop offset="0.89" style="stop-color:rgb(236,148,44);stop-opacity:1"/><stop offset="0.99" style="stop-color:rgb(246,188,46);stop-opacity:1"/><stop offset="1" style="stop-color:rgb(248,194,46);stop-opacity:1"/></linearGradient>
        <linearGradient id="_Linear4" x1="0" y1="0" x2="1" y2="0" gradientUnits="userSpaceOnUse" gradientTransform="matrix(-0.0968,-0.238,0.238,-0.0968,181.672,54.006)"><stop offset="0" style="stop-color:rgb(211,56,39);stop-opacity:1"/><stop offset="0.35" style="stop-color:rgb(211,56,39);stop-opacity:1"/><stop offset="0.48" style="stop-color:rgb(212,60,39);stop-opacity:1"/><stop offset="0.58" style="stop-color:rgb(215,70,40);stop-opacity:1"/><stop offset="0.69" style="stop-color:rgb(220,89,41);stop-opacity:1"/><stop offset="0.79" style="stop-color:rgb(227,115,42);stop-opacity:1"/><stop offset="0.89" style="stop-color:rgb(236,148,44);stop-opacity:1"/><stop offset="0.99" style="stop-color:rgb(246,188,46);stop-opacity:1"/><stop offset="1" style="stop-color:rgb(248,194,46);stop-opacity:1"/></linearGradient>
        <linearGradient id="_Linear5" x1="0" y1="0" x2="1" y2="0" gradientUnits="userSpaceOnUse" gradientTransform="matrix(-32.7,-45.87,45.87,-32.7,97.62,115.22)"><stop offset="0" style="stop-color:rgb(109,31,24);stop-opacity:1"/><stop offset="0.07" style="stop-color:rgb(109,31,24);stop-opacity:0.88"/><stop offset="0.33" style="stop-color:rgb(109,31,24);stop-opacity:0.5"/><stop offset="0.57" style="stop-color:rgb(109,31,24);stop-opacity:0.23"/><stop offset="0.77" style="stop-color:rgb(109,31,24);stop-opacity:0.06"/><stop offset="0.92" style="stop-color:rgb(109,31,24);stop-opacity:0"/><stop offset="1" style="stop-color:rgb(109,31,24);stop-opacity:0"/></linearGradient>
        <linearGradient id="_Linear6" x1="0" y1="0" x2="1" y2="0" gradientUnits="userSpaceOnUse" gradientTransform="matrix(24.98,-63,63,24.98,205.04,92.57)"><stop offset="0" style="stop-color:rgb(30,41,37);stop-opacity:1"/><stop offset="0.09" style="stop-color:rgb(30,41,37);stop-opacity:1"/><stop offset="0.4" style="stop-color:rgb(2,100,91);stop-opacity:1"/><stop offset="0.77" style="stop-color:rgb(56,148,209);stop-opacity:1"/><stop offset="1" style="stop-color:rgb(146,196,234);stop-opacity:1"/></linearGradient>
        <linearGradient id="_Linear7" x1="0" y1="0" x2="1" y2="0" gradientUnits="userSpaceOnUse" gradientTransform="matrix(-13.44,-26.14,26.14,-13.44,211.12,73.82)"><stop offset="0" style="stop-color:rgb(34,75,130);stop-opacity:1"/><stop offset="1" style="stop-color:rgb(57,36,61);stop-opacity:1"/></linearGradient>
        <linearGradient id="_Linear8" x1="0" y1="0" x2="1" y2="0" gradientUnits="userSpaceOnUse" gradientTransform="matrix(0.09,0,0,0.09,187.77,69.39)"><stop offset="0" style="stop-color:rgb(146,196,234);stop-opacity:1"/><stop offset="1" style="stop-color:rgb(192,218,242);stop-opacity:1"/></linearGradient>
        <linearGradient id="_Linear9" x1="0" y1="0" x2="1" y2="0" gradientUnits="userSpaceOnUse" gradientTransform="matrix(0.5776,0,0,0.5776,385.847,137.53)"><stop offset="0" style="stop-color:rgb(146,196,234);stop-opacity:1"/><stop offset="1" style="stop-color:rgb(192,218,242);stop-opacity:1"/></linearGradient>
        <linearGradient id="_Linear10" x1="0" y1="0" x2="1" y2="0" gradientUnits="userSpaceOnUse" gradientTransform="matrix(2055.88,0,0,2055.88,8700.09,3705.01)"><stop offset="0" style="stop-color:rgb(146,196,234);stop-opacity:1"/><stop offset="1" style="stop-color:rgb(192,218,242);stop-opacity:1"/></linearGradient>
        <linearGradient id="_Linear11" x1="0" y1="0" x2="1" y2="0" gradientUnits="userSpaceOnUse" gradientTransform="matrix(-524.839,1043.75,-1043.75,-524.839,7291.8,2646.05)"><stop offset="0" style="stop-color:rgb(34,75,130);stop-opacity:1"/><stop offset="1" style="stop-color:rgb(57,36,61);stop-opacity:1"/></linearGradient>
        <linearGradient id="_Linear12" x1="0" y1="0" x2="1" y2="0" gradientUnits="userSpaceOnUse" gradientTransform="matrix(-25.7,-6.16,6.16,-25.7,129,78.79)"><stop offset="0" style="stop-color:rgb(209,214,77);stop-opacity:1"/><stop offset="1" style="stop-color:rgb(134,113,44);stop-opacity:1"/></linearGradient>
    </defs>
</svg>
