<?xml version="1.0" encoding="UTF-8" standalone="no"?>
<!DOCTYPE svg PUBLIC "-//W3C//DTD SVG 1.1//EN" "http://www.w3.org/Graphics/SVG/1.1/DTD/svg11.dtd">
<svg width="100%" height="100%" viewBox="0 0 1600 350" version="1.1" xmlns="http://www.w3.org/2000/svg" xmlns:xlink="http://www.w3.org/1999/xlink" xml:space="preserve" xmlns:serif="http://www.serif.com/" style="fill-rule:evenodd;clip-rule:evenodd;stroke-linejoin:round;stroke-miterlimit:2;">
    <g transform="matrix(1,0,0,1,91.35,31.85)">
        <path d="M54.1,39.6L53.2,56.7C57.4,49.9 62.5,44.8 68.4,41.4C74.3,38 81,36.3 88.5,36.3C103.1,36.3 114.7,43.1 123.1,56.7C127.7,49.9 132.9,44.8 138.7,41.4C144.5,38 150.9,36.3 158,36.3C165.1,36.3 175,38.6 181.1,43.1C187.2,47.6 191.1,53.2 192.8,59.7C194.5,66.3 195.4,76.9 195.4,91.6L195.4,219.5L142.2,219.5L142.2,102.2C142.2,86.8 141.7,77.3 140.6,73.7C139.6,70 137.1,68.2 133.3,68.2C129.5,68.2 126.9,70 125.8,73.6C124.7,77.2 124.1,86.8 124.1,102.2L124.1,219.5L70.9,219.5L70.9,105.2C70.9,87.6 70.5,77 69.6,73.5C68.7,70 66.4,68.2 62.5,68.2C58.6,68.2 58,69.1 56.3,71C54.6,72.9 53.6,75.1 53.5,77.8C53.3,80.5 53.2,86.1 53.2,94.8L53.2,219.6L0,219.6L0,39.6L54.1,39.6Z" style="fill:rgb(235,97,28);fill-rule:nonzero;"/>
    </g>
    <g transform="matrix(1,0,0,1,91.35,31.85)">
        <path d="M259.5,109.3L208.1,109.3L208.1,97.2C208.1,83.3 209.7,72.5 212.9,65C216.1,57.5 222.5,50.8 232.2,45C241.9,39.2 254.4,36.3 269.9,36.3C285.4,36.3 302.4,39.6 311.8,46.1C321.2,52.7 326.9,60.7 328.8,70.2C330.7,79.7 331.6,99.4 331.6,129.1L331.6,219.4L278.3,219.4L278.3,203.4C275,209.8 270.6,214.7 265.3,217.9C260,221.1 253.7,222.7 246.4,222.7C239.1,222.7 228,220 220,214.6C212,209.2 208,197.4 208,179.3L208,164.5C208,151 210.1,141.9 214.4,137C218.6,132.1 229.2,126.4 246,119.9C264,112.8 273.6,108.1 274.9,105.7C276.2,103.3 276.8,98.3 276.8,90.8C276.8,83.3 276.1,75.3 274.7,72.4C273.3,69.6 271,68.1 267.7,68.1C264.4,68.1 261.7,69.3 260.8,71.7C259.9,74.1 259.4,80.3 259.4,90.3L259.4,109.1L259.5,109.3ZM276.8,134C268,140.4 262.9,145.8 261.5,150.1C260.1,154.4 259.4,160.7 259.4,168.8C259.4,176.9 260,184.1 261.2,186.8C262.4,189.5 264.8,190.9 268.5,190.9C272.2,190.9 274.2,189.8 275.2,187.7C276.2,185.6 276.8,180 276.8,171L276.8,134Z" style="fill:rgb(235,97,28);fill-rule:nonzero;"/>
    </g>
    <g transform="matrix(1,0,0,1,91.35,31.85)">
        <path d="M464.8,39.6L442.6,111.3L471.5,219.6L418.8,219.6L401.7,141.2L401.7,219.6L346.8,219.6L346.8,0L401.6,0L401.6,92.2L418.8,39.6L464.8,39.6Z" style="fill:rgb(235,97,28);fill-rule:nonzero;"/>
    </g>
    <g transform="matrix(1,0,0,1,91.35,31.85)">
        <path d="M600.1,132.8L529.2,132.8L529.2,171.7C529.2,179.8 529.8,185.1 531,187.4C532.2,189.8 534.4,190.9 537.8,190.9C541.2,190.9 544.7,189.3 546.1,186.2C547.5,183.1 548.2,177 548.2,168.1L548.2,144.4L600.1,144.4L600.1,157.7C600.1,168.8 599.4,177.4 598,183.3C596.6,189.3 593.3,195.6 588.2,202.4C583,209.2 576.5,214.3 568.6,217.7C560.7,221.1 550.8,222.8 538.8,222.8C526.8,222.8 517,221.1 508.2,217.8C499.3,214.5 492.4,209.9 487.5,204C482.6,198.2 479.2,191.8 477.3,184.7C475.4,177.7 474.5,167.5 474.5,154.1L474.5,101.6C474.5,85.9 476.6,73.5 480.9,64.4C485.1,55.3 492.1,48.4 501.8,43.5C511.5,38.7 522.6,36.2 535.2,36.2C547.8,36.2 563.2,39.1 573.2,44.9C583.2,50.7 590.2,58.5 594.2,68.1C598.2,77.7 600.2,91.3 600.2,108.7L600.2,132.6L600.1,132.8ZM545.2,103.5L545.2,90.3C545.2,81 544.7,75 543.7,72.3C542.7,69.6 540.7,68.2 537.6,68.2C534.5,68.2 531.5,69.4 530.5,71.7C529.6,74 529.1,80.2 529.1,90.3L529.1,103.5L545.2,103.5Z" style="fill:rgb(235,97,28);fill-rule:nonzero;"/>
    </g>
    <g transform="matrix(1,0,0,1,91.35,31.85)">
        <path d="M669.1,39.6L666.9,63.3C674.9,46.4 686.4,37.4 701.5,36.4L701.5,99.7C691.5,99.7 684.1,101.1 679.4,103.8C674.7,106.5 671.8,110.3 670.7,115.1C669.6,119.9 669.1,131.1 669.1,148.5L669.1,219.6L614.3,219.6L614.3,39.6L669.1,39.6Z" style="fill:rgb(235,97,28);fill-rule:nonzero;"/>
    </g>
    <g transform="matrix(1,0,0,1,91.35,31.85)">
        <path d="M867.4,97.1L818.9,97.1L818.9,87.3C818.9,79 818.4,73.7 817.5,71.5C816.6,69.3 814.2,68.2 810.4,68.2C806.6,68.2 805,69.2 803.5,71.3C802,73.3 801.2,76.4 801.2,80.5C801.2,84.6 801.6,90.1 802.4,92.6C803.2,95.2 805.5,98 809.3,101.1C813.1,104.2 821,108.6 833,114.5C848.9,122.3 859.4,129.6 864.3,136.5C869.3,143.4 871.8,153.4 871.8,166.5C871.8,179.6 869.9,192.2 866.1,199.7C862.3,207.2 856,212.9 847,216.9C838.1,220.9 827.4,222.9 814.8,222.9C802.2,222.9 789,220.7 779.1,216.4C769.2,212.1 762.4,206.2 758.7,198.8C755,191.4 753.1,180.2 753.1,165.2L753.1,156.5L801.6,156.5L801.6,167.9C801.6,177.6 802.2,183.9 803.4,186.7C804.6,189.6 807,191 810.7,191C814.4,191 817.3,190 818.8,188.1C820.3,186.2 821.1,182.1 821.1,175.8C821.1,169.5 820.1,161.8 818.1,159.7C816,157.5 805.4,151.1 786.2,140.4C770.1,131.4 760.3,123.2 756.8,115.8C753.3,108.4 751.5,99.7 751.5,89.6C751.5,75.2 753.4,64.6 757.2,57.8C761,51 767.4,45.7 776.5,42C785.6,38.3 796.1,36.4 808.2,36.4C820.3,36.4 830.3,37.9 838.6,40.9C847,43.9 853.4,47.9 857.9,52.9C862.4,57.9 865.1,62.5 866,66.7C866.9,71 867.4,77.6 867.4,86.6L867.4,97.1Z" style="fill:rgb(235,97,28);fill-rule:nonzero;"/>
    </g>
    <g transform="matrix(1,0,0,1,91.35,31.85)">
        <path d="M938.3,39.6L937.4,55.5C942.3,49.1 947.7,44.3 953.5,41.1C959.4,37.9 965.8,36.3 972.8,36.3C979.8,36.3 988.6,38.6 994.8,43.1C1001,47.7 1004.9,52.9 1006.4,58.9C1007.9,64.9 1008.7,75 1008.7,89.3L1008.7,165.1C1008.7,181.5 1007.7,193.1 1005.8,200C1003.9,206.9 999.9,212.4 993.9,216.5C987.9,220.6 980.6,222.7 972.1,222.7C963.6,222.7 959,221.1 953.3,217.9C947.5,214.7 942.2,210 937.4,203.8L937.4,245.1L882.6,245.1L882.6,39.6L938.3,39.6ZM953.9,91.9C953.9,80.8 953.5,74 952.7,71.7C951.9,69.4 949.6,68.2 945.9,68.2C942.2,68.2 940,69.6 938.9,72.3C937.9,75 937.3,81.6 937.3,92L937.3,166.6C937.3,177.4 937.8,184.2 938.9,186.9C940,189.6 942.3,191 946,191C949.7,191 951.7,189.8 952.6,187.3C953.5,184.8 953.9,178.8 953.9,169.2L953.9,91.9Z" style="fill:rgb(235,97,28);fill-rule:nonzero;"/>
    </g>
    <g transform="matrix(1,0,0,1,91.35,31.85)">
        <path d="M1072.1,109.3L1020.7,109.3L1020.7,97.2C1020.7,83.3 1022.3,72.5 1025.5,65C1028.7,57.5 1035.1,50.8 1044.8,45C1054.5,39.2 1067,36.3 1082.5,36.3C1098,36.3 1115,39.6 1124.4,46.1C1133.8,52.7 1139.5,60.7 1141.4,70.2C1143.3,79.7 1144.2,99.4 1144.2,129.1L1144.2,219.4L1090.9,219.4L1090.9,203.4C1087.6,209.8 1083.2,214.7 1077.9,217.9C1072.6,221.1 1066.3,222.7 1059,222.7C1051.7,222.7 1040.6,220 1032.6,214.6C1024.6,209.2 1020.6,197.4 1020.6,179.3L1020.6,164.5C1020.6,151 1022.7,141.9 1027,137C1031.2,132.1 1041.8,126.4 1058.6,119.9C1076.6,112.8 1086.2,108.1 1087.5,105.7C1088.8,103.3 1089.4,98.3 1089.4,90.8C1089.4,83.3 1088.7,75.3 1087.3,72.4C1085.9,69.6 1083.6,68.1 1080.3,68.1C1077,68.1 1074.3,69.3 1073.4,71.7C1072.5,74.1 1072,80.3 1072,90.3L1072,109.1L1072.1,109.3ZM1089.5,134C1080.7,140.4 1075.6,145.8 1074.2,150.1C1072.8,154.4 1072.1,160.7 1072.1,168.8C1072.1,176.9 1072.7,184.1 1073.9,186.8C1075.1,189.5 1077.5,190.9 1081.2,190.9C1084.9,190.9 1086.9,189.8 1087.9,187.7C1088.9,185.6 1089.5,180 1089.5,171L1089.5,134Z" style="fill:rgb(235,97,28);fill-rule:nonzero;"/>
    </g>
    <g transform="matrix(1,0,0,1,91.35,31.85)">
        <path d="M1280.6,107.5L1228.9,107.5L1228.9,86.8C1228.9,79.6 1228.3,74.7 1227.1,72.1C1225.9,69.5 1223.8,68.2 1220.6,68.2C1217.4,68.2 1215.3,69.3 1214.2,71.6C1213.1,73.9 1212.6,78.9 1212.6,86.8L1212.6,171.7C1212.6,178.1 1213.4,182.9 1215,186.1C1216.6,189.3 1219,190.9 1222.2,190.9C1225.4,190.9 1228.4,189.2 1229.7,185.9C1231,182.6 1231.7,176.2 1231.7,166.9L1231.7,145.5L1280.5,145.5C1280.5,159.9 1279.9,170.7 1278.9,177.8C1278,185 1274.9,192.4 1269.8,199.9C1264.7,207.4 1258,213.1 1249.8,217C1241.6,220.8 1231.4,222.8 1219.3,222.8C1207.2,222.8 1191.6,220.2 1182.6,214.9C1173.6,209.6 1167.2,202.2 1163.4,192.7C1159.6,183.2 1157.8,169.6 1157.8,152.1L1157.8,101C1157.8,85.7 1159.3,74.2 1162.4,66.4C1165.5,58.6 1172,51.7 1182.1,45.6C1192.1,39.5 1204.3,36.4 1218.7,36.4C1233.1,36.4 1245.2,39.4 1255.3,45.5C1265.4,51.6 1272.2,59.2 1275.5,68.4C1278.8,77.6 1280.5,90.7 1280.5,107.6L1280.6,107.5Z" style="fill:rgb(235,97,28);fill-rule:nonzero;"/>
    </g>
    <g transform="matrix(1,0,0,1,91.35,31.85)">
        <path d="M1417.3,132.8L1346.4,132.8L1346.4,171.7C1346.4,179.8 1347,185.1 1348.2,187.4C1349.4,189.8 1351.6,190.9 1355,190.9C1358.4,190.9 1361.9,189.3 1363.3,186.2C1364.7,183.1 1365.4,177 1365.4,168.1L1365.4,144.4L1417.3,144.4L1417.3,157.7C1417.3,168.8 1416.6,177.4 1415.2,183.3C1413.8,189.3 1410.5,195.6 1405.4,202.4C1400.2,209.2 1393.7,214.3 1385.8,217.7C1377.9,221.1 1368,222.8 1356,222.8C1344,222.8 1334.2,221.1 1325.4,217.8C1316.5,214.5 1309.6,209.9 1304.7,204C1299.8,198.2 1296.4,191.8 1294.5,184.7C1292.6,177.7 1291.7,167.5 1291.7,154.1L1291.7,101.6C1291.7,85.9 1293.8,73.5 1298.1,64.4C1302.3,55.3 1309.3,48.4 1319,43.5C1328.7,38.7 1339.8,36.2 1352.4,36.2C1365,36.2 1380.4,39.1 1390.4,44.9C1400.4,50.7 1407.4,58.5 1411.4,68.1C1415.4,77.7 1417.4,91.3 1417.4,108.7L1417.4,132.6L1417.3,132.8ZM1362.4,103.5L1362.4,90.3C1362.4,81 1361.9,75 1360.9,72.3C1359.9,69.6 1357.9,68.2 1354.8,68.2C1351.7,68.2 1348.7,69.4 1347.7,71.7C1346.8,74 1346.3,80.2 1346.3,90.3L1346.3,103.5L1362.4,103.5Z" style="fill:rgb(235,97,28);fill-rule:nonzero;"/>
    </g>
    <g transform="matrix(1,0,0,1,91.35,31.85)">
        <rect x="700" y="242.5" width="40.5" height="43.8" style="fill:rgb(235,97,28);"/>
    </g>
</svg>
