<?xml version="1.0" encoding="UTF-8"?>
<svg id="Ebene_1" xmlns="http://www.w3.org/2000/svg" version="1.1" viewBox="0 0 1417.3 286.3">
  <!-- Generator: Adobe Illustrator 29.8.1, SVG Export Plug-In . SVG Version: 2.1.1 Build 2)  -->
  <defs>
    <style>
      .st0 {
        fill: #eb611c;
      }
    </style>
  </defs>
  <path class="st0" d="M54.1,39.6l-.9,17.1c4.2-6.8,9.3-11.9,15.2-15.3,5.9-3.4,12.6-5.1,20.1-5.1,14.6,0,26.2,6.8,34.6,20.4,4.6-6.8,9.8-11.9,15.6-15.3,5.8-3.4,12.2-5.1,19.3-5.1s17,2.3,23.1,6.8c6.1,4.5,10,10.1,11.7,16.6,1.7,6.6,2.6,17.2,2.6,31.9v127.9h-53.2v-117.3c0-15.4-.5-24.9-1.6-28.5-1-3.7-3.5-5.5-7.3-5.5s-6.4,1.8-7.5,5.4c-1.1,3.6-1.7,13.2-1.7,28.6v117.3h-53.2v-114.3c0-17.6-.4-28.2-1.3-31.7-.9-3.5-3.2-5.3-7.1-5.3s-4.5.9-6.2,2.8c-1.7,1.9-2.7,4.1-2.8,6.8-.2,2.7-.3,8.3-.3,17v124.8H0V39.6h54.1Z"/>
  <path class="st0" d="M259.5,109.3h-51.4v-12.1c0-13.9,1.6-24.7,4.8-32.2,3.2-7.5,9.6-14.2,19.3-20,9.7-5.8,22.2-8.7,37.7-8.7s32.5,3.3,41.9,9.8c9.4,6.6,15.1,14.6,17,24.1,1.9,9.5,2.8,29.2,2.8,58.9v90.3h-53.3v-16c-3.3,6.4-7.7,11.3-13,14.5-5.3,3.2-11.6,4.8-18.9,4.8s-18.4-2.7-26.4-8.1c-8-5.4-12-17.2-12-35.3v-14.8c0-13.5,2.1-22.6,6.4-27.5,4.2-4.9,14.8-10.6,31.6-17.1,18-7.1,27.6-11.8,28.9-14.2,1.3-2.4,1.9-7.4,1.9-14.9s-.7-15.5-2.1-18.4c-1.4-2.8-3.7-4.3-7-4.3s-6,1.2-6.9,3.6c-.9,2.4-1.4,8.6-1.4,18.6v18.8ZM276.8,134c-8.8,6.4-13.9,11.8-15.3,16.1-1.4,4.3-2.1,10.6-2.1,18.7s.6,15.3,1.8,18c1.2,2.7,3.6,4.1,7.3,4.1s5.7-1.1,6.7-3.2c1-2.1,1.6-7.7,1.6-16.7v-37Z"/>
  <path class="st0" d="M464.8,39.6l-22.2,71.7,28.9,108.3h-52.7l-17.1-78.4v78.4h-54.9V0h54.8v92.2c0,0,17.2-52.6,17.2-52.6h46Z"/>
  <path class="st0" d="M600.1,132.8h-70.9v38.9c0,8.1.6,13.4,1.8,15.7,1.2,2.4,3.4,3.5,6.8,3.5s6.9-1.6,8.3-4.7c1.4-3.1,2.1-9.2,2.1-18.1v-23.7h51.9v13.3c0,11.1-.7,19.7-2.1,25.6-1.4,6-4.7,12.3-9.8,19.1-5.2,6.8-11.7,11.9-19.6,15.3-7.9,3.4-17.8,5.1-29.8,5.1s-21.8-1.7-30.6-5c-8.9-3.3-15.8-7.9-20.7-13.8-4.9-5.8-8.3-12.2-10.2-19.3-1.9-7-2.8-17.2-2.8-30.6v-52.5c0-15.7,2.1-28.1,6.4-37.2,4.2-9.1,11.2-16,20.9-20.9,9.7-4.8,20.8-7.3,33.4-7.3s28,2.9,38,8.7c10,5.8,17,13.6,21,23.2,4,9.6,6,23.2,6,40.6v23.9ZM545.2,103.5v-13.2c0-9.3-.5-15.3-1.5-18-1-2.7-3-4.1-6.1-4.1s-6.1,1.2-7.1,3.5c-.9,2.3-1.4,8.5-1.4,18.6v13.2h16Z"/>
  <path class="st0" d="M669.1,39.6l-2.2,23.7c8-16.9,19.5-25.9,34.6-26.9v63.3c-10,0-17.4,1.4-22.1,4.1-4.7,2.7-7.6,6.5-8.7,11.3-1.1,4.8-1.6,16-1.6,33.4v71.1h-54.8V39.6h54.8Z"/>
  <path class="st0" d="M867.4,97.1h-48.5v-9.8c0-8.3-.5-13.6-1.4-15.8-.9-2.2-3.3-3.3-7.1-3.3s-5.4,1-6.9,3.1c-1.5,2-2.3,5.1-2.3,9.2s.4,9.6,1.2,12.1c.8,2.6,3.1,5.4,6.9,8.5,3.8,3.1,11.7,7.5,23.7,13.4,15.9,7.8,26.4,15.1,31.3,22,5,6.9,7.5,16.9,7.5,30s-1.9,25.7-5.7,33.2c-3.8,7.5-10.1,13.2-19.1,17.2-8.9,4-19.6,6-32.2,6s-25.8-2.2-35.7-6.5c-9.9-4.3-16.7-10.2-20.4-17.6-3.7-7.4-5.6-18.6-5.6-33.6v-8.7h48.5v11.4c0,9.7.6,16,1.8,18.8,1.2,2.9,3.6,4.3,7.3,4.3s6.6-1,8.1-2.9c1.5-1.9,2.3-6,2.3-12.3s-1-14-3-16.1c-2.1-2.2-12.7-8.6-31.9-19.3-16.1-9-25.9-17.2-29.4-24.6-3.5-7.4-5.3-16.1-5.3-26.2,0-14.4,1.9-25,5.7-31.8,3.8-6.8,10.2-12.1,19.3-15.8,9.1-3.7,19.6-5.6,31.7-5.6s22.1,1.5,30.4,4.5c8.4,3,14.8,7,19.3,12,4.5,5,7.2,9.6,8.1,13.8.9,4.3,1.4,10.9,1.4,19.9v10.4Z"/>
  <path class="st0" d="M938.3,39.6l-.9,15.9c4.9-6.4,10.3-11.2,16.1-14.4,5.9-3.2,12.3-4.8,19.3-4.8s15.8,2.3,22,6.8c6.2,4.6,10.1,9.8,11.6,15.8,1.5,6,2.3,16.1,2.3,30.4v75.8c0,16.4-1,28-2.9,34.9-1.9,6.9-5.9,12.4-11.9,16.5-6,4.1-13.3,6.2-21.8,6.2s-13.1-1.6-18.8-4.8c-5.8-3.2-11.1-7.9-15.9-14.1v41.3h-54.8V39.6h55.7ZM953.9,91.9c0-11.1-.4-17.9-1.2-20.2-.8-2.3-3.1-3.5-6.8-3.5s-5.9,1.4-7,4.1c-1,2.7-1.6,9.3-1.6,19.7v74.6c0,10.8.5,17.6,1.6,20.3,1.1,2.7,3.4,4.1,7.1,4.1s5.7-1.2,6.6-3.7c.9-2.5,1.3-8.5,1.3-18.1v-77.2Z"/>
  <path class="st0" d="M1072.1,109.3h-51.4v-12.1c0-13.9,1.6-24.7,4.8-32.2,3.2-7.5,9.6-14.2,19.3-20,9.7-5.8,22.2-8.7,37.7-8.7s32.5,3.3,41.9,9.8c9.4,6.6,15.1,14.6,17,24.1,1.9,9.5,2.8,29.2,2.8,58.9v90.3h-53.3v-16c-3.3,6.4-7.7,11.3-13,14.5-5.3,3.2-11.6,4.8-18.9,4.8s-18.4-2.7-26.4-8.1c-8-5.4-12-17.2-12-35.3v-14.8c0-13.5,2.1-22.6,6.4-27.5,4.2-4.9,14.8-10.6,31.6-17.1,18-7.1,27.6-11.8,28.9-14.2,1.3-2.4,1.9-7.4,1.9-14.9s-.7-15.5-2.1-18.4c-1.4-2.8-3.7-4.3-7-4.3s-6,1.2-6.9,3.6c-.9,2.4-1.4,8.6-1.4,18.6v18.8ZM1089.5,134c-8.8,6.4-13.9,11.8-15.3,16.1-1.4,4.3-2.1,10.6-2.1,18.7s.6,15.3,1.8,18c1.2,2.7,3.6,4.1,7.3,4.1s5.7-1.1,6.7-3.2c1-2.1,1.6-7.7,1.6-16.7v-37Z"/>
  <path class="st0" d="M1280.6,107.5h-51.7v-20.7c0-7.2-.6-12.1-1.8-14.7-1.2-2.6-3.3-3.9-6.5-3.9s-5.3,1.1-6.4,3.4c-1.1,2.3-1.6,7.3-1.6,15.2v84.9c0,6.4.8,11.2,2.4,14.4,1.6,3.2,4,4.8,7.2,4.8s6.2-1.7,7.5-5c1.3-3.3,2-9.7,2-19v-21.4h48.8c0,14.4-.6,25.2-1.6,32.3-.9,7.2-4,14.6-9.1,22.1-5.1,7.5-11.8,13.2-20,17.1-8.2,3.8-18.4,5.8-30.5,5.8s-27.7-2.6-36.7-7.9c-9-5.3-15.4-12.7-19.2-22.2-3.8-9.5-5.6-23.1-5.6-40.6v-51.1c0-15.3,1.5-26.8,4.6-34.6,3.1-7.8,9.6-14.7,19.7-20.8,10-6.1,22.2-9.2,36.6-9.2s26.5,3,36.6,9.1c10.1,6.1,16.9,13.7,20.2,22.9,3.3,9.2,5,22.3,5,39.2Z"/>
  <path class="st0" d="M1417.3,132.8h-70.9v38.9c0,8.1.6,13.4,1.8,15.7,1.2,2.4,3.4,3.5,6.8,3.5s6.9-1.6,8.3-4.7c1.4-3.1,2.1-9.2,2.1-18.1v-23.7h51.9v13.3c0,11.1-.7,19.7-2.1,25.6-1.4,6-4.7,12.3-9.8,19.1-5.2,6.8-11.7,11.9-19.6,15.3-7.9,3.4-17.8,5.1-29.8,5.1s-21.8-1.7-30.6-5c-8.9-3.3-15.8-7.9-20.7-13.8-4.9-5.8-8.3-12.2-10.2-19.3-1.9-7-2.8-17.2-2.8-30.6v-52.5c0-15.7,2.1-28.1,6.4-37.2,4.2-9.1,11.2-16,20.9-20.9,9.7-4.8,20.8-7.3,33.4-7.3s28,2.9,38,8.7c10,5.8,17,13.6,21,23.2,4,9.6,6,23.2,6,40.6v23.9ZM1362.4,103.5v-13.2c0-9.3-.5-15.3-1.5-18-1-2.7-3-4.1-6.1-4.1s-6.1,1.2-7.1,3.5c-.9,2.3-1.4,8.5-1.4,18.6v13.2h16Z"/>
  <rect class="st0" x="700" y="242.5" width="40.5" height="43.8"/>
</svg>