<?xml version="1.0" encoding="UTF-8" standalone="no"?><!DOCTYPE svg PUBLIC "-//W3C//DTD SVG 1.1//EN" "http://www.w3.org/Graphics/SVG/1.1/DTD/svg11.dtd"><svg width="100%" height="100%" viewBox="0 0 3946 605" version="1.1" xmlns="http://www.w3.org/2000/svg" xmlns:xlink="http://www.w3.org/1999/xlink" xml:space="preserve" xmlns:serif="http://www.serif.com/" style="fill-rule:evenodd;clip-rule:evenodd;stroke-miterlimit:10;"><g><g><g opacity="0.2"><ellipse cx="3653.75" cy="308.75" rx="224.167" ry="223.333" style="fill:none;stroke:#164493;stroke-width:8.33px;"/></g><g><path d="M3659.17,320.417c-0,2.083 0.833,2.916 2.916,2.916c2.084,0 2.917,0 4.584,-0.833l0.833,0l0,-6.25l-5,0c-2.083,0.833 -3.333,1.667 -3.333,3.75l-0,0.417Z" style="fill:#164493;fill-rule:nonzero;"/><path d="M3631.25,180.417c0,-0 -0.833,1.25 -0.833,2.083c-0,2.083 0.833,2.917 2.5,2.917c1.666,-0 2.916,-0 4.166,-0.834l0.834,0l-0,-5.416l-4.584,-0c-0.833,-0 -1.666,0.833 -2.083,1.25Z" style="fill:#164493;fill-rule:nonzero;"/><path d="M3728.75,323.333c2.083,0 3.333,-0.833 4.167,-2.083c0.833,-1.25 1.25,-3.333 1.25,-6.25c-0,-2.917 -0,-5 -1.25,-6.25c-0.834,-1.25 -2.084,-2.083 -4.167,-2.083c-2.083,-0 -3.333,0.833 -4.167,2.083c-0.833,1.25 -1.25,3.333 -1.25,6.25c0,2.917 0,5 1.25,6.25c0.834,1.25 2.084,2.083 4.167,2.083Z" style="fill:#164493;fill-rule:nonzero;"/><path d="M3684.17,267.917c4.166,-0 5.833,-0.834 5.833,-2.917c0,-2.083 0,-1.667 -0.833,-2.083l-9.167,-0c-0.833,-0 -1.667,1.666 -1.667,2.916c0,1.25 2.084,2.5 5.834,2.5l-0,-0.416Z" style="fill:#164493;fill-rule:nonzero;"/><path d="M3662.08,439.167c-1.25,-0 -2.5,-0 -3.333,1.25c-0.833,0.833 -1.25,2.083 -1.25,4.166l8.333,0c0,-2.083 0,-3.333 -0.833,-4.166c0,-0.834 -1.667,-1.25 -2.917,-1.25Z" style="fill:#164493;fill-rule:nonzero;"/><path d="M3691.67,439.167c-1.25,-0 -2.5,-0 -3.334,1.25c-0.833,0.833 -1.25,2.083 -1.25,4.166l8.334,0c-0,-2.083 -0,-3.333 -0.834,-4.166c0,-0.834 -1.666,-1.25 -2.916,-1.25Z" style="fill:#164493;fill-rule:nonzero;"/><path d="M3623.33,172.083c0,-1.666 0,-2.916 -1.25,-3.75c-0.833,-0.833 -1.666,-1.25 -3.333,-1.25l-5.417,0l0,10l5.417,0c2.917,0 4.583,-1.666 4.583,-5.416l0,0.416Z" style="fill:#164493;fill-rule:nonzero;"/><path d="M3650.83,387.917c0,2.083 0.834,2.916 2.917,2.916c2.083,0 2.917,0 4.583,-0.833l0.834,0l-0,-6.25l-5,0c-2.084,0.833 -3.334,1.667 -3.334,3.75l0,0.417Z" style="fill:#164493;fill-rule:nonzero;"/><path d="M3572.5,314.583c0,2.917 0,5 0.833,6.25c0.834,1.25 1.667,1.667 3.334,1.667c1.666,0 3.333,0 5,-0.833l0.833,-0l0,-15l-5.417,-0c-2.916,-0 -4.583,2.916 -4.583,8.333l0,-0.417Z" style="fill:#164493;fill-rule:nonzero;"/><path d="M3683.33,246.667c2.917,-0 4.167,-1.25 4.167,-4.167c0,-2.917 -1.25,-4.167 -4.167,-4.167c-2.916,0 -4.166,1.25 -4.166,4.167c-0,2.917 1.25,4.167 4.166,4.167Z" style="fill:#164493;fill-rule:nonzero;"/><path d="M3747.92,374.167c-1.667,-0 -2.917,-0 -3.75,1.25c-0.834,0.833 -1.25,2.5 -1.25,4.583l9.583,-0c0,-2.083 0,-3.75 -1.25,-4.583c-0.833,-0.834 -2.083,-1.25 -3.75,-1.25l0.417,-0Z" style="fill:#164493;fill-rule:nonzero;"/><path d="M3679.58,185c1.667,0 2.917,0 3.334,-1.25c0.416,-1.25 0.833,-2.5 0.833,-5c0,-2.5 0,-3.75 -0.833,-4.583c-0,-0.834 -1.667,-1.25 -3.334,-1.25c-1.666,-0 -2.916,-0 -3.333,1.25c-0.417,1.25 -0.833,2.5 -0.833,4.583c-0,2.083 -0,3.75 0.833,5c0.833,1.25 1.667,1.25 3.333,1.25Z" style="fill:#164493;fill-rule:nonzero;"/><path d="M3653.33,114.583c-107.916,0 -195,87.5 -195,195c0,107.5 87.5,195 195,195c107.5,0 195,-87.5 195,-195c0,-107.5 -87.5,-195 -195,-195Zm91.25,117.917c8.334,0 12.5,4.167 12.5,12.917l0,5.416l-17.083,0c0,1.667 0,2.917 1.25,3.75c1.25,0.834 2.083,1.25 3.75,1.25l10.833,0l0,5.417c-4.166,1.25 -8.333,1.667 -11.666,1.667c-3.334,-0 -7.5,-1.25 -9.167,-3.334c-2.083,-2.083 -2.917,-5.833 -2.917,-10.833c0,-10 4.167,-15 12.5,-15l0,-1.25Zm-5.833,71.25c2.083,2.5 2.917,6.25 2.917,10.833c-0,10 -4.167,15 -12.917,15c-8.75,0 -12.917,-5 -12.917,-15c0,-10 0.834,-8.333 2.917,-10.833c2.083,-2.5 5.417,-3.75 10,-3.75c4.583,0 7.917,1.25 10,3.75Zm-36.25,-82.083l7.5,-0l0,12.5c2.5,-1.25 5,-2.084 7.083,-2.084c3.75,0 6.25,1.25 7.917,3.334c1.25,2.083 2.083,5.833 2.083,10.416l0,15.417l-7.5,0l0,-15c0,-2.5 0,-4.167 -0.833,-5.417c0,-1.25 -1.667,-1.666 -3.333,-1.666c-1.667,-0 -2.917,-0 -4.584,0.833l-0.833,0l0,21.25l-7.5,0l0,-39.583Zm0.417,75.416l-0,-7.5l7.5,0l-0,7.5l-7.5,0Zm7.5,3.75l-0,28.334l-7.5,-0l-0,-28.334l7.5,0Zm-30.417,6.25l0,-6.25l3.333,0l0,-7.916l7.5,-0l0,7.916l7.084,0l-0,6.25l-7.084,0l0,15.417l5.834,0l-0,5.833c-2.5,0 -4.584,0.834 -5.834,0.834c-3.333,-0 -5.833,-0.834 -7.083,-2.084c-1.25,-1.666 -1.667,-4.166 -1.667,-8.333l0,-11.667l-3.333,0l1.25,0Zm14.583,61.25l7.5,0l0,28.334l-7.5,-0l0,-28.334Zm0,-3.333l0,-7.5l7.5,0l0,7.5l-7.5,0Zm-5.833,-193.75l2.083,0l0,-1.25c0,-2.083 0,-3.75 0.834,-4.583c0.833,-0.834 1.666,-1.25 3.333,-1.25l3.333,-0l0,2.083l-2.916,0c-0.834,0 -1.25,0 -1.667,0.833l0,4.167l4.583,0l0,2.083l-4.583,0l0,13.75l-2.5,0l-0,-13.75l-2.083,0l-0,-2.083l-0.417,0Zm-14.167,1.667c0.834,-1.25 2.917,-2.084 5,-2.084c2.084,0 4.167,0.834 5,2.084c0.834,1.25 1.667,3.333 1.667,6.25c0,2.916 0,5 -1.25,6.25c-1.25,1.25 -2.917,2.083 -5.417,2.083c-2.5,0 -4.166,-0.833 -5.416,-2.083c-0.834,-1.25 -1.25,-3.334 -1.25,-6.25c-0,-2.917 -0,-5 1.666,-6.25Zm-1.666,82.5c-0,-0.834 -0,-2.084 1.666,-3.75l0,-0.834c-2.083,-1.666 -3.333,-4.583 -3.333,-8.333c0,-3.75 1.25,-6.25 3.333,-7.917c2.084,-1.666 5,-2.5 8.75,-2.5l15,0l0,5.834l-4.166,-0c0.833,0.833 1.25,2.083 1.25,3.333c-0,3.75 -0.834,6.25 -2.917,7.917c-2.083,1.25 -5,2.083 -9.167,2.083c-4.166,0 -1.666,0 -2.5,0l0,2.5c0,0.833 0,1.25 0.834,1.25l4.583,0c4.583,0 7.917,0.833 9.583,2.083c1.667,1.25 2.5,3.334 2.5,6.667c0,3.333 -1.25,5.417 -3.75,7.083c-2.5,1.667 -5.833,2.5 -10,2.5c-4.166,0 -7.5,0 -9.583,-1.666c-2.083,-1.667 -3.333,-3.334 -3.333,-6.25c-0,-2.917 1.25,-4.584 4.166,-6.667c-1.25,-0.833 -2.083,-2.5 -2.083,-4.167l-0.833,0.834Zm-15,-25.834l-0,-7.5l7.5,0l-0,7.5l-7.5,0Zm7.5,3.334l-0,28.333l-7.5,0l-0,-28.333l7.5,-0Zm-11.25,-61.667l2.083,0l0,-5l2.5,0l0,5l5,0l0,2.083l-5,0l0,11.25c0,0 0.833,0.834 1.667,0.834l2.916,-0l0,1.666l-3.333,0c-1.667,0 -2.917,0 -3.333,-1.25c-0,-0.833 -0.834,-2.5 -0.834,-4.583l0,-8.333l-2.083,-0l0,-2.084l0.417,0.417Zm-9.584,0l2.5,0l0,2.083c1.667,-1.25 3.75,-2.083 5.834,-2.5l-0,2.5c-0.834,0 -1.667,0 -2.917,0.834c-0.833,-0 -1.667,0.833 -2.083,0.833l-0.834,0l0,12.083l-2.5,0l0,-15.833Zm-7.5,2.5c0,0 -1.25,-0.833 -2.083,-0.833l-5.833,-0l-0,-1.667c2.5,0 4.166,-0.833 6.25,-0.833c2.083,-0 2.916,-0 3.75,1.25c0.833,0.833 1.25,2.083 1.25,3.75l-0,7.916c-0,0.834 0.833,1.25 1.666,1.25l0,1.667c-1.666,0 -2.916,0 -3.75,-1.25c-2.083,0.833 -3.75,1.25 -5.833,1.25c-2.083,0 -2.5,0 -3.333,-1.25c-0.834,-0.833 -1.25,-2.083 -1.25,-3.333c-0,-1.25 -0,-2.5 1.25,-3.334c0.833,-0.833 2.083,-1.25 3.75,-1.25l5,0l-0,-1.666c-0,-1.25 -0,-1.667 -0.834,-2.084l0,0.417Zm5.417,65l0,-15.833l7.917,-0l-0,38.333l-7.917,0l0,-15.833l-14.167,-0l0,15.833l-7.916,0l-0,-38.333l7.916,-0l0,15.833l14.167,0Zm-31.25,-73.75l7.917,0c2.5,0 4.166,0 5.416,1.667c1.25,1.666 1.667,2.916 1.667,5.416c0,5 -2.5,7.5 -7.083,7.5l-5.417,0l0,7.5l-2.5,0l0,-22.083Zm-36.667,57.917l28.334,-0l-0,7.083l-10,0l-0,31.667l-7.917,-0l0,-31.667l-10.417,0l0,-7.083Zm20.834,142.083l-0,-7.5l7.5,0l-0,7.5l-7.5,0Zm7.5,3.333l-0,28.334l-7.5,-0l-0,-28.334l7.5,0Zm-72.084,-145.416l25,-0l0,6.666l-17.083,0l0,9.167l13.75,0l0,6.667l-13.75,-0l0,9.166l17.083,0l0,6.667l-25,0l0,-38.333Zm25.834,173.75l-7.917,-0l0,-38.334l7.917,0l-0,38.334Zm3.75,-99.167l-17.084,0l0,9.167l13.75,-0l0,6.666l-13.75,0l0,9.167l17.084,0l-0,6.667l-25,-0l-0,-38.334l25,0l-0,6.667Zm1.666,-74.583l7.917,-0l0,38.333l-7.917,0l0,-38.333Zm26.667,173.75l-7.5,-0l0,-15c0,-2.5 0,-4.167 -0.833,-5.417c-0,-1.25 -1.667,-1.667 -3.334,-1.667c-1.666,0 -2.916,0 -4.583,0.834l-0.833,-0l-0,21.25l-7.5,-0l-0,-28.334l7.5,0l-0,1.667c2.5,-1.667 5,-2.083 7.083,-2.083c3.75,-0 6.25,1.25 7.917,3.333c1.666,2.083 2.083,5.833 2.083,10.417l0,15.416l0,-0.416Zm1.25,-67.5l-7.5,-0l0,-1.25c-2.5,1.25 -5,1.666 -6.667,1.666c-4.166,0 -7.083,-1.25 -8.75,-3.75c-1.666,-2.5 -2.5,-6.25 -2.5,-11.25c0,-5 0.834,-8.75 2.917,-11.25c2.083,-2.5 5,-3.333 8.75,-3.333l6.25,0l0,-11.25l7.5,0l0,40.417Zm15,117.083l-10.417,0c0,1.667 0,2.917 0.834,3.75c0.833,0.833 1.666,1.25 3.333,1.25l5.417,0l-0,1.667l-6.25,-0c-1.667,-0 -3.75,-0.834 -5,-2.084c-0.834,-1.25 -1.25,-3.333 -1.25,-6.25c-0,-5.416 2.083,-8.333 6.666,-8.333c4.584,0 3.75,0 4.584,1.667c1.25,1.25 1.666,2.916 1.666,5.416l0,2.5l0.417,0l0,0.417Zm-6.25,-120c-1.25,-2.083 -2.083,-5.833 -2.083,-10.833l-0,-14.584l7.5,0l-0,15c-0,2.917 -0,4.584 0.833,5.834c0,0.833 1.667,1.666 3.333,1.666c1.667,0 3.334,0 4.584,-0.833l0.833,0l0,-21.25l7.5,0l0,28.333l-7.5,0l0,-1.666c-2.917,1.666 -5,2.083 -7.083,2.083c-3.75,0 -6.667,-1.25 -7.917,-3.333l0,-0.417Zm12.083,127.083l-2.5,0l0,-15.833l2.5,0l0,15.833Zm0,-19.166l-2.5,-0l0,-2.917l2.5,0l0,2.917Zm0.417,-47.5l0,-11.667l-3.333,0l-0,-6.25l3.333,0l0,-7.917l7.5,0l0,7.917l7.083,0l0,6.25l-7.083,0l0,15.417c0,0.416 0.833,-0 1.667,-0l4.166,-0l0,5.833c-2.5,0 -4.583,0.833 -5.833,0.833c-3.333,0 -5.833,-0.833 -7.083,-2.083c-1.25,-1.25 -1.667,-4.167 -1.667,-8.333l1.25,-0Zm9.583,67.083c-1.666,0 -2.916,0 -3.333,-1.25c-0.417,-1.25 -0.833,-2.5 -0.833,-4.583l-0,-8.334l-2.084,0l0,-2.083l2.084,0l-0,-5l2.5,0l-0,5l5,0l-0,2.083l-5,0l-0,11.25c-0,0.834 0.833,0.834 1.666,0.834l2.917,-0l0,1.666l-3.333,0l0.416,0.417Zm14.167,-7.917l-9.583,0l-0,-2.083l9.583,0l0,2.083Zm2.917,-49.166l-7.5,-0l-0,-28.334l7.5,0l-0,28.334Zm-0,-31.667l-7.5,0l-0,-7.5l7.5,0l-0,7.5Zm-8.334,-38.75c-1.666,-2.5 -2.916,-6.25 -2.916,-11.25c-0,-5 0.833,-8.75 2.916,-11.25c2.084,-2.5 5,-3.333 9.167,-3.333c4.167,-0 4.583,-0 7.5,0.833l1.667,0l-0,6.25l-6.667,0c-2.5,0 -4.167,0 -5,1.667c-0.833,1.666 -1.25,3.333 -1.25,6.25c0,2.916 0,5 1.25,6.25c1.25,1.25 2.5,1.666 5.417,1.666l6.666,0l0,5.417c-4.166,0.833 -7.083,1.25 -9.166,1.25c-4.167,0 -7.084,-1.25 -9.167,-3.333l-0.417,-0.417Zm22.917,127.083l-2.917,0l0,-8.333c0,-2.083 0,-3.75 -0.833,-4.583c0,-0.834 -1.25,-1.25 -2.917,-1.25c-1.666,-0 -2.5,-0 -3.75,0.833l0,13.333l-2.5,0l0,-22.5l2.5,0l0,7.917c1.667,-0.833 3.334,-1.25 5,-1.25c1.667,0 3.334,0 4.167,1.667c0.833,1.666 1.25,3.333 1.25,5.833l0,8.333Zm15.833,-7.083l-10.416,0c-0,1.667 -0,2.917 0.833,3.75c0.833,0.833 1.667,1.25 3.333,1.25l5.417,0l0,1.667l-6.25,-0c-1.667,-0 -3.75,-0.834 -5,-2.084c-1.25,-1.25 -1.25,-3.333 -1.25,-6.25c0,-5.416 2.083,-8.333 6.667,-8.333c4.583,0 3.75,0 4.583,1.667c1.25,1.25 1.667,2.916 1.667,5.416l-0,2.5l0.416,0l0,0.417Zm0,-48.75l-4.583,0c-1.25,0 -2.5,-0.833 -3.333,-1.667c-2.5,1.25 -5.417,2.084 -8.334,2.084c-5.833,-0 -8.75,-2.917 -8.75,-9.167c0,-6.25 0.834,-5 2.5,-6.25c1.667,-1.25 4.167,-2.083 7.5,-2.083l5.834,-0l-0,-2.084c-0,-1.25 -0,-2.083 -0.834,-2.5c0,0 -1.25,-0.833 -2.5,-0.833l-10.416,0l-0,-5c4.166,-1.25 7.916,-1.667 11.666,-1.667c3.75,0 6.25,0.834 7.917,2.084c1.667,1.25 2.5,3.75 2.5,7.083l-0,13.75c-0,0 0.833,0 1.25,0.833l-0,5.834l-0.833,-0l0.416,-0.417Zm-7.916,-67.917c-5.834,0 -8.75,-2.916 -8.75,-9.166c-0,-6.25 0.833,-5 2.5,-6.25c1.666,-1.25 4.166,-2.084 7.5,-2.084l5.833,0l0,-2.083c0,-1.25 0,-2.083 -0.833,-2.5c-0,0 -1.25,-0.833 -2.5,-0.833l-10.417,-0l-0,-5c4.167,-1.25 7.917,-1.667 11.667,-1.667c3.75,0 6.25,0.833 7.916,2.083c1.667,1.667 2.5,3.75 2.5,7.084l0,13.75c0,-0 0.834,-0 1.25,0.833l0,5.833l-5,0c-1.25,0 -2.5,-0.833 -3.333,-1.666c-2.5,1.25 -5.417,2.083 -8.333,2.083l-0,-0.417Zm14.166,123.75l-2.5,0l0,-15.833l2.5,0l0,15.833Zm0,-19.166l-2.5,-0l0,-2.917l2.5,0l0,2.917Zm7.084,19.166l-2.5,0l-0,-3.75l2.5,0l-0,3.75Zm-4.584,-58.333c-1.25,-1.667 -1.666,-4.167 -1.666,-8.333l-0,-11.667l-3.334,0l0,-6.25l3.334,0l-0,-7.917l7.5,0l-0,7.917l7.083,0l0,6.25l-7.083,0l-0,15.417l5.833,-0l0,5.833c-2.5,0 -4.583,0.833 -5.833,0.833c-3.334,0 -5.834,-0.833 -7.084,-2.083l1.25,0Zm20.834,51.25l-10.417,0c0,1.667 0,2.917 0.833,3.75c0.834,0.833 1.667,1.25 3.334,1.25l5.416,0l0,1.667l-6.25,-0c-1.666,-0 -3.75,-0.834 -5,-2.084c-1.25,-1.25 -1.25,-3.333 -1.25,-6.25c0,-5.416 2.084,-8.333 6.667,-8.333c4.583,0 3.75,0 4.583,1.667c1.25,1.25 1.667,2.916 1.667,5.416l0,2.5l0.417,0l-0,0.417Zm15.833,7.083l-2.5,0l0,-1.25c-1.667,0.834 -2.917,1.25 -4.583,1.25c-1.667,0 -3.75,0 -4.167,-1.666c-0.833,-1.25 -1.25,-3.334 -1.25,-6.25l0,-8.334l2.5,0l0,12.917c0,0.833 1.25,1.25 2.5,1.25l3.75,0l0,-12.917l2.5,0l0,15.834l0.833,-0.834l0.417,0Zm12.083,-56.666l-12.916,-0l-6.667,-28.334l7.917,0l4.583,21.667l1.667,0l4.583,-21.667l7.5,0l-6.667,28.334Zm34.167,-10.834l-17.083,0c-0,1.667 -0,2.917 1.25,3.75c0.833,0.834 2.083,1.25 3.75,1.25l10.833,0l0,5.417c-4.167,1.25 -8.333,1.667 -11.667,1.667c-3.333,-0 -7.5,-1.25 -9.166,-3.334c-2.084,-2.083 -2.917,-5.833 -2.917,-10.833c-0,-10 4.167,-15 12.5,-15c8.333,0 12.5,4.167 12.5,12.917l-0,5.416l-0,-1.25Zm11.667,-56.666l-7.5,-0l-0,-15c-0,-2.5 -0,-4.167 -0.834,-5.417c0,-1.25 -1.666,-1.667 -3.333,-1.667c-1.667,0 -2.917,0 -4.583,0.834l-0.834,-0l0,21.25l-7.5,-0l0,-28.334l7.5,0l0,1.667c2.5,-1.667 5,-2.083 7.084,-2.083c3.75,-0 6.25,1.25 7.916,3.333c1.25,2.083 2.084,5.833 2.084,10.417l-0,15.416l-0,-0.416Zm7.5,-89.167c-2.917,0.833 -5.834,1.25 -7.917,2.083l-1.25,0l0,19.167l-7.5,0l0,-28.333l7.5,-0l0,2.916c3.333,-2.083 6.25,-2.916 9.167,-3.75l-0,7.917Z" style="fill:#164493;fill-rule:nonzero;"/><path d="M3598.75,439.167c-1.25,-0 -2.5,-0 -3.333,1.25c-0.834,0.833 -1.25,2.083 -1.25,4.166l8.333,0c0,-2.083 0,-3.333 -0.833,-4.166c-0.834,-0.834 -1.667,-1.25 -2.917,-1.25Z" style="fill:#164493;fill-rule:nonzero;"/><path d="M3748.75,240c-0.833,-0.833 -2.083,-1.25 -3.75,-1.25c-1.667,0 -2.917,0 -3.75,1.25c-0.833,1.25 -1.25,2.5 -1.25,4.583l9.583,0c0,-2.083 0,-3.75 -1.25,-4.583l0.417,0Z" style="fill:#164493;fill-rule:nonzero;"/></g></g><rect x="3183.75" y="104.583" width="3.75" height="407.917" style="fill:#034ea2;"/><g><rect x="2105.83" y="209.583" width="292.5" height="198.75" style="fill:#fff;"/><rect x="2111.67" y="215" width="281.25" height="187.5" style="fill:#039;"/><path d="M2246.25,255.833l5.833,-4.583l6.25,4.583l-2.5,-7.083l6.25,-4.583l-7.5,-0l-2.5,-7.084l-2.083,7.084l-7.5,-0l5.833,4.583l-2.083,7.083" style="fill:#fc0;fill-rule:nonzero;"/><path d="M2215.42,264.167l6.25,-4.584l5.833,4.584l-2.5,-7.084l6.25,-4.583l-7.5,0l-2.083,-7.083l-2.5,7.083l-7.5,0l6.25,4.583l-2.5,7.084" style="fill:#fc0;fill-rule:nonzero;"/><path d="M2199.17,267.917l-2.5,7.083l-7.5,-0l6.25,4.583l-2.5,7.084l6.25,-4.584l5.833,4.584l-2.5,-7.084l6.25,-4.583l-7.5,-0l-2.083,-7.083" style="fill:#fc0;fill-rule:nonzero;"/><path d="M2190.83,312.917l5.834,4.166l-2.084,-7.083l5.834,-4.167l-7.5,0l-2.084,-7.083l-2.5,7.083l-7.5,0l6.25,4.167l-2.083,7.083l5.833,-4.166" style="fill:#fc0;fill-rule:nonzero;"/><path d="M2201.25,336.667l-2.083,-7.084l-2.5,7.084l-7.5,-0l6.25,4.166l-2.5,7.084l6.25,-4.167l5.833,4.167l-2.5,-7.084l6.25,-4.166l-7.5,-0" style="fill:#fc0;fill-rule:nonzero;"/><path d="M2223.75,359.167l-2.083,-7.084l-2.5,7.084l-7.5,-0l6.25,4.166l-2.5,7.084l6.25,-4.167l5.833,4.167l-2.083,-7.084l5.833,-4.166l-7.5,-0" style="fill:#fc0;fill-rule:nonzero;"/><path d="M2254.58,367.5l-2.5,-7.083l-2.083,7.083l-7.5,0l5.833,4.167l-2.083,7.083l5.833,-4.583l6.25,4.583l-2.5,-7.083l6.25,-4.167l-7.5,0" style="fill:#fc0;fill-rule:nonzero;"/><path d="M2285,359.167l-2.083,-7.084l-2.084,7.084l-7.5,-0l5.834,4.166l-2.084,7.084l5.834,-4.167l5.833,4.167l-2.083,-7.084l5.833,-4.166l-7.5,-0" style="fill:#fc0;fill-rule:nonzero;"/><path d="M2307.92,336.667l-2.5,-7.084l-2.084,7.084l-7.5,-0l5.834,4.166l-2.084,7.084l5.834,-4.167l5.833,4.167l-2.083,-7.084l5.833,-4.166l-7.083,-0" style="fill:#fc0;fill-rule:nonzero;"/><path d="M2323.33,305.833l-7.5,0l-2.083,-7.083l-2.5,7.083l-7.5,0l6.25,4.167l-2.5,7.083l6.25,-4.166l5.833,4.166l-2.5,-7.083l6.25,-4.167" style="fill:#fc0;fill-rule:nonzero;"/><path d="M2299.58,286.25l5.834,-4.167l5.833,4.167l-2.083,-6.667l5.833,-4.583l-7.083,0l-2.5,-7.083l-2.084,7.083l-7.5,0l5.834,4.583l-2.084,6.667" style="fill:#fc0;fill-rule:nonzero;"/><path d="M2282.92,245.417l-2.084,7.083l-7.5,0l5.834,4.583l-2.084,7.084l5.834,-4.584l5.833,4.584l-2.083,-7.084l6.25,-4.583l-7.5,0l-2.5,-7.083" style="fill:#fc0;fill-rule:nonzero;"/><path d="M2581.04,362.087c0,0.437 0,0.819 -0.054,1.202c-0,0.328 -0.11,0.601 -0.273,0.82c-0.11,0.219 -0.273,0.383 -0.437,0.492c-0.164,0.109 -0.328,0.164 -0.546,0.164l-23.156,-0c-0.547,-0 -1.093,-0.219 -1.639,-0.601c-0.491,-0.383 -0.764,-1.094 -0.764,-2.023l-0,-43.279c-0,-0.984 0.273,-1.64 0.764,-2.022c0.492,-0.382 1.038,-0.601 1.639,-0.601l22.882,-0c0,-0 0.383,-0 0.547,0.164c0.164,0.109 0.273,0.273 0.382,0.492c0.11,0.218 0.164,0.491 0.273,0.819c0.055,0.328 0.109,0.765 0.109,1.258c0,0.437 0,0.819 -0.109,1.202c-0.055,0.327 -0.163,0.601 -0.273,0.819c-0.109,0.219 -0.218,0.383 -0.382,0.492c-0.164,0.109 -0.328,0.164 -0.547,0.164l-18.841,-0l-0,15.192l16.166,-0c-0,-0 0.382,0.054 0.546,0.164c0.163,0.109 0.273,0.273 0.437,0.491c0.109,0.219 0.218,0.492 0.218,0.82c0.055,0.328 0.055,0.765 0.055,1.257c-0,0.491 -0,0.819 -0.055,1.147c0,0.329 -0.109,0.602 -0.218,0.766c-0.11,0.218 -0.274,0.327 -0.437,0.437c-0.164,0.109 -0.328,0.109 -0.546,0.109l-16.166,0l-0,17.377l19.115,0c-0,0 0.382,0.055 0.546,0.164c0.164,0.11 0.273,0.274 0.437,0.492c0.163,0.219 0.218,0.492 0.273,0.82c-0,0.328 0.054,0.765 0.054,1.256" style="fill:#039;fill-rule:nonzero;"/><path d="M2435.74,286.855c-0.546,0 -1.092,-0.218 -1.638,-0.601c-0.491,-0.382 -0.765,-1.093 -0.765,-2.022l0,-43.279c0,-0.984 0.274,-1.64 0.765,-2.022c0.492,-0.383 1.037,-0.602 1.638,-0.602l22.883,0c0,0 0.383,0 0.546,0.164c0.164,0.11 0.274,0.274 0.383,0.492c0.109,0.219 0.163,0.492 0.273,0.82c0.054,0.328 0.109,0.765 0.109,1.257c-0,0.437 -0,0.82 -0.109,1.202c-0.055,0.328 -0.164,0.601 -0.273,0.82c-0.109,0.218 -0.219,0.382 -0.383,0.492c-0.163,0.109 -0.327,0.163 -0.546,0.163l-18.841,0l-0,15.192l16.165,0c0,0 0.383,0.055 0.546,0.164c0.164,0.109 0.273,0.273 0.437,0.492c0.11,0.218 0.219,0.492 0.219,0.819c0.055,0.328 0.055,0.765 0.055,1.257c-0,0.492 -0,0.82 -0.055,1.148c-0,0.328 -0.109,0.601 -0.219,0.765c-0.109,0.219 -0.273,0.328 -0.437,0.437c-0.163,0.11 -0.327,0.11 -0.546,0.11l-16.165,-0l0.014,21.294" style="fill:#039;fill-rule:nonzero;"/><path d="M2619.7,363.779c0,-0 0,0.382 -0.109,0.492c-0.11,0.109 -0.219,0.273 -0.491,0.382c-0.219,0.109 -0.492,0.164 -0.875,0.219c-0.382,-0 -0.819,0.054 -1.31,0.054c-0.546,0 -1.038,0 -1.42,-0.054c-0.383,-0 -0.656,-0.11 -0.874,-0.219c-0.218,-0.109 -0.328,-0.218 -0.437,-0.382c-0.055,-0.164 -0.109,-0.328 -0.109,-0.492l-0,-4.481c-1.911,2.131 -3.823,3.661 -5.68,4.645c-1.857,0.983 -3.769,1.475 -5.68,1.475c-2.239,0 -4.096,-0.382 -5.625,-1.147c-1.529,-0.765 -2.785,-1.749 -3.713,-3.06c-0.929,-1.312 -1.639,-2.787 -2.021,-4.481c-0.437,-1.695 -0.601,-3.771 -0.601,-6.23l0,-20.492c0,-0 0,-0.383 0.109,-0.492c0.11,-0.164 0.273,-0.273 0.492,-0.382c0.273,-0.11 0.546,-0.164 0.983,-0.219c0.382,-0 0.874,-0.055 1.474,-0.055c0.601,0 1.093,0 1.475,0.055c0.382,-0 0.71,0.109 0.928,0.219c0.219,0.109 0.383,0.218 0.492,0.382c0.109,0.109 0.163,0.328 0.163,0.492l0,19.617c0,1.968 0.164,3.553 0.438,4.755c0.273,1.202 0.709,2.186 1.31,3.06c0.601,0.82 1.311,1.475 2.24,1.967c0.873,0.437 1.911,0.71 3.112,0.71c1.53,0 3.059,-0.546 4.588,-1.639c1.529,-1.093 3.167,-2.732 4.861,-4.809l-0,-23.552c-0,0 -0,-0.382 0.109,-0.492c0.109,-0.164 0.273,-0.273 0.491,-0.382c0.273,-0.109 0.547,-0.164 0.929,-0.219c0.382,0 0.874,-0.054 1.529,-0.054c0.655,-0 1.092,-0 1.475,0.054c0.382,0 0.709,0.11 0.928,0.219c0.219,0.109 0.382,0.218 0.491,0.382c0.109,0.11 0.164,0.328 0.164,0.492l0,33.717l0.164,-0.055Z" style="fill:#039;fill-rule:nonzero;"/><path d="M2650.89,332.25l-0,1.366c-0,0.382 -0.055,0.656 -0.164,0.875c-0.055,0.218 -0.164,0.382 -0.273,0.491c-0.11,0.11 -0.274,0.164 -0.492,0.164c-0.218,0 -0.437,-0.054 -0.71,-0.164c-0.273,-0.109 -0.6,-0.218 -0.983,-0.328c-0.382,-0.109 -0.764,-0.218 -1.201,-0.327c-0.437,-0.11 -0.929,-0.164 -1.475,-0.164c-0.601,-0 -1.256,0.109 -1.802,0.382c-0.601,0.273 -1.202,0.656 -1.857,1.257c-0.656,0.546 -1.365,1.311 -2.075,2.295c-0.71,0.929 -1.53,2.131 -2.403,3.497l-0,22.187c-0,-0 -0.055,0.382 -0.164,0.491c-0.109,0.164 -0.273,0.274 -0.492,0.383c-0.218,0.109 -0.546,0.164 -0.928,0.218c-0.383,0 -0.929,0.055 -1.529,0.055c-0.601,0 -1.093,0 -1.475,-0.055c-0.382,0 -0.71,-0.109 -0.928,-0.218c-0.219,-0.109 -0.383,-0.219 -0.492,-0.383c-0.109,-0.109 -0.109,-0.327 -0.109,-0.491l-0,-33.717c-0,0 -0,-0.382 0.109,-0.492c0.055,-0.164 0.219,-0.273 0.437,-0.382c0.218,-0.109 0.491,-0.164 0.874,-0.219c0.328,0 0.819,-0.054 1.365,-0.054c0.546,-0 0.983,-0 1.365,0.054c0.383,0 0.656,0.11 0.82,0.219c0.218,0.109 0.327,0.218 0.436,0.382c0.11,0.11 0.11,0.328 0.11,0.492l-0,4.918c0.928,-1.366 1.802,-2.459 2.567,-3.279c0.819,-0.874 1.584,-1.53 2.294,-2.021c0.709,-0.492 1.42,-0.82 2.129,-0.984c0.71,-0.164 1.42,-0.274 2.13,-0.274c0.328,0 0.711,0.001 1.093,0.056c0.382,-0 0.819,0.109 1.31,0.218c0.437,0.109 0.874,0.219 1.202,0.328c0.382,0.109 0.6,0.273 0.764,0.382c0.164,0.11 0.219,0.219 0.273,0.383c0,0.109 0.11,0.273 0.11,0.437c-0,0.164 0.054,0.437 0.054,0.765l0,1.366" style="fill:#039;fill-rule:nonzero;"/><path d="M2688.19,346.567c0,2.732 -0.382,5.301 -1.092,7.596c-0.71,2.295 -1.803,4.317 -3.223,5.956c-1.419,1.695 -3.222,3.006 -5.352,3.935c-2.129,0.929 -4.642,1.42 -7.481,1.42c-2.841,0 -5.134,-0.437 -7.21,-1.256c-2.02,-0.82 -3.768,-2.022 -5.133,-3.607c-1.366,-1.585 -2.403,-3.497 -3.059,-5.738c-0.655,-2.24 -0.983,-4.809 -0.983,-7.65c0,-2.842 0.328,-5.301 1.092,-7.596c0.711,-2.295 1.803,-4.317 3.223,-5.957c1.42,-1.693 3.222,-2.95 5.352,-3.879c2.13,-0.929 4.642,-1.367 7.482,-1.367c2.84,0 5.134,0.438 7.209,1.258c2.075,0.819 3.768,2.021 5.134,3.606c1.365,1.585 2.403,3.497 3.058,5.738c0.71,2.241 1.038,4.809 1.038,7.596m-6.39,0.437c-0,-1.804 -0.164,-3.552 -0.491,-5.191c-0.328,-1.64 -0.875,-3.061 -1.694,-4.263c-0.764,-1.202 -1.856,-2.186 -3.167,-2.896c-1.311,-0.71 -3.004,-1.039 -4.97,-1.039c-1.857,0 -3.386,0.328 -4.697,0.984c-1.31,0.656 -2.403,1.585 -3.277,2.732c-0.874,1.203 -1.474,2.569 -1.911,4.208c-0.437,1.64 -0.601,3.388 -0.601,5.301c0,1.912 0.164,3.606 0.492,5.191c0.327,1.64 0.928,3.06 1.693,4.263c0.819,1.202 1.857,2.186 3.167,2.896c1.311,0.71 3.004,1.038 4.97,1.038c1.802,0 3.386,-0.328 4.697,-0.983c1.31,-0.656 2.403,-1.585 3.276,-2.732c0.875,-1.203 1.475,-2.569 1.858,-4.208c0.382,-1.64 0.6,-3.389 0.6,-5.356" style="fill:#039;fill-rule:nonzero;"/><path d="M2728.33,346.403c0,2.951 -0.327,5.574 -0.928,7.924c-0.655,2.35 -1.584,4.317 -2.785,5.957c-1.256,1.639 -2.731,2.896 -4.588,3.77c-1.802,0.874 -3.877,1.312 -6.226,1.312c-0.983,-0 -1.911,-0.11 -2.73,-0.329c-0.82,-0.218 -1.693,-0.491 -2.458,-0.929c-0.819,-0.437 -1.584,-0.983 -2.403,-1.584c-0.764,-0.656 -1.639,-1.421 -2.512,-2.295l-0,16.886c-0,-0 -0.055,0.382 -0.164,0.546c-0.11,0.164 -0.273,0.273 -0.491,0.382c-0.219,0.11 -0.547,0.164 -0.929,0.219c-0.382,0.055 -0.929,0.055 -1.529,0.055c-0.601,-0 -1.092,-0 -1.475,-0.055c-0.382,0 -0.71,-0.109 -0.928,-0.219c-0.219,-0.109 -0.383,-0.218 -0.491,-0.382c-0.11,-0.164 -0.11,-0.328 -0.11,-0.546l0,-47.106c0,0 0,-0.382 0.11,-0.546c0.054,-0.164 0.218,-0.273 0.436,-0.382c0.219,-0.11 0.492,-0.164 0.874,-0.219c0.328,0 0.765,-0.055 1.256,-0.055c0.492,0 0.928,0 1.311,0.055c0.328,0 0.601,0.109 0.819,0.219c0.218,0.109 0.382,0.218 0.492,0.382c0.109,0.109 0.109,0.328 0.109,0.546l-0,4.536c1.038,-1.038 2.021,-1.967 2.949,-2.732c0.928,-0.765 1.912,-1.421 2.84,-1.913c0.983,-0.492 1.966,-0.874 2.949,-1.147c0.983,-0.273 2.075,-0.383 3.167,-0.383c2.403,0 4.479,0.492 6.227,1.421c1.692,0.929 3.112,2.241 4.205,3.88c1.092,1.639 1.856,3.552 2.348,5.738c0.491,2.185 0.765,4.481 0.765,6.94m-6.39,0.71c-0,-1.749 -0.109,-3.388 -0.383,-5.028c-0.272,-1.639 -0.709,-3.059 -1.365,-4.316c-0.655,-1.257 -1.474,-2.241 -2.566,-3.006c-1.093,-0.765 -2.403,-1.147 -3.987,-1.147c-0.82,-0 -1.584,0.109 -2.349,0.382c-0.764,0.219 -1.583,0.601 -2.348,1.148c-0.819,0.491 -1.638,1.202 -2.512,2.021c-0.874,0.82 -1.803,1.859 -2.786,3.115l0,13.388c1.694,2.077 3.332,3.662 4.806,4.755c1.53,1.092 3.113,1.639 4.807,1.639c1.528,0 2.894,-0.383 3.986,-1.148c1.092,-0.765 2.021,-1.748 2.676,-3.005c0.71,-1.257 1.202,-2.623 1.529,-4.208c0.328,-1.53 0.492,-3.115 0.492,-4.699" style="fill:#039;fill-rule:nonzero;"/><path d="M2766.39,345.474c0,0.984 -0.218,1.694 -0.71,2.077c-0.491,0.437 -1.038,0.601 -1.693,0.601l-22.064,-0c0,1.858 0.164,3.552 0.546,5.082c0.383,1.476 0.983,2.787 1.857,3.88c0.874,1.093 2.021,1.912 3.386,2.459c1.42,0.601 3.114,0.875 5.134,0.875c1.584,-0 3.004,-0.11 4.26,-0.383c1.256,-0.273 2.348,-0.547 3.222,-0.875c0.928,-0.328 1.639,-0.601 2.239,-0.874c0.601,-0.273 1.038,-0.382 1.311,-0.382c0.164,-0 0.328,-0 0.491,0.109c0.164,0.109 0.219,0.218 0.328,0.382c0.055,0.164 0.109,0.437 0.164,0.711c-0,0.327 0.055,0.711 0.055,1.148l-0,0.819c-0,0.219 -0,0.437 -0.11,0.656c0,0.164 -0.109,0.382 -0.164,0.492c-0.054,0.109 -0.218,0.273 -0.327,0.437c-0.164,0.109 -0.546,0.382 -1.201,0.656c-0.656,0.327 -1.53,0.601 -2.622,0.928c-1.092,0.274 -2.294,0.547 -3.714,0.82c-1.42,0.219 -2.894,0.383 -4.478,0.383c-2.785,0 -5.188,-0.383 -7.264,-1.148c-2.075,-0.765 -3.823,-1.912 -5.243,-3.442c-1.419,-1.531 -2.512,-3.443 -3.222,-5.738c-0.71,-2.296 -1.092,-4.973 -1.092,-8.033c-0,-3.06 0.382,-5.52 1.147,-7.815c0.764,-2.295 1.802,-4.262 3.222,-5.901c1.42,-1.585 3.113,-2.842 5.079,-3.716c1.966,-0.875 4.205,-1.312 6.663,-1.312c2.621,0 4.861,0.437 6.717,1.257c1.857,0.82 3.386,1.967 4.588,3.443c1.202,1.421 2.075,3.114 2.621,5.082c0.546,1.912 0.82,3.989 0.82,6.175l-0,1.147l0.054,0Zm-6.171,-1.857c0.054,-3.225 -0.655,-5.793 -2.13,-7.651c-1.53,-1.858 -3.769,-2.787 -6.718,-2.787c-1.529,0 -2.839,0.273 -3.986,0.874c-1.147,0.601 -2.131,1.366 -2.895,2.295c-0.764,0.929 -1.365,2.077 -1.802,3.334c-0.437,1.257 -0.656,2.568 -0.71,3.935l18.295,-0l-0.054,-0Z" style="fill:#039;fill-rule:nonzero;"/><path d="M2801.35,363.836c0,0.328 -0.109,0.546 -0.273,0.656c-0.218,0.163 -0.491,0.273 -0.819,0.327c-0.328,0.055 -0.874,0.11 -1.529,0.11c-0.656,-0 -1.147,-0 -1.529,-0.11c-0.383,-0.054 -0.656,-0.164 -0.819,-0.327c-0.164,-0.164 -0.274,-0.383 -0.274,-0.656l0,-3.388c-1.474,1.584 -3.113,2.786 -4.915,3.661c-1.802,0.874 -3.713,1.311 -5.734,1.311c-1.748,0 -3.387,-0.218 -4.806,-0.71c-1.42,-0.437 -2.622,-1.147 -3.659,-2.022c-0.983,-0.874 -1.802,-1.967 -2.349,-3.224c-0.546,-1.257 -0.819,-2.733 -0.819,-4.372c0,-1.912 0.382,-3.552 1.147,-4.973c0.764,-1.42 1.857,-2.568 3.331,-3.497c1.421,-0.929 3.223,-1.639 5.298,-2.076c2.075,-0.438 4.423,-0.711 7.045,-0.711l4.642,0l0,-2.623c0,-1.311 -0.109,-2.459 -0.382,-3.442c-0.273,-0.984 -0.71,-1.804 -1.311,-2.514c-0.601,-0.656 -1.42,-1.148 -2.348,-1.476c-0.983,-0.328 -2.13,-0.492 -3.55,-0.492c-1.529,0 -2.895,0.164 -4.096,0.547c-1.202,0.382 -2.239,0.765 -3.168,1.202c-0.928,0.438 -1.693,0.82 -2.293,1.203c-0.601,0.382 -1.093,0.546 -1.366,0.546c-0.218,0 -0.382,0 -0.546,-0.164c-0.164,-0.109 -0.273,-0.273 -0.382,-0.437c-0.11,-0.219 -0.219,-0.437 -0.219,-0.766c0,-0.327 -0.054,-0.655 -0.054,-1.038c-0,-0.601 -0,-1.093 0.109,-1.475c0.109,-0.383 0.273,-0.71 0.656,-1.038c0.327,-0.328 0.928,-0.711 1.747,-1.148c0.819,-0.437 1.747,-0.82 2.84,-1.202c1.038,-0.383 2.239,-0.656 3.495,-0.875c1.256,-0.218 2.567,-0.327 3.823,-0.327c2.403,-0 4.478,0.273 6.172,0.819c1.692,0.547 3.058,1.367 4.095,2.405c1.038,1.038 1.802,2.404 2.294,3.935c0.491,1.584 0.71,3.387 0.71,5.519l-0,22.733l-0.164,0.109Zm-6.116,-15.41l-5.244,-0c-1.692,-0 -3.167,0.163 -4.423,0.437c-1.256,0.273 -2.294,0.71 -3.113,1.256c-0.819,0.547 -1.42,1.257 -1.802,2.022c-0.383,0.766 -0.601,1.695 -0.601,2.733c-0,1.748 0.546,3.169 1.638,4.153c1.093,1.038 2.676,1.584 4.643,1.584c1.638,0 3.113,-0.437 4.478,-1.256c1.365,-0.82 2.84,-2.077 4.314,-3.771l0,-7.158l0.11,-0Z" style="fill:#039;fill-rule:nonzero;"/><path d="M2841.71,363.781c0,-0 0,0.382 -0.164,0.491c-0.109,0.11 -0.273,0.274 -0.491,0.383c-0.218,0.109 -0.546,0.164 -0.929,0.218c-0.382,0 -0.873,0.055 -1.474,0.055c-0.601,0 -1.147,0 -1.529,-0.055c-0.383,0 -0.71,-0.109 -0.929,-0.218c-0.218,-0.109 -0.382,-0.219 -0.491,-0.383c-0.11,-0.164 -0.164,-0.327 -0.164,-0.491l-0,-19.727c-0,-1.913 -0.164,-3.498 -0.437,-4.645c-0.273,-1.202 -0.71,-2.186 -1.311,-3.061c-0.546,-0.874 -1.311,-1.475 -2.239,-1.967c-0.928,-0.437 -1.966,-0.655 -3.167,-0.655c-1.53,-0 -3.059,0.546 -4.643,1.639c-1.529,1.093 -3.167,2.732 -4.86,4.809l-0,23.552c-0,-0 -0,0.382 -0.164,0.492c-0.109,0.109 -0.273,0.273 -0.491,0.382c-0.219,0.11 -0.547,0.164 -0.929,0.219c-0.382,-0 -0.929,0.054 -1.529,0.054c-0.601,0 -1.092,0 -1.475,-0.054c-0.382,-0 -0.71,-0.109 -0.928,-0.219c-0.219,-0.109 -0.383,-0.218 -0.491,-0.382c-0.11,-0.164 -0.11,-0.328 -0.11,-0.492l0,-33.717c0,0 0,-0.382 0.11,-0.491c0.054,-0.164 0.218,-0.273 0.436,-0.383c0.219,-0.109 0.492,-0.164 0.874,-0.218c0.328,-0 0.819,-0.055 1.365,-0.055c0.547,0 0.983,0 1.366,0.055c0.382,-0 0.655,0.109 0.819,0.218c0.218,0.11 0.328,0.219 0.437,0.383c0.109,0.109 0.109,0.328 0.109,0.491l0,4.482c1.912,-2.131 3.768,-3.662 5.625,-4.645c1.857,-0.984 3.768,-1.476 5.68,-1.476c2.239,0 4.096,0.383 5.625,1.148c1.529,0.765 2.785,1.803 3.714,3.06c0.929,1.257 1.638,2.787 2.021,4.481c0.382,1.694 0.6,3.77 0.6,6.175l0,20.601l0.164,-0.054Z" style="fill:#039;fill-rule:nonzero;"/><path d="M2907.57,346.842c0,2.951 -0.44,5.574 -1.315,7.869c-0.87,2.295 -2.075,4.262 -3.658,5.847c-1.584,1.585 -3.546,2.787 -5.787,3.607c-2.292,0.819 -4.862,1.257 -7.812,1.257c-2.676,-0 -5.079,-0.383 -7.265,-1.148c-2.18,-0.765 -4.036,-1.912 -5.62,-3.442c-1.583,-1.531 -2.788,-3.389 -3.607,-5.683c-0.82,-2.296 -1.255,-4.919 -1.255,-7.87l0,-30.109c0,-0 0.056,-0.383 0.162,-0.547c0.111,-0.164 0.273,-0.273 0.49,-0.382c0.224,-0.11 0.547,-0.165 0.987,-0.219c0.38,-0.055 0.926,-0.11 1.584,-0.11c0.596,0 1.093,0 1.528,0.11c0.434,0.054 0.763,0.109 0.981,0.219c0.217,0.109 0.385,0.218 0.49,0.382c0.112,0.164 0.168,0.328 0.168,0.547l-0,29.29c-0,2.24 0.273,4.207 0.819,5.901c0.547,1.694 1.366,3.061 2.348,4.154c1.037,1.092 2.291,1.967 3.713,2.513c1.472,0.546 3.061,0.82 4.918,0.82c1.856,-0 3.49,-0.274 4.967,-0.82c1.472,-0.546 2.677,-1.366 3.658,-2.459c0.987,-1.093 1.801,-2.459 2.297,-4.098c0.547,-1.64 0.82,-3.498 0.82,-5.684l-0,-29.672c-0,-0 -0,-0.383 0.161,-0.547c0.112,-0.163 0.274,-0.273 0.491,-0.382c0.273,-0.109 0.602,-0.164 0.981,-0.219c0.385,-0.055 0.932,-0.109 1.534,-0.109c0.596,-0 1.092,-0 1.527,0.109c0.435,0.055 0.708,0.11 0.982,0.219c0.217,0.109 0.384,0.219 0.49,0.382c0.112,0.164 0.168,0.328 0.168,0.547l-0,29.618l0.055,0.109Z" style="fill:#039;fill-rule:nonzero;"/><path d="M2948.75,363.781c-0,-0 -0,0.382 -0.162,0.491c-0.111,0.11 -0.273,0.274 -0.49,0.383c-0.218,0.109 -0.547,0.164 -0.932,0.218c-0.379,0 -0.875,0.055 -1.472,0.055c-0.602,0 -1.148,0 -1.533,-0.055c-0.379,0 -0.708,-0.109 -0.925,-0.218c-0.218,-0.109 -0.385,-0.219 -0.491,-0.383c-0.112,-0.164 -0.167,-0.327 -0.167,-0.491l-0,-19.727c-0,-1.913 -0.162,-3.498 -0.435,-4.645c-0.273,-1.202 -0.708,-2.186 -1.31,-3.061c-0.547,-0.874 -1.311,-1.475 -2.242,-1.967c-0.925,-0.437 -1.962,-0.655 -3.167,-0.655c-1.527,-0 -3.055,0.546 -4.639,1.639c-1.533,1.093 -3.167,2.732 -4.861,4.809l-0,23.552c-0,-0 -0,0.382 -0.168,0.492c-0.106,0.109 -0.267,0.273 -0.49,0.382c-0.218,0.11 -0.547,0.164 -0.926,0.219c-0.385,-0 -0.931,0.054 -1.528,0.054c-0.602,0 -1.092,0 -1.477,-0.054c-0.379,-0 -0.708,-0.109 -0.926,-0.219c-0.223,-0.109 -0.384,-0.218 -0.496,-0.382c-0.106,-0.164 -0.106,-0.328 -0.106,-0.492l0,-33.717c0,0 0,-0.382 0.106,-0.491c0.056,-0.164 0.223,-0.273 0.441,-0.383c0.217,-0.109 0.49,-0.164 0.869,-0.218c0.329,-0 0.82,-0.055 1.366,-0.055c0.547,0 0.987,0 1.366,0.055c0.385,-0 0.658,0.109 0.82,0.218c0.217,0.11 0.329,0.219 0.44,0.383c0.106,0.109 0.106,0.328 0.106,0.491l0,4.482c1.913,-2.131 3.769,-3.662 5.626,-4.645c1.857,-0.984 3.769,-1.476 5.682,-1.476c2.235,0 4.092,0.383 5.625,1.148c1.528,0.765 2.783,1.803 3.714,3.06c0.925,1.257 1.639,2.787 2.018,4.481c0.435,1.694 0.602,3.77 0.602,6.175l0,20.601l0.162,-0.054Z" style="fill:#039;fill-rule:nonzero;"/><path d="M2967.05,318.648c-0,1.421 -0.273,2.459 -0.82,2.951c-0.546,0.546 -1.583,0.765 -3.005,0.765c-1.422,-0 -2.403,-0.273 -2.949,-0.765c-0.547,-0.492 -0.82,-1.476 -0.82,-2.896c-0,-1.421 0.273,-2.46 0.82,-2.951c0.546,-0.547 1.527,-0.765 3.005,-0.765c1.472,-0 2.403,0.273 2.949,0.765c0.547,0.491 0.82,1.475 0.82,2.896Zm-0.714,45.138c0,-0 0,0.382 -0.162,0.491c-0.111,0.11 -0.273,0.274 -0.49,0.383c-0.218,0.109 -0.547,0.164 -0.931,0.218c-0.379,0 -0.926,0.055 -1.528,0.055c-0.602,0 -1.093,0 -1.472,-0.055c-0.385,0 -0.714,-0.109 -0.931,-0.218c-0.218,-0.109 -0.385,-0.219 -0.491,-0.383c-0.111,-0.164 -0.111,-0.327 -0.111,-0.491l-0,-33.717c-0,0 -0,-0.328 0.111,-0.492c0.106,-0.164 0.273,-0.273 0.491,-0.383c0.217,-0.109 0.546,-0.164 0.931,-0.218c0.379,-0 0.87,-0.055 1.472,-0.055c0.602,0 1.149,0 1.528,0.055c0.384,-0 0.713,0.109 0.931,0.218c0.217,0.11 0.379,0.219 0.49,0.383c0.112,0.164 0.162,0.328 0.162,0.492l0,33.717Z" style="fill:#039;fill-rule:nonzero;"/><path d="M3009.15,346.567c0,2.732 -0.384,5.301 -1.092,7.596c-0.708,2.295 -1.801,4.317 -3.223,5.956c-1.422,1.695 -3.223,3.006 -5.353,3.935c-2.129,0.929 -4.644,1.42 -7.482,1.42c-2.838,0 -5.185,-0.437 -7.209,-1.256c-2.019,-0.82 -3.769,-2.022 -5.135,-3.607c-1.361,-1.585 -2.403,-3.497 -3.056,-5.738c-0.658,-2.24 -0.981,-4.809 -0.981,-7.65c0,-2.842 0.323,-5.301 1.037,-7.596c0.708,-2.295 1.801,-4.317 3.223,-5.957c1.416,-1.693 3.217,-2.95 5.347,-3.879c2.135,-0.929 4.644,-1.367 7.482,-1.367c2.844,0 5.191,0.438 7.209,1.258c2.08,0.819 3.769,2.021 5.135,3.606c1.366,1.585 2.403,3.497 3.061,5.738c0.653,2.241 1.037,4.809 1.037,7.596m-6.389,0.437c-0,-1.804 -0.167,-3.552 -0.491,-5.191c-0.329,-1.64 -0.875,-3.061 -1.695,-4.263c-0.764,-1.202 -1.856,-2.186 -3.167,-2.896c-1.31,-0.71 -3.005,-1.039 -4.973,-1.039c-1.857,0 -3.384,0.328 -4.695,0.984c-1.31,0.656 -2.403,1.585 -3.278,2.732c-0.87,1.148 -1.472,2.569 -1.907,4.208c-0.44,1.64 -0.602,3.388 -0.602,5.301c-0,1.912 0.162,3.606 0.491,5.191c0.328,1.64 0.875,3.06 1.694,4.263c0.764,1.202 1.857,2.186 3.167,2.896c1.311,0.71 3,1.038 4.968,1.038c1.801,0 3.385,-0.328 4.695,-0.983c1.316,-0.656 2.403,-1.585 3.278,-2.732c0.876,-1.203 1.478,-2.569 1.857,-4.208c0.385,-1.64 0.602,-3.389 0.602,-5.356" style="fill:#039;fill-rule:nonzero;"/><path d="M3047.27,363.781c-0,-0 -0,0.382 -0.168,0.491c-0.106,0.11 -0.273,0.274 -0.49,0.383c-0.218,0.109 -0.547,0.164 -0.926,0.218c-0.385,0 -0.875,0.055 -1.477,0.055c-0.603,0 -1.149,0 -1.528,-0.055c-0.385,0 -0.708,-0.109 -0.931,-0.218c-0.218,-0.109 -0.379,-0.219 -0.491,-0.383c-0.106,-0.164 -0.162,-0.327 -0.162,-0.491l0,-19.727c0,-1.913 -0.167,-3.498 -0.44,-4.645c-0.273,-1.202 -0.708,-2.186 -1.31,-3.061c-0.547,-0.874 -1.311,-1.475 -2.236,-1.967c-0.931,-0.437 -1.968,-0.655 -3.167,-0.655c-1.533,-0 -3.061,0.546 -4.644,1.639c-1.528,1.093 -3.167,2.732 -4.862,4.809l-0,23.552c-0,-0 -0,0.382 -0.162,0.492c-0.112,0.109 -0.273,0.273 -0.491,0.382c-0.217,0.11 -0.546,0.164 -0.931,0.219c-0.379,-0 -0.925,0.054 -1.528,0.054c-0.602,0 -1.092,0 -1.477,-0.054c-0.379,-0 -0.708,-0.109 -0.926,-0.219c-0.217,-0.109 -0.384,-0.218 -0.49,-0.382c-0.112,-0.164 -0.112,-0.328 -0.112,-0.492l0,-33.717c0,0 0,-0.382 0.112,-0.491c0.056,-0.164 0.217,-0.273 0.435,-0.383c0.217,-0.109 0.49,-0.164 0.875,-0.218c0.329,-0 0.82,-0.055 1.366,-0.055c0.546,0 0.981,0 1.366,0.055c0.379,-0 0.652,0.109 0.82,0.218c0.217,0.11 0.323,0.219 0.435,0.383c0.111,0.109 0.111,0.328 0.111,0.491l0,4.482c1.907,-2.131 3.764,-3.662 5.62,-4.645c1.857,-0.984 3.769,-1.476 5.682,-1.476c2.241,0 4.098,0.383 5.625,1.148c1.528,0.765 2.788,1.803 3.714,3.06c0.931,1.257 1.639,2.787 2.024,4.481c0.379,1.694 0.596,3.77 0.596,6.175l0,20.601l0.168,-0.054Z" style="fill:#039;fill-rule:nonzero;"/><path d="M2495.7,284.443c0,-0 0,0.382 -0.109,0.491c-0.109,0.11 -0.219,0.274 -0.492,0.328c-0.218,0.11 -0.491,0.165 -0.873,0.219c-0.383,0 -0.819,0.055 -1.311,0.055c-0.546,0 -1.038,0 -1.42,-0.055c-0.382,0 -0.655,-0.109 -0.874,-0.219c-0.219,-0.109 -0.328,-0.218 -0.437,-0.328c-0.054,-0.163 -0.109,-0.327 -0.109,-0.491l0,-4.481c-1.912,2.131 -3.823,3.661 -5.68,4.645c-1.857,0.984 -3.768,1.475 -5.68,1.475c-2.239,0 -4.096,-0.382 -5.625,-1.148c-1.529,-0.764 -2.785,-1.748 -3.714,-3.059c-0.928,-1.312 -1.638,-2.788 -2.02,-4.481c-0.383,-1.694 -0.601,-3.771 -0.601,-6.23l-0,-20.492c-0,-0 -0,-0.383 0.109,-0.492c0.109,-0.164 0.273,-0.273 0.492,-0.383c0.273,-0.109 0.546,-0.164 0.983,-0.218c0.382,-0 0.873,-0.055 1.475,-0.055c0.6,0 1.092,0 1.474,0.055c0.382,-0 0.71,0.109 0.929,0.218c0.218,0.11 0.382,0.219 0.491,0.383c0.109,0.109 0.164,0.328 0.164,0.492l-0,19.618c-0,1.967 0.164,3.551 0.437,4.754c0.273,1.202 0.71,2.186 1.31,3.06c0.601,0.819 1.311,1.475 2.239,1.967c0.875,0.438 1.912,0.711 3.114,0.711c1.528,-0 3.058,-0.547 4.587,-1.64c1.529,-1.093 3.168,-2.732 4.86,-4.808l0,-23.553c0,-0 0,-0.383 0.11,-0.492c0.109,-0.164 0.273,-0.273 0.491,-0.382c0.273,-0.11 0.546,-0.164 0.929,-0.219c0.382,0 0.874,-0.055 1.529,-0.055c0.655,0 1.092,0 1.474,0.055c0.383,0 0.711,0.109 0.929,0.219c0.218,0.109 0.382,0.218 0.491,0.382c0.11,0.109 0.164,0.328 0.164,0.492l0,33.716l0.164,-0.054Z" style="fill:#039;fill-rule:nonzero;"/><path d="M2536.11,284.445c-0,-0 -0,0.382 -0.164,0.492c-0.109,0.109 -0.273,0.273 -0.491,0.328c-0.219,0.109 -0.547,0.163 -0.929,0.218c-0.382,0 -0.874,0.055 -1.474,0.055c-0.601,-0 -1.147,-0 -1.53,-0.055c-0.382,0 -0.71,-0.109 -0.928,-0.218c-0.219,-0.11 -0.383,-0.219 -0.492,-0.328c-0.109,-0.164 -0.163,-0.328 -0.163,-0.492l-0,-19.728c-0,-1.912 -0.164,-3.497 -0.437,-4.645c-0.274,-1.202 -0.71,-2.185 -1.311,-3.059c-0.546,-0.821 -1.311,-1.476 -2.239,-1.968c-0.929,-0.437 -1.966,-0.656 -3.168,-0.656c-1.529,0 -3.058,0.547 -4.642,1.64c-1.529,1.093 -3.168,2.732 -4.861,4.808l0,23.553c0,0 0,0.383 -0.163,0.492c-0.109,0.109 -0.273,0.273 -0.492,0.328c-0.219,0.109 -0.546,0.164 -0.928,0.218c-0.383,0 -0.929,0.055 -1.53,0.055c-0.6,0 -1.092,0 -1.474,-0.055c-0.382,0 -0.71,-0.109 -0.929,-0.218c-0.218,-0.109 -0.382,-0.219 -0.491,-0.328c-0.109,-0.164 -0.109,-0.328 -0.109,-0.492l-0,-33.716c-0,-0 -0,-0.383 0.109,-0.493c0.055,-0.163 0.218,-0.273 0.437,-0.382c0.218,-0.109 0.491,-0.164 0.874,-0.219c0.327,0 0.819,-0.054 1.365,-0.054c0.546,-0 0.983,-0 1.365,0.054c0.383,0 0.656,0.11 0.819,0.219c0.219,0.109 0.328,0.219 0.437,0.382c0.11,0.11 0.11,0.329 0.11,0.493l-0,4.48c1.911,-2.131 3.768,-3.661 5.625,-4.645c1.857,-0.983 3.768,-1.475 5.68,-1.475c2.239,0 4.095,0.382 5.625,1.147c1.529,0.766 2.785,1.804 3.714,3.061c0.928,1.257 1.638,2.787 2.02,4.481c0.382,1.694 0.601,3.77 0.601,6.175l-0,20.602l0.164,-0.055Z" style="fill:#039;fill-rule:nonzero;"/><path d="M2576.2,284.447c0,-0 0,0.383 -0.109,0.547c-0.11,0.163 -0.219,0.273 -0.437,0.327c-0.219,0.11 -0.492,0.164 -0.819,0.219c-0.328,-0 -0.765,0.055 -1.257,0.055c-0.491,-0 -0.928,-0 -1.31,-0.055c-0.328,-0 -0.656,-0.109 -0.874,-0.219c-0.219,-0.109 -0.383,-0.218 -0.492,-0.327c-0.109,-0.164 -0.163,-0.329 -0.163,-0.547l-0,-4.481c-1.748,1.913 -3.605,3.442 -5.516,4.481c-1.912,1.093 -3.987,1.639 -6.226,1.639c-2.458,0 -4.533,-0.491 -6.281,-1.421c-1.748,-0.983 -3.168,-2.24 -4.205,-3.879c-1.093,-1.64 -1.857,-3.552 -2.349,-5.793c-0.491,-2.241 -0.764,-4.535 -0.764,-6.995c-0,-2.896 0.328,-5.519 0.928,-7.869c0.601,-2.349 1.53,-4.317 2.731,-5.956c1.202,-1.639 2.73,-2.897 4.533,-3.825c1.802,-0.875 3.877,-1.312 6.226,-1.312c1.966,0 3.768,0.437 5.407,1.312c1.638,0.874 3.222,2.131 4.805,3.825l0,-19.618c0,-0 0,-0.328 0.11,-0.492c0.109,-0.164 0.273,-0.273 0.491,-0.382c0.273,-0.11 0.546,-0.164 0.929,-0.219c0.382,-0.055 0.873,-0.109 1.475,-0.109c0.6,-0 1.146,-0 1.528,0.109c0.383,0.055 0.711,0.164 0.929,0.219c0.218,0.109 0.382,0.218 0.491,0.382c0.11,0.164 0.164,0.328 0.164,0.492l0,49.946l0.055,-0.054Zm-6.172,-23.717c-1.692,-2.076 -3.276,-3.661 -4.805,-4.754c-1.53,-1.093 -3.168,-1.639 -4.861,-1.639c-1.584,-0 -2.895,0.382 -3.987,1.147c-1.092,0.765 -1.966,1.749 -2.676,2.952c-0.655,1.202 -1.201,2.622 -1.474,4.153c-0.328,1.53 -0.492,3.114 -0.492,4.699c0,1.694 0.109,3.388 0.382,4.973c0.273,1.639 0.711,3.06 1.366,4.317c0.655,1.257 1.474,2.295 2.567,3.06c1.092,0.765 2.403,1.148 4.041,1.148c0.819,-0 1.639,-0.11 2.348,-0.328c0.765,-0.219 1.53,-0.601 2.349,-1.148c0.819,-0.547 1.638,-1.202 2.512,-2.022c0.874,-0.819 1.802,-1.858 2.73,-3.114l0,-13.498l0,0.054Z" style="fill:#039;fill-rule:nonzero;"/><path d="M2616.29,266.138c0,0.984 -0.218,1.695 -0.71,2.077c-0.491,0.437 -1.037,0.601 -1.693,0.601l-22.063,0c-0,1.858 0.163,3.552 0.546,5.082c0.382,1.476 0.983,2.787 1.856,3.88c0.875,1.093 2.021,1.913 3.386,2.459c1.42,0.601 3.114,0.874 5.134,0.874c1.584,0 3.004,-0.109 4.26,-0.382c1.256,-0.273 2.348,-0.547 3.222,-0.874c0.929,-0.328 1.639,-0.601 2.239,-0.875c0.601,-0.273 1.038,-0.382 1.311,-0.382c0.164,-0 0.328,-0 0.492,0.109c0.164,0.109 0.218,0.219 0.327,0.383c0.055,0.164 0.109,0.437 0.164,0.71c0,0.328 0.055,0.71 0.055,1.147l-0,0.82c-0,0.219 -0,0.437 -0.11,0.656c0,0.164 -0.109,0.382 -0.163,0.491c-0.109,0.164 -0.218,0.274 -0.328,0.438c-0.164,0.109 -0.546,0.382 -1.201,0.656c-0.656,0.328 -1.53,0.601 -2.622,0.929c-1.092,0.328 -2.294,0.546 -3.714,0.819c-1.419,0.219 -2.894,0.383 -4.478,0.383c-2.73,-0 -5.188,-0.383 -7.263,-1.148c-2.076,-0.765 -3.824,-1.913 -5.244,-3.443c-1.419,-1.529 -2.457,-3.442 -3.222,-5.737c-0.709,-2.295 -1.092,-4.973 -1.092,-8.033c0,-3.061 0.383,-5.519 1.147,-7.815c0.765,-2.295 1.803,-4.262 3.222,-5.902c1.42,-1.639 3.113,-2.841 5.079,-3.716c1.966,-0.874 4.205,-1.311 6.663,-1.311c2.622,0 4.861,0.437 6.718,1.257c1.856,0.82 3.386,1.967 4.587,3.443c1.202,1.42 2.075,3.115 2.622,5.082c0.546,1.967 0.819,3.989 0.819,6.229l-0,1.148l0.054,-0.055Zm-6.171,-1.858c0.055,-3.224 -0.655,-5.792 -2.13,-7.65c-1.529,-1.858 -3.768,-2.787 -6.717,-2.787c-1.529,-0 -2.84,0.273 -3.987,0.874c-1.147,0.601 -2.13,1.366 -2.895,2.296c-0.764,0.929 -1.365,2.076 -1.802,3.333c-0.437,1.256 -0.655,2.568 -0.71,3.934l18.296,0l-0.055,0Z" style="fill:#039;fill-rule:nonzero;"/><path d="M2654.62,284.447c0,-0 0,0.383 -0.109,0.547c-0.109,0.163 -0.218,0.273 -0.436,0.327c-0.219,0.11 -0.492,0.164 -0.82,0.219c-0.327,-0 -0.764,0.055 -1.256,0.055c-0.491,-0 -0.928,-0 -1.311,-0.055c-0.327,-0 -0.655,-0.109 -0.874,-0.219c-0.218,-0.109 -0.382,-0.218 -0.491,-0.327c-0.109,-0.164 -0.164,-0.329 -0.164,-0.547l0,-4.481c-1.748,1.913 -3.604,3.442 -5.516,4.481c-1.911,1.093 -3.987,1.639 -6.226,1.639c-2.458,0 -4.533,-0.491 -6.28,-1.421c-1.748,-0.983 -3.168,-2.24 -4.205,-3.879c-1.093,-1.64 -1.858,-3.552 -2.349,-5.793c-0.491,-2.241 -0.765,-4.535 -0.765,-6.995c0,-2.896 0.328,-5.519 0.929,-7.869c0.601,-2.349 1.529,-4.317 2.731,-5.956c1.201,-1.639 2.73,-2.897 4.532,-3.825c1.803,-0.875 3.878,-1.312 6.227,-1.312c1.966,0 3.768,0.437 5.406,1.312c1.638,0.874 3.222,2.131 4.806,3.825l0,-19.618c0,-0 -0,-0.328 0.109,-0.492c0.109,-0.164 0.273,-0.273 0.492,-0.382c0.273,-0.11 0.546,-0.164 0.928,-0.219c0.383,-0.055 0.874,-0.109 1.475,-0.109c0.6,-0 1.147,-0 1.529,0.109c0.382,0.055 0.71,0.164 0.929,0.219c0.218,0.109 0.382,0.218 0.491,0.382c0.109,0.164 0.164,0.328 0.164,0.492l-0,49.946l0.054,-0.054Zm-6.171,-23.717c-1.693,-2.076 -3.277,-3.661 -4.806,-4.754c-1.529,-1.093 -3.167,-1.639 -4.86,-1.639c-1.584,-0 -2.895,0.382 -3.987,1.147c-1.092,0.765 -1.966,1.749 -2.676,2.952c-0.655,1.202 -1.202,2.622 -1.475,4.153c-0.327,1.53 -0.491,3.114 -0.491,4.699c-0,1.694 0.109,3.388 0.382,4.973c0.273,1.639 0.71,3.06 1.365,4.317c0.656,1.257 1.475,2.295 2.567,3.06c1.092,0.765 2.403,1.148 4.041,1.148c0.82,-0 1.639,-0.11 2.349,-0.328c0.765,-0.219 1.529,-0.601 2.348,-1.148c0.819,-0.547 1.639,-1.202 2.513,-2.022c0.873,-0.819 1.802,-1.858 2.73,-3.114l0,-13.498l0,0.054Z" style="fill:#039;fill-rule:nonzero;"/><path d="M2714.37,267.125c0,2.951 -0.323,5.574 -0.925,7.869c-0.658,2.35 -1.584,4.317 -2.788,5.957c-1.254,1.639 -2.726,2.896 -4.533,3.77c-1.801,0.874 -3.819,1.311 -6.172,1.311c-1.087,0 -2.074,-0.109 -2.949,-0.328c-0.926,-0.218 -1.801,-0.546 -2.671,-1.038c-0.876,-0.491 -1.751,-1.093 -2.626,-1.803c-0.87,-0.71 -1.801,-1.584 -2.727,-2.623l0,4.098c0,0 0,0.383 -0.167,0.547c-0.106,0.164 -0.273,0.273 -0.491,0.382c-0.217,0.11 -0.49,0.164 -0.819,0.219c-0.329,-0 -0.764,0.055 -1.31,0.055c-0.547,-0 -0.926,-0 -1.255,-0.055c-0.329,-0 -0.658,-0.109 -0.875,-0.219c-0.218,-0.109 -0.382,-0.218 -0.437,-0.382c-0.055,-0.164 -0.109,-0.328 -0.109,-0.547l-0,-50.055c-0,-0 -0,-0.383 0.109,-0.547c0.109,-0.164 0.273,-0.273 0.491,-0.382c0.219,-0.109 0.548,-0.164 0.927,-0.219c0.385,0 0.875,-0.054 1.477,-0.054c0.603,-0 1.149,-0 1.528,0.054c0.385,0 0.708,0.11 0.931,0.219c0.218,0.109 0.379,0.218 0.491,0.382c0.106,0.164 0.162,0.328 0.162,0.547l-0,20.219c0.981,-1.038 1.968,-1.858 2.893,-2.569c0.931,-0.71 1.857,-1.256 2.732,-1.694c0.876,-0.437 1.801,-0.765 2.677,-0.983c0.875,-0.219 1.856,-0.273 2.838,-0.273c2.458,-0 4.533,0.491 6.227,1.475c1.746,0.984 3.112,2.295 4.204,3.935c1.093,1.639 1.857,3.551 2.348,5.737c0.496,2.186 0.769,4.536 0.769,6.995m-6.389,0.71c-0,-1.748 -0.112,-3.387 -0.385,-5.027c-0.273,-1.639 -0.708,-3.06 -1.366,-4.317c-0.652,-1.257 -1.528,-2.241 -2.565,-3.006c-1.093,-0.764 -2.403,-1.147 -3.986,-1.147c-0.82,0 -1.584,0.109 -2.353,0.328c-0.764,0.218 -1.584,0.601 -2.348,1.147c-0.819,0.547 -1.639,1.202 -2.509,2.022c-0.875,0.82 -1.806,1.858 -2.732,3.115l0,13.443c1.695,2.077 3.329,3.661 4.862,4.754c1.528,1.093 3.167,1.639 4.806,1.639c1.528,0 2.894,-0.382 3.987,-1.147c1.093,-0.765 2.018,-1.749 2.676,-2.951c0.708,-1.257 1.199,-2.623 1.472,-4.153c0.329,-1.53 0.491,-3.115 0.491,-4.645" style="fill:#039;fill-rule:nonzero;"/><path d="M2738.84,285.372l-4.478,12.405c-0.167,0.383 -0.546,0.711 -1.148,0.929c-0.602,0.219 -1.528,0.328 -2.788,0.328c-0.652,-0 -1.143,-0 -1.583,-0.109c-0.38,-0.055 -0.709,-0.164 -0.926,-0.328c-0.217,-0.164 -0.329,-0.328 -0.385,-0.601c0,-0.274 0,-0.547 0.168,-0.875l4.638,-11.749c0,0 -0.434,-0.273 -0.652,-0.492c-0.217,-0.218 -0.329,-0.437 -0.385,-0.71l-11.959,-32.241c-0.218,-0.547 -0.273,-0.929 -0.273,-1.257c-0,-0.328 0.111,-0.546 0.273,-0.71c0.217,-0.164 0.546,-0.273 0.981,-0.383c0.441,-0.054 1.037,-0.109 1.807,-0.109l1.745,0c0.435,0 0.764,0.109 0.981,0.219c0.273,0.109 0.44,0.218 0.546,0.437c0.112,0.164 0.218,0.437 0.329,0.765l9.557,27.049l0.111,0l9.228,-27.213c0.167,-0.492 0.329,-0.765 0.546,-0.929c0.218,-0.164 0.547,-0.219 0.931,-0.273c0.435,-0.055 1.038,-0.11 1.801,-0.11c0.708,0 1.255,0 1.695,0.11c0.435,0.054 0.764,0.164 0.982,0.382c0.217,0.164 0.329,0.437 0.329,0.71c-0,0.274 -0.056,0.656 -0.223,1.148l-12.01,33.553l0.162,0.054Z" style="fill:#039;fill-rule:nonzero;"/><path d="M2449.43,359.595c0,0.71 0,1.311 -0.161,1.749c-0.112,0.437 -0.273,0.71 -0.441,0.928c-0.217,0.219 -0.49,0.383 -0.87,0.547c-0.384,0.164 -0.875,0.328 -1.366,0.437c-0.49,0.109 -1.037,0.219 -1.639,0.273c-0.546,0.055 -1.148,0.109 -1.695,0.109c-1.745,0 -3.222,-0.218 -4.477,-0.71c-1.254,-0.437 -2.236,-1.147 -3.055,-2.076c-0.82,-0.929 -1.366,-2.131 -1.751,-3.552c-0.379,-1.421 -0.546,-3.115 -0.546,-5.082l-0,-19.727l-4.695,-0c-0.385,-0 -0.658,-0.219 -0.875,-0.601c-0.218,-0.383 -0.329,-1.039 -0.329,-1.968c-0,-0.492 -0,-0.874 0.111,-1.202c0.056,-0.328 0.162,-0.601 0.218,-0.82c0.111,-0.218 0.217,-0.382 0.384,-0.437c0.162,-0.109 0.324,-0.109 0.547,-0.109l4.639,-0l-0,-8.033c-0,-0 -0,-0.328 0.111,-0.492c0.106,-0.164 0.218,-0.273 0.491,-0.383c0.217,-0.109 0.546,-0.218 0.925,-0.273c0.385,0 0.876,-0.054 1.478,-0.054c0.602,-0 1.148,-0 1.527,0.054c0.385,0 0.714,0.109 0.932,0.273c0.217,0.11 0.379,0.219 0.49,0.383c0.106,0.164 0.162,0.328 0.162,0.492l-0,8.033l8.631,-0c-0,-0 0.379,-0 0.491,0.109c0.161,0.109 0.273,0.219 0.384,0.437c0.106,0.219 0.218,0.492 0.218,0.82c-0,0.328 0.055,0.71 0.055,1.202c0,0.874 -0.111,1.53 -0.328,1.968c-0.218,0.382 -0.491,0.601 -0.876,0.601l-8.631,-0l0,18.798c0,2.35 0.329,4.098 1.043,5.246c0.708,1.202 1.907,1.803 3.657,1.803c0.547,-0 1.093,-0.055 1.528,-0.164c0.435,-0.109 0.82,-0.219 1.204,-0.383c0.324,-0.109 0.653,-0.218 0.87,-0.382c0.273,-0.109 0.491,-0.164 0.658,-0.164c0.106,-0 0.218,-0 0.329,0.109c0.106,0.055 0.218,0.164 0.273,0.383c0.05,0.164 0.106,0.437 0.162,0.71c-0,0.274 0.056,0.656 0.056,1.148" style="fill:#039;fill-rule:nonzero;"/><path d="M2486.62,362.059c0,-0 0,0.382 -0.161,0.492c-0.112,0.109 -0.274,0.273 -0.491,0.328c-0.217,0.109 -0.546,0.163 -0.931,0.218c-0.379,0 -0.87,0.055 -1.472,0.055c-0.602,-0 -1.149,-0 -1.528,-0.055c-0.384,0 -0.713,-0.109 -0.931,-0.218c-0.217,-0.11 -0.379,-0.219 -0.49,-0.328c-0.112,-0.164 -0.162,-0.328 -0.162,-0.492l-0,-19.728c-0,-1.912 -0.167,-3.496 -0.441,-4.645c-0.273,-1.202 -0.708,-2.185 -1.31,-3.059c-0.546,-0.82 -1.31,-1.476 -2.236,-1.968c-0.931,-0.437 -1.968,-0.656 -3.172,-0.656c-1.528,0 -3.056,0.547 -4.639,1.64c-1.528,1.093 -3.167,2.732 -4.862,4.809l0,23.552c0,0 0,0.383 -0.162,0.492c-0.111,0.109 -0.273,0.273 -0.49,0.328c-0.223,0.109 -0.547,0.164 -0.931,0.218c-0.385,0 -0.926,0.055 -1.528,0.055c-0.602,0 -1.093,0 -1.478,-0.055c-0.379,0 -0.708,-0.109 -0.925,-0.218c-0.218,-0.109 -0.385,-0.219 -0.491,-0.328c-0.111,-0.164 -0.111,-0.328 -0.111,-0.492l-0,-50.055c-0,-0 -0,-0.383 0.111,-0.547c0.106,-0.164 0.273,-0.273 0.491,-0.382c0.217,-0.11 0.546,-0.164 0.925,-0.219c0.385,0 0.876,-0.054 1.478,-0.054c0.602,-0 1.143,-0 1.528,0.054c0.384,0 0.708,0.109 0.931,0.219c0.217,0.109 0.379,0.218 0.49,0.382c0.106,0.164 0.162,0.328 0.162,0.547l0,20.218c1.751,-1.858 3.552,-3.278 5.353,-4.152c1.8,-0.93 3.601,-1.367 5.408,-1.367c2.236,0 4.092,0.382 5.626,1.148c1.527,0.765 2.782,1.803 3.713,3.06c0.925,1.257 1.639,2.787 2.018,4.481c0.385,1.694 0.602,3.771 0.602,6.175l0,20.547l0.106,-0Z" style="fill:#039;fill-rule:nonzero;"/><path d="M2526.59,343.749c0,0.984 -0.217,1.695 -0.708,2.077c-0.491,0.437 -1.037,0.601 -1.695,0.601l-22.062,0c-0,1.858 0.167,3.552 0.546,5.082c0.385,1.476 0.987,2.787 1.857,3.88c0.875,1.093 2.024,1.913 3.39,2.459c1.416,0.601 3.111,0.875 5.129,0.875c1.584,-0 3.005,-0.11 4.26,-0.383c1.26,-0.273 2.347,-0.546 3.223,-0.874c0.931,-0.328 1.639,-0.601 2.241,-0.874c0.602,-0.274 1.037,-0.383 1.31,-0.383c0.162,0 0.329,0 0.491,0.109c0.161,0.11 0.217,0.219 0.329,0.383c0.056,0.164 0.106,0.437 0.161,0.71c0,0.328 0.056,0.71 0.056,1.148l0,0.819c0,0.219 0,0.437 -0.111,0.656c-0,0.164 -0.106,0.382 -0.162,0.492c-0.112,0.164 -0.217,0.273 -0.329,0.437c-0.162,0.109 -0.546,0.382 -1.199,0.656c-0.658,0.328 -1.527,0.601 -2.62,0.929c-1.093,0.328 -2.297,0.546 -3.714,0.82c-1.421,0.218 -2.899,0.382 -4.482,0.382c-2.727,-0 -5.186,-0.382 -7.26,-1.147c-2.079,-0.765 -3.825,-1.913 -5.246,-3.443c-1.416,-1.53 -2.459,-3.443 -3.223,-5.738c-0.708,-2.295 -1.093,-4.973 -1.093,-8.033c0,-3.06 0.385,-5.519 1.149,-7.815c0.764,-2.294 1.801,-4.262 3.222,-5.901c1.422,-1.64 3.112,-2.842 5.08,-3.716c1.968,-0.875 4.204,-1.312 6.663,-1.312c2.62,0 4.861,0.437 6.718,1.257c1.857,0.82 3.385,1.968 4.589,3.443c1.199,1.421 2.074,3.115 2.62,5.082c0.547,1.967 0.82,3.989 0.82,6.23l-0,1.147l0.05,-0.055Zm-6.166,-1.857c0.05,-3.225 -0.658,-5.793 -2.13,-7.651c-1.534,-1.858 -3.769,-2.787 -6.719,-2.787c-1.528,0 -2.843,0.273 -3.986,0.874c-1.149,0.601 -2.13,1.366 -2.894,2.296c-0.764,0.929 -1.366,2.076 -1.807,3.333c-0.434,1.257 -0.652,2.569 -0.708,3.935l18.294,-0l-0.05,-0Z" style="fill:#039;fill-rule:nonzero;"/></g><g><path d="M1129.58,167.083c0,-5 -10.833,-3.75 -10.833,-11.25c0,-7.5 2.917,-6.25 7.5,-6.25c4.583,0 5,1.25 6.25,2.084l-2.083,2.5c-0.834,-0.834 -2.5,-1.667 -4.584,-1.667c-2.083,0 -3.75,1.25 -3.75,3.333c0,5 10.834,3.75 10.834,11.25c-0,7.5 -2.917,6.667 -7.917,6.667c-5,0 -6.25,-1.25 -7.5,-2.5l2.083,-2.917c1.25,0.834 2.917,2.5 5.834,2.5c2.916,0 4.166,-1.666 4.166,-3.333l0,-0.417Z" style="fill:#034ea2;fill-rule:nonzero;"/><path d="M1136.67,155l3.333,0l0,11.667c0,2.5 1.25,4.166 3.75,4.166c2.5,0 4.167,-1.666 4.167,-3.75l-0,-12.083l3.333,0l0,18.333l-2.5,0l0,-1.666l-0.833,-0c-0.834,0.833 -2.084,2.083 -5,2.083c-2.917,0 -5.834,-2.083 -5.834,-6.25l0,-12.5l-0.416,0Z" style="fill:#034ea2;fill-rule:nonzero;"/><path d="M1162.5,172.917l-2.917,-0l0,6.666l-3.333,0l0,-24.583l2.5,0l0.833,1.667c0.834,-1.25 2.5,-2.084 4.584,-2.084c4.166,0 6.666,2.917 6.666,8.75c0,5.834 -3.333,10 -8.333,10l0,-0.416Zm-0.417,-2.5c3.75,-0 5.417,-2.084 5.417,-6.667c0,-4.583 -2.083,-6.25 -4.167,-6.25c-2.083,0 -2.916,1.25 -3.75,2.083l0,10.417l2.5,0l0,0.417Z" style="fill:#034ea2;fill-rule:nonzero;"/><path d="M1181.25,172.917l-2.917,-0l0,6.666l-3.333,0l0,-24.583l2.5,0l0.833,1.667c0.834,-1.25 2.5,-2.084 4.584,-2.084c4.166,0 6.666,2.917 6.666,8.75c0,5.834 -3.333,10 -8.333,10l0,-0.416Zm-0.417,-2.5c3.75,-0 5.417,-2.084 5.417,-6.667c0,-4.583 -2.083,-6.25 -4.167,-6.25c-2.083,0 -2.916,1.25 -3.75,2.083l0,10.417l2.5,0l0,0.417Z" style="fill:#034ea2;fill-rule:nonzero;"/><path d="M1192.92,164.167c-0,-5.834 2.083,-9.584 7.916,-9.584c5.834,0 7.5,3.75 7.5,9.167c0,5.417 -2.083,9.583 -7.916,9.583c-5.834,0 -7.5,-3.75 -7.5,-9.166Zm7.916,6.666c3.334,0 4.167,-2.083 4.167,-6.666c0,-4.584 -1.25,-6.667 -4.583,-6.667c-3.334,0 -4.167,2.083 -4.167,6.667c0,4.583 1.25,6.666 4.583,6.666Z" style="fill:#034ea2;fill-rule:nonzero;"/><path d="M1222.5,157.917l-2.083,-0c-1.667,-0 -3.334,0.833 -4.584,2.083l0,13.333l-3.333,0l0,-18.333l2.5,0l0.833,2.083c0.834,-1.25 2.5,-2.5 4.584,-2.5c2.083,0 1.25,0 1.666,0l0,3.334l0.417,-0Z" style="fill:#034ea2;fill-rule:nonzero;"/><path d="M1225.83,167.917l0,-10.417l-2.5,0l0,-2.083l2.5,-0.834l1.25,-4.583l2.084,-0l-0,4.583l5,0l-0,2.5l-5,0l-0,10.417c-0,1.667 0.833,2.5 2.5,2.5c1.666,0 2.083,0 2.916,-0.833l0.834,2.5c-0.834,-0 -2.084,0.833 -4.167,0.833c-2.083,0 -5,-1.667 -5,-5.417l0,0.834l-0.417,-0Z" style="fill:#034ea2;fill-rule:nonzero;"/><path d="M1251.67,171.667c-1.25,0.833 -3.334,1.666 -5.834,1.666c-5.416,0 -8.333,-2.916 -8.333,-9.583c0,-6.667 3.75,-9.167 7.917,-9.167c4.166,0 6.666,2.917 6.666,7.084c0,4.166 0,2.083 0,3.333l-11.25,0c0,4.167 2.084,5.833 5.417,5.833c3.333,0 3.333,-0.833 4.167,-1.666l1.25,2.5Zm-10.834,-9.167l8.334,0l-0,-0.833c-0,-2.917 -1.25,-4.167 -3.75,-4.167c-2.5,0 -4.167,1.667 -4.584,5.417l0,-0.417Z" style="fill:#034ea2;fill-rule:nonzero;"/><path d="M1267.08,147.917l3.334,-0l-0,25l-2.5,-0l-0.834,-1.667c-0.833,0.833 -2.083,2.083 -4.583,2.083c-4.167,0 -6.667,-2.5 -6.667,-8.75c0,-6.25 3.75,-10 8.334,-10c4.583,0 2.083,0 2.916,0l0,-7.083l0,0.417Zm0,20.833l0,-10.417l-2.5,0c-3.333,0 -5.416,1.667 -5.416,6.667c-0,5 2.083,6.25 4.166,6.25c2.084,0 3.334,-0.833 3.75,-2.5Z" style="fill:#034ea2;fill-rule:nonzero;"/><path d="M1285,147.917l3.333,-0l0,7.916c0.417,0 2.084,-1.25 4.167,-1.25c3.75,0 7.083,2.5 7.083,8.75c0,6.25 -2.916,10 -9.166,10c-6.25,0 -4.167,0 -5.417,-0.833l-0,-24.583Zm11.25,15.833c0,-5 -2.083,-6.25 -4.583,-6.25c-2.5,0 -2.917,0 -3.334,1.667l0,11.25l2.5,-0c3.334,-0 5.417,-2.084 5.417,-6.667Z" style="fill:#034ea2;fill-rule:nonzero;"/><path d="M1302.08,176.667l1.667,-0c2.083,-0 3.333,-1.25 3.75,-3.75l-6.667,-18.75l3.75,-0l2.5,7.916c0.834,2.917 1.667,5 2.084,6.667c-0,-1.25 0.833,-3.333 1.666,-6.667l2.5,-7.916l3.334,-0l-6.25,19.166c-1.25,3.334 -2.917,5.834 -6.667,5.834c-3.75,-0 -2.083,-0 -2.5,-0l-0,-2.917l0.833,0l0,0.417Z" style="fill:#034ea2;fill-rule:nonzero;"/></g></g><g><g id="Layer1"><rect x="1235.76" y="273.733" width="5.843" height="5.884" style="fill:#034ea2;fill-rule:nonzero;"/><rect x="1235.76" y="285.307" width="5.843" height="46.231" style="fill:#034ea2;fill-rule:nonzero;"/><path d="M1252.98,273.733l5.843,0l0,11.578l22.91,-0l-0,5.884l-22.91,0l0,28.77c0,3.384 2.498,5.884 5.689,5.884l17.221,0l-0,5.731l-17.221,0c-5.996,0 -11.532,-4.846 -11.532,-11.577l0,-28.77l-8.61,0l-0,-5.884l8.61,-0l0,-11.616Z" style="fill:#034ea2;"/><path d="M1185.17,308.502l44.935,-0c-0,-5.154 -0.308,-8.962 -0.884,-11.462c-0.577,-2.5 -1.615,-4.692 -3.076,-6.615c-1.883,-2.193 -4.228,-3.654 -7.303,-4.539c-2.921,-0.73 -7.88,-1.192 -14.568,-1.192c-6.689,-0 -11.686,0.423 -14.722,1.192c-3.075,0.885 -5.382,2.346 -7.15,4.539c-1.614,1.923 -2.614,4.115 -3.075,6.615c-0.577,2.5 -0.884,6.308 -1.038,11.462c0.154,5 0.423,8.808 1.038,11.307c0.423,2.501 1.461,4.693 3.075,6.616c1.768,2.193 4.075,3.808 7.15,4.538c3.075,0.885 7.88,1.193 14.722,1.193c6.842,0 11.685,-0.308 14.568,-1.193c3.075,-0.73 5.382,-2.345 7.303,-4.538c1.154,-1.461 2.038,-3.231 2.614,-5l-6.842,0c-0.423,0.577 -0.884,1.192 -1.46,1.769c-1.307,1.039 -3.191,1.923 -5.535,2.346c-2.499,0.424 -5.997,0.577 -10.494,0.577c-4.498,0 -8.15,-0.153 -10.494,-0.577c-2.499,-0.423 -4.229,-1.307 -5.536,-2.346c-1.768,-1.461 -2.767,-3.961 -3.075,-7.346c-0.153,-2.346 -0.153,-5 -0.153,-7.346Zm38.362,-5.885l-38.362,0c0.153,-4.269 1.153,-7.192 3.19,-8.808c1.307,-1.192 3.075,-1.923 5.535,-2.346c2.345,-0.423 5.843,-0.731 10.494,-0.731c4.651,0 8.034,0.308 10.494,0.731c2.345,0.423 4.228,1.193 5.535,2.346c2.037,1.616 3.075,4.539 3.075,8.808" style="fill:#034ea2;fill-rule:nonzero;"/><path d="M1230.07,412.385c57.043,0 103.401,-46.5 103.401,-103.886c-0,-57.385 -46.358,-103.885 -103.401,-103.885c-18.797,-0 -36.441,5.154 -51.624,13.923l5.689,9.962c13.569,-7.924 29.176,-12.308 45.935,-12.308c50.778,-0 91.907,41.231 91.907,92.308c0,51.078 -41.129,92.463 -91.907,92.463c-50.778,-0 -91.87,-41.539 -91.87,-92.463l-11.531,0c-0,57.386 46.395,103.886 103.401,103.886Z" style="fill:#034ea2;"/><path d="M1230.07,389.348c29.752,-0 55.737,-16.27 69.575,-40.501l-9.917,-5.731c-11.955,20.693 -34.134,34.616 -59.658,34.616c-38.054,0 -68.844,-30.962 -68.844,-69.27c-0,-38.308 30.79,-69.347 68.844,-69.347c25.524,0 47.703,13.923 59.658,34.616l9.917,-5.731c-13.838,-24.231 -39.823,-40.346 -69.575,-40.346c-44.32,-0 -80.337,36.115 -80.337,80.847c-0,44.731 36.017,80.847 80.376,80.847" style="fill:#68aa30;"/><path d="M1368.33,285.23l0,28.847c0,8.808 0.538,10.192 4.421,11.154c2.345,0.538 7.457,0.846 15.222,0.846c14.76,-0 19.219,-0.538 20.872,-2.5c1.307,-1.539 1.384,-2.308 1.461,-15.616l-0,-22.731l6.15,0l0,22.731c-0.077,9.577 -0.077,9.924 -0.346,12.77c-0.5,5.615 -3.305,8.961 -8.341,9.923c-3.114,0.538 -10.878,0.962 -18.413,0.962c-9.494,-0 -15.721,-0.347 -18.873,-0.962c-4.267,-0.885 -7.227,-4.385 -7.803,-9.077c-0.346,-2.846 -0.423,-3.654 -0.5,-13.577l-0,-22.731l6.15,-0l0,-0.039Z" style="fill:#034ea2;fill-rule:nonzero;"/><path d="M1427.64,299.381l0,4.307l0.347,0c0.845,-1.538 2.075,-2.615 3.805,-3.461c1.922,-0.962 4.613,-1.231 10.686,-1.231c6.073,0 8.802,0.539 10.955,2.423c2.153,1.885 3.229,4.923 3.229,9.077l0,3.308l-5.151,0l0,-2.269c0,-6.654 -1.73,-8.116 -9.571,-8.116c-12.109,0 -14.261,1.923 -14.261,13.231l-0,14.846l-5.035,0l-0,-32.115l5.035,-0l-0.039,-0Z" style="fill:#034ea2;fill-rule:nonzero;"/><path d="M1464.93,285.192l0,18l0.346,0c2.268,-3.461 5.113,-4.307 14.184,-4.307c10.802,-0 14.069,0.538 16.952,2.769c3.459,2.692 4.805,6.654 4.805,14.192c-0,8.231 -2.153,12.539 -7.227,14.616c-2.614,1.038 -5.842,1.384 -13.722,1.384c-10.148,0 -12.762,-0.769 -15.145,-4.5l-0.27,0l0,4.077l-4.958,0l-0,-46.231l5.035,0Zm-0.154,30.27c0,6.576 1.038,9.23 4.19,10.692c1.922,0.962 5.728,1.308 13.108,1.308c11.301,-0 13.8,-2.154 13.8,-11.923c-0,-6.462 -1.23,-9.501 -4.344,-10.962c-1.922,-0.885 -5.305,-1.231 -11.993,-1.231c-12.531,0 -14.761,1.808 -14.761,12.116Z" style="fill:#034ea2;fill-rule:nonzero;"/><path d="M1506.33,308.996l0,-1.384c0,-6.731 4.075,-8.654 17.912,-8.654c10.804,-0 14.532,0.769 17.22,3.615c2.194,2.231 2.692,4.385 2.692,12l0,16.923l-5.035,0l0.075,-3.73l-0.189,-0c-2.425,3.461 -4.768,4.154 -14.453,4.154c-11.456,-0 -14.454,-0.424 -16.799,-2.231c-2.076,-1.654 -2.768,-3.616 -2.768,-7.5c-0,-5.077 1.23,-7.539 4.536,-8.808c1.922,-0.769 4.958,-1.038 11.723,-1.038c13.107,-0 15.301,0.423 17.491,3.461l0.424,-0l-0,-3.461c-0,-3.347 -0.346,-4.731 -1.5,-6.116c-1.809,-2.231 -4.689,-2.846 -13.032,-2.846c-10.955,-0 -12.877,0.769 -12.953,5.192l-0,0.423l-5.344,0Zm5.843,8.962c-1.23,0.846 -1.845,2.231 -1.845,4.308c-0,2.346 0.692,3.615 2.498,4.384c1.461,0.616 4.882,0.846 12.762,0.846c10.686,0 13.225,-1.038 13.225,-5.346c0,-4.307 -3.037,-5.269 -14.261,-5.269c-8.497,0 -10.88,0.192 -12.34,1.115" style="fill:#034ea2;fill-rule:nonzero;"/><path d="M1554.49,299.342l-0,4.885l0.424,-0c2.075,-4.154 5.572,-5.269 16.066,-5.269c9.147,-0 12.954,0.846 15.453,3.538c1.923,2.154 2.614,4.846 2.614,10.885l0,18.077l-5.035,-0l0,-15.962c0,-5.769 -0.345,-7.692 -1.809,-9.346c-1.652,-2 -4.803,-2.769 -11.8,-2.769c-7.841,-0 -11.84,1.039 -14.069,3.731c-1.574,1.884 -1.844,3.384 -1.844,9.5l-0,14.846l-5.035,-0l-0,-32.116l5.035,0Z" style="fill:#034ea2;fill-rule:nonzero;"/><path d="M1624.53,285.23l24.946,39.232l24.449,-39.232l12.338,0l-0,46.231l-6.15,0l0,-40.461l-2.539,-0l-25.637,40.461l-4.96,0l-25.909,-40.461l-2.688,-0l0,40.461l-6.114,0l0,-46.231l12.264,0Z" style="fill:#034ea2;fill-rule:nonzero;"/><path d="M1728.35,301.227c3.846,2.5 5.459,6.654 5.459,14.154c-0,7.5 -1.727,12.115 -5.726,14.423c-2.767,1.577 -6.342,2.077 -14.453,2.077c-9.379,0 -13.3,-0.538 -16.184,-2.269c-4.073,-2.346 -5.651,-6.462 -5.651,-14.347c0,-7.884 1.923,-12.192 6.153,-14.422c2.614,-1.385 6.189,-1.885 13.453,-1.885c10.34,-0 14.261,0.538 17.027,2.308m-31.213,14.346c-0,6.654 1.306,9.5 5.038,10.808c2.076,0.769 5.11,1.038 11.032,1.038c7.456,-0 10.262,-0.5 12.338,-2.077c2.075,-1.654 2.884,-4.5 2.884,-10.116c-0,-6.307 -1.154,-9.153 -4.423,-10.615c-1.923,-0.885 -5.38,-1.231 -11.839,-1.231c-12.762,0 -15.03,1.885 -15.03,12.193Z" style="fill:#034ea2;fill-rule:nonzero;"/><path d="M1743.88,285.192l0,18l0.346,0c2.268,-3.461 5.113,-4.307 14.182,-4.307c10.804,-0 14.069,0.538 16.953,2.769c3.461,2.692 4.803,6.654 4.803,14.192c0,8.231 -2.15,12.539 -7.224,14.616c-2.614,1.038 -5.844,1.384 -13.724,1.384c-10.148,0 -12.761,-0.769 -15.143,-4.5l-0.271,0l-0,4.077l-4.957,0l0,-46.231l5.035,0Zm-0.153,30.27c0,6.576 1.036,9.23 4.187,10.692c1.923,0.962 5.73,1.308 13.108,1.308c11.302,-0 13.801,-2.154 13.801,-11.923c0,-6.462 -1.232,-9.501 -4.344,-10.962c-1.923,-0.885 -5.305,-1.231 -11.992,-1.231c-12.531,0 -14.76,1.808 -14.76,12.116Z" style="fill:#034ea2;fill-rule:nonzero;"/><path d="M1790.24,291.269l-5.035,-0l0,-6.039l5.035,0l0,6.039Zm0,40.192l-5.035,0l0,-32.115l5.035,-0l0,32.115Z" style="fill:#034ea2;fill-rule:nonzero;"/><rect x="1796.24" y="285.23" width="5.035" height="46.231" style="fill:#034ea2;fill-rule:nonzero;"/><path d="M1812.3,291.269l-5.034,-0l-0,-6.039l5.034,0l0,6.039Zm0,40.192l-5.034,0l-0,-32.115l5.034,-0l0,32.115Z" style="fill:#034ea2;fill-rule:nonzero;"/><path d="M1827.99,291.385l-0,7.962l22.333,-0l0,4.385l-22.333,-0l-0,13.846c0.153,6.115 0.153,6.308 1.15,7.615c1.306,1.577 3.575,2.231 8.421,2.231c4.497,0 6.189,-0.5 7.303,-2.231c0.769,-1.192 0.962,-2.346 0.962,-6.307l-0,-2.001l5.035,0l-0,2.001c-0,5 -0.424,7.076 -1.731,9c-1.844,2.846 -5.306,3.961 -12.071,3.961c-6.766,0 -10.454,-1.038 -12.338,-3.615c-1.385,-1.923 -1.805,-3.962 -1.805,-9l-0,-15.539l-7.845,0l0,-4.384l7.845,-0l-0,-7.962l5.035,-0l0.039,0.038Z" style="fill:#034ea2;fill-rule:nonzero;"/><path d="M1857.01,299.387l15.454,28l0.612,0l14.339,-28l5.918,-0l-15.567,29.962c-3.65,7.077 -5.302,9.346 -7.841,11.154c-2.421,1.654 -4.803,2.231 -10.07,2.231c-1.114,-0 -1.73,-0 -2.806,-0.077l0,-4.654c1.036,0.154 1.382,0.154 2.343,0.154c6.691,-0 8.418,-1.039 11.455,-6.654l-1.731,-0l-17.988,-32.116l5.921,-0l-0.039,-0Z" style="fill:#034ea2;fill-rule:nonzero;"/></g><g><g><path d="M220.619,296.893l0,0.087l0,-0.087Z" style="fill:none;"/><path d="M317.138,295.543l-0,0.087" style="fill:none;"/><path d="M317.138,295.499l-0,0.131l-0,-0.131Z" style="fill:none;"/><path d="M441.575,238.442c7.796,-0 14.112,-6.316 14.112,-14.112c-0,-7.797 -6.272,-14.156 -14.112,-14.156c-7.84,0 -14.112,6.316 -14.112,14.112c0,7.797 6.316,14.112 14.112,14.112l0,0.044Zm-331.63,172.391c7.797,0 14.112,-6.315 14.112,-14.112c0,-7.796 -6.315,-14.111 -14.112,-14.111c-7.796,-0 -14.112,6.271 -14.112,14.111c0,7.84 6.316,14.112 14.112,14.112Zm207.585,-0.566c19.382,0 38.851,-9.582 49.958,-28.79l61.717,-106.972c5.488,-9.538 -1.437,-21.734 -12.369,-21.734c-5.14,0 -9.931,2.657 -12.37,7.23l-62.066,107.538c-5.488,9.539 -15.114,14.33 -24.74,14.33c-9.625,0 -19.295,-4.791 -24.739,-14.33l-45.298,-78.704c0.262,0.871 3.877,6.272 -0.304,13.981l-12.501,21.778l32.841,56.927c11.15,19.208 30.532,28.79 49.958,28.79l-0.087,-0.044Z" style="fill:#ff4f00;fill-rule:nonzero;"/><path d="M234.775,324.594l-11.76,-21.778c-3.18,-5.836 -1.873,-10.801 -0.523,-13.981l-58.451,100.656c-1.22,2.091 -1.96,4.53 -1.96,7.187c-0,7.796 6.315,14.112 14.112,14.112c7.796,-0 9.713,-2.788 12.152,-6.926l46.343,-79.27l0.087,-0Z" style="fill:#fcbd00;fill-rule:nonzero;"/></g><g><path d="M304.594,317.32l12.5,-21.777l-32.797,-56.753c-11.063,-19.208 -30.14,-28.79 -49.522,-28.79c-19.382,-0 -39.2,9.582 -50.35,28.79l-61.457,107.19c-1.263,2.09 -2.003,4.573 -2.003,7.23c-0,7.796 6.315,14.112 14.112,14.112c7.796,-0 9.93,-2.919 12.369,-7.231l62.067,-107.538c5.488,-9.538 15.593,-14.329 25.218,-14.329c9.626,-0 18.773,4.791 24.261,14.329l45.253,78.705c-1.001,-1.917 -1.655,-2.875 -1.655,-6.751c0,-3.877 2.004,-7.187 2.004,-7.187Z" style="fill:#ff4f00;fill-rule:nonzero;"/><g><path d="M374.849,210.087c-4.356,0 -9.931,2.657 -12.37,7.23l-45.341,78.182l11.76,21.778c-0,-0 2.003,3.179 2.003,7.186c0,4.007 -0.522,4.704 -1.437,6.577l57.841,-99.393c5.488,-9.539 -1.437,-21.56 -12.369,-21.56l-0.087,0Z" style="fill:#fcbd00;fill-rule:nonzero;"/><path d="M328.811,317.277l-11.76,-21.734l-12.501,21.777c0,0 -2.003,3.267 -2.003,7.187c-0,3.92 0.653,4.878 1.655,6.751l-0,0.087c2.57,4.66 7.753,7.274 12.849,7.274c5.096,-0 9.887,-2.744 12.239,-7.579c0.871,-1.873 1.437,-4.094 1.437,-6.577c0,-3.963 -2.003,-7.186 -2.003,-7.186l0.087,-0Z" style="fill:#1a6b24;fill-rule:nonzero;"/></g></g><g><path d="M223.015,302.816l11.76,21.778l12.5,-21.778c-0,0 2.004,-3.266 2.004,-7.186c-0,-3.92 -1.699,-6.708 -1.699,-6.751c-2.57,-4.661 -7.753,-7.361 -12.849,-7.361c-5.096,-0 -9.887,2.57 -12.239,7.361c-0.871,1.872 -1.437,4.312 -1.437,6.751c-0,3.963 1.96,7.186 1.96,7.186Z" style="fill:#1a6b24;fill-rule:nonzero;"/></g><g><path d="M492.491,308.914l-0,13.372l-18.163,-0l0,55.097l-16.681,0l-0,-55.097l-18.163,-0l0,-13.372l53.007,0Z" style="fill-rule:nonzero;"/><path d="M517.535,322.286l0,13.85l22.344,0l0,12.893l-22.344,-0l0,15.026l25.262,0l0,13.372l-41.943,-0l-0,-68.469l41.943,-0l0,13.371l-25.262,0l0,-0.043Z" style="fill-rule:nonzero;"/><path d="M555.211,324.943c2.918,-5.314 7.012,-9.408 12.239,-12.37c5.226,-2.962 11.15,-4.443 17.814,-4.443c6.664,0 15.07,2.134 20.863,6.446c5.792,4.312 9.669,10.149 11.629,17.553l-18.337,0c-1.35,-2.875 -3.31,-5.052 -5.793,-6.533c-2.482,-1.481 -5.357,-2.265 -8.537,-2.265c-5.139,-0 -9.32,1.786 -12.5,5.357c-3.179,3.572 -4.791,8.363 -4.791,14.33c-0,5.967 1.612,10.758 4.791,14.33c3.18,3.571 7.361,5.357 12.5,5.357c5.14,-0 6.011,-0.741 8.537,-2.265c2.483,-1.481 4.443,-3.659 5.793,-6.533l18.337,-0c-1.96,7.404 -5.837,13.241 -11.629,17.509c-5.793,4.268 -12.762,6.403 -20.863,6.403c-8.102,-0 -12.588,-1.481 -17.814,-4.443c-5.227,-2.962 -9.321,-7.056 -12.239,-12.326c-2.919,-5.27 -4.4,-11.281 -4.4,-18.032c0,-6.751 1.481,-12.805 4.4,-18.119l-0,0.044Z" style="fill-rule:nonzero;"/><path d="M687.314,308.914l-0,68.469l-16.682,0l-0,-28.18l-25.959,-0l0,28.18l-16.682,0l0,-68.469l16.682,0l0,26.83l25.959,0l-0,-26.83l16.682,0Z" style="fill-rule:nonzero;"/><path d="M700.075,361.572c6.359,-5.27 11.412,-9.582 15.07,-12.979c3.659,-3.397 6.795,-6.925 9.321,-10.627c2.526,-3.703 3.79,-7.318 3.79,-10.846c-0,-3.528 -0.61,-4.747 -1.83,-6.228c-1.219,-1.481 -3.092,-2.265 -5.575,-2.265c-2.482,-0 -4.399,0.915 -5.793,2.788c-1.393,1.872 -2.09,4.486 -2.09,7.839l-16.116,0c0.131,-5.531 1.307,-10.148 3.572,-13.85c2.265,-3.702 5.183,-6.446 8.885,-8.188c3.659,-1.743 7.753,-2.614 12.239,-2.614c7.753,0 13.589,2.004 17.509,5.967c3.92,3.964 5.924,9.147 5.924,15.506c-0,6.359 -2.396,13.415 -7.143,19.382c-4.748,5.967 -10.802,11.76 -18.163,17.422l26.351,0l0,13.546l-48.956,-0l0,-12.37c2.221,-1.742 3.223,-2.57 3.005,-2.439l0,-0.044Z" style="fill-rule:nonzero;"/><path d="M796.942,377.383l-13.937,-20.994l-12.283,20.994l-18.947,0l21.952,-34.844l-22.431,-33.668l19.426,-0l13.763,20.688l12.109,-20.688l18.946,-0l-21.734,34.539l22.649,33.929l-19.513,0l0,0.044Z" style="fill-rule:nonzero;"/></g></g></g></svg>