<?xml version="1.0" encoding="UTF-8" standalone="no"?><!DOCTYPE svg PUBLIC "-//W3C//DTD SVG 1.1//EN" "http://www.w3.org/Graphics/SVG/1.1/DTD/svg11.dtd"><svg width="100%" height="100%" viewBox="0 0 6250 625" version="1.1" xmlns="http://www.w3.org/2000/svg" xmlns:xlink="http://www.w3.org/1999/xlink" xml:space="preserve" xmlns:serif="http://www.serif.com/" style="fill-rule:evenodd;clip-rule:evenodd;stroke-miterlimit:10;"><g><g><g opacity="0.2"><ellipse cx="4274.79" cy="312.5" rx="224.167" ry="223.333" style="fill:none;stroke:#000;stroke-width:8.33px;"/></g><g><path d="M4280.21,324.167c0,2.083 0.834,2.916 2.917,2.916c2.083,0 2.917,0 4.583,-0.833l0.834,0l-0,-6.25l-5,0c-2.084,0.833 -3.334,1.667 -3.334,3.75l0,0.417Z" style="fill-rule:nonzero;"/><path d="M4252.29,184.167c-0,-0 -0.834,1.25 -0.834,2.083c0,2.083 0.834,2.917 2.5,2.917c1.667,-0 2.917,-0 4.167,-0.834l0.833,0l0,-5.416l-4.583,-0c-0.833,-0 -1.667,0.833 -2.083,1.25Z" style="fill-rule:nonzero;"/><path d="M4349.79,327.083c2.083,0 3.333,-0.833 4.166,-2.083c0.834,-1.25 1.25,-3.333 1.25,-6.25c0,-2.917 0,-5 -1.25,-6.25c-0.833,-1.25 -2.083,-2.083 -4.166,-2.083c-2.084,-0 -3.334,0.833 -4.167,2.083c-0.833,1.25 -1.25,3.333 -1.25,6.25c0,2.917 0,5 1.25,6.25c0.833,1.25 2.083,2.083 4.167,2.083Z" style="fill-rule:nonzero;"/><path d="M4305.21,271.667c4.167,-0 5.834,-0.834 5.834,-2.917c-0,-2.083 -0,-1.667 -0.834,-2.083l-9.166,-0c-0.834,-0 -1.667,1.666 -1.667,2.916c0,1.25 2.083,2.5 5.833,2.5l0,-0.416Z" style="fill-rule:nonzero;"/><path d="M4283.12,442.917c-1.25,-0 -2.5,-0 -3.333,1.25c-0.834,0.833 -1.25,2.083 -1.25,4.166l8.333,0c0,-2.083 0,-3.333 -0.833,-4.166c-0,-0.834 -1.667,-1.25 -2.917,-1.25Z" style="fill-rule:nonzero;"/><path d="M4312.71,442.917c-1.25,-0 -2.5,-0 -3.333,1.25c-0.833,0.833 -1.25,2.083 -1.25,4.166l8.333,0c0,-2.083 0,-3.333 -0.833,-4.166c-0,-0.834 -1.667,-1.25 -2.917,-1.25Z" style="fill-rule:nonzero;"/><path d="M4244.38,175.833c0,-1.666 0,-2.916 -1.25,-3.75c-0.833,-0.833 -1.667,-1.25 -3.333,-1.25l-5.417,0l0,10l5.417,0c2.916,0 4.583,-1.666 4.583,-5.416l0,0.416Z" style="fill-rule:nonzero;"/><path d="M4271.88,391.667c0,2.083 0.833,2.916 2.917,2.916c2.083,0 2.916,0 4.583,-0.833l0.833,0l0,-6.25l-5,0c-2.083,0.833 -3.333,1.667 -3.333,3.75l0,0.417Z" style="fill-rule:nonzero;"/><path d="M4193.54,318.333c-0,2.917 -0,5 0.833,6.25c0.833,1.25 1.667,1.667 3.333,1.667c1.667,0 3.334,0 5,-0.833l0.834,-0l-0,-15l-5.417,-0c-2.917,-0 -4.583,2.916 -4.583,8.333l-0,-0.417Z" style="fill-rule:nonzero;"/><path d="M4304.38,250.417c2.917,-0 4.167,-1.25 4.167,-4.167c-0,-2.917 -1.25,-4.167 -4.167,-4.167c-2.917,0 -4.167,1.25 -4.167,4.167c0,2.917 1.25,4.167 4.167,4.167Z" style="fill-rule:nonzero;"/><path d="M4368.96,377.917c-1.666,-0 -2.916,-0 -3.75,1.25c-0.833,0.833 -1.25,2.5 -1.25,4.583l9.584,0c-0,-2.083 -0,-3.75 -1.25,-4.583c-0.834,-0.834 -2.084,-1.25 -3.75,-1.25l0.416,-0Z" style="fill-rule:nonzero;"/><path d="M4300.62,188.75c1.667,0 2.917,0 3.333,-1.25c0.417,-1.25 0.834,-2.5 0.834,-5c-0,-2.5 -0,-3.75 -0.834,-4.583c0,-0.834 -1.666,-1.25 -3.333,-1.25c-1.667,-0 -2.917,-0 -3.333,1.25c-0.417,1.25 -0.834,2.5 -0.834,4.583c0,2.083 0,3.75 0.834,5c0.833,1.25 1.666,1.25 3.333,1.25Z" style="fill-rule:nonzero;"/><path d="M4274.38,118.333c-107.917,0 -195,87.5 -195,195c0,107.5 87.5,195 195,195c107.5,0 195,-87.5 195,-195c0,-107.5 -87.5,-195 -195,-195Zm91.25,117.917c8.333,0 12.5,4.167 12.5,12.917l0,5.416l-17.083,0c-0,1.667 -0,2.917 1.25,3.75c1.25,0.834 2.083,1.25 3.75,1.25l10.833,0l0,5.417c-4.167,1.25 -8.333,1.667 -11.667,1.667c-3.333,-0 -7.5,-1.25 -9.166,-3.334c-2.084,-2.083 -2.917,-5.833 -2.917,-10.833c0,-10 4.167,-15 12.5,-15l0,-1.25Zm-5.833,71.25c2.083,2.5 2.916,6.25 2.916,10.833c0,10 -4.166,15 -12.916,15c-8.75,0 -12.917,-5 -12.917,-15c0,-10 0.833,-8.333 2.917,-10.833c2.083,-2.5 5.416,-3.75 10,-3.75c4.583,0 7.916,1.25 10,3.75Zm-36.25,-82.083l7.5,-0l-0,12.5c2.5,-1.25 5,-2.084 7.083,-2.084c3.75,0 6.25,1.25 7.917,3.334c1.25,2.083 2.083,5.833 2.083,10.416l0,15.417l-7.5,0l0,-15c0,-2.5 0,-4.167 -0.833,-5.417c-0,-1.25 -1.667,-1.666 -3.334,-1.666c-1.666,-0 -2.916,-0 -4.583,0.833l-0.833,0l-0,21.25l-7.5,0l-0,-39.583Zm0.416,75.416l0,-7.5l7.5,0l0,7.5l-7.5,0Zm7.5,3.75l0,28.334l-7.5,-0l0,-28.334l7.5,0Zm-30.416,6.25l-0,-6.25l3.333,0l0,-7.916l7.5,-0l0,7.916l7.083,0l0,6.25l-7.083,0l0,15.417l5.833,0l0,5.833c-2.5,0 -4.583,0.834 -5.833,0.834c-3.333,-0 -5.833,-0.834 -7.083,-2.084c-1.25,-1.666 -1.667,-4.166 -1.667,-8.333l0,-11.667l-3.333,0l1.25,0Zm14.583,61.25l7.5,0l0,28.334l-7.5,-0l0,-28.334Zm0,-3.333l0,-7.5l7.5,0l0,7.5l-7.5,0Zm-5.833,-193.75l2.083,0l0,-1.25c0,-2.083 0,-3.75 0.833,-4.583c0.834,-0.834 1.667,-1.25 3.334,-1.25l3.333,-0l0,2.083l-2.917,0c-0.833,0 -1.25,0 -1.666,0.833l-0,4.167l4.583,0l0,2.083l-4.583,0l-0,13.75l-2.5,0l-0,-13.75l-2.084,0l0,-2.083l-0.416,0Zm-14.167,1.667c0.833,-1.25 2.917,-2.084 5,-2.084c2.083,0 4.167,0.834 5,2.084c0.833,1.25 1.667,3.333 1.667,6.25c-0,2.916 -0,5 -1.25,6.25c-1.25,1.25 -2.917,2.083 -5.417,2.083c-2.5,0 -4.167,-0.833 -5.417,-2.083c-0.833,-1.25 -1.25,-3.334 -1.25,-6.25c0,-2.917 0,-5 1.667,-6.25Zm-1.667,82.5c0,-0.834 0,-2.084 1.667,-3.75l0,-0.834c-2.083,-1.666 -3.333,-4.583 -3.333,-8.333c-0,-3.75 1.25,-6.25 3.333,-7.917c2.083,-1.666 5,-2.5 8.75,-2.5l15,0l0,5.834l-4.167,-0c0.834,0.833 1.25,2.083 1.25,3.333c0,3.75 -0.833,6.25 -2.916,7.917c-2.084,1.25 -5,2.083 -9.167,2.083c-4.167,0 -1.667,0 -2.5,0l0,2.5c0,0.833 0,1.25 0.833,1.25l4.584,0c4.583,0 7.916,0.833 9.583,2.083c1.667,1.25 2.5,3.334 2.5,6.667c0,3.333 -1.25,5.417 -3.75,7.083c-2.5,1.667 -5.833,2.5 -10,2.5c-4.167,0 -7.5,0 -9.583,-1.666c-2.084,-1.667 -3.334,-3.334 -3.334,-6.25c0,-2.917 1.25,-4.584 4.167,-6.667c-1.25,-0.833 -2.083,-2.5 -2.083,-4.167l-0.834,0.834Zm-15,-25.834l0,-7.5l7.5,0l0,7.5l-7.5,0Zm7.5,3.334l0,28.333l-7.5,0l0,-28.333l7.5,-0Zm-11.25,-61.667l2.084,0l-0,-5l2.5,0l-0,5l5,0l-0,2.083l-5,0l-0,11.25c-0,0 0.833,0.834 1.666,0.834l2.917,-0l0,1.666l-3.333,0c-1.667,0 -2.917,0 -3.334,-1.25c0,-0.833 -0.833,-2.5 -0.833,-4.583l0,-8.333l-2.083,-0l-0,-2.084l0.416,0.417Zm-9.583,0l2.5,0l0,2.083c1.667,-1.25 3.75,-2.083 5.833,-2.5l0,2.5c-0.833,0 -1.666,0 -2.916,0.834c-0.834,-0 -1.667,0.833 -2.084,0.833l-0.833,0l0,12.083l-2.5,0l0,-15.833Zm-7.5,2.5c0,0 -1.25,-0.833 -2.083,-0.833l-5.834,-0l0,-1.667c2.5,0 4.167,-0.833 6.25,-0.833c2.084,-0 2.917,-0 3.75,1.25c0.834,0.833 1.25,2.083 1.25,3.75l0,7.916c0,0.834 0.834,1.25 1.667,1.25l-0,1.667c-1.667,0 -2.917,0 -3.75,-1.25c-2.083,0.833 -3.75,1.25 -5.833,1.25c-2.084,0 -2.5,0 -3.334,-1.25c-0.833,-0.833 -1.25,-2.083 -1.25,-3.333c0,-1.25 0,-2.5 1.25,-3.334c0.834,-0.833 2.084,-1.25 3.75,-1.25l5,0l0,-1.666c0,-1.25 0,-1.667 -0.833,-2.084l-0,0.417Zm5.417,65l-0,-15.833l7.916,-0l0,38.333l-7.916,0l-0,-15.833l-14.167,-0l-0,15.833l-7.917,0l0,-38.333l7.917,-0l-0,15.833l14.167,0Zm-31.25,-73.75l7.916,0c2.5,0 4.167,0 5.417,1.667c1.25,1.666 1.667,2.916 1.667,5.416c-0,5 -2.5,7.5 -7.084,7.5l-5.416,0l-0,7.5l-2.5,0l-0,-22.083Zm-36.667,57.917l28.333,-0l0,7.083l-10,0l0,31.667l-7.916,-0l-0,-31.667l-10.417,0l-0,-7.083Zm20.833,142.083l0,-7.5l7.5,0l0,7.5l-7.5,0Zm7.5,3.333l0,28.334l-7.5,-0l0,-28.334l7.5,0Zm-72.083,-145.416l25,-0l-0,6.666l-17.083,0l-0,9.167l13.75,0l-0,6.667l-13.75,-0l-0,9.166l17.083,0l-0,6.667l-25,0l-0,-38.333Zm25.833,173.75l-7.916,-0l-0,-38.334l7.916,0l0,38.334Zm3.75,-99.167l-17.083,0l-0,9.167l13.75,-0l-0,6.666l-13.75,0l-0,9.167l17.083,0l0,6.667l-25,-0l0,-38.334l25,0l0,6.667Zm1.667,-74.583l7.917,-0l-0,38.333l-7.917,0l-0,-38.333Zm26.667,173.75l-7.5,-0l-0,-15c-0,-2.5 -0,-4.167 -0.834,-5.417c0,-1.25 -1.666,-1.667 -3.333,-1.667c-1.667,0 -2.917,0 -4.583,0.834l-0.834,-0l0,21.25l-7.5,-0l0,-28.334l7.5,0l0,1.667c2.5,-1.667 5,-2.083 7.084,-2.083c3.75,-0 6.25,1.25 7.916,3.333c1.667,2.083 2.084,5.833 2.084,10.417l-0,15.416l-0,-0.416Zm1.25,-67.5l-7.5,-0l-0,-1.25c-2.5,1.25 -5,1.666 -6.667,1.666c-4.167,0 -7.083,-1.25 -8.75,-3.75c-1.667,-2.5 -2.5,-6.25 -2.5,-11.25c-0,-5 0.833,-8.75 2.917,-11.25c2.083,-2.5 5,-3.333 8.75,-3.333l6.25,0l-0,-11.25l7.5,0l-0,40.417Zm15,117.083l-10.417,0c-0,1.667 -0,2.917 0.833,3.75c0.834,0.833 1.667,1.25 3.334,1.25l5.416,0l0,1.667l-6.25,-0c-1.666,-0 -3.75,-0.834 -5,-2.084c-0.833,-1.25 -1.25,-3.333 -1.25,-6.25c0,-5.416 2.084,-8.333 6.667,-8.333c4.583,0 3.75,0 4.583,1.667c1.25,1.25 1.667,2.916 1.667,5.416l-0,2.5l0.417,0l-0,0.417Zm-6.25,-120c-1.25,-2.083 -2.084,-5.833 -2.084,-10.833l0,-14.584l7.5,0l0,15c0,2.917 0,4.584 0.834,5.834c-0,0.833 1.666,1.666 3.333,1.666c1.667,0 3.333,0 4.583,-0.833l0.834,0l-0,-21.25l7.5,0l-0,28.333l-7.5,0l-0,-1.666c-2.917,1.666 -5,2.083 -7.084,2.083c-3.75,0 -6.666,-1.25 -7.916,-3.333l-0,-0.417Zm12.083,127.083l-2.5,0l-0,-15.833l2.5,0l-0,15.833Zm-0,-19.166l-2.5,-0l-0,-2.917l2.5,0l-0,2.917Zm0.417,-47.5l-0,-11.667l-3.334,0l0,-6.25l3.334,0l-0,-7.917l7.5,0l-0,7.917l7.083,0l-0,6.25l-7.083,0l-0,15.417c-0,0.416 0.833,-0 1.666,-0l4.167,-0l-0,5.833c-2.5,0 -4.583,0.833 -5.833,0.833c-3.334,0 -5.834,-0.833 -7.084,-2.083c-1.25,-1.25 -1.666,-4.167 -1.666,-8.333l1.25,-0Zm9.583,67.083c-1.667,0 -2.917,0 -3.333,-1.25c-0.417,-1.25 -0.834,-2.5 -0.834,-4.583l0,-8.334l-2.083,0l-0,-2.083l2.083,0l0,-5l2.5,0l0,5l5,0l0,2.083l-5,0l0,11.25c0,0.834 0.834,0.834 1.667,0.834l2.917,-0l-0,1.666l-3.334,0l0.417,0.417Zm14.167,-7.917l-9.584,0l0,-2.083l9.584,0l-0,2.083Zm2.916,-49.166l-7.5,-0l0,-28.334l7.5,0l0,28.334Zm0,-31.667l-7.5,0l0,-7.5l7.5,0l0,7.5Zm-8.333,-38.75c-1.667,-2.5 -2.917,-6.25 -2.917,-11.25c0,-5 0.834,-8.75 2.917,-11.25c2.083,-2.5 5,-3.333 9.167,-3.333c4.166,-0 4.583,-0 7.5,0.833l1.666,0l0,6.25l-6.666,0c-2.5,0 -4.167,0 -5,1.667c-0.834,1.666 -1.25,3.333 -1.25,6.25c-0,2.916 -0,5 1.25,6.25c1.25,1.25 2.5,1.666 5.416,1.666l6.667,0l-0,5.417c-4.167,0.833 -7.083,1.25 -9.167,1.25c-4.166,0 -7.083,-1.25 -9.166,-3.333l-0.417,-0.417Zm22.917,127.083l-2.917,0l-0,-8.333c-0,-2.083 -0,-3.75 -0.833,-4.583c-0,-0.834 -1.25,-1.25 -2.917,-1.25c-1.667,-0 -2.5,-0 -3.75,0.833l-0,13.333l-2.5,0l-0,-22.5l2.5,0l-0,7.917c1.667,-0.833 3.333,-1.25 5,-1.25c1.667,0 3.333,0 4.167,1.667c0.833,1.666 1.25,3.333 1.25,5.833l-0,8.333Zm15.833,-7.083l-10.417,0c0,1.667 0,2.917 0.834,3.75c0.833,0.833 1.666,1.25 3.333,1.25l5.417,0l-0,1.667l-6.25,-0c-1.667,-0 -3.75,-0.834 -5,-2.084c-1.25,-1.25 -1.25,-3.333 -1.25,-6.25c-0,-5.416 2.083,-8.333 6.666,-8.333c4.584,0 3.75,0 4.584,1.667c1.25,1.25 1.666,2.916 1.666,5.416l0,2.5l0.417,0l-0,0.417Zm-0,-48.75l-4.583,0c-1.25,0 -2.5,-0.833 -3.334,-1.667c-2.5,1.25 -5.416,2.084 -8.333,2.084c-5.833,-0 -8.75,-2.917 -8.75,-9.167c-0,-6.25 0.833,-5 2.5,-6.25c1.667,-1.25 4.167,-2.083 7.5,-2.083l5.833,-0l0,-2.084c0,-1.25 0,-2.083 -0.833,-2.5c-0,0 -1.25,-0.833 -2.5,-0.833l-10.417,0l0,-5c4.167,-1.25 7.917,-1.667 11.667,-1.667c3.75,0 6.25,0.834 7.917,2.084c1.666,1.25 2.5,3.75 2.5,7.083l-0,13.75c-0,0 0.833,0 1.25,0.833l-0,5.834l-0.834,-0l0.417,-0.417Zm-7.917,-67.917c-5.833,0 -8.75,-2.916 -8.75,-9.166c0,-6.25 0.834,-5 2.5,-6.25c1.667,-1.25 4.167,-2.084 7.5,-2.084l5.834,0l-0,-2.083c-0,-1.25 -0,-2.083 -0.834,-2.5c0,0 -1.25,-0.833 -2.5,-0.833l-10.416,-0l-0,-5c4.166,-1.25 7.916,-1.667 11.666,-1.667c3.75,0 6.25,0.833 7.917,2.083c1.667,1.667 2.5,3.75 2.5,7.084l-0,13.75c-0,-0 0.833,-0 1.25,0.833l-0,5.833l-5,0c-1.25,0 -2.5,-0.833 -3.333,-1.666c-2.5,1.25 -5.417,2.083 -8.334,2.083l0,-0.417Zm14.167,123.75l-2.5,0l-0,-15.833l2.5,0l-0,15.833Zm-0,-19.166l-2.5,-0l-0,-2.917l2.5,0l-0,2.917Zm7.083,19.166l-2.5,0l0,-3.75l2.5,0l0,3.75Zm-4.583,-58.333c-1.25,-1.667 -1.667,-4.167 -1.667,-8.333l0,-11.667l-3.333,0l-0,-6.25l3.333,0l0,-7.917l7.5,0l0,7.917l7.084,0l-0,6.25l-7.084,0l0,15.417l5.834,-0l-0,5.833c-2.5,0 -4.584,0.833 -5.834,0.833c-3.333,0 -5.833,-0.833 -7.083,-2.083l1.25,0Zm20.833,51.25l-10.416,0c-0,1.667 -0,2.917 0.833,3.75c0.833,0.833 1.667,1.25 3.333,1.25l5.417,0l-0,1.667l-6.25,-0c-1.667,-0 -3.75,-0.834 -5,-2.084c-1.25,-1.25 -1.25,-3.333 -1.25,-6.25c-0,-5.416 2.083,-8.333 6.667,-8.333c4.583,0 3.75,0 4.583,1.667c1.25,1.25 1.667,2.916 1.667,5.416l-0,2.5l0.416,0l0,0.417Zm15.834,7.083l-2.5,0l-0,-1.25c-1.667,0.834 -2.917,1.25 -4.584,1.25c-1.666,0 -3.75,0 -4.166,-1.666c-0.834,-1.25 -1.25,-3.334 -1.25,-6.25l-0,-8.334l2.5,0l-0,12.917c-0,0.833 1.25,1.25 2.5,1.25l3.75,0l-0,-12.917l2.5,0l-0,15.834l0.833,-0.834l0.417,0Zm12.083,-56.666l-12.917,-0l-6.666,-28.334l7.916,0l4.584,21.667l1.666,0l4.584,-21.667l7.5,0l-6.667,28.334Zm34.167,-10.834l-17.084,0c0,1.667 0,2.917 1.25,3.75c0.834,0.834 2.084,1.25 3.75,1.25l10.834,0l-0,5.417c-4.167,1.25 -8.334,1.667 -11.667,1.667c-3.333,-0 -7.5,-1.25 -9.167,-3.334c-2.083,-2.083 -2.916,-5.833 -2.916,-10.833c-0,-10 4.166,-15 12.5,-15c8.333,0 12.5,4.167 12.5,12.917l-0,5.416l-0,-1.25Zm11.666,-56.666l-7.5,-0l0,-15c0,-2.5 0,-4.167 -0.833,-5.417c-0,-1.25 -1.667,-1.667 -3.333,-1.667c-1.667,0 -2.917,0 -4.584,0.834l-0.833,-0l-0,21.25l-7.5,-0l-0,-28.334l7.5,0l-0,1.667c2.5,-1.667 5,-2.083 7.083,-2.083c3.75,-0 6.25,1.25 7.917,3.333c1.25,2.083 2.083,5.833 2.083,10.417l0,15.416l0,-0.416Zm7.5,-89.167c-2.916,0.833 -5.833,1.25 -7.916,2.083l-1.25,0l-0,19.167l-7.5,0l-0,-28.333l7.5,-0l-0,2.916c3.333,-2.083 6.25,-2.916 9.166,-3.75l0,7.917Z" style="fill-rule:nonzero;"/><path d="M4219.79,442.917c-1.25,-0 -2.5,-0 -3.334,1.25c-0.833,0.833 -1.25,2.083 -1.25,4.166l8.334,0c-0,-2.083 -0,-3.333 -0.834,-4.166c-0.833,-0.834 -1.666,-1.25 -2.916,-1.25Z" style="fill-rule:nonzero;"/><path d="M4369.79,243.75c-0.834,-0.833 -2.084,-1.25 -3.75,-1.25c-1.667,0 -2.917,0 -3.75,1.25c-0.834,1.25 -1.25,2.5 -1.25,4.583l9.583,0c0,-2.083 0,-3.75 -1.25,-4.583l0.417,0Z" style="fill-rule:nonzero;"/></g></g><rect x="3804.79" y="108.333" width="3.75" height="407.917"/><g><path d="M3022.29,218.75l-0,187.5l-281.25,0l-0,-187.5l281.25,0Zm-138.334,152.5l-2.5,-7.083l-2.083,7.083l-7.5,0l5.833,4.167l-2.083,7.083l5.833,-4.583l6.25,4.583l-2.5,-7.083l6.25,-4.167l-7.5,0Zm30.417,-8.333l-2.083,-7.084l-2.084,7.084l-7.5,-0l5.834,4.166l-2.084,7.084l5.834,-4.167l5.833,4.167l-2.083,-7.084l5.833,-4.166l-7.5,-0Zm22.917,-22.5l-2.5,-7.084l-2.084,7.084l-7.5,-0l5.834,4.166l-2.084,7.084l5.834,-4.167l5.833,4.167l-2.083,-7.084l5.833,-4.166l-7.083,-0Zm15.416,-30.834l-7.5,0l-2.083,-7.083l-2.5,7.083l-7.5,0l6.25,4.167l-2.5,7.083l6.25,-4.166l5.833,4.166l-2.5,-7.083l6.25,-4.167Zm-23.75,-19.583l5.834,-4.167l5.833,4.167l-2.083,-6.667l5.833,-4.583l-7.083,0l-2.5,-7.083l-2.084,7.083l-7.5,0l5.834,4.583l-2.084,6.667Zm-16.666,-40.833l-2.084,7.083l-7.5,0l5.834,4.583l-2.084,7.084l5.834,-4.584l5.833,4.584l-2.083,-7.084l6.25,-4.583l-7.5,0l-2.5,-7.083Zm-36.667,10.416l5.833,-4.583l6.25,4.583l-2.5,-7.083l6.25,-4.583l-7.5,-0l-2.5,-7.084l-2.083,7.084l-7.5,-0l5.833,4.583l-2.083,7.083Zm-30.833,8.334l6.25,-4.584l5.833,4.584l-2.5,-7.084l6.25,-4.583l-7.5,0l-2.083,-7.083l-2.5,7.083l-7.5,0l6.25,4.583l-2.5,7.084Zm-16.25,3.75l-2.5,7.083l-7.5,0l6.25,4.583l-2.5,7.084l6.25,-4.584l5.833,4.584l-2.5,-7.084l6.25,-4.583l-7.5,0l-2.083,-7.083Zm-8.334,45l5.834,4.166l-2.084,-7.083l5.834,-4.167l-7.5,0l-2.084,-7.083l-2.5,7.083l-7.5,0l6.25,4.167l-2.083,7.083l5.833,-4.166Zm10.417,23.75l-2.083,-7.084l-2.5,7.084l-7.5,-0l6.25,4.166l-2.5,7.084l6.25,-4.167l5.833,4.167l-2.5,-7.084l6.25,-4.166l-7.5,-0Zm22.5,22.5l-2.083,-7.084l-2.5,7.084l-7.5,-0l6.25,4.166l-2.5,7.084l6.25,-4.167l5.833,4.167l-2.083,-7.084l5.833,-4.166l-7.5,-0Z"/><g><path d="M3063.12,289.167l0,-46.25l31.667,-0l-0,7.916l-22.5,0l-0,10.834l19.166,-0l0,7.916l-19.166,0l-0,19.584l-9.167,-0Z" style="fill-rule:nonzero;"/><path d="M3124.38,289.167l0,-5c-1.25,1.666 -2.917,3.333 -5,4.166c-2.083,0.834 -4.167,1.667 -6.25,1.667c-2.083,0 -4.167,0 -6.25,-1.667c-1.667,-0.833 -2.917,-2.5 -3.75,-4.166c-0.833,-1.667 -1.25,-4.167 -1.25,-7.5l0,-21.25l8.75,-0l0,24.166c0,1.25 0.833,2.084 1.667,2.5c0.833,0.417 2.083,0.834 3.333,0.834c1.25,-0 2.917,-0 4.167,-1.25c1.25,-0.834 2.083,-1.667 2.5,-2.917c-0,-1.25 0.833,-4.167 0.833,-9.167l0,-14.166l8.75,-0l0,33.333l-8.333,0l0.833,0l0,0.417Z" style="fill-rule:nonzero;"/><path d="M3172.29,289.167l-8.75,-0l-0,-24.167c-0,-1.25 -0.834,-2.083 -1.667,-2.5c-0.833,-0.417 -1.667,-0.833 -2.917,-0.833c-1.25,-0 -2.916,-0 -4.166,1.25c-1.25,1.25 -2.084,2.083 -2.5,3.333c-0.417,1.25 -0.834,3.75 -0.834,7.5l0,15l-8.75,0l0,-33.333l8.334,-0l-0,5c2.916,-3.75 6.666,-5.834 10.833,-5.834c4.167,0 3.75,0 5.417,1.25c1.666,0.834 2.916,1.667 3.75,2.5c0.833,0.834 1.25,2.5 1.666,3.75c0.417,1.25 0,3.334 0,5.834l0,20.833l-0.416,0l-0,0.417Z" style="fill-rule:nonzero;"/><path d="M3211.88,289.167l-8.333,-0l-0,-5c-1.25,2.083 -2.917,3.333 -5,4.166c-2.084,0.834 -3.75,1.25 -5.417,1.25c-3.75,0 -7.083,-1.666 -10,-4.583c-2.917,-2.917 -4.167,-7.5 -4.167,-12.917c0,-5.416 1.25,-10 4.167,-12.916c2.917,-2.917 5.833,-4.584 10,-4.584c4.167,0 7.083,1.667 9.583,4.584l0,-16.667l8.75,0l0,46.25l0.417,0l0,0.417Zm-23.75,-17.5c0,3.75 0,6.25 1.667,7.916c1.25,2.5 3.333,3.334 5.833,3.334c2.5,-0 3.75,-0.834 5,-2.5c1.25,-1.667 2.083,-4.167 2.083,-7.917c0,-3.75 -0.833,-6.667 -2.083,-8.333c-1.25,-1.667 -3.333,-2.5 -5.417,-2.5c-2.083,-0 -3.75,0.833 -5.416,2.5c-1.25,1.666 -2.084,4.166 -2.084,7.5l0.417,-0Z" style="fill-rule:nonzero;"/><path d="M3239.79,278.75l8.75,1.667c-1.25,3.333 -2.917,5.833 -5.417,7.5c-2.5,1.666 -5.417,2.5 -9.167,2.5c-5.833,-0 -10,-2.084 -12.916,-5.834c-2.084,-2.916 -3.334,-7.083 -3.334,-11.666c0,-4.584 1.25,-10 4.167,-12.917c2.917,-3.333 6.667,-4.583 10.833,-4.583c4.167,-0 8.75,1.666 11.667,5c2.917,3.333 4.167,8.333 4.167,15l-22.084,-0c0,2.5 0.834,4.583 2.084,6.25c1.25,1.666 2.916,2.083 5,2.083c2.083,0 2.5,0 3.333,-1.25c0.833,-0.833 1.667,-2.083 2.083,-3.75l0.834,-0Zm0.416,-9.167c0,-2.5 -0.833,-4.583 -2.083,-5.833c-1.25,-1.25 -2.917,-2.083 -4.583,-2.083c-1.667,-0 -3.334,0.833 -4.584,2.083c-1.25,1.25 -2.083,3.333 -1.666,5.833l13.333,0l-0.417,0Z" style="fill-rule:nonzero;"/><path d="M3286.88,289.167l-8.333,-0l-0,-5c-1.25,2.083 -2.917,3.333 -5,4.166c-2.084,0.834 -3.75,1.25 -5.417,1.25c-3.75,0 -7.083,-1.666 -10,-4.583c-2.917,-2.917 -4.167,-7.5 -4.167,-12.917c0,-5.416 1.25,-10 4.167,-12.916c2.917,-2.917 5.833,-4.584 10,-4.584c4.167,0 7.083,1.667 9.583,4.584l0,-16.667l8.75,0l0,46.25l0.417,0l0,0.417Zm-23.333,-17.5c-0,3.75 -0,6.25 1.666,7.916c1.25,2.5 3.334,3.334 5.834,3.334c2.5,-0 3.75,-0.834 5,-2.5c1.25,-1.667 2.083,-4.167 2.083,-7.917c0,-3.75 -0.833,-6.667 -2.083,-8.333c-1.25,-1.667 -3.334,-2.5 -5.417,-2.5c-2.083,-0 -3.75,0.833 -5.417,2.5c-1.25,1.666 -2.083,4.166 -2.083,7.5l0.417,-0Z" style="fill-rule:nonzero;"/><path d="M3313.54,289.583l-0,-46.666l8.75,-0l-0,16.666c2.916,-2.916 5.833,-4.583 9.583,-4.583c3.75,0 7.5,1.667 10,4.583c2.5,2.917 4.167,7.084 4.167,12.5c-0,5.417 -1.25,10 -4.167,13.334c-2.917,2.916 -5.833,4.583 -10,4.583c-4.167,0 -3.75,0 -5.833,-1.25c-1.667,-0.833 -3.334,-2.5 -5,-4.167l-0,5l-8.334,0l0.834,0Zm8.75,-17.916c-0,3.333 -0,5.833 1.666,7.5c1.667,2.5 3.75,3.333 6.25,3.333c2.5,-0 3.75,-0.833 5,-2.5c1.25,-1.667 2.084,-4.167 2.084,-7.917c-0,-3.75 -0.834,-6.666 -2.084,-8.333c-1.25,-1.667 -3.333,-2.5 -5.416,-2.5c-2.084,-0 -3.75,0.833 -5.417,2.5c-1.25,1.667 -2.083,4.167 -2.083,7.5l-0,0.417Z" style="fill-rule:nonzero;"/><path d="M3348.96,255.833l9.584,0l7.916,23.75l7.917,-23.75l9.167,0l-11.667,32.084l-2.083,5.833c-0.834,2.083 -1.667,3.333 -2.084,4.583c-0.416,1.25 -1.666,1.667 -2.5,2.5c-0.833,0.834 -2.083,1.25 -3.333,1.667l-9.583,0l-0.834,-7.083l3.75,-0c2.084,-0 3.75,-0 4.584,-1.667c0.833,-1.667 1.666,-2.917 2.083,-4.583l-12.917,-33.334Z" style="fill-rule:nonzero;"/><path d="M3078.12,333.333l0,7.084l-6.25,-0l0,17.916c0,0 0,0.834 0.833,1.25c0.834,0.417 0.834,0 1.667,0c0.833,0 2.083,0 3.75,-0.833l0.833,6.667c-2.083,0.833 -4.583,1.25 -7.083,1.25c-2.5,-0 -2.917,-0 -4.167,-0.834c-1.25,0 -2.083,-1.25 -2.916,-2.083c-0,-0.833 -0.834,-2.083 -1.25,-3.333l-0,-20.834l-4.167,0l0,-7.083l4.167,0l-0,-6.667l8.75,-5l-0,11.667l6.25,0l-0,0.833l-0.417,0Z" style="fill-rule:nonzero;"/><path d="M3093.12,320.417l0,17.083c2.917,-3.333 6.25,-5 10.417,-5c4.166,0 3.75,0 5.416,1.25c1.667,0.833 2.917,1.667 3.75,2.917c0.834,1.25 1.25,2.5 1.667,3.75l-0,26.25l-8.75,-0l-0,-24.167c-0,-0.833 -0.833,-1.667 -1.667,-2.083c-0.833,-0.417 -2.083,-0.834 -3.333,-0.834c-1.25,0 -2.917,0 -3.75,1.25c-1.25,0.834 -2.083,1.667 -2.5,3.334c-0,1.25 -0.833,3.75 -0.833,6.25l-0,16.666l-8.75,0l-0,-46.25l8.75,0l-0.417,0l0,-0.416Z" style="fill-rule:nonzero;"/><path d="M3143.12,355.833l8.75,1.667c-1.25,3.333 -2.917,5.833 -5.417,7.5c-2.5,1.667 -5.416,2.5 -9.166,2.5c-5.834,0 -10,-2.083 -12.917,-5.833c-2.083,-2.917 -3.333,-7.084 -3.333,-11.667c-0,-4.583 1.25,-10 4.166,-12.917c2.917,-3.333 6.667,-4.583 10.834,-4.583c4.166,0 8.75,1.667 11.666,5c2.917,3.333 4.167,8.333 4.167,15l-22.083,0c-0,2.5 0.833,4.583 2.083,6.25c1.25,1.667 2.917,2.083 5,2.083c2.083,0 2.5,0 3.333,-1.25c0.834,-0.833 1.667,-2.083 2.084,-3.75l0.833,0Zm0.417,-8.75c-0,-2.5 -0.834,-4.583 -2.084,-5.833c-1.25,-1.25 -2.916,-2.083 -4.583,-2.083c-1.667,-0 -3.333,0.833 -4.583,2.083c-1.25,1.25 -2.084,3.333 -1.667,5.833l13.333,0l-0.416,0Z" style="fill-rule:nonzero;"/><path d="M3177.71,367.083l0,-46.666l34.167,-0l0,7.916l-25,0l0,10.417l23.333,0l0,7.917l-23.333,-0l0,12.5l25.833,-0l0,7.916l-35,0Z" style="fill-rule:nonzero;"/><path d="M3242.71,366.667l0,-5c-1.25,1.666 -2.916,3.333 -5,4.166c-2.083,0.834 -4.166,1.667 -6.25,1.667c-2.083,0 -4.166,0 -6.25,-1.667c-1.666,-0.833 -2.916,-2.5 -3.75,-4.166c-0.833,-1.667 -1.25,-4.167 -1.25,-7.5l0,-21.25l8.75,-0l0,24.166c0,1.25 0.834,2.084 1.667,2.5c0.833,0.417 2.083,0.834 3.333,0.834c1.25,-0 2.917,-0 4.167,-1.25c1.25,-0.834 2.083,-1.667 2.5,-2.917c0,-1.25 0.833,-4.167 0.833,-9.167l0,-14.166l8.75,-0l0,33.333l-8.333,-0l0.833,-0l0,0.417Z" style="fill-rule:nonzero;"/><path d="M3268.54,366.667l-8.75,-0l-0,-33.334l8.333,0l0,4.584c1.25,-2.084 2.5,-3.75 3.75,-4.584c1.25,-0.833 2.5,-1.25 3.75,-1.25c1.25,0 4.167,0 5.833,1.667l-2.916,7.917c-1.667,-0.834 -2.917,-1.25 -4.167,-1.25c-1.25,-0 -2.083,-0 -3.333,0.833c-1.25,0.833 -1.667,2.083 -2.084,3.75c-0.416,1.667 -0.833,5.417 -0.833,11.25l-0,10.417l0.417,-0Z" style="fill-rule:nonzero;"/><path d="M3283.12,349.583c0,-2.916 0.833,-5.833 2.083,-8.333c1.25,-2.5 3.334,-5 6.25,-6.25c2.917,-1.25 5.417,-2.083 8.75,-2.083c5,-0 9.167,1.666 12.5,5c3.334,3.333 5,7.5 5,12.5c0,5 -1.666,9.166 -5,12.5c-3.333,3.333 -7.5,5 -12.5,5c-5,-0 -5.833,-0.834 -8.75,-2.084c-2.916,-1.25 -5,-3.333 -6.25,-6.25c-1.25,-2.916 -2.083,-5.833 -2.083,-9.583l0,-0.417Zm9.167,0.417c-0,3.333 0.833,5.833 2.5,7.5c1.666,1.667 3.333,2.5 5.833,2.5c2.5,0 4.167,-0.833 5.833,-2.5c1.667,-1.667 2.5,-4.167 2.5,-7.5c0,-3.333 -0.833,-5.833 -2.5,-7.5c-1.666,-1.667 -3.333,-2.5 -5.833,-2.5c-2.5,0 -4.167,0.833 -5.833,2.5c-1.667,1.667 -2.5,4.167 -2.5,7.5Z" style="fill-rule:nonzero;"/><path d="M3324.38,333.333l8.333,0l0,5c1.25,-1.666 2.5,-2.916 4.167,-4.166c1.667,-1.25 3.75,-1.667 6.25,-1.667c3.75,0 7.083,1.667 10,4.583c2.917,2.917 4.167,7.084 4.167,12.917c-0,5.833 -1.25,10 -4.167,12.917c-2.917,2.916 -5.833,4.583 -10,4.583c-4.167,-0 -3.333,-0 -5,-1.25c-1.667,-0.833 -2.917,-2.083 -4.583,-3.75l-0,16.667l-8.75,-0l-0,-46.25l-0.417,-0l0,0.416Zm8.75,15.834c0,3.75 0.833,6.666 2.083,8.333c1.25,1.667 3.334,2.5 5.417,2.5c2.083,0 3.75,-0.833 5,-2.5c1.25,-1.667 2.083,-4.167 2.083,-7.917c0,-3.75 -0.833,-6.25 -2.083,-7.916c-1.25,-1.667 -3.333,-2.5 -5.417,-2.5c-2.083,-0 -4.166,0.833 -5.416,2.5c-1.25,1.666 -2.084,4.166 -2.084,7.5l0.417,-0Z" style="fill-rule:nonzero;"/><path d="M3383.12,355.833l8.75,1.667c-1.25,3.333 -2.917,5.833 -5.417,7.5c-2.5,1.667 -5.416,2.5 -9.166,2.5c-5.834,0 -10,-2.083 -12.917,-5.833c-2.083,-2.917 -3.333,-7.084 -3.333,-11.667c-0,-4.583 1.25,-10 4.166,-12.917c2.917,-3.333 6.667,-4.583 10.834,-4.583c4.166,0 8.75,1.667 11.666,5c2.917,3.333 4.167,8.333 4.167,15l-22.083,0c-0,2.5 0.833,4.583 2.083,6.25c1.25,1.667 2.917,2.083 5,2.083c2.083,0 2.5,0 3.333,-1.25c0.834,-0.833 1.667,-2.083 2.084,-3.75l0.833,0Zm0.833,-8.75c0,-2.5 -0.833,-4.583 -2.083,-5.833c-1.25,-1.25 -2.917,-2.083 -4.583,-2.083c-1.667,-0 -3.334,0.833 -4.584,2.083c-1.25,1.25 -2.083,3.333 -1.666,5.833l13.333,0l-0.417,0Z" style="fill-rule:nonzero;"/><path d="M3406.46,343.333l-7.916,-1.25c0.833,-3.333 2.5,-5.416 4.583,-7.083c2.083,-1.667 5.417,-2.5 10,-2.5c4.583,0 7.083,0 8.75,1.25c1.667,1.25 3.333,2.083 4.167,3.75c0.833,1.25 1.25,4.167 1.25,7.917l-0,17.083c-0,1.25 0.833,2.917 1.666,4.583l-8.75,0c0,0 0,-1.25 -0.833,-2.5l-0,-0.833c-1.667,1.667 -3.333,2.5 -5,3.333c-1.667,0.834 -3.75,1.25 -5.417,1.25c-3.333,0 -6.25,-0.833 -8.333,-2.916c-2.083,-2.084 -2.917,-4.167 -2.917,-7.084c0,-2.916 0,-3.75 1.25,-5c0.834,-1.666 2.084,-2.5 3.75,-3.333c1.667,-0.833 4.167,-1.667 7.084,-2.083c4.166,-0.834 7.083,-1.667 8.75,-2.084l-0,-0.833c-0,-1.667 -0,-2.917 -1.25,-3.75c-1.25,-0.833 -2.5,-1.25 -4.584,-1.25c-2.083,0 -2.916,0 -3.75,0.833c-0.833,0.834 -1.666,1.667 -2.083,3.334l-0,-0.834l-0.417,0Zm11.667,7.084c-1.25,-0 -2.917,0.833 -5.417,1.25c-2.5,-0 -4.166,0.833 -5,1.666c-1.25,0.834 -1.666,1.667 -1.666,2.917c-0,1.25 -0,2.5 1.25,3.333c0.833,0.834 2.083,1.25 3.333,1.25c1.25,0 2.917,0 4.583,-1.666c1.25,-0.834 1.667,-1.667 2.084,-2.917l-0,-5.833l0.833,-0Z" style="fill-rule:nonzero;"/><path d="M3466.04,366.667l-8.75,-0l-0,-24.167c-0,-1.25 -0.834,-2.083 -1.667,-2.5c-0.833,-0.417 -2.083,-0.833 -2.917,-0.833c-0.833,-0 -2.916,-0 -4.166,1.25c-1.25,1.25 -2.084,2.083 -2.5,3.333c-0.417,1.25 -0.834,3.75 -0.834,7.5l0,15l-8.75,0l0,-33.333l8.334,-0l-0,5c2.916,-3.75 6.666,-5.834 10.833,-5.834c4.167,0 3.75,0 5.417,1.25c1.666,0.834 2.916,1.667 3.75,2.5c0.833,0.834 1.25,2.5 1.666,3.75l0,26.667l-0.416,0l-0,0.417Z" style="fill-rule:nonzero;"/><path d="M3493.12,320.417l9.167,-0l-0,32.916c-0,2.084 1.25,3.334 2.916,4.584c1.667,1.25 3.75,1.666 6.25,1.666c2.5,0 4.584,0 5.834,-1.666c1.25,-1.25 2.083,-2.5 2.5,-4.167l-0,-33.333l9.166,-0l0,24.166c0,5.417 0,9.584 -0.833,11.667c-0.833,2.083 -1.25,4.167 -2.917,5.833c-1.25,1.667 -3.333,2.917 -5.416,3.75c-2.084,0.834 -5.417,1.25 -8.75,1.25c-3.334,0 -7.917,0 -10,-1.666c-2.084,-0.834 -4.167,-2.5 -5.417,-4.167c-1.25,-1.667 -2.083,-3.333 -2.5,-5c0,-2.5 -0.833,-6.667 -0.833,-11.667l-0,-24.583l0.833,0l0,0.417Z" style="fill-rule:nonzero;"/><path d="M3569.79,366.667l-8.75,-0l-0,-24.167c-0,-1.25 -0.834,-2.083 -1.667,-2.5c-0.833,-0.417 -2.083,-0.833 -2.917,-0.833c-0.833,-0 -2.916,-0 -4.166,1.25c-1.25,1.25 -2.084,2.083 -2.5,3.333c-0.417,1.25 -0.834,3.75 -0.834,7.5l0,15l-8.75,0l0,-33.333l8.334,-0l-0,5c2.916,-3.75 6.666,-5.834 10.833,-5.834c4.167,0 3.75,0 5.417,1.25c1.666,0.834 2.916,1.667 3.75,2.5c0.833,1.25 1.25,2.5 1.666,3.75c0.417,1.25 0,3.334 0,5.834l0,20.833l-0.416,-0l-0,0.417Z" style="fill-rule:nonzero;"/><path d="M3578.96,328.75l0,-8.333l8.75,-0l0,8.333l-8.75,0Zm0,37.917l0,-33.334l8.75,0l0,33.334l-8.75,-0Z" style="fill-rule:nonzero;"/><path d="M3594.79,349.583c-0,-2.916 0.833,-5.833 2.083,-8.333c1.25,-2.917 3.333,-5 6.25,-6.25c2.917,-1.25 5.417,-2.083 8.75,-2.083c5,-0 9.167,1.666 12.5,5c3.333,3.333 5,7.5 5,12.5c0,5 -1.667,9.166 -5,12.5c-3.333,3.333 -7.5,5 -12.5,5c-5,-0 -5.833,-0.834 -8.75,-2.084c-2.917,-1.25 -5,-3.333 -6.25,-6.25c-1.25,-2.5 -2.083,-5.833 -2.083,-9.583l-0,-0.417Zm9.166,0.417c0,3.333 0.834,5.833 2.5,7.5c1.667,1.667 3.334,2.5 5.834,2.5c2.5,0 4.166,-0.833 5.833,-2.5c1.667,-1.667 2.5,-4.167 2.5,-7.5c0,-3.333 -0.833,-5.833 -2.5,-7.5c-1.667,-1.667 -3.333,-2.5 -5.833,-2.5c-2.5,0 -4.167,0.833 -5.834,2.5c-1.666,1.667 -2.5,4.167 -2.5,7.5Z" style="fill-rule:nonzero;"/><path d="M3666.88,366.667l-8.75,-0l0,-24.167c0,-1.25 -0.833,-2.083 -1.667,-2.5c-0.833,-0.417 -2.083,-0.833 -2.916,-0.833c-0.834,-0 -2.917,-0 -4.167,1.25c-1.25,1.25 -2.083,2.083 -2.5,3.333c-0.417,1.25 -0.833,3.75 -0.833,7.5l-0,15l-8.75,0l-0,-33.333l8.333,-0l-0,5c2.917,-3.75 6.667,-5.834 10.833,-5.834c4.167,0 3.75,0 5.417,1.25c1.667,0.834 2.917,1.667 3.75,2.5c0.833,1.25 1.25,2.5 1.667,3.75c0.416,1.25 -0,3.334 -0,5.834l-0,20.833l-0.417,-0l0,0.417Z" style="fill-rule:nonzero;"/></g></g><g><path d="M1763.12,170.833c0,-5 -10.833,-3.75 -10.833,-11.25c-0,-7.5 2.916,-6.25 7.5,-6.25c4.583,0 5,1.25 6.25,2.084l-2.084,2.5c-0.833,-0.834 -2.5,-1.667 -4.583,-1.667c-2.083,0 -3.75,1.25 -3.75,3.333c0,5 10.833,3.75 10.833,11.25c0,7.5 -2.916,6.667 -7.916,6.667c-5,0 -6.25,-1.25 -7.5,-2.5l2.083,-2.917c1.25,0.834 2.917,2.5 5.833,2.5c2.917,0 4.167,-1.666 4.167,-3.333l0,-0.417Z" style="fill-rule:nonzero;"/><path d="M1770.21,158.75l3.334,0l-0,11.667c-0,2.5 1.25,4.166 3.75,4.166c2.5,0 4.166,-1.666 4.166,-3.75l0,-12.083l3.334,0l-0,18.333l-2.5,0l-0,-1.666l-0.834,-0c-0.833,0.833 -2.083,2.083 -5,2.083c-2.916,0 -5.833,-2.083 -5.833,-6.25l0,-12.5l-0.417,0Z" style="fill-rule:nonzero;"/><path d="M1796.04,176.667l-2.917,-0l-0,6.666l-3.333,0l-0,-24.583l2.5,0l0.833,1.667c0.833,-1.25 2.5,-2.084 4.583,-2.084c4.167,0 6.667,2.917 6.667,8.75c0,5.834 -3.333,10 -8.333,10l-0,-0.416Zm-0.417,-2.5c3.75,-0 5.417,-2.084 5.417,-6.667c-0,-4.583 -2.084,-6.25 -4.167,-6.25c-2.083,0 -2.917,1.25 -3.75,2.083l-0,10.417l2.5,0l-0,0.417Z" style="fill-rule:nonzero;"/><path d="M1814.79,176.667l-2.917,-0l-0,6.666l-3.333,0l-0,-24.583l2.5,0l0.833,1.667c0.833,-1.25 2.5,-2.084 4.583,-2.084c4.167,0 6.667,2.917 6.667,8.75c0,5.834 -3.333,10 -8.333,10l-0,-0.416Zm-0.417,-2.5c3.75,-0 5.417,-2.084 5.417,-6.667c-0,-4.583 -2.084,-6.25 -4.167,-6.25c-2.083,0 -2.917,1.25 -3.75,2.083l-0,10.417l2.5,0l-0,0.417Z" style="fill-rule:nonzero;"/><path d="M1826.46,167.917c0,-5.834 2.084,-9.584 7.917,-9.584c5.833,0 7.5,3.75 7.5,9.167c0,5.417 -2.083,9.583 -7.917,9.583c-5.833,0 -7.5,-3.75 -7.5,-9.166Zm7.917,6.666c3.333,0 4.167,-2.083 4.167,-6.666c-0,-4.584 -1.25,-6.667 -4.584,-6.667c-3.333,0 -4.166,2.083 -4.166,6.667c-0,4.583 1.25,6.666 4.583,6.666Z" style="fill-rule:nonzero;"/><path d="M1856.04,161.667l-2.084,-0c-1.666,-0 -3.333,0.833 -4.583,2.083l-0,13.333l-3.333,0l-0,-18.333l2.5,0l0.833,2.083c0.833,-1.25 2.5,-2.5 4.583,-2.5c2.084,0 1.25,0 1.667,0l-0,3.334l0.417,-0Z" style="fill-rule:nonzero;"/><path d="M1859.38,171.667l0,-10.417l-2.5,0l-0,-2.083l2.5,-0.834l1.25,-4.583l2.083,0l0,4.583l5,0l0,2.5l-5,0l0,10.417c0,1.667 0.834,2.5 2.5,2.5c1.667,0 2.084,0 2.917,-0.833l0.833,2.5c-0.833,-0 -2.083,0.833 -4.166,0.833c-2.084,0 -5,-1.667 -5,-5.417l-0,0.834l-0.417,-0Z" style="fill-rule:nonzero;"/><path d="M1885.21,175.417c-1.25,0.833 -3.333,1.666 -5.833,1.666c-5.417,0 -8.333,-2.916 -8.333,-9.583c-0,-6.667 3.75,-9.167 7.916,-9.167c4.167,0 6.667,2.917 6.667,7.084c0,4.166 0,2.083 0,3.333l-11.25,0c0,4.167 2.083,5.833 5.417,5.833c3.333,0 3.333,-0.833 4.166,-1.666l1.25,2.5Zm-10.833,-9.167l8.333,0l0,-0.833c0,-2.917 -1.25,-4.167 -3.75,-4.167c-2.5,0 -4.166,1.667 -4.583,5.417l0,-0.417Z" style="fill-rule:nonzero;"/><path d="M1900.62,151.667l3.333,-0l0,25l-2.5,-0l-0.833,-1.667c-0.833,0.833 -2.083,2.083 -4.583,2.083c-4.167,0 -6.667,-2.5 -6.667,-8.75c-0,-6.25 3.75,-10 8.333,-10c4.584,0 2.084,0 2.917,0l-0,-7.083l0,0.417Zm-0,20.833l0,-10.417l-2.5,0c-3.333,0 -5.417,1.667 -5.417,6.667c0,5 2.084,6.25 4.167,6.25c2.083,0 3.333,-0.833 3.75,-2.5Z" style="fill-rule:nonzero;"/><path d="M1918.54,151.667l3.333,-0l-0,7.916c0.417,0 2.083,-1.25 4.167,-1.25c3.75,0 7.083,2.5 7.083,8.75c-0,6.25 -2.917,10 -9.167,10c-6.25,0 -4.166,0 -5.416,-0.833l-0,-24.583Zm11.25,15.833c-0,-5 -2.084,-6.25 -4.584,-6.25c-2.5,0 -2.916,0 -3.333,1.667l-0,11.25l2.5,-0c3.333,-0 5.417,-2.084 5.417,-6.667Z" style="fill-rule:nonzero;"/><path d="M1935.62,180.417l1.667,-0c2.083,-0 3.333,-1.25 3.75,-3.75l-6.667,-18.75l3.75,-0l2.5,7.916c0.833,2.917 1.667,5 2.083,6.667c0,-1.25 0.834,-3.333 1.667,-6.667l2.5,-7.916l3.333,-0l-6.25,19.166c-1.25,3.334 -2.916,5.834 -6.666,5.834c-3.75,-0 -2.084,-0 -2.5,-0l-0,-2.917l0.833,0l-0,0.417Z" style="fill-rule:nonzero;"/></g><g><g><rect x="1868.05" y="274.716" width="5.999" height="6.042" style="fill-rule:nonzero;"/><rect x="1868.05" y="286.599" width="5.999" height="47.466" style="fill-rule:nonzero;"/><path d="M1885.73,274.716l5.999,0l0,11.886l23.522,0l-0,6.042l-23.522,0l0,29.538c0,3.475 2.565,6.042 5.841,6.042l17.681,0l-0,5.884l-17.681,0c-6.157,0 -11.84,-4.976 -11.84,-11.886l0,-29.538l-8.84,-0l-0,-6.042l8.84,-0l0,-11.926Z"/><path d="M1816.11,310.413l46.136,0c-0,-5.291 -0.316,-9.201 -0.908,-11.768c-0.592,-2.566 -1.657,-4.818 -3.157,-6.792c-1.934,-2.251 -4.341,-3.751 -7.498,-4.659c-3,-0.751 -8.091,-1.225 -14.958,-1.225c-6.867,0 -11.998,0.435 -15.115,1.225c-3.158,0.908 -5.526,2.408 -7.341,4.659c-1.658,1.974 -2.684,4.226 -3.157,6.792c-0.593,2.567 -0.908,6.477 -1.066,11.768c0.158,5.134 0.434,9.043 1.066,11.61c0.434,2.567 1.499,4.818 3.157,6.792c1.815,2.251 4.183,3.91 7.341,4.66c3.157,0.908 8.09,1.224 15.115,1.224c7.025,0 11.997,-0.316 14.958,-1.224c3.157,-0.75 5.525,-2.409 7.498,-4.66c1.184,-1.5 2.092,-3.317 2.684,-5.133l-7.025,-0c-0.435,0.592 -0.908,1.224 -1.5,1.816c-1.342,1.066 -3.276,1.975 -5.683,2.409c-2.565,0.434 -6.157,0.592 -10.774,0.592c-4.618,0 -8.367,-0.158 -10.775,-0.592c-2.565,-0.434 -4.341,-1.343 -5.683,-2.409c-1.815,-1.5 -2.841,-4.067 -3.157,-7.543c-0.158,-2.408 -0.158,-5.133 -0.158,-7.542Zm39.387,-6.042l-39.387,0c0.158,-4.383 1.184,-7.384 3.276,-9.043c1.342,-1.224 3.157,-1.974 5.683,-2.409c2.407,-0.434 5.999,-0.75 10.774,-0.75c4.776,0 8.249,0.316 10.775,0.75c2.407,0.435 4.341,1.225 5.683,2.409c2.091,1.659 3.157,4.66 3.157,9.043" style="fill-rule:nonzero;"/><path d="M1862.2,417.071c58.567,0 106.163,-47.742 106.163,-106.66c-0,-58.918 -47.596,-106.661 -106.163,-106.661c-19.299,0 -37.414,5.292 -53.003,14.295l5.841,10.228c13.931,-8.135 29.955,-12.637 47.162,-12.637c52.134,0 94.362,42.333 94.362,94.775c0,52.442 -42.228,94.932 -94.362,94.932c-52.134,0 -94.324,-42.649 -94.324,-94.932l-11.839,-0c-0,58.918 47.635,106.66 106.163,106.66Z"/><path d="M1862.2,393.419c30.547,-0 57.226,-16.704 71.433,-41.583l-10.182,-5.884c-12.274,21.246 -35.045,35.541 -61.251,35.541c-39.071,-0 -70.683,-31.789 -70.683,-71.12c-0,-39.332 31.612,-71.2 70.683,-71.2c26.206,0 48.977,14.295 61.251,35.541l10.182,-5.884c-14.207,-24.879 -40.886,-41.425 -71.433,-41.425c-45.504,0 -82.483,37.081 -82.483,83.007c-0,45.926 36.979,83.007 82.523,83.007"/><path d="M2003.84,286.52l0,29.617c0,9.043 0.524,10.465 4.307,11.452c2.285,0.553 7.266,0.869 14.831,0.869c14.381,-0 18.725,-0.553 20.336,-2.567c1.273,-1.58 1.348,-2.369 1.423,-16.033l-0,-23.338l5.992,0l0,23.338c-0.075,9.833 -0.075,10.189 -0.337,13.111c-0.487,5.765 -3.221,9.201 -8.127,10.188c-3.033,0.553 -10.598,0.987 -17.939,0.987c-9.251,0 -15.318,-0.355 -18.389,-0.987c-4.157,-0.908 -7.04,-4.502 -7.602,-9.319c-0.337,-2.923 -0.412,-3.752 -0.487,-13.94l-0,-23.338l5.992,-0l0,-0.04Z" style="fill-rule:nonzero;"/><path d="M2061.63,301.048l-0,4.423l0.337,0c0.824,-1.579 2.022,-2.685 3.708,-3.554c1.872,-0.987 4.494,-1.263 10.411,-1.263c5.917,-0 8.576,0.552 10.674,2.487c2.097,1.935 3.146,5.055 3.146,9.32l-0,3.396l-5.019,0l0,-2.33c0,-6.832 -1.685,-8.332 -9.325,-8.332c-11.797,-0 -13.895,1.974 -13.895,13.584l0,15.243l-4.905,-0l-0,-32.974l4.905,0l-0.037,0Z" style="fill-rule:nonzero;"/><path d="M2097.95,286.481l0,18.481l0.338,-0c2.209,-3.554 4.98,-4.423 13.819,-4.423c10.524,0 13.707,0.553 16.516,2.843c3.37,2.765 4.681,6.832 4.681,14.572c0,8.451 -2.097,12.873 -7.04,15.006c-2.547,1.066 -5.693,1.421 -13.37,1.421c-9.888,0 -12.434,-0.789 -14.756,-4.62l-0.263,0l0,4.186l-4.83,0l-0,-47.466l4.905,-0Zm-0.15,31.078c0,6.752 1.012,9.477 4.083,10.978c1.872,0.987 5.58,1.343 12.771,1.343c11.01,-0 13.445,-2.212 13.445,-12.242c-0,-6.634 -1.199,-9.754 -4.232,-11.255c-1.873,-0.908 -5.169,-1.263 -11.685,-1.263c-12.209,-0 -14.382,1.856 -14.382,12.439Z" style="fill-rule:nonzero;"/><path d="M2138.29,310.921l0,-1.422c0,-6.91 3.97,-8.885 17.452,-8.885c10.526,0 14.158,0.79 16.777,3.712c2.138,2.291 2.623,4.502 2.623,12.321l0,17.375l-4.905,-0l0.072,-3.83l-0.183,-0c-2.363,3.554 -4.646,4.265 -14.082,4.265c-11.162,-0 -14.083,-0.435 -16.368,-2.291c-2.022,-1.698 -2.696,-3.712 -2.696,-7.7c-0,-5.213 1.198,-7.74 4.419,-9.043c1.873,-0.79 4.831,-1.066 11.422,-1.066c12.77,-0 14.908,0.434 17.041,3.553l0.413,0l-0,-3.553c-0,-3.436 -0.337,-4.858 -1.461,-6.279c-1.762,-2.291 -4.569,-2.923 -12.697,-2.923c-10.673,0 -12.546,0.79 -12.621,5.332l0,0.434l-5.206,0Zm5.693,9.201c-1.198,0.869 -1.798,2.29 -1.798,4.423c0,2.409 0.674,3.712 2.435,4.501c1.423,0.632 4.756,0.869 12.433,0.869c10.412,0 12.885,-1.066 12.885,-5.489c0,-4.423 -2.959,-5.41 -13.894,-5.41c-8.278,0 -10.6,0.198 -12.023,1.145" style="fill-rule:nonzero;"/><path d="M2185.22,301.009l-0,5.015l0.413,0c2.022,-4.265 5.429,-5.41 15.653,-5.41c8.912,0 12.621,0.869 15.057,3.633c1.873,2.212 2.546,4.976 2.546,11.176l0,18.56l-4.905,-0l-0,-16.389c-0,-5.923 -0.337,-7.897 -1.763,-9.595c-1.61,-2.054 -4.68,-2.844 -11.497,-2.844c-7.639,0 -11.535,1.067 -13.707,3.831c-1.533,1.935 -1.797,3.475 -1.797,9.754l-0,15.243l-4.906,-0l0,-32.974l4.906,-0Z" style="fill-rule:nonzero;"/><path d="M2253.45,286.52l24.305,40.279l23.82,-40.279l12.021,0l0,47.466l-5.991,0l-0,-41.543l-2.474,0l-24.978,41.543l-4.833,0l-25.242,-41.543l-2.62,0l0,41.543l-5.956,0l-0,-47.466l11.948,0Z" style="fill-rule:nonzero;"/><path d="M2354.61,302.944c3.747,2.567 5.318,6.832 5.318,14.532c0,7.7 -1.682,12.439 -5.578,14.809c-2.696,1.619 -6.179,2.132 -14.082,2.132c-9.138,0 -12.958,-0.553 -15.768,-2.33c-3.969,-2.409 -5.506,-6.634 -5.506,-14.729c0,-8.096 1.874,-12.519 5.996,-14.809c2.546,-1.422 6.029,-1.935 13.106,-1.935c10.075,0 13.895,0.553 16.59,2.37m-30.411,14.729c-0,6.832 1.273,9.754 4.909,11.097c2.022,0.789 4.978,1.066 10.748,1.066c7.264,-0 9.998,-0.514 12.02,-2.133c2.023,-1.698 2.811,-4.62 2.811,-10.385c-0,-6.476 -1.124,-9.399 -4.309,-10.899c-1.874,-0.909 -5.242,-1.264 -11.536,-1.264c-12.434,-0 -14.643,1.935 -14.643,12.518Z" style="fill-rule:nonzero;"/><path d="M2369.74,286.481l-0,18.481l0.336,-0c2.21,-3.554 4.982,-4.423 13.818,-4.423c10.526,0 13.707,0.553 16.517,2.843c3.373,2.765 4.68,6.832 4.68,14.572c0,8.451 -2.095,12.873 -7.039,15.006c-2.546,1.066 -5.693,1.421 -13.37,1.421c-9.888,0 -12.434,-0.789 -14.755,-4.62l-0.264,0l0,4.186l-4.829,0l0,-47.466l4.906,-0Zm-0.149,31.078c-0,6.752 1.009,9.477 4.079,10.978c1.874,0.987 5.583,1.343 12.771,1.343c11.011,-0 13.447,-2.212 13.447,-12.242c-0,-6.634 -1.201,-9.754 -4.233,-11.255c-1.873,-0.908 -5.169,-1.263 -11.684,-1.263c-12.209,-0 -14.38,1.856 -14.38,12.439Z" style="fill-rule:nonzero;"/><path d="M2414.91,292.72l-4.905,-0l-0,-6.2l4.905,0l0,6.2Zm0,41.266l-4.905,0l-0,-32.973l4.905,-0l0,32.973Z" style="fill-rule:nonzero;"/><rect x="2420.75" y="286.52" width="4.905" height="47.466" style="fill-rule:nonzero;"/><path d="M2436.4,292.72l-4.905,-0l0,-6.2l4.905,0l0,6.2Zm0,41.266l-4.905,0l0,-32.973l4.905,-0l0,32.973Z" style="fill-rule:nonzero;"/><path d="M2451.68,292.84l-0,8.174l21.759,-0l-0,4.502l-21.759,-0l-0,14.216c0.149,6.278 0.149,6.476 1.12,7.818c1.273,1.62 3.483,2.291 8.205,2.291c4.382,-0 6.03,-0.513 7.116,-2.291c0.749,-1.224 0.936,-2.408 0.936,-6.476l0,-2.053l4.906,-0l-0,2.053c-0,5.134 -0.413,7.266 -1.686,9.241c-1.797,2.922 -5.17,4.067 -11.761,4.067c-6.592,0 -10.186,-1.066 -12.021,-3.712c-1.35,-1.974 -1.759,-4.067 -1.759,-9.24l0,-15.954l-7.643,0l0,-4.502l7.643,0l0,-8.174l4.906,0l0.038,0.04Z" style="fill-rule:nonzero;"/><path d="M2479.96,301.055l15.057,28.748l0.596,0l13.971,-28.748l5.766,-0l-15.168,30.762c-3.556,7.266 -5.165,9.596 -7.639,11.452c-2.359,1.698 -4.68,2.29 -9.811,2.29c-1.086,0 -1.686,0 -2.734,-0.079l0,-4.778c1.01,0.158 1.346,0.158 2.283,0.158c6.519,0 8.201,-1.066 11.161,-6.832l-1.687,0l-17.526,-32.973l5.769,-0l-0.038,-0Z" style="fill-rule:nonzero;"/></g></g></g></svg>