<?xml version="1.0" encoding="UTF-8" standalone="no"?>
<!DOCTYPE svg PUBLIC "-//W3C//DTD SVG 1.1//EN" "http://www.w3.org/Graphics/SVG/1.1/DTD/svg11.dtd">
<svg width="100%" height="100%" viewBox="0 0 1500 700" version="1.1" xmlns="http://www.w3.org/2000/svg" xmlns:xlink="http://www.w3.org/1999/xlink" xml:space="preserve" xmlns:serif="http://www.serif.com/" style="fill-rule:evenodd;clip-rule:evenodd;stroke-linejoin:round;stroke-miterlimit:2;">
    <g transform="matrix(1,0,0,1,-77.5,119)">
        <g transform="matrix(0.79178,0,0,0.79178,172.5,48.7718)">
            <path d="M286.5,199.1L286.5,199.3L286.5,199.1Z" style="fill:none;"/>
            <path d="M508.1,196L508.1,196.2" style="fill:none;"/>
            <path d="M508.1,195.9L508.1,196.2L508.1,195.9Z" style="fill:none;"/>
            <path d="M793.8,64.9C811.7,64.9 826.2,50.4 826.2,32.5C826.2,14.6 811.8,-0 793.8,-0C775.8,-0 761.4,14.5 761.4,32.4C761.4,50.3 775.9,64.8 793.8,64.8L793.8,64.9ZM32.4,460.7C50.3,460.7 64.8,446.2 64.8,428.3C64.8,410.4 50.3,395.9 32.4,395.9C14.5,395.9 0,410.3 0,428.3C0,446.3 14.5,460.7 32.4,460.7ZM509,459.4C553.5,459.4 598.2,437.4 623.7,393.3L765.4,147.7C778,125.8 762.1,97.8 737,97.8C725.2,97.8 714.2,103.9 708.6,114.4L566.1,361.3C553.5,383.2 531.4,394.2 509.3,394.2C487.2,394.2 465,383.2 452.5,361.3L348.5,180.6C349.1,182.6 357.4,195 347.8,212.7L319.1,262.7L394.5,393.4C420.1,437.5 464.6,459.5 509.2,459.5L509,459.4Z" style="fill:rgb(255,79,0);fill-rule:nonzero;"/>
            <path d="M319,262.7L292,212.7C284.7,199.3 287.7,187.9 290.8,180.6L156.6,411.7C153.8,416.5 152.1,422.1 152.1,428.2C152.1,446.1 166.6,460.6 184.5,460.6C202.4,460.6 206.8,454.2 212.4,444.7L318.8,262.7L319,262.7Z" style="fill:rgb(252,189,0);fill-rule:nonzero;"/>
        </g>
        <g transform="matrix(0.79178,0,0,0.79178,218.186,48.4551)">
            <path d="M421.6,246.4L450.3,196.4L375,66.1C349.6,22 305.8,0 261.3,0C216.8,0 171.3,22 145.7,66.1L4.6,312.2C1.7,317 -0,322.7 -0,328.8C-0,346.7 14.5,361.2 32.4,361.2C50.3,361.2 55.2,354.5 60.8,344.6L203.3,97.7C215.9,75.8 239.1,64.8 261.2,64.8C283.3,64.8 304.3,75.8 316.9,97.7L420.8,278.4C418.5,274 417,271.8 417,262.9C417,254 421.6,246.4 421.6,246.4Z" style="fill:rgb(255,79,0);fill-rule:nonzero;"/>
            <g transform="matrix(1,0,0,1,416.9,0.2)">
                <path d="M166,0C156,0 143.2,6.1 137.6,16.6L33.5,196.1L60.5,246.1C60.5,246.1 65.1,253.4 65.1,262.6C65.1,271.8 63.9,273.4 61.8,277.7L194.6,49.5C207.2,27.6 191.3,0 166.2,0L166,0Z" style="fill:rgb(252,189,0);fill-rule:nonzero;"/>
                <path d="M60.3,246.1L33.3,196.2L4.6,246.2C4.6,246.2 0,253.7 0,262.7C0,271.7 1.5,273.9 3.8,278.2L3.8,278.4C9.7,289.1 21.6,295.1 33.3,295.1C45,295.1 56,288.8 61.4,277.7C63.4,273.4 64.7,268.3 64.7,262.6C64.7,253.5 60.1,246.1 60.1,246.1L60.3,246.1Z" style="fill:rgb(26,107,36);fill-rule:nonzero;"/>
            </g>
        </g>
        <g transform="matrix(0.79178,0,0,0.79178,172.5,48.4551)">
            <path d="M292,213.1L319,263.1L347.7,213.1C347.7,213.1 352.3,205.6 352.3,196.6C352.3,187.6 348.4,181.2 348.4,181.1C342.5,170.4 330.6,164.2 318.9,164.2C307.2,164.2 296.2,170.1 290.8,181.1C288.8,185.4 287.5,191 287.5,196.6C287.5,205.7 292,213.1 292,213.1Z" style="fill:rgb(26,107,36);fill-rule:nonzero;"/>
        </g>
        <g transform="matrix(0.79178,0,0,0.79178,797.214,220.43)">
            <path d="M121.7,9.9L121.7,40.6L80,40.6L80,167.1L41.7,167.1L41.7,40.6L0,40.6L0,9.9L121.7,9.9Z" style="fill-rule:nonzero;"/>
            <path d="M179.2,40.6L179.2,72.4L230.5,72.4L230.5,102L179.2,102L179.2,136.5L237.2,136.5L237.2,167.2L140.9,167.2L140.9,10L237.2,10L237.2,40.7L179.2,40.7L179.2,40.6Z" style="fill-rule:nonzero;"/>
            <path d="M265.7,46.7C272.4,34.5 281.8,25.1 293.8,18.3C305.8,11.5 319.4,8.1 334.7,8.1C350,8.1 369.3,13 382.6,22.9C395.9,32.8 404.8,46.2 409.3,63.2L367.2,63.2C364.1,56.6 359.6,51.6 353.9,48.2C348.2,44.8 341.6,43 334.3,43C322.5,43 312.9,47.1 305.6,55.3C298.3,63.5 294.6,74.5 294.6,88.2C294.6,101.9 298.3,112.9 305.6,121.1C312.9,129.3 322.5,133.4 334.3,133.4C346.1,133.4 348.1,131.7 353.9,128.2C359.6,124.8 364.1,119.8 367.2,113.2L409.3,113.2C404.8,130.2 395.9,143.6 382.6,153.4C369.3,163.2 353.3,168.1 334.7,168.1C316.1,168.1 305.8,164.7 293.8,157.9C281.8,151.1 272.4,141.7 265.7,129.6C259,117.5 255.6,103.7 255.6,88.2C255.6,72.7 259,58.8 265.7,46.6L265.7,46.7Z" style="fill-rule:nonzero;"/>
            <path d="M569,9.9L569,167.1L530.7,167.1L530.7,102.4L471.1,102.4L471.1,167.1L432.8,167.1L432.8,9.9L471.1,9.9L471.1,71.5L530.7,71.5L530.7,9.9L569,9.9Z" style="fill-rule:nonzero;"/>
            <path d="M598.3,130.8C612.9,118.7 624.5,108.8 632.9,101C641.3,93.2 648.5,85.1 654.3,76.6C660.1,68.1 663,59.8 663,51.7C663,43.6 661.6,40.8 658.8,37.4C656,34 651.7,32.2 646,32.2C640.3,32.2 635.9,34.3 632.7,38.6C629.5,42.9 627.9,48.9 627.9,56.6L590.9,56.6C591.2,43.9 593.9,33.3 599.1,24.8C604.3,16.3 611,10 619.5,6C627.9,2 637.3,0 647.6,0C665.4,0 678.8,4.6 687.8,13.7C696.8,22.8 701.4,34.7 701.4,49.3C701.4,63.9 695.9,80.1 685,93.8C674.1,107.5 660.2,120.8 643.3,133.8L703.8,133.8L703.8,164.9L591.4,164.9L591.4,136.5C596.5,132.5 598.8,130.6 598.3,130.9L598.3,130.8Z" style="fill-rule:nonzero;"/>
            <path d="M820.7,167.1L788.7,118.9L760.5,167.1L717,167.1L767.4,87.1L715.9,9.8L760.5,9.8L792.1,57.3L819.9,9.8L863.4,9.8L813.5,89.1L865.5,167L820.7,167L820.7,167.1Z" style="fill-rule:nonzero;"/>
        </g>
    </g>
</svg>
