<?xml version="1.0" encoding="UTF-8" standalone="no"?>
<!DOCTYPE svg PUBLIC "-//W3C//DTD SVG 1.1//EN" "http://www.w3.org/Graphics/SVG/1.1/DTD/svg11.dtd">
<svg width="100%" height="100%" viewBox="0 0 900 200" version="1.1" xmlns="http://www.w3.org/2000/svg" xmlns:xlink="http://www.w3.org/1999/xlink" xml:space="preserve" xmlns:serif="http://www.serif.com/" style="fill-rule:evenodd;clip-rule:evenodd;stroke-linejoin:round;stroke-miterlimit:2;">
    <g id="logo" transform="matrix(1,0,0,1,-150.098,-289.608)">
        <g id="Path_773" transform="matrix(4.00006,0,0,4.00006,-2088.65,-103.543)">
            <path d="M752.572,138.253L749.652,138.253C745.138,138.245 740.624,138.226 736.111,138.234C735.227,138.257 734.377,137.887 733.79,137.226C733.238,136.552 732.411,136.161 731.54,136.161C730.717,136.161 729.932,136.51 729.381,137.12C728.688,137.925 727.554,138.205 726.566,137.814C725.49,137.466 724.71,136.521 724.572,135.398C724.558,135.284 724.551,135.17 724.551,135.055C724.551,133.532 725.804,132.279 727.327,132.279C728.09,132.279 728.82,132.594 729.344,133.148C729.482,133.289 729.61,133.439 729.744,133.582C730.609,134.563 732.085,134.748 733.166,134.012C733.316,133.932 733.453,133.831 733.574,133.712C734.401,132.849 735.586,132.419 736.774,132.551C744.532,132.586 752.291,132.558 760.05,132.551C763.139,132.551 766.229,132.557 769.318,132.57C770.764,132.641 771.965,133.744 772.159,135.178C772.276,136.544 771.399,137.813 770.08,138.186C769.849,138.247 769.61,138.276 769.371,138.274C763.771,138.279 758.171,138.279 752.571,138.274L752.571,138.247" style="fill:rgb(38,36,36);fill-rule:nonzero;"/>
        </g>
        <g id="Path_774" transform="matrix(4.00006,0,0,4.00006,-2103.19,232.966)">
            <path d="M730.759,24.855C732.159,24.855 733.514,24.847 734.866,24.868C734.987,24.868 735.153,25.027 735.219,25.154C736.368,27.354 737.519,29.546 738.639,31.754C739.267,32.998 739.833,34.274 740.457,35.601C740.547,35.424 740.613,35.294 740.678,35.164C742.309,31.897 743.937,28.632 745.563,25.369C745.704,25 746.086,24.778 746.477,24.836C747.63,24.875 748.785,24.849 749.967,24.849C750.867,30.855 751.167,36.875 751.543,42.923L747.215,42.923L746.589,31.129L746.44,31.115C746.04,31.961 745.63,32.804 745.23,33.652C744.191,35.852 743.148,38.06 742.125,40.272C742.043,40.541 741.774,40.712 741.495,40.672C740.72,40.644 739.943,40.649 739.167,40.672C738.929,40.701 738.702,40.554 738.63,40.325C737.23,37.339 735.825,34.356 734.416,31.377C734.376,31.292 734.329,31.209 734.286,31.125L734.139,31.132L733.51,42.932L729.183,42.932C729.554,36.889 729.862,30.87 730.757,24.854" style="fill:rgb(38,36,36);fill-rule:nonzero;"/>
        </g>
        <g id="Subtraction_5" transform="matrix(4.00006,0,0,4.00006,913.197,332.348)">
            <path d="M15.735,18.121C15.502,18.153 15.281,17.996 15.235,17.765C15.035,17.205 14.818,16.639 14.61,16.092L14.61,16.082C14.416,15.573 14.215,15.046 14.025,14.521C13.978,14.3 13.765,14.151 13.541,14.182C12.368,14.182 11.179,14.189 10.008,14.189C8.837,14.189 7.648,14.189 6.475,14.182C6.265,14.152 6.066,14.292 6.022,14.499C5.661,15.499 5.257,16.568 4.787,17.779C4.738,17.905 4.593,18.097 4.487,18.099C3.558,18.112 2.625,18.114 1.834,18.114L0,18.114C0.18,17.655 0.359,17.197 0.517,16.793C0.861,15.913 1.217,15.004 1.575,14.106C3.394,9.446 5.448,4.88 7.729,0.428C7.831,0.152 8.107,-0.024 8.4,0L8.437,0C8.946,0.011 9.476,0.017 10.061,0.017C10.592,0.017 11.161,0.017 11.861,0.003L11.876,0.003C12.094,-0.016 12.299,0.113 12.376,0.317C14.616,4.663 16.636,9.118 18.428,13.667C18.82,14.649 19.212,15.651 19.591,16.619L19.591,16.629L19.598,16.646L20.033,17.756C20.055,17.812 20.074,17.87 20.096,17.938L20.096,17.947C20.108,17.985 20.122,18.027 20.138,18.075L20.012,18.088C19.93,18.099 19.848,18.105 19.765,18.107L17.815,18.107C17.207,18.107 16.486,18.107 15.751,18.117L15.735,18.121ZM10.016,4.1L8.1,8.666L7.152,10.929L12.852,10.929L10.016,4.1Z" style="fill:rgb(38,36,36);fill-rule:nonzero;"/>
        </g>
        <g id="Subtraction_5_-_Outline" transform="matrix(4.00006,0,0,4.00006,913.197,332.348)">
            <path d="M15.735,18.621C15.292,18.649 14.886,18.361 14.768,17.933C14.563,17.362 14.341,16.781 14.146,16.269L14.132,16.232C13.941,15.732 13.743,15.21 13.555,14.691L13.555,14.682L13.545,14.682C12.367,14.682 11.178,14.689 10.008,14.689C8.838,14.689 7.656,14.689 6.483,14.682C6.118,15.69 5.714,16.762 5.248,17.96C5.135,18.297 4.842,18.544 4.491,18.598C3.556,18.611 2.621,18.613 1.83,18.613L-0.734,18.613L-0.466,17.93C-0.314,17.544 -0.166,17.158 -0.026,16.805L0.08,16.533C0.414,15.677 0.76,14.792 1.11,13.918C2.935,9.244 4.996,4.665 7.285,0.2C7.472,-0.244 7.919,-0.525 8.4,-0.5L8.448,-0.5C8.954,-0.489 9.481,-0.483 10.06,-0.483C10.588,-0.483 11.16,-0.483 11.86,-0.497L11.882,-0.497C12.287,-0.517 12.664,-0.283 12.826,0.088C15.073,4.448 17.1,8.918 18.898,13.482C19.269,14.411 19.64,15.359 19.998,16.276L20.081,16.488L20.506,17.573C20.533,17.641 20.554,17.706 20.577,17.773L20.585,17.799C20.595,17.831 20.609,17.871 20.624,17.916L20.83,18.516L20.197,18.574L20.081,18.586L20.075,18.586C19.975,18.599 19.875,18.606 19.775,18.608L17.815,18.608C17.208,18.608 16.489,18.608 15.757,18.618L15.735,18.621ZM15.719,17.621L15.748,17.621C16.483,17.612 17.206,17.611 17.815,17.611L19.445,17.611L19.145,16.852L19.062,16.64C18.703,15.725 18.332,14.778 17.962,13.852C16.177,9.319 14.165,4.879 11.934,0.548C11.924,0.528 11.915,0.514 11.909,0.504L11.87,0.504C11.17,0.514 10.591,0.518 10.059,0.518C9.472,0.517 8.938,0.512 8.424,0.5L8.4,0.5C8.27,0.5 8.256,0.5 8.174,0.658C5.9,5.095 3.853,9.645 2.04,14.289C1.692,15.159 1.347,16.042 1.013,16.896L0.907,17.168L0.733,17.612L1.826,17.612C2.568,17.612 3.437,17.612 4.31,17.599C4.774,16.405 5.177,15.336 5.541,14.332C5.658,13.928 6.044,13.658 6.464,13.685L6.47,13.685C7.645,13.685 8.833,13.692 10.001,13.692C11.169,13.692 12.358,13.692 13.532,13.685L13.538,13.685C13.972,13.655 14.372,13.935 14.492,14.353C14.678,14.865 14.874,15.381 15.064,15.879L15.078,15.915C15.278,16.432 15.498,17.015 15.707,17.598L15.719,17.621ZM13.6,11.429L6.4,11.429L7.988,7.645L9.554,3.907L10.017,2.8L10.767,4.6L13.316,10.732L13.6,11.429ZM7.9,10.429L12.1,10.429L10.014,5.4L8.914,8.033L7.9,10.429Z" style="fill-opacity:0;fill-rule:nonzero;"/>
        </g>
        <g id="Path_776" transform="matrix(4.00006,0,0,4.00006,-1554.36,-103.239)">
            <path d="M579.365,138.4C577.418,138.4 575.471,138.407 573.524,138.4C572.754,138.355 572.037,137.987 571.553,137.387C570.833,136.582 569.741,136.21 568.679,136.409C568.215,136.48 567.795,136.723 567.501,137.089C566.964,137.778 566.137,138.182 565.263,138.182C564.371,138.182 563.529,137.762 562.994,137.048C562.059,135.958 560.428,135.758 559.258,136.591C559.077,136.726 558.906,136.873 558.745,137.032C558.028,137.859 556.847,138.124 555.845,137.681C554.749,137.293 553.987,136.281 553.918,135.12C553.915,135.065 553.913,135.009 553.913,134.954C553.913,133.427 555.169,132.171 556.696,132.171C557.482,132.171 558.233,132.504 558.76,133.087C559.1,133.461 559.487,133.789 559.912,134.062C560.929,134.645 562.232,134.402 562.97,133.492C563.511,132.829 564.323,132.444 565.178,132.444C566.087,132.444 566.944,132.879 567.48,133.613C568.227,134.671 569.689,134.964 570.786,134.276C571.121,134.069 571.434,133.828 571.72,133.556C572.272,133.023 573.013,132.729 573.781,132.737C577.492,132.76 581.204,132.743 584.915,132.749C584.959,132.747 585.003,132.746 585.046,132.746C586.613,132.746 587.901,134.035 587.901,135.601C587.901,137.139 586.659,138.415 585.121,138.455C583.202,138.463 581.283,138.455 579.364,138.455L579.364,138.4" style="fill:rgb(38,36,36);fill-rule:nonzero;"/>
        </g>
        <g id="Path_777" transform="matrix(4.00006,0,0,4.00006,-726.955,232.746)">
            <path d="M302.859,24.927L305.559,24.927L305.559,43.008C304.827,43.008 304.097,43.024 303.37,42.993C303.251,42.988 303.118,42.793 303.03,42.659C300.478,38.8 297.704,35.092 294.722,31.554C293.986,30.671 293.205,29.827 292.382,29.025L292.382,42.985L289.662,42.985L289.662,24.915C290.362,24.915 291.062,24.902 291.762,24.927C291.886,24.927 292.017,25.085 292.123,25.191C294.595,27.706 296.914,30.367 299.067,33.161C300.292,34.726 301.442,36.35 302.625,37.948C302.68,38.021 302.736,38.094 302.854,38.248L302.859,24.927Z" style="fill:rgb(38,36,36);fill-rule:nonzero;"/>
        </g>
        <g id="Subtraction_3" transform="matrix(4.00006,0,0,4.00006,642.489,330.608)">
            <path d="M9.788,18.949C8.636,18.951 7.488,18.8 6.376,18.5C5.318,18.209 4.325,17.72 3.45,17.059C2.439,16.305 1.614,15.329 1.037,14.208C0.48,13.08 0.146,11.855 0.055,10.6C-0.136,8.912 0.076,7.203 0.673,5.613C1.56,3.216 3.516,1.366 5.958,0.613C7.149,0.215 8.395,0.008 9.65,-0C11.224,0.002 12.776,0.363 14.189,1.057C14.873,1.385 15.512,1.801 16.089,2.293C16.626,2.757 17.097,3.292 17.489,3.883C18.284,5.125 18.779,6.534 18.937,8C19.065,8.958 19.079,9.928 18.977,10.889C18.871,11.852 18.619,12.793 18.229,13.679C17.911,14.406 17.502,15.089 17.01,15.712C16.55,16.289 16.011,16.8 15.41,17.229C14.805,17.656 14.146,18.002 13.452,18.26C12.712,18.532 11.946,18.725 11.165,18.835C10.784,18.89 10.405,18.913 10.1,18.935C9.985,18.935 9.878,18.942 9.788,18.949ZM9.417,2.256L9.226,2.256C6.678,2.212 4.372,3.812 3.521,6.214C3.12,7.259 2.914,8.369 2.913,9.489C2.922,10.574 3.113,11.65 3.48,12.672C4.043,14.409 5.404,15.776 7.139,16.346C7.715,16.545 8.315,16.667 8.923,16.709C9.096,16.721 9.272,16.727 9.447,16.727C9.622,16.727 9.774,16.722 9.94,16.711C10.198,16.695 10.463,16.666 10.728,16.626C12.302,16.426 13.726,15.583 14.66,14.3C15.63,12.898 16.117,11.217 16.049,9.514L16.049,9.094C16.049,8.994 16.049,8.913 16.042,8.841C16.005,7.206 15.428,5.628 14.403,4.354L14.4,4.34L14.391,4.33L14.381,4.318L14.294,4.218C14.247,4.166 14.201,4.118 14.157,4.071L14.1,4.014C12.875,2.82 11.209,2.184 9.5,2.259L9.417,2.259L9.417,2.256Z" style="fill:rgb(38,36,36);fill-rule:nonzero;"/>
        </g>
        <g id="Subtraction_3_-_Outline" transform="matrix(4.00006,0,0,4.00006,642.489,330.608)">
            <path d="M9.806,19.449L9.782,19.449C8.586,19.452 7.395,19.297 6.24,18.986C5.122,18.677 4.072,18.158 3.148,17.457C2.077,16.657 1.203,15.624 0.592,14.435C0.005,13.25 -0.346,11.963 -0.443,10.645C-0.642,8.879 -0.419,7.091 0.208,5.428C1.148,2.894 3.218,0.939 5.8,0.142C7.041,-0.274 8.341,-0.491 9.65,-0.5C11.299,-0.499 12.927,-0.12 14.407,0.607C15.13,0.954 15.806,1.394 16.416,1.914C16.991,2.407 17.496,2.976 17.916,3.606C18.751,4.911 19.273,6.393 19.439,7.934C19.572,8.931 19.586,9.941 19.48,10.942C19.369,11.955 19.103,12.945 18.692,13.878C18.355,14.644 17.921,15.364 17.4,16.02C16.911,16.634 16.339,17.176 15.7,17.632C15.059,18.084 14.363,18.451 13.628,18.724C12.855,19.008 12.054,19.21 11.238,19.324C10.838,19.383 10.445,19.406 10.13,19.424C10.019,19.431 9.915,19.437 9.83,19.444L9.806,19.449ZM9.65,0.5C8.447,0.51 7.253,0.709 6.113,1.092C3.814,1.801 1.973,3.544 1.138,5.8C0.57,7.319 0.37,8.95 0.554,10.561C0.64,11.751 0.955,12.912 1.483,13.982C2.026,15.036 2.802,15.953 3.752,16.662C4.578,17.287 5.515,17.75 6.513,18.026C7.576,18.311 8.672,18.454 9.772,18.451C9.862,18.444 9.963,18.438 10.072,18.432C10.372,18.414 10.736,18.392 11.095,18.34C11.84,18.235 12.572,18.051 13.278,17.791C13.932,17.548 14.552,17.222 15.122,16.82C15.686,16.418 16.19,15.939 16.622,15.398C17.087,14.809 17.474,14.163 17.774,13.475C18.143,12.635 18.382,11.744 18.482,10.832C18.579,9.91 18.565,8.98 18.442,8.062C18.295,6.674 17.828,5.339 17.078,4.162C16.71,3.608 16.267,3.108 15.763,2.674C15.218,2.209 14.616,1.817 13.97,1.507C12.626,0.846 11.148,0.502 9.65,0.5ZM9.45,17.226C9.263,17.226 9.075,17.219 8.891,17.207C8.239,17.162 7.595,17.032 6.977,16.818C5.097,16.201 3.622,14.72 3.011,12.838C2.624,11.764 2.421,10.632 2.411,9.49C2.412,8.309 2.629,7.139 3.052,6.037C3.971,3.44 6.463,1.71 9.217,1.758L9.492,1.758C11.32,1.682 13.101,2.359 14.417,3.631L14.444,3.658L14.487,3.702L14.511,3.727C14.557,3.775 14.611,3.827 14.658,3.884L14.75,3.984L14.767,4L14.788,4.024C15.885,5.379 16.503,7.06 16.546,8.803C16.552,8.887 16.554,8.976 16.554,9.09L16.554,9.513C16.624,11.325 16.1,13.112 15.064,14.6C14.052,15.991 12.51,16.903 10.804,17.121C10.525,17.164 10.244,17.194 9.971,17.211C9.795,17.22 9.618,17.226 9.447,17.226L9.45,17.226ZM9.485,2.756L9.235,2.756C6.892,2.714 4.772,4.183 3.988,6.391C3.608,7.38 3.412,8.431 3.412,9.491C3.42,10.52 3.602,11.54 3.95,12.509C4.466,14.099 5.712,15.35 7.3,15.873C7.834,16.058 8.391,16.171 8.955,16.209C9.272,16.23 9.589,16.23 9.906,16.209C10.149,16.194 10.399,16.167 10.649,16.128C12.089,15.946 13.392,15.178 14.249,14.006C15.155,12.688 15.608,11.111 15.541,9.514L15.541,9.094C15.541,9.004 15.541,8.937 15.535,8.876C15.504,7.347 14.969,5.87 14.014,4.676L13.992,4.65L14,4.644L13.921,4.554C13.879,4.508 13.837,4.462 13.796,4.421L13.772,4.4L13.723,4.366L13.7,4.323C12.567,3.25 11.044,2.684 9.485,2.756Z" style="fill-opacity:0;fill-rule:nonzero;"/>
        </g>
        <g id="Subtraction_2" transform="matrix(4.00006,0,0,4.00006,273.087,331.648)">
            <path d="M13.688,18.286C13.231,18.286 12.688,18.286 12.13,18.271C12.015,18.271 11.878,18.06 11.824,17.971C10.445,15.671 8.858,13.501 7.084,11.49C6.936,11.3 6.705,11.193 6.465,11.202L6.438,11.202C6.013,11.21 5.549,11.214 4.978,11.214L2.77,11.214L2.77,18.259L0,18.259L0,0.422C0.2,0.395 0.4,0.364 0.591,0.334L0.6,0.334C1.051,0.263 1.515,0.191 1.978,0.154C2.925,0.078 4.047,0 5.185,0C6.301,-0.009 7.415,0.084 8.514,0.278C9.917,0.482 11.238,1.063 12.336,1.959C12.896,2.461 13.315,3.101 13.551,3.815C13.825,4.595 13.923,5.426 13.84,6.248C13.708,7.836 12.778,9.253 11.374,10.007C11.029,10.196 10.662,10.359 10.309,10.517C10.158,10.584 9.986,10.661 9.823,10.737C10.09,11.085 10.368,11.442 10.657,11.807C11.303,12.633 11.971,13.486 12.61,14.356C13.542,15.59 14.362,16.904 15.06,18.284L13.688,18.284L13.688,18.286ZM5.409,2.229L5.345,2.229C5.103,2.229 4.864,2.229 4.683,2.235L4.368,2.24L4,2.247C3.723,2.247 3.441,2.271 3.168,2.289L2.785,2.314L2.785,9.027C3.199,9.027 3.618,9.032 4.022,9.037C4.422,9.037 4.835,9.047 5.24,9.047C5.512,9.047 5.756,9.047 5.985,9.04C6.331,9.033 6.645,9.021 6.945,9.003C7.729,8.939 8.5,8.763 9.235,8.481C10.069,8.188 10.68,7.463 10.828,6.592C10.894,6.289 10.927,5.979 10.928,5.669C10.951,4.187 9.908,2.886 8.457,2.586L8.272,2.535L8.1,2.491C7.216,2.299 6.313,2.211 5.409,2.229Z" style="fill:rgb(38,36,36);fill-rule:nonzero;"/>
        </g>
        <g id="Subtraction_2_-_Outline" transform="matrix(4.00006,0,0,4.00006,273.087,331.648)">
            <path d="M13.688,18.786C13.229,18.786 12.688,18.786 12.118,18.771C11.846,18.764 11.61,18.586 11.395,18.227C10.032,15.953 8.464,13.809 6.71,11.821C6.657,11.739 6.563,11.694 6.466,11.703L6.448,11.703C6.02,11.711 5.548,11.715 4.977,11.715L3.265,11.715L3.265,18.76L-0.5,18.76L-0.5,-0.013L-0.069,-0.073C0.123,-0.1 0.322,-0.131 0.514,-0.16L0.527,-0.16C0.984,-0.231 1.458,-0.304 1.938,-0.342C2.9,-0.421 4.029,-0.5 5.185,-0.5C6.33,-0.509 7.473,-0.413 8.6,-0.214C10.091,0.004 11.495,0.623 12.66,1.578C13.288,2.137 13.757,2.851 14.022,3.648C14.32,4.497 14.428,5.402 14.337,6.298C14.19,8.05 13.164,9.613 11.614,10.445C11.281,10.628 10.938,10.783 10.603,10.932L11.046,11.499L11.065,11.524C11.707,12.345 12.37,13.193 13.008,14.06C13.959,15.316 14.795,16.655 15.508,18.06L15.86,18.777L13.688,18.777L13.688,18.786ZM12.288,17.774C12.788,17.784 13.271,17.786 13.688,17.786L14.235,17.786C13.629,16.697 12.949,15.65 12.2,14.653C11.571,13.798 10.912,12.953 10.275,12.14L10.256,12.115C9.984,11.768 9.696,11.399 9.421,11.043L9.038,10.548L9.605,10.284C9.769,10.208 9.94,10.132 10.09,10.065L10.105,10.058C10.447,9.906 10.805,9.747 11.13,9.568C12.389,8.893 13.223,7.624 13.343,6.2C13.419,5.451 13.329,4.695 13.08,3.985C12.874,3.354 12.505,2.788 12.012,2.343C10.981,1.503 9.74,0.959 8.424,0.769C7.355,0.581 6.271,0.491 5.185,0.5C4.065,0.5 2.956,0.577 2.018,0.652C1.574,0.688 1.118,0.758 0.678,0.826L0.665,0.826L0.5,0.854L0.5,17.754L2.265,17.754L2.265,10.712L4.977,10.712C5.546,10.712 6.007,10.712 6.427,10.7L6.465,10.7C6.849,10.691 7.217,10.86 7.46,11.158C9.254,13.192 10.859,15.386 12.253,17.712C12.267,17.737 12.28,17.757 12.292,17.775L12.288,17.774ZM5.246,9.547C4.833,9.547 4.402,9.542 4.021,9.537L4.011,9.537C3.611,9.537 3.196,9.527 2.787,9.527L2.287,9.527L2.287,1.843L2.758,1.816L3.13,1.792L3.172,2.292L3.138,1.792C3.417,1.773 3.705,1.753 3.997,1.748L4.359,1.742L4.675,1.737C4.858,1.737 5.099,1.731 5.344,1.731L5.411,1.731C6.354,1.71 7.297,1.801 8.219,2L8.401,2.046L8.601,2.101C10.268,2.461 11.462,3.959 11.441,5.665C11.438,6.013 11.399,6.36 11.323,6.7C11.135,7.738 10.404,8.598 9.41,8.952C8.631,9.25 7.813,9.435 6.981,9.502C6.674,9.521 6.353,9.533 6.001,9.54C5.767,9.545 5.52,9.547 5.246,9.547ZM3.287,8.529L4.023,8.537L4.03,8.537C4.43,8.537 4.839,8.547 5.245,8.547C5.512,8.547 5.753,8.547 5.98,8.54C6.319,8.533 6.626,8.521 6.92,8.504C7.657,8.442 8.381,8.276 9.071,8.011C9.743,7.777 10.233,7.191 10.345,6.488C10.404,6.219 10.435,5.945 10.437,5.67C10.448,4.411 9.552,3.312 8.316,3.07L8.144,3.022L7.985,2.982C7.139,2.798 6.275,2.713 5.41,2.729L5.348,2.729C5.108,2.729 4.871,2.729 4.692,2.735L4.378,2.74L4.014,2.746C3.775,2.746 3.529,2.765 3.289,2.782L3.287,8.529Z" style="fill-opacity:0;fill-rule:nonzero;"/>
        </g>
        <g id="Subtraction_4" transform="matrix(4.00006,0,0,4.00006,732.886,331.656)">
            <path d="M13.688,18.285C13.232,18.285 12.688,18.285 12.134,18.269C12.056,18.269 11.954,18.164 11.834,17.961C10.474,15.7 8.917,13.565 7.18,11.579C6.983,11.328 6.677,11.186 6.358,11.199L6.315,11.199C5.872,11.21 5.385,11.215 4.785,11.215L2.783,11.215L2.783,18.265L0,18.265L0,0.376C0.326,0.345 0.658,0.309 0.978,0.275L0.986,0.275C1.719,0.2 2.478,0.116 3.226,0.072C4.049,0.023 4.719,0 5.334,0C6.774,-0.027 8.211,0.152 9.6,0.533C10.087,0.673 10.562,0.854 11.018,1.076C11.929,1.494 12.694,2.177 13.213,3.035C13.694,3.91 13.919,4.903 13.863,5.9C13.855,6.838 13.569,7.753 13.041,8.528C12.488,9.282 11.751,9.881 10.9,10.267C10.656,10.385 10.405,10.484 10.14,10.588L10.114,10.598C10.002,10.642 9.886,10.688 9.768,10.736C11.816,13.047 13.601,15.578 15.092,18.283L13.692,18.283L13.688,18.285ZM2.808,9.11L4.457,9.11C4.857,9.11 5.177,9.11 5.478,9.099C6.649,9.129 7.816,8.969 8.936,8.626C10.122,8.269 10.936,7.165 10.928,5.926L10.928,5.71C10.988,4.543 10.347,3.447 9.3,2.927C8.911,2.731 8.499,2.583 8.073,2.488L8.012,2.474L7.88,2.444L7.863,2.444C7.054,2.288 6.23,2.217 5.406,2.23L5.366,2.23C5.182,2.23 4.982,2.23 4.735,2.237L4.348,2.245L4.286,2.245L3.995,2.251C3.716,2.257 3.435,2.277 3.163,2.297L2.811,2.322L2.811,9.11L2.808,9.11Z" style="fill:rgb(38,36,36);fill-rule:nonzero;"/>
        </g>
        <g id="Subtraction_4_-_Outline" transform="matrix(4.00006,0,0,4.00006,732.886,331.656)">
            <path d="M13.688,18.785C13.229,18.785 12.688,18.785 12.121,18.769C11.804,18.722 11.532,18.514 11.404,18.22C10.06,15.984 8.521,13.872 6.804,11.908C6.696,11.757 6.513,11.677 6.328,11.699C5.882,11.71 5.392,11.715 4.786,11.715L3.284,11.715L3.284,18.765L-0.5,18.765L-0.5,-0.078L-0.048,-0.122C0.28,-0.154 0.608,-0.189 0.925,-0.222L0.933,-0.222C1.676,-0.3 2.438,-0.382 3.2,-0.427C4.029,-0.477 4.708,-0.5 5.334,-0.5C6.823,-0.528 8.308,-0.342 9.744,0.053C10.26,0.201 10.762,0.393 11.244,0.627C12.244,1.088 13.083,1.84 13.65,2.784C14.177,3.741 14.424,4.827 14.363,5.918C14.353,6.954 14.035,7.963 13.451,8.818C12.848,9.641 12.044,10.296 11.115,10.718C10.943,10.801 10.773,10.873 10.598,10.944C12.486,13.131 14.139,15.511 15.53,18.044L15.923,18.777L13.688,18.777L13.688,18.785ZM12.3,17.773C12.8,17.784 13.274,17.785 13.683,17.785L14.236,17.785C12.839,15.392 11.213,13.141 9.381,11.063L8.929,10.537L9.57,10.274C9.69,10.225 9.808,10.174 9.922,10.133L9.947,10.123C10.205,10.023 10.447,9.923 10.675,9.816C11.449,9.468 12.122,8.926 12.627,8.244C13.098,7.548 13.353,6.728 13.358,5.888C13.412,4.984 13.211,4.083 12.779,3.288C12.311,2.515 11.622,1.9 10.8,1.524C10.37,1.315 9.922,1.144 9.462,1.013C8.118,0.645 6.727,0.473 5.334,0.5C4.729,0.5 4.068,0.523 3.256,0.571C2.52,0.615 1.769,0.694 1.043,0.771L1.03,0.771L0.5,0.828L0.5,17.76L2.282,17.76L2.282,10.71L4.784,10.71C5.384,10.71 5.863,10.705 6.302,10.694L6.356,10.694C6.819,10.682 7.263,10.886 7.556,11.245C9.312,13.253 10.886,15.414 12.261,17.7C12.278,17.732 12.292,17.755 12.3,17.773ZM4.457,9.618L2.307,9.618L2.307,1.849L2.776,1.82L3.11,1.8L3.122,1.8L3.165,2.3L3.128,1.8C3.405,1.78 3.692,1.759 3.984,1.753L4.336,1.746L4.725,1.738C4.973,1.738 5.176,1.732 5.364,1.731L5.408,1.731C6.266,1.717 7.124,1.793 7.967,1.956L7.985,1.956L8.125,1.987L8.192,2C8.658,2.105 9.109,2.267 9.535,2.483C10.748,3.091 11.494,4.361 11.435,5.716C11.435,5.799 11.435,5.879 11.43,5.955C11.427,7.395 10.481,8.674 9.106,9.1C7.936,9.462 6.715,9.631 5.491,9.6C5.186,9.614 4.858,9.618 4.457,9.618ZM3.307,8.612L4.458,8.612C4.85,8.612 5.17,8.612 5.466,8.601C6.583,8.63 7.697,8.48 8.766,8.157C9.761,7.868 10.444,6.942 10.428,5.906L10.428,5.712C10.489,4.73 9.952,3.803 9.069,3.369C8.717,3.19 8.343,3.056 7.958,2.969L7.9,2.96L7.776,2.932L7.76,2.932C6.985,2.785 6.196,2.718 5.407,2.732L5.368,2.732C5.184,2.732 4.987,2.732 4.744,2.738L4.358,2.745L4,2.748C3.77,2.748 3.534,2.768 3.3,2.785L3.307,8.612Z" style="fill-opacity:0;fill-rule:nonzero;"/>
        </g>
        <g id="Subtraction_1" transform="matrix(4.00006,0,0,4.00006,342.056,332.32)">
            <path d="M2.424,18.132L2.359,18.132C2.074,18.12 1.765,18.115 1.384,18.115L0.004,18.115C0.009,18.082 0.013,18.053 0.017,18.021C0.021,17.967 0.031,17.913 0.049,17.861C2.105,12.7 4.335,7.221 6.945,1.974C7.051,1.761 7.161,1.549 7.283,1.314C7.446,1 7.615,0.678 7.767,0.353C7.846,0.132 8.066,-0.01 8.3,0.01L8.352,0.01C8.652,0.023 8.941,0.035 9.236,0.035C9.503,0.035 9.736,0.025 9.96,0.005C10,0 10.041,0 10.078,0C10.404,-0.01 10.699,0.203 10.79,0.517C11.322,1.67 11.869,2.839 12.4,3.97C13.38,6.062 14.393,8.225 15.348,10.377C16.1,12.069 16.8,13.815 17.477,15.504L17.498,15.556C17.788,16.28 18.089,17.029 18.389,17.762C18.413,17.821 18.434,17.88 18.463,17.962L18.468,17.977C18.482,18.018 18.499,18.065 18.519,18.12L17.176,18.12C16.725,18.12 16.189,18.12 15.637,18.105C15.537,18.105 15.405,17.926 15.356,17.805C14.765,16.326 14.274,15.084 13.801,13.832C13.755,13.612 13.545,13.463 13.322,13.492C11.852,13.498 10.494,13.5 9.172,13.5C7.74,13.5 6.345,13.5 5.026,13.49L5.015,13.49C4.779,13.466 4.561,13.627 4.515,13.859C4.308,14.403 4.094,14.946 3.887,15.471L3.887,15.482C3.604,16.201 3.312,16.944 3.039,17.682C2.982,17.967 2.713,18.164 2.424,18.132ZM9.05,2.973L7.187,7.273L6.942,7.839L5.41,11.376L12.9,11.376L10.709,6.325L10.209,5.169L9.259,2.975L9.05,2.975L9.05,2.973Z" style="fill:rgb(38,36,36);fill-rule:nonzero;"/>
        </g>
        <g id="Subtraction_1_-_Outline" transform="matrix(4.00006,0,0,4.00006,342.056,332.32)">
            <path d="M2.424,18.632L2.338,18.632C2.061,18.621 1.757,18.615 1.384,18.615L-0.586,18.615L-0.494,18.036C-0.494,18.011 -0.487,17.989 -0.485,17.964C-0.477,17.865 -0.456,17.768 -0.421,17.675C1.644,12.508 3.879,7.017 6.5,1.752C6.608,1.535 6.719,1.321 6.842,1.084L6.847,1.074C7.006,0.774 7.17,0.454 7.316,0.142C7.476,-0.255 7.872,-0.509 8.3,-0.49L8.373,-0.49C8.666,-0.477 8.951,-0.466 9.236,-0.466C9.487,-0.466 9.709,-0.475 9.914,-0.494C9.97,-0.499 10.024,-0.502 10.076,-0.502C10.596,-0.511 11.067,-0.185 11.242,0.305C11.791,1.496 12.378,2.749 12.85,3.756C13.829,5.845 14.84,8.006 15.803,10.172C16.554,11.864 17.253,13.605 17.928,15.289L17.959,15.367C18.249,16.089 18.548,16.835 18.849,17.567C18.877,17.637 18.901,17.703 18.931,17.789L18.937,17.807C18.951,17.847 18.967,17.891 18.986,17.944L19.227,18.61L17.176,18.61C16.721,18.61 16.181,18.61 15.625,18.595C15.287,18.543 15.004,18.307 14.893,17.984C14.293,16.494 13.804,15.247 13.333,14L13.327,13.984C11.848,14 10.49,14 9.167,14C7.732,14 6.337,14 5.019,13.99L5,13.99C4.995,14.002 4.988,14.018 4.98,14.038C4.78,14.561 4.575,15.084 4.38,15.589L4.349,15.667C4.067,16.383 3.777,17.124 3.505,17.854C3.376,18.336 2.922,18.663 2.424,18.632ZM1.384,17.613C1.771,17.613 2.084,17.619 2.384,17.63C2.427,17.633 2.471,17.631 2.514,17.625C2.537,17.588 2.555,17.549 2.569,17.508C2.844,16.768 3.136,16.024 3.419,15.308L3.45,15.229C3.65,14.729 3.85,14.205 4.05,13.686C4.172,13.259 4.577,12.971 5.02,12.995L5.027,12.995C6.34,13 7.734,13 9.167,13C10.488,13 11.845,13 13.316,12.992L13.322,12.992C13.752,12.963 14.148,13.24 14.268,13.654C14.736,14.892 15.225,16.13 15.816,17.608C16.302,17.618 16.773,17.619 17.176,17.619L17.79,17.619C17.534,16.99 17.28,16.356 17.033,15.741L17,15.663C16.328,13.988 15.633,12.255 14.889,10.58C13.931,8.423 12.921,6.267 11.945,4.18C11.473,3.172 10.885,1.917 10.335,0.724C10.231,0.5 10.186,0.5 10.078,0.5L10.007,0.5C9.772,0.522 9.52,0.532 9.238,0.532C8.938,0.532 8.638,0.52 8.332,0.507L8.3,0.507C8.282,0.506 8.265,0.506 8.247,0.507C8.236,0.525 8.226,0.543 8.217,0.562C8.063,0.891 7.894,1.216 7.73,1.53L7.724,1.541C7.603,1.773 7.494,1.982 7.39,2.192C4.864,7.281 2.691,12.591 0.682,17.617L0.7,17.617C0.924,17.615 1.156,17.613 1.384,17.613ZM13.657,11.876L4.649,11.876L5.469,9.983L6.483,7.642L6.728,7.076L8.591,2.776L8.723,2.476L9.588,2.484L13.657,11.876ZM6.172,10.876L12.135,10.876L9.154,3.991L7.646,7.473L7.4,8.039L6.387,10.38L6.172,10.876Z" style="fill-opacity:0;fill-rule:nonzero;"/>
        </g>
        <g id="Path_782" transform="matrix(4.00006,0,0,4.00006,-1022.46,238.802)">
            <path d="M384.038,40.61L384.829,38.621C385.916,38.934 386.938,39.315 387.994,39.513C389.491,39.825 391.04,39.791 392.522,39.413C393.498,39.255 394.282,38.512 394.494,37.546C394.759,36.499 394.33,35.392 393.428,34.797C392.811,34.38 392.15,34.032 391.456,33.761C390.164,33.24 388.833,32.816 387.538,32.301C386.746,31.989 386.042,31.488 385.488,30.842C384.833,30.026 384.476,29.01 384.476,27.964C384.476,26.197 385.495,24.58 387.088,23.816C388.186,23.291 389.385,23.011 390.602,22.994C392.31,22.901 394.021,23.13 395.645,23.667C395.976,23.78 396.296,23.929 396.672,24.082L395.772,26.161C394.687,25.654 393.523,25.339 392.33,25.232C391.18,25.07 390.007,25.197 388.919,25.602C388.111,25.874 387.523,26.582 387.404,27.427C387.225,28.346 387.66,29.282 388.477,29.739C389.354,30.216 390.258,30.639 391.186,31.007C392.145,31.414 393.14,31.738 394.086,32.163C394.664,32.423 395.21,32.749 395.713,33.134C397.474,34.551 398.018,37.024 397.013,39.049C396.541,39.926 395.788,40.62 394.874,41.017C393.422,41.653 391.846,41.951 390.262,41.891C388.298,41.925 386.346,41.567 384.522,40.837C384.369,40.774 384.222,40.697 384.039,40.61" style="fill:rgb(38,36,36);fill-rule:nonzero;"/>
        </g>
        <g id="Path_783" transform="matrix(4.00006,0,0,4.00006,-1281.54,232.258)">
            <path d="M477.74,32.654L477.74,34.8L469.549,34.8L469.549,43.111L466.779,43.111L466.779,25.068L478.74,25.068L478.74,27.209L469.573,27.209L469.573,32.655L477.74,32.654Z" style="fill:rgb(38,36,36);fill-rule:nonzero;"/>
        </g>
        <g id="Path_784" transform="matrix(4.00006,0,0,4.00006,-1239.6,-102.995)">
            <path d="M467.06,137.272C466.49,137.813 465.733,138.115 464.947,138.115C464.074,138.115 463.242,137.743 462.66,137.092C462.11,136.403 461.275,136.001 460.394,136.001C459.564,136.001 458.773,136.357 458.223,136.978C457.38,137.918 455.965,138.11 454.903,137.427C453.79,136.798 453.205,135.515 453.46,134.262C453.71,133.266 454.48,132.479 455.471,132.207C456.461,131.929 457.528,132.24 458.214,133.007C458.314,133.107 458.407,133.213 458.504,133.314C459.003,133.951 459.768,134.323 460.577,134.323C461.293,134.323 461.98,134.031 462.476,133.514C463.018,132.975 463.71,132.613 464.461,132.473C465.261,132.315 466.092,132.515 466.732,133.02C466.816,133.113 466.936,133.166 467.061,133.166C467.186,133.166 467.306,133.113 467.39,133.02C468.228,132.322 469.419,132.221 470.363,132.767C471.339,133.286 471.892,134.365 471.744,135.461C471.782,136.54 471.126,137.53 470.118,137.916C469.068,138.372 467.836,138.113 467.059,137.272" style="fill:rgb(38,36,36);fill-rule:nonzero;"/>
        </g>
        <g id="Path_785" transform="matrix(4.00006,0,0,4.00006,107.713,232.262)">
            <path d="M29.356,27.234L23.1,27.234L23.1,25.066L38.374,25.066L38.374,27.236L32.135,27.236L32.135,43.112L29.356,43.112L29.356,27.234Z" style="fill:rgb(38,36,36);fill-rule:nonzero;"/>
        </g>
        <g id="Path_786" transform="matrix(4.00006,0,0,4.00006,-917.906,-103.287)">
            <path d="M368.218,135.349C368.223,135.417 368.226,135.486 368.226,135.554C368.226,137.018 367.022,138.222 365.558,138.222C365.053,138.222 364.559,138.079 364.132,137.809C364.007,137.745 363.861,137.74 363.732,137.795C362.478,138.506 360.883,138.244 359.923,137.168C359.491,136.679 358.916,136.336 358.28,136.188C357.44,135.93 356.523,136.125 355.862,136.704C355.655,136.873 355.47,137.07 355.262,137.243C354.542,137.917 353.484,138.097 352.581,137.699C351.573,137.342 350.841,136.456 350.681,135.399C350.476,134.146 351.163,132.905 352.334,132.414C353.43,131.96 354.701,132.241 355.504,133.114C355.859,133.51 356.275,133.847 356.735,134.114C357.755,134.627 359.001,134.39 359.762,133.54C360.294,133.011 360.978,132.661 361.719,132.54C362.392,132.427 363.083,132.547 363.678,132.881C363.814,132.951 363.973,132.959 364.115,132.903C364.546,132.625 365.047,132.477 365.56,132.477C367.021,132.477 368.223,133.679 368.223,135.14C368.223,135.209 368.22,135.277 368.215,135.346" style="fill:rgb(38,36,36);fill-rule:nonzero;"/>
        </g>
        <g id="Path_787" transform="matrix(4.00006,0,0,4.00006,-608.201,-103.519)">
            <path d="M264.373,138.186C263.824,138.186 263.273,138.227 262.726,138.176C262.038,138.064 261.413,137.706 260.97,137.167C260.234,136.306 259.06,135.95 257.97,136.258C257.43,136.455 256.939,136.766 256.531,137.171C255.647,138.068 254.238,138.215 253.189,137.518C252.072,136.837 251.523,135.501 251.839,134.232C252.203,133.059 253.296,132.254 254.524,132.254C255.309,132.254 256.06,132.583 256.592,133.161C256.748,133.324 256.892,133.5 257.053,133.661C257.53,134.177 258.201,134.472 258.904,134.472C259.568,134.472 260.206,134.209 260.678,133.741C261.603,132.811 262.913,132.367 264.213,132.541C264.713,132.588 265.229,132.534 265.736,132.553C267.298,132.557 268.582,133.844 268.582,135.406C268.582,136.971 267.294,138.259 265.729,138.259L264.367,138.259L264.367,138.189" style="fill:rgb(38,36,36);fill-rule:nonzero;"/>
        </g>
        <g id="Path_788" transform="matrix(4.00006,0,0,4.00006,-300.877,-103.183)">
            <path d="M167.84,135.431C167.782,136.586 167.042,137.603 165.961,138.013C164.893,138.378 163.705,138.061 162.961,137.213C162.241,136.307 161.058,135.895 159.931,136.158C159.382,136.326 158.881,136.623 158.47,137.023C157.649,137.915 156.316,138.133 155.253,137.551C154.16,136.985 153.511,135.811 153.612,134.584C153.803,133.199 154.999,132.157 156.397,132.157C157.237,132.157 158.035,132.534 158.569,133.184C158.979,133.604 159.459,133.95 159.986,134.207C160.793,134.527 161.714,134.378 162.379,133.82C162.601,133.665 162.808,133.491 163,133.3C163.76,132.451 164.998,132.205 166.024,132.7C167.112,133.172 167.826,134.242 167.845,135.428" style="fill:rgb(38,36,36);fill-rule:nonzero;"/>
        </g>
        <g id="Path_789" transform="matrix(4.00006,0,0,4.00006,40.5001,-112.127)">
            <path d="M49.9,137.764C49.88,139.213 48.682,140.395 47.232,140.395C45.769,140.395 44.564,139.191 44.564,137.727C44.564,137.706 44.565,137.685 44.565,137.664C44.585,136.215 45.783,135.033 47.233,135.033C48.696,135.033 49.901,136.237 49.901,137.701C49.901,137.722 49.9,137.743 49.9,137.764" style="fill:rgb(38,36,36);fill-rule:nonzero;"/>
        </g>
        <g id="Path_790" transform="matrix(4.00006,0,0,4.00006,-137.331,-112.123)">
            <path d="M106.7,137.708L106.7,137.712C106.7,139.177 105.494,140.384 104.028,140.384C102.564,140.384 101.358,139.179 101.356,137.715L101.356,137.711C101.356,136.246 102.562,135.039 104.028,135.039C105.492,135.039 106.698,136.244 106.7,137.708" style="fill:rgb(38,36,36);fill-rule:nonzero;"/>
        </g>
    </g>
</svg>
