<?xml version="1.0" encoding="UTF-8" standalone="no"?><!DOCTYPE svg PUBLIC "-//W3C//DTD SVG 1.1//EN" "http://www.w3.org/Graphics/SVG/1.1/DTD/svg11.dtd"><svg width="100%" height="100%" viewBox="0 0 1162 459" version="1.1" xmlns="http://www.w3.org/2000/svg" xmlns:xlink="http://www.w3.org/1999/xlink" xml:space="preserve" xmlns:serif="http://www.serif.com/" style="fill-rule:evenodd;clip-rule:evenodd;stroke-linejoin:round;stroke-miterlimit:2;"><path d="M105.182,63.526c0.202,-1.669 0.325,-3.395 0.325,-5.157c-0,-0.961 -0,-2.08 -0.116,-3.344c14.872,-0.217 27.909,-10.921 27.909,-23.236c-0,-6.269 -4.088,-11 -6.392,-13.824c0.512,-0.115 1.04,-0.231 1.567,-0.361c2.174,1.893 8.357,8.624 8.357,17.118c-0,14.777 -14.771,28.5 -31.65,28.804m-14.973,-51.462c-0.257,-1.603 -0.896,-3.122 -1.863,-4.427c0.058,-1.502 0.672,-2.947 3.106,-1.755c-1.322,1.343 -0.304,3.719 -0.304,3.719c0,0 2.687,-1.249 2.124,-3.019c3.987,0.954 1.119,6.299 -3.063,5.482m-3.459,7.584c-0.559,-2.267 -1.62,-4.381 -3.106,-6.182c-1.307,-1.553 -3.481,-3.395 -6.399,-3.395c-1.337,-0 -3.576,0.628 -4.998,1.228c-0.535,-0.968 -1.568,-3.301 -1.568,-4.355c0,-1.084 1.828,-2.174 5.323,-2.174c7.7,-0 12.293,3.474 12.293,9.31c0,2.051 -0.809,3.914 -1.545,5.568m19.768,99.211c0.633,-0.017 1.263,0.098 1.849,0.339c2.217,6.024 10.762,17.407 11.123,17.891l0.072,0.101l0.123,-0.029c2.095,-0.34 7.447,-1.141 11.917,-1.141l0.109,-0c0.484,-0 1.04,-0 1.386,0.339c0.289,0.289 0.434,0.795 0.434,1.524c-0,1.112 -0.47,3.012 -1.033,3.828c-1.567,-1.712 -4.117,-2.477 -8.183,-2.477c-1.228,-0 -2.673,0.361 -3.46,0.578l-0.318,0.065l-0.361,0.093l2.347,2.355c3.626,3.619 6.754,6.746 6.754,8.826c-0,1.257 -1.221,2.889 -2.34,3.611c-0.246,-3.813 -4.096,-8.912 -7.844,-11.772l-0.325,-0.239l-0.058,1.344c-0.051,0.91 -0.137,2.275 -0.137,3.741c-0,7.259 -0.737,8.364 -3.251,8.364c-0.457,-0.017 -0.91,-0.102 -1.343,-0.253c1.416,-1.748 1.979,-4.059 1.979,-8.118l-0.022,-1.878l-0.021,-1.502c-0,-1.662 0.166,-2.89 0.303,-3.886l0.072,-0.564l-0.39,-0.05c-1.669,-0.259 -3.353,-0.413 -5.041,-0.462c-3.583,-0 -6.017,0.332 -7.779,1.986c-1.156,-0.939 -2.355,-2.557 -2.355,-3.583c0,-1.516 0.939,-1.632 2.175,-1.632c0.628,0 1.213,0.087 2.022,0.188c1.538,0.231 3.857,0.578 8.638,0.578l0.304,-0l-0.102,-0.297c-1.206,-3.466 -4.535,-8.508 -9.866,-14.994c0.477,-1.733 0.946,-2.874 2.622,-2.874m-46.052,17.868l-0.101,0.289l0.304,0c4.767,0 7.1,-0.339 8.645,-0.577c0.802,-0.094 1.387,-0.181 2.015,-0.181c1.228,0 2.174,0.116 2.174,1.632c0,1.026 -1.191,2.644 -2.347,3.583c-1.77,-1.661 -4.204,-1.986 -7.779,-1.986c-1.683,-0 -3.871,0.296 -5.049,0.462l-0.18,0.021l-0.217,0.029l0.072,0.564c0.145,0.989 0.311,2.224 0.311,3.886l-0.022,1.509l-0.021,1.871c-0,4.059 0.563,6.37 1.986,8.118c-0.435,0.15 -0.89,0.235 -1.351,0.253c-2.528,-0 -3.25,-1.105 -3.25,-8.364c0,-1.466 -0.072,-2.831 -0.13,-3.741l-0.072,-1.351l-0.318,0.246c-3.741,2.86 -7.605,7.959 -7.837,11.772c-1.126,-0.722 -2.347,-2.354 -2.347,-3.611c0,-2.08 3.128,-5.2 6.753,-8.826l2.355,-2.355l-0.686,-0.166c-1.129,-0.328 -2.293,-0.52 -3.467,-0.57c-4.059,-0 -6.602,0.765 -8.176,2.477c-0.564,-0.816 -1.033,-2.716 -1.033,-3.828c-0,-0.722 0.144,-1.228 0.433,-1.517c0.347,-0.346 0.903,-0.346 1.387,-0.346l0.101,-0c4.478,-0 9.837,0.801 11.918,1.141l0.13,0.029l0.072,-0.101c0.368,-0.492 8.905,-11.867 11.123,-17.891c0.585,-0.243 1.215,-0.359 1.849,-0.339c1.675,-0 2.145,1.134 2.629,2.874c-5.345,6.486 -8.667,11.528 -9.874,14.994m-23.076,-102.005c0,-8.494 6.19,-15.225 8.364,-17.118c0.52,0.13 1.047,0.246 1.567,0.361c-2.311,2.824 -6.399,7.555 -6.399,13.824c-0,12.438 13.29,23.243 28.349,23.243c-0.101,1.109 -0.152,2.223 -0.152,3.337c0,1.834 0.101,3.546 0.289,5.157c-17.031,-0.101 -32.018,-13.918 -32.018,-28.804m114.176,26.211c7.641,12.076 13.614,11.874 22.643,11.874c-7.468,-5.72 -12.409,-13.059 -14.763,-16.8l-13.947,-22.318c-1.374,-6.991 -4.976,-13.353 -10.264,-18.129c1.799,-0.686 3.287,-1.401 4.182,-2.08c-9.108,0 -18.129,-4.622 -23.105,-4.622c-3.192,-0 -5.244,1.906 -5.244,4.427c0.203,2.817 3.099,5.67 8.451,5.67c1.206,-0 2.759,-0.159 4.456,-0.434c2.889,4.031 5.229,7.678 5.229,12.886c0,9.772 -11.679,17.385 -23.473,17.385c-0.672,-0 -1.3,-0.029 -1.972,-0.073c-1.062,-2.426 -4.622,-6.493 -4.622,-11.115c-0,-7.765 5.063,-14.106 5.063,-21.798c-0,-4.782 -2.326,-7.743 -3.222,-8.971c1.445,-1.343 3.034,-2.99 3.402,-4.124c-0.845,0.361 -1.842,0.405 -3.301,0.405c-5.648,-0 -10.256,-1.467 -14.748,-1.467c-2.572,0 -3.25,0.795 -3.25,1.546c-0,0.274 0.028,0.556 0.108,0.693c-0.943,-0.369 -1.921,-0.642 -2.918,-0.816c-1.41,-0.259 -2.842,-0.385 -4.276,-0.375c-5.46,-0 -7.396,2.289 -7.396,4.247c0,1.661 1.3,4.687 2.788,7.006c2.124,-1.084 4.68,-1.806 5.85,-1.806c2.897,-0 5.475,2.759 6.84,6.031c-1.95,0.238 -2.325,0.318 -4.29,0.318c-5.323,-0 -8.934,-1.9 -9.678,-1.9c-0.073,0 -0.217,0.036 -0.217,0.152c-0,0.751 1.51,2.715 4.478,3.799c3.915,1.43 9.779,2.029 10.762,2.196c-0,0.166 -0.997,2.022 -2.109,2.383c-0.225,0.073 -0.466,0.078 -0.694,0.014c-4.088,-0.801 -5.229,-1.148 -10.415,-3.113c-0.151,-0.065 -0.252,0.037 -0.252,0.195c-0,2.052 5.308,6.58 10.068,8.321c-3.973,5.07 -8.935,10.263 -11.275,18.179c-0.664,0.044 -1.3,0.073 -1.971,0.073c-11.795,-0 -23.474,-7.613 -23.474,-17.385c-0,-5.208 2.333,-8.855 5.229,-12.893c1.697,0.289 3.25,0.441 4.464,0.441c5.344,-0 8.234,-2.853 8.45,-5.67c0,-2.521 -2.051,-4.427 -5.251,-4.427c-4.969,-0 -13.99,4.622 -23.112,4.622c0.903,0.679 2.398,1.394 4.189,2.073c-5.283,4.778 -8.881,11.139 -10.256,18.129l-13.954,22.325c-2.348,3.741 -7.302,11.08 -14.771,16.8c9.029,-0 15.009,0.202 22.651,-11.874l7.15,-11.448c0.527,1.488 1.177,2.932 1.95,4.348l-14.229,22.766c-2.361,3.77 -7.273,11.036 -14.77,16.793c9.028,-0 15.009,0.216 22.65,-11.86l12.243,-19.602c0.917,0.975 1.878,1.935 2.889,2.845l-17.277,27.663c-2.369,3.778 -7.251,11.029 -14.763,16.778c9.028,0 15.009,0.217 22.643,-11.859l16.843,-26.97c1.113,0.701 2.239,1.38 3.424,2.023l-20.563,32.906c-2.376,3.778 -7.251,11.007 -14.763,16.786c9.028,-0 15.009,0.209 22.643,-11.867l21.17,-33.889c1.256,0.484 2.528,0.939 3.813,1.351l-23.921,38.294c-2.333,3.727 -7.324,11.094 -14.756,16.786c9.021,-0 15.009,0.202 22.643,-11.867l25.496,-40.801c0.26,0.043 0.513,0.08 0.765,0.137c0.694,2.203 1.178,4.262 1.178,6.313c-0,12.827 -8.415,24.152 -18.512,32.892c0.65,0.289 1.777,0.383 2.817,0.383c2.08,-0 3.423,-0.116 4.37,-0.282c-2.341,5.323 -7.368,12.192 -9.903,15.745c-3.723,-0.642 -7.49,-0.997 -11.267,-1.061c-3.294,-0 -3.669,1.921 -3.669,3.647c-0,2.99 1.401,5.374 3.033,6.696c0.607,-1.524 1.842,-3.568 7.924,-3.568l0.614,0.036c-1.777,1.979 -7.346,6.478 -7.346,10.111c0,2.398 2.629,5.995 6.103,5.995c-0.202,-0.773 -0.18,-1.48 -0.18,-2.022c-0,-2.933 2.6,-6.371 4.803,-8.776c-0.072,0.723 -0.029,0.65 -0.029,1.481c-0,6.941 0.628,10.133 5.034,10.133c2.167,0 3.655,-1.184 4.168,-1.538c-2.861,-2.636 -3.012,-4.709 -3.012,-8.602l0.029,-3.373c0.027,-0.978 -0.021,-1.956 -0.145,-2.925c1.567,-0.217 2.21,-0.217 3.431,-0.217c-0,-0 6.255,-0.506 7.771,2.759c1.698,-1.56 4.168,-3.756 4.168,-6.183c-0,-1.603 -0.758,-3.416 -3.987,-3.416c-1.228,0 -5.07,0.744 -8.284,0.744c0.866,-1.914 4.709,-7.541 8.046,-11.621c0.505,1.589 1.285,3.293 3.033,4.694c0.246,-2.629 1.784,-10.927 5.887,-15.788c0.476,3.286 1.119,6.645 1.119,13.744c0,17.263 -4.153,30.011 -12.957,32.445c1.148,1.986 3.568,3.784 6.081,3.784c3.229,0 4.984,-3.647 6.768,-7.085c0.939,2.535 3.51,8.761 6.089,8.761c2.578,-0 5.164,-6.226 6.095,-8.761c1.784,3.438 3.54,7.085 6.768,7.085c2.514,0 4.933,-1.798 6.082,-3.784c-8.812,-2.434 -12.965,-15.182 -12.965,-32.445c-0,-7.092 0.65,-10.458 1.119,-13.744c4.117,4.861 5.656,13.159 5.887,15.788c1.474,-1.213 2.536,-2.853 3.041,-4.694c3.329,4.08 7.179,9.707 8.046,11.628c-3.214,0 -7.064,-0.751 -8.285,-0.751c-3.221,0 -3.979,1.813 -3.979,3.416c-0,2.427 2.47,4.623 4.167,6.183c1.502,-3.257 7.772,-2.759 7.772,-2.759c1.213,-0 1.856,-0 3.438,0.217c-0.152,0.852 -0.159,2.029 -0.152,2.925l0.022,3.373c-0,3.893 -0.145,5.966 -3.012,8.595c0.513,0.361 2.008,1.545 4.167,1.545c4.406,0 5.042,-3.192 5.042,-10.133c-0,-0.838 0.021,-0.766 -0.036,-1.481c2.202,2.405 4.803,5.843 4.803,8.783c-0,0.535 0.029,1.242 -0.188,2.022c3.481,0 6.117,-3.611 6.117,-6.009c0,-3.626 -5.568,-8.125 -7.367,-10.112l0.621,-0.028c6.089,-0 7.324,2.044 7.931,3.568c1.953,-1.671 3.066,-4.126 3.033,-6.696c0,-1.726 -0.375,-3.647 -3.669,-3.647c-3.149,-0 -7.952,0.462 -11.267,1.061c-2.542,-3.553 -7.555,-10.422 -9.902,-15.745c0.939,0.166 2.297,0.282 4.377,0.282c1.04,-0 2.166,-0.101 2.817,-0.383c-10.112,-8.74 -18.519,-20.065 -18.519,-32.892c-0,-2.051 0.484,-4.11 1.177,-6.313c0.245,-0.057 0.513,-0.094 0.766,-0.137l25.495,40.808c7.635,12.062 13.622,11.86 22.644,11.86c-7.433,-5.692 -12.423,-13.059 -14.756,-16.786l-23.929,-38.294c1.3,-0.405 2.571,-0.867 3.828,-1.351l21.162,33.889c7.635,12.076 13.622,11.867 22.643,11.867c-7.511,-5.779 -12.386,-13.001 -14.763,-16.786l-20.541,-32.914c1.163,-0.642 2.311,-1.321 3.409,-2.022l16.851,26.97c7.641,12.076 13.614,11.859 22.643,11.859c-7.512,-5.749 -12.387,-13.001 -14.763,-16.785l-17.277,-27.663c1.011,-0.903 1.986,-1.864 2.889,-2.839l12.25,19.603c7.634,12.069 13.614,11.859 22.643,11.859c-7.512,-5.756 -12.402,-13.022 -14.771,-16.792l-14.221,-22.766c0.766,-1.416 1.416,-2.86 1.95,-4.348l7.129,11.455Zm67.951,-51.823l26.109,0l0,149.192l-26.109,-0l-0,-149.192Z" style="fill-rule:nonzero;"/><rect x="219.517" y="158.302" width="26.11" height="149.191" style="fill:#f00;fill-rule:nonzero;"/><rect x="219.517" y="307.493" width="26.11" height="149.191" style="fill:#fc0;fill-rule:nonzero;"/><path d="M337.318,22.689c0,-9.577 -5.821,-15.76 -20.505,-15.76l-11.896,0l0,61.768l12.625,0c14.771,0 21.394,-7.078 21.394,-16.742c-0,-8.234 -5.287,-13.6 -11.643,-14.857l0,-0.18c5.374,-1.431 10.032,-5.634 10.032,-14.229l-0.007,-0Zm-7.88,0.267c0,7.071 -4.384,11.455 -12.712,11.455l-4.03,0l0,-21.307l4.117,0c8.689,0 12.625,4.211 12.625,9.852Zm1.163,28.465c0,7.078 -3.936,10.834 -13.073,10.834l-4.832,-0l0,-21.668l5.287,-0c8.053,-0 12.618,4.21 12.618,10.834Zm41.176,12.444l0.181,0l-0,4.832l6.623,0l0,-42.967l-7.251,-0l-0,32.856c-1.431,1.784 -4.298,4.738 -8.682,4.738c-4.839,-0 -7.165,-2.861 -7.165,-9.932l0,-27.662l-7.244,-0l-0,28.197c-0,11.636 4.738,15.846 12.35,15.846c6.537,0 10.387,-4.391 11.196,-5.908l-0.008,0Zm33.925,-33.029c5.013,0 7.432,2.947 7.432,10.198l0,27.663l7.252,0l-0,-28.197c-0,-11.636 -4.839,-15.846 -12.531,-15.846c-6.718,-0 -10.567,4.391 -11.369,5.908l-0.18,-0l-0,-4.832l-6.624,-0l0,42.967l7.252,0l-0,-33.123c1.43,-1.791 4.384,-4.738 8.768,-4.738Zm40.555,32.488c-5.012,-0 -9.49,-3.937 -9.49,-15.746c-0,-12.177 5.28,-16.475 11.989,-16.475c2.601,0 4.305,0.715 5.555,1.517l-0,26.5c-1.808,2.661 -4.837,4.242 -8.054,4.204Zm8.502,0.809l0.18,-0l0,4.564l6.623,0l0,-64.094l-7.251,0.809l-0,20.585c-1.942,-0.746 -4.009,-1.109 -6.089,-1.069c-9.129,-0 -18.974,5.547 -18.974,22.91c0,15.673 6.89,21.935 15.038,21.935c6.803,0 9.664,-4.297 10.473,-5.64Zm31.866,-33.571c4.565,-0 6.984,3.495 6.984,9.404c0,1.343 -0.094,2.506 -0.18,3.127l-15.572,-0c0.361,-8.053 3.669,-12.531 8.768,-12.531Zm14.503,34.105l-2.687,-5.099c-0.982,0.982 -3.936,3.756 -9.043,3.756c-7.251,-0 -11.188,-4.738 -11.628,-14.771l21.928,0c0.267,-2.058 0.534,-4.651 0.534,-8.32c0,-10.293 -5.012,-15.579 -13.159,-15.579c-8.956,-0 -16.381,6.803 -16.381,22.029c-0,16.193 6.803,23.09 17.637,23.09c8.14,0 11.629,-3.849 12.799,-5.106Zm30.436,-35.449c-1.437,-1.43 -4.297,-4.564 -10.92,-4.564c-6.985,-0 -12.445,4.745 -12.445,11.101c-0,5.908 3.221,9.396 8.595,12.798l2.687,1.705c4.117,2.6 6.262,4.03 6.262,8.147c-0,2.773 -2.326,4.919 -6.623,4.919c-4.652,-0 -7.339,-2.774 -8.682,-4.204l-3.496,5.728c1.705,1.791 5.201,4.925 12.091,4.925c8.768,0 13.694,-5.279 13.694,-12.083c0,-6.356 -3.582,-9.852 -9.404,-13.34l-2.679,-1.611c-3.85,-2.326 -5.641,-4.117 -5.641,-7.338c-0,-2.506 2.058,-4.565 5.908,-4.565c4.03,0 6.536,2.506 7.511,3.575l3.142,-5.193Zm25.778,1.878c4.478,0 6.443,2.961 6.443,9.938l-0,27.663l7.251,0l0,-28.818c0.024,-1.501 -0.096,-3.001 -0.361,-4.478c1.618,-1.878 4.305,-4.298 8.234,-4.298c4.839,0 7.439,2.954 7.439,9.931l0,27.663l7.244,0l0,-28.818c0,-10.213 -4.478,-15.225 -13.065,-15.225c-5.547,-0 -9.491,3.315 -11.369,5.734c-1.972,-3.849 -5.547,-5.734 -10.386,-5.734c-5.908,-0 -9.577,3.943 -10.74,5.908l-0.181,-0l0,-4.832l-6.623,-0l0,42.967l7.252,0l-0,-33.123c1.256,-1.517 4.03,-4.478 8.862,-4.478Zm50.754,-15.745c2.867,-0 4.839,-2.153 4.839,-5.201c-0,-2.946 -1.972,-5.099 -4.839,-5.099c-2.955,0 -4.919,2.153 -4.919,5.107c-0,3.04 1.964,5.185 4.919,5.185l-0,0.008Zm3.582,10.379l-7.252,-0l0,42.967l7.252,0l-0,-42.967Zm27.121,5.106c5.013,0 7.432,2.947 7.432,10.198l0,27.663l7.252,0l-0,-28.197c-0,-11.636 -4.839,-15.846 -12.532,-15.846c-6.717,-0 -10.566,4.391 -11.368,5.908l-0.181,-0l0,-4.832l-6.623,-0l0,42.967l7.252,0l-0,-33.123c1.43,-1.791 4.384,-4.738 8.768,-4.738Zm29.18,-15.493c2.867,0 4.839,-2.145 4.839,-5.185c-0,-2.962 -1.972,-5.107 -4.839,-5.107c-2.947,0 -4.919,2.153 -4.919,5.107c-0,3.04 1.972,5.185 4.926,5.185l-0.007,0Zm3.582,10.387l-7.244,-0l-0,42.967l7.251,0l-0.007,-42.967Zm32.762,3.488c-1.43,-1.43 -4.297,-4.564 -10.921,-4.564c-6.977,-0 -12.437,4.745 -12.437,11.101c-0,5.908 3.221,9.396 8.595,12.798l2.679,1.705c4.117,2.6 6.27,4.03 6.27,8.147c-0,2.773 -2.326,4.919 -6.623,4.919c-4.659,-0 -7.346,-2.774 -8.689,-4.204l-3.489,5.728c1.705,1.791 5.193,4.925 12.084,4.925c8.775,0 13.694,-5.279 13.694,-12.083c-0,-6.356 -3.575,-9.852 -9.39,-13.34l-2.694,-1.611c-3.849,-2.326 -5.633,-4.117 -5.633,-7.338c-0,-2.506 2.058,-4.565 5.901,-4.565c4.03,0 6.536,2.506 7.526,3.575l3.127,-5.193Zm29.18,38.67l-0.983,-5.814c-0.715,0.448 -2.325,1.25 -4.478,1.25c-3.662,-0 -5.099,-1.784 -5.099,-7.873l0,-23.813l9.404,-0l0.888,-5.908l-10.292,-0l0,-11.99l-6.443,0l-0.809,11.99l-5.193,1.076l0,4.832l5.201,-0l-0,24.795c-0,9.491 3.755,13.34 11.094,13.34c3.849,0 6.088,-1.437 6.717,-1.877l-0.007,-0.008Zm20.411,-37.326c4.564,-0 6.984,3.495 6.984,9.404c0,1.343 -0.087,2.506 -0.18,3.127l-15.573,-0c0.362,-8.053 3.67,-12.531 8.769,-12.531Zm14.503,34.105l-2.687,-5.099c-0.982,0.982 -3.936,3.756 -9.036,3.756c-7.251,-0 -11.195,-4.738 -11.642,-14.771l21.935,0c0.267,-2.058 0.534,-4.651 0.534,-8.32c0,-10.293 -5.012,-15.579 -13.159,-15.579c-8.949,-0 -16.381,6.803 -16.381,22.029c-0,16.193 6.803,23.09 17.637,23.09c8.147,0 11.636,-3.849 12.799,-5.106Zm28.558,-39.024c-0.722,-0.274 -1.878,-0.722 -3.943,-0.722c-5.461,-0 -7.786,3.228 -9.036,6.63l-0.18,0l-0,-5.821l-6.624,-0l0,42.967l7.252,0l-0,-31.512c1.069,-2.86 3.488,-5.814 8.053,-5.814c1.972,-0 3.222,0.534 3.583,0.715l0.895,-6.443Zm9.931,-10.3c2.868,0 4.84,-2.145 4.84,-5.185c-0,-2.962 -1.972,-5.107 -4.84,-5.107c-2.954,0 -4.918,2.153 -4.918,5.107c-0,3.04 1.964,5.185 4.918,5.185Zm3.583,10.387l-7.252,-0l0,42.967l7.252,0l-0,-42.967Zm34.38,38.135l0.173,0l0,4.832l6.623,0l0,-42.967l-7.251,-0l-0,32.856c-1.43,1.784 -4.298,4.738 -8.682,4.738c-4.839,-0 -7.158,-2.861 -7.158,-9.932l0,-27.662l-7.251,-0l-0,28.197c-0,11.636 4.745,15.846 12.351,15.846c6.536,0 10.386,-4.391 11.195,-5.908Zm34.011,-32.762c4.478,0 6.443,2.954 6.443,9.931l-0,27.663l7.251,0l0,-28.818c0.025,-1.501 -0.096,-3.001 -0.361,-4.478c1.618,-1.878 4.298,-4.298 8.234,-4.298c4.839,0 7.439,2.954 7.439,9.931l0,27.663l7.245,0l-0,-28.818c-0,-10.213 -4.478,-15.225 -13.073,-15.225c-5.547,-0 -9.484,3.315 -11.362,5.734c-1.971,-3.849 -5.554,-5.734 -10.386,-5.734c-5.908,-0 -9.577,3.943 -10.74,5.908l-0.18,-0l-0,-4.832l-6.624,-0l0,42.967l7.252,0l-0,-33.123c1.249,-1.517 4.03,-4.478 8.862,-4.478l0,0.007Zm-557.408,90.052l0.895,-5.908l-9.671,0l0,-7.699c0,-5.641 1.878,-7.519 5.287,-7.519c1.878,0 3.221,0.715 3.936,1.156l1.517,-5.995c-1.852,-1.057 -3.949,-1.613 -6.081,-1.611c-6.356,0 -11.91,3.763 -11.91,13.16l-0,8.595l-5.186,0.982l-0,4.839l5.186,0l-0,37.053l7.251,-0l0,-37.053l8.776,0Zm33.209,-18.266c0,-2.773 -1.878,-4.564 -4.297,-4.564c-2.42,-0 -4.298,1.791 -4.298,4.564c0,2.774 1.878,4.565 4.298,4.565c2.419,0 4.297,-1.784 4.297,-4.565Zm-13.788,0c0,-2.773 -1.878,-4.564 -4.297,-4.564c-2.42,-0 -4.29,1.791 -4.29,4.564c-0,2.774 1.877,4.565 4.29,4.565c2.412,0 4.297,-1.784 4.297,-4.565Zm11.015,50.487l0.18,-0l0,4.839l6.624,-0l-0,-42.975l-7.252,0l0,32.863c-1.437,1.784 -4.297,4.738 -8.682,4.738c-4.839,0 -7.164,-2.867 -7.164,-9.938l-0,-27.663l-7.252,0l-0,28.205c-0,11.628 4.745,15.839 12.351,15.839c6.536,-0 10.386,-4.384 11.195,-5.908Zm37.68,-38.223c-0.715,-0.267 -1.877,-0.715 -3.936,-0.715c-5.46,0 -7.786,3.222 -9.043,6.624l-0.173,-0l0,-5.815l-6.63,0l-0,42.968l7.251,-0l0,-31.513c1.084,-2.867 3.496,-5.821 8.061,-5.821c1.964,-0 3.221,0.542 3.582,0.722l0.888,-6.45Zm32.502,43.062l0,-26.587l20.318,0l-0,-6.175l-20.325,-0l0,-22.824l22.029,0l0.535,-6.182l-30.35,-0l0,61.768l7.793,-0Zm28.017,-21.488c0,16.114 7.244,22.557 16.735,22.557c9.397,-0 17.19,-6.529 17.19,-22.557c-0,-15.846 -7.252,-22.556 -16.742,-22.556c-9.216,0 -17.19,6.717 -17.19,22.556l0.007,0Zm26.406,0c0,11.369 -3.496,16.114 -9.404,16.114c-5.908,0 -9.483,-4.745 -9.483,-16.106c-0,-11.362 3.488,-16.389 9.389,-16.389c5.901,0 9.498,5.013 9.498,16.381Zm36.431,-21.574c-0.722,-0.267 -1.878,-0.715 -3.936,-0.715c-5.468,0 -7.793,3.222 -9.043,6.624l-0.18,-0l-0,-5.815l-6.624,0l0,42.968l7.252,-0l-0,-31.513c1.069,-2.867 3.488,-5.821 8.053,-5.821c1.972,-0 3.221,0.542 3.583,0.722l0.895,-6.45Zm27.569,3.583c-1.43,-1.43 -4.297,-4.565 -10.921,-4.565c-6.984,0 -12.444,4.745 -12.444,11.101c-0,5.908 3.221,9.397 8.595,12.799l2.687,1.704c4.117,2.593 6.262,4.023 6.262,8.14c-0,2.781 -2.326,4.926 -6.624,4.926c-4.651,0 -7.338,-2.773 -8.681,-4.211l-3.489,5.735c1.698,1.791 5.193,4.919 12.084,4.919c8.775,-0 13.694,-5.273 13.694,-12.084c-0,-6.356 -3.582,-9.844 -9.397,-13.333l-2.687,-1.618c-3.849,-2.325 -5.633,-4.116 -5.633,-7.338c-0,-2.506 2.051,-4.565 5.901,-4.565c4.03,0 6.536,2.507 7.518,3.583l3.135,-5.193Zm36.612,-0.267c-1.344,-1.517 -4.384,-4.298 -10.921,-4.298c-8.501,0 -17.992,5.995 -17.992,22.463c0,16.828 7.606,22.65 17.19,22.65c6.71,-0 10.025,-3.128 11.188,-4.478l-2.961,-5.006c-0.888,0.983 -3.127,3.041 -7.512,3.041c-6.182,0 -10.386,-4.117 -10.386,-16.742c0,-11.368 4.839,-15.745 11.008,-15.745c4.297,-0 6.536,2.412 7.345,3.214l3.041,-5.099Zm23.632,1.877c5.013,0 7.432,2.962 7.432,10.206l0,27.663l7.245,-0l-0,-28.197c-0,-11.369 -4.738,-15.847 -12.257,-15.847c-6.898,0 -10.112,4.117 -11.015,5.46l-0.18,0l-0,-25.51l-7.252,0.802l0,63.292l7.252,-0l-0,-33.123c1.437,-1.791 4.391,-4.746 8.775,-4.746Zm48.782,33.03l0.181,-0l-0,4.839l6.623,-0l-0,-42.975l-7.252,0l0,32.863c-1.43,1.784 -4.29,4.738 -8.681,4.738c-4.832,0 -7.158,-2.867 -7.158,-9.938l0,-27.663l-7.252,0l0,28.205c0,11.628 4.746,15.839 12.351,15.839c6.537,-0 10.386,-4.384 11.195,-5.908l-0.007,-0Zm33.932,-33.03c5.013,0 7.425,2.962 7.425,10.206l0,27.663l7.252,-0l-0,-28.197c-0,-11.643 -4.84,-15.847 -12.532,-15.847c-6.717,0 -10.559,4.384 -11.368,5.908l-0.181,0l0,-4.839l-6.623,0l0,42.975l7.252,-0l-0,-33.123c1.43,-1.791 4.384,-4.746 8.775,-4.746Zm45.922,8.234c-0,6.176 -3.402,8.595 -7.526,8.595c-3.937,0 -7.425,-2.419 -7.425,-8.595c-0,-6.175 3.488,-8.595 7.605,-8.595c3.944,0 7.346,2.42 7.346,8.595Zm10.559,32.943c0,-8.147 -6.088,-11.369 -14.228,-11.369l-5.468,0c-3.127,0 -4.384,-1.249 -4.384,-3.04c0,-2.239 2.058,-3.402 3.489,-4.031c0.722,0.087 1.437,0.087 2.239,0.087c8.414,0 14.864,-5.46 14.864,-14.59c-0,-2.86 -0.722,-5.547 -2.059,-7.699l5.367,-0l0.989,-5.634l-13.073,0c-1.821,-0.728 -3.766,-1.096 -5.727,-1.083c-8.061,-0 -14.59,4.752 -14.59,14.416c-0,6.804 2.954,11.102 7.338,13.16l0,0.181c-1.076,0.534 -5.193,2.325 -5.193,6.984c0,2.679 0.982,4.651 2.774,5.995l-0,0.18c-1.965,1.076 -7.158,4.117 -7.158,10.473c-0,7.432 4.926,11.636 14.055,11.636c12.712,-0 20.765,-6.443 20.765,-15.666Zm-20.23,9.49c-5.099,0 -7.606,-2.325 -7.606,-6.89c0,-4.297 2.326,-6.356 4.384,-7.519c0.983,0.174 2.146,0.267 3.308,0.267l5.461,0c4.391,0 7.251,1.611 7.251,5.728c0,4.384 -4.023,8.414 -12.798,8.414Zm27.301,-0.267c4.746,-1.704 10.387,-5.554 10.387,-13.701c-0,-5.901 -2.42,-8.768 -5.909,-8.768c-2.506,-0 -4.658,1.61 -4.658,4.839c-0,3.308 2.152,5.099 4.926,5.099l0.267,-0c-0,5.186 -2.774,7.511 -6.537,9.389l1.524,3.142Zm71.252,-74.299l-41.263,-0l-0,6.175l16.467,0l0,55.593l7.794,-0l-0,-55.593l16.467,0l0.535,-6.175Zm13.607,23.632c4.565,0 6.985,3.489 6.985,9.397c-0,1.343 -0.087,2.506 -0.181,3.135l-15.572,-0c0.361,-8.054 3.669,-12.532 8.768,-12.532Zm14.503,34.106l-2.686,-5.107c-0.983,0.99 -3.937,3.763 -9.043,3.763c-7.244,0 -11.188,-4.745 -11.629,-14.77l21.928,-0c0.268,-2.059 0.535,-4.651 0.535,-8.328c-0,-10.292 -5.013,-15.572 -13.16,-15.572c-8.956,0 -16.381,6.804 -16.381,22.022c0,16.2 6.804,23.091 17.638,23.091c8.147,-0 11.628,-3.85 12.798,-5.099Zm35.716,-35.716c-1.343,-1.517 -4.384,-4.298 -10.92,-4.298c-8.501,0 -17.992,5.995 -17.992,22.463c0,16.828 7.606,22.65 17.19,22.65c6.71,-0 10.025,-3.128 11.188,-4.478l-2.961,-5.006c-0.889,0.983 -3.128,3.041 -7.512,3.041c-6.182,0 -10.386,-4.117 -10.386,-16.742c-0,-11.368 4.839,-15.745 11.007,-15.745c4.298,-0 6.537,2.412 7.346,3.214l3.04,-5.099Zm23.633,1.877c5.013,0 7.432,2.962 7.432,10.206l0,27.663l7.244,-0l0,-28.197c0,-11.369 -4.738,-15.847 -12.256,-15.847c-6.898,0 -10.112,4.117 -11.015,5.46l-0.181,0l0,-25.51l-7.251,0.802l-0,63.292l7.251,-0l0,-33.123c1.438,-1.791 4.392,-4.746 8.776,-4.746Zm41.53,0c5.02,0 7.44,2.962 7.44,10.206l-0,27.663l7.244,-0l-0,-28.197c-0,-11.643 -4.839,-15.847 -12.531,-15.847c-6.717,0 -10.56,4.384 -11.369,5.908l-0.18,0l-0,-4.839l-6.624,0l0,42.975l7.252,-0l-0,-33.123c1.43,-1.791 4.384,-4.746 8.776,-4.746l-0.008,0Zm23.546,16.381c0,16.114 7.252,22.557 16.742,22.557c9.397,-0 17.19,-6.529 17.19,-22.557c0,-15.846 -7.259,-22.556 -16.742,-22.556c-9.223,0 -17.19,6.717 -17.19,22.556Zm26.406,0c0,11.369 -3.488,16.114 -9.396,16.114c-5.909,0 -9.491,-4.745 -9.491,-16.106c-0,-11.362 3.488,-16.389 9.397,-16.389c5.908,0 9.49,5.013 9.49,16.381Zm23.813,-42.613l-7.251,0.809l-0,53.888c-0,7.613 3.315,10.206 8.147,10.206c3.221,-0 5.099,-0.802 5.814,-1.163l-0.621,-5.374c-0.448,0.181 -1.343,0.542 -2.687,0.542c-2.506,-0 -3.402,-1.257 -3.402,-4.839l0,-54.069Zm11.275,42.613c-0,16.114 7.251,22.557 16.742,22.557c9.397,-0 17.19,-6.529 17.19,-22.557c-0,-15.846 -7.252,-22.556 -16.742,-22.556c-9.216,0 -17.19,6.717 -17.19,22.556Zm26.413,0c0,11.369 -3.496,16.114 -9.404,16.114c-5.908,0 -9.483,-4.745 -9.483,-16.106c-0,-11.362 3.488,-16.389 9.389,-16.389c5.916,0 9.498,5.013 9.498,16.381Zm37.052,-8.147c0,6.176 -3.394,8.595 -7.511,8.595c-3.944,0 -7.44,-2.419 -7.44,-8.595c0,-6.175 3.496,-8.595 7.613,-8.595c3.944,0 7.346,2.42 7.346,8.595l-0.008,0Zm10.567,32.943c0,-8.147 -6.089,-11.369 -14.229,-11.369l-5.467,0c-3.127,0 -4.384,-1.249 -4.384,-3.04c-0,-2.239 2.058,-3.402 3.488,-4.031c0.723,0.087 1.438,0.087 2.239,0.087c8.415,0 14.865,-5.46 14.865,-14.59c-0,-2.86 -0.723,-5.547 -2.059,-7.699l5.367,-0l0.989,-5.634l-13.073,0c-1.821,-0.728 -3.766,-1.096 -5.728,-1.083c-8.06,-0 -14.589,4.752 -14.589,14.416c-0,6.804 2.954,11.102 7.338,13.16l-0,0.181c-1.076,0.534 -5.193,2.325 -5.193,6.984c-0,2.679 0.989,4.651 2.773,5.995l0,0.18c-1.964,1.076 -7.157,4.117 -7.157,10.473c-0,7.432 4.926,11.636 14.055,11.636c12.712,-0 20.765,-6.443 20.765,-15.666Zm-20.231,9.49c-5.099,0 -7.605,-2.325 -7.605,-6.89c-0,-4.297 2.326,-6.356 4.384,-7.519c0.982,0.174 2.145,0.267 3.308,0.267l5.46,0c4.392,0 7.252,1.611 7.252,5.728c-0,4.384 -4.023,8.414 -12.799,8.414Zm31.961,-66.152c2.86,0 4.832,-2.145 4.832,-5.193c-0,-2.954 -1.972,-5.099 -4.84,-5.099c-2.946,-0 -4.918,2.145 -4.918,5.099c-0,3.048 1.972,5.193 4.926,5.193Zm3.575,10.386l-7.252,0l0,42.968l7.252,-0l-0,-42.968Zm25.063,4.832c4.571,0 6.984,3.489 6.984,9.397c-0,1.343 -0.087,2.506 -0.181,3.135l-15.572,-0c0.361,-8.054 3.669,-12.532 8.776,-12.532l-0.007,0Zm14.503,34.106l-2.687,-5.107c-0.982,0.99 -3.937,3.763 -9.036,3.763c-7.251,0 -11.195,-4.745 -11.635,-14.77l21.928,-0c0.267,-2.059 0.534,-4.651 0.534,-8.328c0,-10.292 -5.012,-15.572 -13.16,-15.572c-8.949,0 -16.381,6.804 -16.381,22.022c0,16.2 6.804,23.091 17.638,23.091c8.147,-0 11.636,-3.85 12.799,-5.099Zm-834.55,88.708l0.188,0l0,4.84l6.623,-0l0,-42.975l-7.251,-0l-0,32.856c-1.437,1.791 -4.298,4.745 -8.682,4.745c-4.839,-0 -7.165,-2.868 -7.165,-9.939l0,-27.662l-7.251,-0l-0,28.197c-0,11.636 4.745,15.846 12.351,15.846c6.536,0 10.386,-4.384 11.195,-5.908l-0.008,0Zm33.932,-33.029c5.013,0 7.433,2.954 7.433,10.206l-0,27.663l7.244,-0l-0,-28.205c-0,-11.636 -4.832,-15.839 -12.531,-15.839c-6.717,-0 -10.56,4.384 -11.369,5.908l-0.173,-0l-0,-4.839l-6.631,-0l0,42.975l7.252,-0l-0,-33.124c1.437,-1.791 4.391,-4.745 8.775,-4.745Zm40.548,32.495c-5.012,-0 -9.49,-3.944 -9.49,-15.76c-0,-12.17 5.287,-16.468 11.997,-16.468c2.6,0 4.297,0.715 5.554,1.517l-0,26.507c-1.809,2.663 -4.842,4.244 -8.061,4.204Zm8.509,0.802l0.173,-0l0,4.564l6.631,0l-0,-64.094l-7.252,0.809l-0,20.585c-1.941,-0.746 -4.009,-1.109 -6.089,-1.069c-9.129,-0 -18.981,5.547 -18.981,22.91c0,15.673 6.898,21.935 15.045,21.935c6.796,0 9.664,-4.297 10.473,-5.633l-0,-0.007Zm63.465,-39.472c0,8.053 -4.478,12.712 -13.874,12.712l-3.402,-0l-0,-24.269l3.755,0c9.224,0 13.521,3.763 13.521,11.557Zm-17.276,18.887l3.394,-0c1.438,-0 2.868,-0.094 4.211,-0.181l12.799,25.33l9.136,0l-14.503,-27.207c7.071,-3.048 10.56,-9.224 10.56,-17.277c-0,-11.369 -6.977,-17.277 -21.842,-17.277l-11.549,0l0,61.761l7.794,0l-0,-25.149Zm54.422,0.982l-2.239,0c-9.75,0 -17.905,3.308 -17.905,13.247c0,6.984 4.926,11.989 11.463,11.989c5.46,0 8.053,-3.662 9.043,-5.814l0.173,-0c0.094,2.152 0.18,3.496 0.274,4.745l6.891,0c-0.35,-2.972 -0.528,-5.963 -0.535,-8.956l0,-19.595c0,-10.834 -4.658,-15.485 -13.434,-15.485c-6.89,-0 -11.007,3.308 -12.885,5.186l3.041,4.839c1.61,-1.438 4.478,-3.85 8.775,-3.85c4.652,0 7.338,2.326 7.338,9.577l0,4.117Zm0,5.374l0,9.483c-0.895,1.344 -2.954,4.211 -7.157,4.211c-3.583,0 -5.735,-2.239 -5.735,-6.623c-0,-4.745 3.669,-6.717 10.567,-6.984l2.325,-0.087Zm41.357,13.961l0.181,0l-0,4.84l6.623,-0l0,-42.975l-7.251,-0l-0,32.856c-1.431,1.791 -4.298,4.745 -8.682,4.745c-4.839,-0 -7.165,-2.868 -7.165,-9.939l0,-27.662l-7.252,-0l0,28.197c0,11.636 4.746,15.846 12.351,15.846c6.537,0 10.386,-4.384 11.195,-5.908Zm34.019,-32.762c4.478,0 6.443,2.954 6.443,9.939l-0,27.663l7.251,-0l0,-28.833c0.025,-1.501 -0.096,-3.001 -0.361,-4.478c1.611,-1.878 4.298,-4.291 8.234,-4.291c4.839,0 7.432,2.954 7.432,9.939l0,27.663l7.252,-0l-0,-28.833c-0,-10.199 -4.478,-15.211 -13.073,-15.211c-5.547,-0 -9.484,3.308 -11.369,5.727c-1.964,-3.849 -5.547,-5.727 -10.379,-5.727c-5.908,-0 -9.577,3.936 -10.747,5.908l-0.174,-0l0,-4.839l-6.623,-0l0,42.975l7.245,-0l-0,-33.124c1.256,-1.524 4.03,-4.478 8.862,-4.478l0.007,0Zm65.163,0.535l0.895,-5.908l-9.671,-0l0,-7.692c0,-5.634 1.878,-7.512 5.287,-7.512c1.878,0 3.222,0.715 3.937,1.156l1.516,-5.995c-1.852,-1.058 -3.948,-1.613 -6.081,-1.611c-6.356,0 -11.903,3.756 -11.903,13.16l0,8.595l-5.2,0.982l-0,4.839l5.2,0l0,37.053l7.244,-0l0,-37.053l8.776,-0.014Zm24.347,12.892l-2.239,0c-9.75,0 -17.905,3.308 -17.905,13.247c0,6.984 4.926,11.989 11.463,11.989c5.46,0 8.053,-3.662 9.043,-5.814l0.173,-0c0.094,2.152 0.18,3.496 0.274,4.745l6.891,0c-0.35,-2.972 -0.528,-5.963 -0.535,-8.956l0,-19.595c0,-10.834 -4.658,-15.485 -13.434,-15.485c-6.89,-0 -11.007,3.308 -12.885,5.186l3.041,4.839c1.61,-1.438 4.478,-3.85 8.775,-3.85c4.652,0 7.338,2.326 7.338,9.577l0,4.117Zm0,5.374l0,9.483c-0.895,1.344 -2.954,4.211 -7.157,4.211c-3.583,0 -5.735,-2.239 -5.735,-6.623c0,-4.745 3.669,-6.717 10.567,-6.984l2.325,-0.087Zm34.106,-19.068c5.012,0 7.432,2.954 7.432,10.206l-0,27.663l7.252,-0l-0,-28.205c-0,-11.368 -4.746,-15.839 -12.265,-15.839c-6.897,-0 -10.111,4.117 -11.014,5.46l-0.181,0l0,-25.518l-7.244,0.809l-0,63.285l7.244,0l0,-33.108c1.438,-1.792 4.392,-4.746 8.776,-4.746l-0,-0.007Zm45.293,-5.2c-0.715,-0.26 -1.878,-0.708 -3.936,-0.708c-5.461,-0 -7.786,3.221 -9.043,6.623l-0.181,0l0,-5.821l-6.623,-0l0,42.975l7.252,-0l-0,-31.513c1.076,-2.867 3.488,-5.821 8.053,-5.821c1.972,-0 3.229,0.534 3.583,0.722l0.895,-6.457Zm25.785,42.252l-0.989,-5.814c-0.716,0.448 -2.326,1.257 -4.479,1.257c-3.669,-0 -5.099,-1.791 -5.099,-7.88l0,-23.813l9.397,-0l0.896,-5.908l-10.286,-0l0,-11.99l-6.442,0l-0.809,11.99l-5.193,1.076l-0,4.839l5.2,0l0,24.788c0,9.491 3.756,13.34 11.094,13.34c3.85,0 6.089,-1.43 6.717,-1.877l-0.007,-0.008Z" style="fill-rule:nonzero;"/></svg>