<svg xmlns="http://www.w3.org/2000/svg" widht="233" height="117" viewBox="0 0 233.1 117.2"><rect width="100%" height="100%" fill="#fff"/><path fill="#004A80" d="M72.7 75V1.2H8.1s-6.9 0-6.9 6.9V75h71.5z"/><path fill="#00B0DB" d="M231.2 75V1.2h-64.6s-6.9 0-6.9 6.9V75h71.5z"/><path fill="none" stroke="#FFF" stroke-width="3.563" d="M168.7 18.5v34H222v-34h-53.3z"/><path fill="none" stroke="#FFF" stroke-width="1.725" d="M175.9 37.2s12.3-14.8 16.4-2.3c6 15.5 20.4-2.8 20.4-2.8"/><path fill="#FFF" d="M189.9 57.9l-1.4 3.8h15.7l-1.5-3.8h-12.8z"/><path fill="none" stroke="#FFF" stroke-width="1.5" stroke-linecap="round" stroke-linejoin="round" stroke-dasharray="0,2.983" d="M175.9 35.4l40.3-.5"/><path fill="none" stroke="#FFF" stroke-width="1.5" stroke-linecap="round" stroke-linejoin="round" d="M172.9 35.4h0m44.7-.5h0"/><g fill="#004A80"><path d="M28.1 83.5H36v2.6h-4.9v2.5h4.4v2.6h-4.4v5h-3V83.5zM42.6 85c1.2-1.2 2.8-1.9 4.6-1.9s3.4.7 4.6 1.9c1.2 1.3 1.9 3 1.9 4.8 0 1.6-.5 3-1.3 4.2-1.2 1.7-3.2 2.6-5.2 2.6-1.7 0-3.3-.7-4.6-1.9-1.3-1.3-1.9-3-1.9-4.8s.6-3.6 1.9-4.9zm4.5 8.8c1.9 0 3.4-1.6 3.4-3.9S49 86 47.1 86s-3.4 1.7-3.4 3.9c.1 2.2 1.6 3.9 3.4 3.9zM59.2 83.5h3.3c1.6 0 2.9.1 4 .9 1 .7 1.5 1.7 1.5 2.8 0 1.6-.8 2.8-2.4 3.5l3.9 5.5H66l-3.4-5h-.4v5h-3V83.5zm2.9 2.3v3.5h.6c1.5 0 2.4-.6 2.4-1.8 0-1.3-.8-1.7-2.5-1.7h-.5zM77.1 94c1.1 0 1.7-.5 1.7-1.2 0-.9-.8-1.2-2.1-2l-.9-.5c-1.7-1-2.5-2.1-2.5-3.6 0-2 1.6-3.5 4.2-3.5 1 0 2 .2 3.2.6v3c-1.4-.8-2.5-1.2-3.2-1.2-.9 0-1.4.4-1.4 1 0 .4.3.8.9 1.2l1.5.8c1.9 1 3.2 2 3.2 4 0 2.4-1.7 4.2-4.6 4.2-1 0-2.1-.2-3.4-.6l-.3-3.4c1.4.7 2.5 1.2 3.7 1.2zM93.4 85.9c-2.1 0-3.7 1.6-3.7 4s1.5 3.9 3.7 3.9c1.3 0 2.6-.5 3.9-1.6l-.3 3.3c-1.1.7-2.4 1.1-3.8 1.1-1.5 0-2.9-.5-4.1-1.4-1.6-1.3-2.5-3.2-2.5-5.4 0-1.9.7-3.6 1.9-4.8 1.2-1.3 2.9-2 4.7-2 1.4 0 2.7.4 3.9 1.2l-.3 3.3c-1.1-1.1-2.2-1.6-3.4-1.6zM102.6 83.5h3v4.7h4.9v-4.7h3v12.7h-3v-5.3h-4.9v5.3h-3V83.5zM122.8 90.5c0 2.3.8 3.4 2.5 3.4 1.6 0 2.5-1 2.5-3.1v-7.3h2.7v7.3c0 3.8-2.1 5.9-5.3 5.9-3.3 0-5.4-2-5.4-5.8v-7.3h3v6.9zM136.7 83.1h.3l7.9 7.4v-7h2.8v13.2h-.3l-8-7.4v7h-2.8V83.1zM164.9 95.4c-1.7.9-3.3 1.3-4.9 1.3-3.9 0-6.8-2.9-6.8-6.8s2.9-6.8 6.9-6.8c1.5 0 2.9.4 4.1 1.2l-.3 3.2c-1.2-1.2-2.3-1.7-3.6-1.7-2.3 0-4 1.7-4 4 0 2.4 1.6 4.1 3.9 4.1.5 0 1.1-.1 1.6-.3v-1.9h-2.4v-2.6h5.4v6.3z"/></g><g fill="#004A80"><path d="M182.5 83.1h.2l6.4 13.1h-3.2l-.8-1.9h-5.2l-.8 1.9H176l6.5-13.1zm1.6 9.1l-1.7-4-1.7 4h3.4zM193.4 83.1h.3l7.9 7.4v-7h2.8v13.2h-.3l-8-7.4v7h-2.8V83.1z"/></g><path fill="#004A80" d="M1.1 101.5H9v2.6H4.1v2.5h4.4v2.6H4.1v5h-3v-12.7z"/><g fill="#004A80"><path d="M18.6 101.1h.2l6.4 13.1H22l-.8-1.9H16l-.8 1.9h-3.1l6.5-13.1zm1.6 9.1l-1.7-4-1.7 4h3.4zM35.5 103.9c-2.1 0-3.7 1.6-3.7 4s1.5 3.9 3.7 3.9c1.3 0 2.6-.5 3.9-1.6l-.2 3.4c-1.1.7-2.4 1.1-3.8 1.1-1.5 0-2.9-.5-4.1-1.4-1.6-1.3-2.5-3.2-2.5-5.4 0-1.9.7-3.6 1.9-4.8 1.2-1.3 2.9-2 4.7-2 1.4 0 2.7.4 3.9 1.2l-.3 3.3c-1.2-1.2-2.3-1.7-3.5-1.7zM44.7 101.5h3v4.7h4.9v-4.7h3v12.7h-3v-5.3h-4.9v5.3h-3v-12.7z"/></g><g fill="#004A80"><path d="M63.8 101.5h3v4.7h4.9v-4.7h3v12.7h-3v-5.3h-4.9v5.3h-3v-12.7zM82.2 103c1.2-1.2 2.8-1.9 4.6-1.9s3.4.7 4.6 1.9c1.2 1.3 1.9 3 1.9 4.8 0 1.6-.5 3-1.3 4.2-1.2 1.7-3.2 2.6-5.2 2.6-1.7 0-3.3-.7-4.6-1.9-1.3-1.3-1.9-3-1.9-4.8s.6-3.6 1.9-4.9zm4.5 8.8c1.9 0 3.4-1.6 3.4-3.9s-1.5-3.9-3.4-3.9-3.4 1.7-3.4 3.9c.1 2.2 1.6 3.9 3.4 3.9zM104.7 103.9c-2.1 0-3.7 1.6-3.7 4s1.5 3.9 3.7 3.9c1.3 0 2.6-.5 3.9-1.6l-.2 3.4c-1.1.7-2.4 1.1-3.8 1.1-1.5 0-2.9-.5-4.1-1.4-1.6-1.3-2.5-3.2-2.5-5.4 0-1.9.7-3.6 1.9-4.8 1.2-1.3 2.9-2 4.7-2 1.4 0 2.7.4 3.9 1.2l-.3 3.3c-1.1-1.2-2.2-1.7-3.5-1.7zM114 101.5h3v4.7h4.9v-4.7h3v12.7h-3v-5.3H117v5.3h-3v-12.7zM134.3 112c1.1 0 1.7-.5 1.7-1.2 0-.9-.8-1.2-2.1-2l-.9-.5c-1.7-1-2.5-2.1-2.5-3.6 0-2 1.6-3.5 4.2-3.5 1 0 2 .2 3.2.6v3c-1.4-.8-2.5-1.2-3.2-1.2-.9 0-1.4.4-1.4 1 0 .4.3.8.9 1.2l1.5.8c1.9 1 3.2 2 3.2 4 0 2.4-1.7 4.2-4.6 4.2-1 0-2.1-.2-3.4-.6l-.3-3.4c1.4.6 2.5 1.2 3.7 1.2zM150.6 103.9c-2.1 0-3.7 1.6-3.7 4s1.5 3.9 3.7 3.9c1.3 0 2.6-.5 3.9-1.6l-.2 3.4c-1.1.7-2.4 1.1-3.8 1.1-1.5 0-2.9-.5-4.1-1.4-1.6-1.3-2.5-3.2-2.5-5.4 0-1.9.7-3.6 1.9-4.8 1.2-1.3 2.9-2 4.7-2 1.4 0 2.7.4 3.9 1.2l-.3 3.3c-1.2-1.2-2.3-1.7-3.5-1.7zM159.8 101.5h3v4.7h4.9v-4.7h3v12.7h-3v-5.3h-4.9v5.3h-3v-12.7zM180 108.5c0 2.3.8 3.4 2.5 3.4 1.6 0 2.5-1 2.5-3.1v-7.3h2.7v7.3c0 3.8-2.1 5.9-5.3 5.9-3.3 0-5.4-2-5.4-5.8v-7.3h3v6.9zM193.9 101.5h3v10h5v2.7h-8v-12.7zM206.8 101.5h7.9v2.6h-4.9v2.3h4.2v2.6h-4.2v2.5h5v2.7h-7.9v-12.7zM220.4 101.1h.3l7.9 7.4v-7h2.8v13.2h-.3l-8-7.4v7h-2.8v-13.2z"/></g><path fill="#0079AD" d="M151.7 75V1.2H87.1s-6.9 0-6.9 6.9V75h71.5z"/><path fill="#FFF" d="M87.1 32.5L123.8 20l21.4 8.6v3.8l-21.4-7.2-36.7 10v-2.7z"/><path fill="#FFF" d="M87.1 38.5l36.7-8.9 21.4 6.9V40l-21.4-5.1-36.7 6.8v-3.2z"/><path fill="#FFF" d="M87.1 45.3l36.7-6 21.4 4.5v3.8l-21.4-3.1-36.7 3.7v-2.9zM87.1 51.8l36.7-2.8 21.4 2.2V55l-21.1-.6-37 .6v-3.2z"/><path fill="#0079AD" d="M90.2 14.8v45.4h1.4V14.8h-1.4zM95.2 14.8v45.4h1.4V14.8h-1.4zM100.9 15.8v45.3h1.7V15.8h-1.7zM107.4 16.7v45.4h2.2V16.7h-2.2z"/><path fill="none" stroke="#FFF" stroke-width=".984" stroke-linecap="round" stroke-linejoin="round" stroke-dasharray="0,2.0183" d="M40.6 38.6l13.6 6.8"/><path fill="none" stroke="#FFF" stroke-width=".984" stroke-linecap="round" stroke-linejoin="round" d="M38.8 37.7h0m16.3 8.1h0"/><path fill="#FFF" d="M55.1 43.9c1.1 0 2 .9 2 2s-.9 2-2 2-2-.9-2-2c0-1.2.9-2 2-2z"/><path fill="none" stroke="#FFF" stroke-width=".984" d="M39.2 39.2l14.9 23.7"/><path fill="#FFF" d="M39.2 37.2c1.1 0 2 .9 2 2s-.9 2-2 2-2-.9-2-2 .9-2 2-2zM54.1 60.9c1.1 0 2 .9 2 2s-.9 2-2 2-2-.9-2-2 .9-2 2-2z"/><path fill="none" stroke="#FFF" stroke-width=".984" d="M37.5 37.5l-22.7-3"/><path fill="#FFF" d="M14.8 36.5c-1.1 0-2-.9-2-2s.9-2 2-2 2 .9 2 2-.9 2-2 2z"/><path fill="none" stroke="#FFF" stroke-width=".984" stroke-linecap="round" stroke-linejoin="round" stroke-dasharray="0,2.039" d="M36.9 36.2l-8.2-17.6"/><path fill="none" stroke="#FFF" stroke-width=".984" stroke-linecap="round" stroke-linejoin="round" d="M37.8 38h0m-9.5-20.3h0"/><path fill="#FFF" d="M28.3 19.6c-1.1 0-2-.9-2-2s.9-2 2-2 2 .9 2 2-.9 2-2 2z"/><path fill="none" stroke="#FFF" stroke-width=".984" d="M36.8 37.9l20.6-27.3"/><path fill="none" stroke="#FFF" stroke-width=".984" stroke-linecap="round" stroke-linejoin="round" stroke-dasharray="0,2.0018" d="M35.2 40.4L19.7 54.6"/><path fill="none" stroke="#FFF" stroke-width=".984" stroke-linecap="round" stroke-linejoin="round" d="M36.6 39.1h0M18.9 55.3h0"/><path fill="#FFF" d="M18.9 53.3c-1.1 0-2 .9-2 2s.9 2 2 2 2-.9 2-2-.9-2-2-2zM56.1 14.5c1.3 0 2.4-1.1 2.4-2.4s-1.1-2.4-2.4-2.4-2.4 1.1-2.4 2.4 1 2.4 2.4 2.4zM33.8 33.6V42h8.6v-8.4h-8.6z"/><path fill="none" stroke="#FFF" stroke-width="1.425" stroke-linecap="round" stroke-linejoin="round" stroke-dasharray="0,2.9375" d="M48.2 59.9L19.1 37.6"/><path fill="none" stroke="#FFF" stroke-width="1.425" stroke-linecap="round" stroke-linejoin="round" d="M50.6 61.7h0m-32.7-25h0"/><path fill="none" stroke="#FFF" stroke-width="1.425" stroke-linecap="round" stroke-linejoin="round" stroke-dasharray="0,2.9067" d="M49.7 15.5L20.2 31.2"/><path fill="none" stroke="#FFF" stroke-width="1.425" stroke-linecap="round" stroke-linejoin="round" d="M52.3 14.1h0M19 31.9h0"/><path fill="none" stroke="#FFF" stroke-width="1.425" stroke-linecap="round" stroke-linejoin="round" stroke-dasharray="0,2.8466" d="M54.4 56.4l2-38.4"/><path fill="none" stroke="#FFF" stroke-width="1.425" stroke-linecap="round" stroke-linejoin="round" d="M54.3 59.2h0m2.1-42.6h0"/></svg>