<?xml version="1.0" encoding="UTF-8"?>
<svg id="Ebene_1" data-name="Ebene 1" xmlns="http://www.w3.org/2000/svg" viewBox="0 0 1517.67 415.1">
  <defs>
    <style>
      .cls-1 {
        letter-spacing: .02em;
      }

      .cls-2 {
        letter-spacing: .01em;
      }

      .cls-3 {
        letter-spacing: -.02em;
      }

      .cls-4 {
        letter-spacing: -.01em;
      }

      .cls-5 {
        stroke-width: .9px;
      }

      .cls-5, .cls-6, .cls-7, .cls-8, .cls-9, .cls-10, .cls-11 {
        fill: none;
      }

      .cls-5, .cls-6, .cls-7, .cls-9, .cls-10, .cls-12, .cls-11 {
        stroke-miterlimit: 7.5;
      }

      .cls-5, .cls-7, .cls-9, .cls-10, .cls-11 {
        stroke: #000;
      }

      .cls-13 {
        letter-spacing: -.04em;
      }

      .cls-6 {
        stroke: #ff6000;
      }

      .cls-6, .cls-12 {
        stroke-width: 1.5px;
      }

      .cls-14 {
        letter-spacing: -.04em;
      }

      .cls-7 {
        stroke-width: .87px;
      }

      .cls-15, .cls-16 {
        fill: #424242;
      }

      .cls-17 {
        font-size: 15.23px;
      }

      .cls-17, .cls-18, .cls-19 {
        font-family: Ubuntu-Regular, Ubuntu;
      }

      .cls-17, .cls-18, .cls-19, .cls-20 {
        isolation: isolate;
      }

      .cls-21 {
        letter-spacing: .03em;
      }

      .cls-22 {
        letter-spacing: -.01em;
      }

      .cls-23 {
        letter-spacing: -.04em;
      }

      .cls-9 {
        stroke-width: .89px;
      }

      .cls-24 {
        letter-spacing: .02em;
      }

      .cls-25 {
        letter-spacing: -.05em;
      }

      .cls-26 {
        letter-spacing: -.04em;
      }

      .cls-18 {
        font-size: 39.69px;
      }

      .cls-18, .cls-19 {
        fill: #4d4d4d;
      }

      .cls-19 {
        font-size: 39.69px;
      }

      .cls-27 {
        letter-spacing: -.03em;
      }

      .cls-28 {
        letter-spacing: .01em;
      }

      .cls-29 {
        letter-spacing: -.02em;
      }

      .cls-16 {
        font-size: 18px;
      }

      .cls-16, .cls-20 {
        font-family: Ubuntu-Light, Ubuntu;
        font-weight: 300;
      }

      .cls-20 {
        font-size: 14.17px;
      }

      .cls-30 {
        letter-spacing: -.02em;
      }

      .cls-31 {
        letter-spacing: 0em;
      }

      .cls-32 {
        letter-spacing: -.03em;
      }

      .cls-33 {
        letter-spacing: -.01em;
      }

      .cls-34 {
        letter-spacing: -.02em;
      }

      .cls-35 {
        letter-spacing: -.01em;
      }

      .cls-10 {
        stroke-width: .9px;
      }

      .cls-12 {
        fill: #ff6000;
        stroke: #fff;
      }

      .cls-36 {
        letter-spacing: -.04em;
      }

      .cls-11 {
        stroke-width: .9px;
      }
    </style>
  </defs>
  <line id="line1" class="cls-5" x1="227.78" y1="205.33" x2="227.78" y2="32.44"/>
  <line id="line2" class="cls-9" x1="9.98" y1="204.38" x2="9.98" y2="32.44"/>
  <line id="line4" class="cls-5" x1="445.58" y1="204.38" x2="445.58" y2="32.44"/>
  <g id="g63">
    <circle id="circle4-2" class="cls-12" cx="1098.98" cy="215.87" r="9.22"/>
    <circle id="circle5-2" class="cls-12" cx="1207.88" cy="215.87" r="9.22"/>
  </g>
  <g id="g63-1-4">
    <circle id="circle4-2-2-1" class="cls-12" cx="1316.78" cy="215.87" r="9.22"/>
  </g>
  <g id="g13">
    <text id="text13" class="cls-17" transform="translate(1425.245 221.6262)"><tspan x="0" y="0">Present</tspan></text>
    <circle id="circle13" class="cls-6" cx="1451.64" cy="217.37" r="31.34"/>
  </g>
  <rect id="rect23" class="cls-8" x="327.45" y="263.95" width="108.9" height="30.63"/>
  <line id="line39" class="cls-11" x1="663.38" y1="205.33" x2="663.38" y2="32.44"/>
  <line id="line48" class="cls-10" x1="881.18" y1="203.75" x2="881.18" y2="32.44"/>
  <g id="g1">
    <line id="line3" class="cls-7" x1=".75" y1="217.37" x2="1414.95" y2="217.37"/>
    <circle id="circle4" class="cls-12" cx="9.98" cy="217.37" r="9.22"/>
    <circle id="circle5" class="cls-12" cx="118.88" cy="217.37" r="9.22"/>
    <g id="g63-1">
      <circle id="circle4-2-2" class="cls-12" cx="1207.87" cy="216.62" r="9.22"/>
      <circle id="circle5-2-3" class="cls-12" cx="1316.78" cy="216.62" r="9.22"/>
    </g>
    <circle id="circle6" class="cls-12" cx="227.78" cy="217.37" r="9.22"/>
    <circle id="circle7" class="cls-12" cx="336.68" cy="217.37" r="9.22"/>
    <circle id="circle8" class="cls-12" cx="445.58" cy="217.37" r="9.22"/>
    <circle id="circle33" class="cls-12" cx="554.48" cy="217.37" r="9.22"/>
    <circle id="circle39" class="cls-12" cx="663.38" cy="217.37" r="9.22"/>
    <circle id="circle42" class="cls-12" cx="772.28" cy="216.62" r="9.23"/>
    <circle id="circle48" class="cls-12" cx="881.18" cy="218.12" r="9.23"/>
    <circle id="circle52" class="cls-12" cx="990.08" cy="216.62" r="9.23"/>
    <circle id="circle52-9" class="cls-12" cx="1098.97" cy="216.62" r="9.23"/>
  </g>
  <text id="text56" class="cls-20" transform="translate(1063.0567 301.9933)"><tspan x="0" y="0">-</tspan></text>
  <line id="line48-8" class="cls-10" x1="1098.98" y1="204.38" x2="1098.98" y2="32.44"/>
  <line id="line48-8-2" data-name="line48-8" class="cls-10" x1="1316.78" y1="204.38" x2="1316.78" y2="32.44"/>
  <line id="line1-2" data-name="line1" class="cls-5" x1="336.68" y1="403.31" x2="336.68" y2="230.42"/>
  <line id="line2-2" data-name="line2" class="cls-9" x1="118.88" y1="402.36" x2="118.88" y2="230.42"/>
  <line id="line4-2" data-name="line4" class="cls-5" x1="554.48" y1="402.36" x2="554.48" y2="230.42"/>
  <line id="line39-2" data-name="line39" class="cls-11" x1="772.28" y1="403.31" x2="772.28" y2="230.42"/>
  <line id="line48-2" data-name="line48" class="cls-10" x1="990.08" y1="401.72" x2="990.08" y2="230.42"/>
  <line id="line48-8-3" data-name="line48-8" class="cls-10" x1="1207.88" y1="402.36" x2="1207.88" y2="230.42"/>
  <rect id="rect13" class="cls-8" x="14.28" y="85.21" width="122.1" height="49.2"/>
  <rect id="rect19" class="cls-8" x="233.28" y="80.34" width="122.1" height="49.2"/>
  <rect id="rect27" class="cls-8" x="451.83" y="80.34" width="122.1" height="73.5"/>
  <text id="text52" class="cls-20" transform="translate(884.36 119.24)"><tspan x="0" y="0"> </tspan></text>
  <text id="text8" class="cls-19" transform="translate(451.25 33.59)"><tspan x="0" y="0">2018</tspan></text>
  <text id="text9" class="cls-19" transform="translate(235.07 33.9)"><tspan x="0" y="0">2016</tspan></text>
  <text id="text9-2" data-name="text9" class="cls-19" transform="translate(14.96 33.9)"><tspan x="0" y="0">2014</tspan></text>
  <text id="text40" class="cls-19" transform="translate(669.15 33.59)"><tspan x="0" y="0">2020</tspan></text>
  <text id="text49" class="cls-19" transform="translate(886.47 33.59)"><tspan x="0" y="0">2022</tspan></text>
  <text id="text53-2" class="cls-19" transform="translate(1104.1115 33.5932)"><tspan x="0" y="0">2024</tspan></text>
  <text id="text69" class="cls-18" transform="translate(1321.432 33.5935)"><tspan x="0" y="0">2026</tspan></text>
  <text class="cls-16" transform="translate(17.18 60.43)"><tspan x="0" y="0">Kirstin goes to Stanford </tspan><tspan x="0" y="21.6">as a visitor professo</tspan><tspan class="cls-23" x="157.61" y="21.6">r</tspan><tspan x="163.55" y="21.6">. </tspan><tspan x="0" y="43.2">Meets Lar</tspan><tspan class="cls-1" x="79" y="43.2">r</tspan><tspan x="86.11" y="43.2">y Leifer and </tspan><tspan x="0" y="64.8">brings ME310 to </tspan><tspan x="0" y="86.4">TH-M</tspan><tspan class="cls-21" x="42.97" y="86.4">A</tspan><tspan x="54.97" y="86.4">.</tspan></text>
  <text id="text9-3" data-name="text9" class="cls-19" transform="translate(121.87 298.58)"><tspan x="0" y="0">2015</tspan></text>
  <g>
    <path class="cls-15" d="M126.01,315.19c.72-.25,1.37-.57,1.93-.96.57-.39,1.12-.92,1.68-1.59h.83v12.47h-1.17v-10.69c-.13.14-.3.29-.51.45s-.45.31-.71.46-.54.29-.83.43c-.29.14-.58.25-.87.33l-.34-.9Z"/>
    <path class="cls-15" d="M137.7,324.28c.67,0,1.23-.11,1.67-.33.44-.22.66-.6.66-1.12,0-.25-.04-.47-.12-.65-.08-.18-.21-.34-.39-.49-.18-.14-.42-.28-.71-.41-.29-.13-.66-.29-1.09-.47-.35-.14-.68-.29-.99-.44-.31-.15-.59-.32-.83-.52-.24-.2-.43-.43-.58-.71-.14-.28-.22-.61-.22-1.01,0-.76.29-1.37.86-1.84.57-.47,1.35-.7,2.35-.7.64,0,1.16.05,1.58.16s.7.2.87.29l-.27,1.04c-.14-.07-.39-.17-.73-.29-.34-.12-.84-.18-1.5-.18-.26,0-.51.03-.75.08s-.44.14-.62.25c-.18.11-.32.26-.43.43-.11.17-.16.39-.16.64s.05.47.14.65.24.34.42.48c.19.14.41.27.68.39.27.12.58.25.93.39.36.14.7.29,1.04.44.33.15.62.33.87.54s.46.46.61.76c.16.29.23.66.23,1.11,0,.84-.31,1.48-.94,1.91-.63.43-1.49.65-2.58.65-.82,0-1.44-.07-1.87-.21-.43-.14-.72-.24-.86-.31l.31-1.06s.11.06.23.12c.12.05.28.12.49.18.2.07.45.12.73.17.28.05.61.07.98.07Z"/>
    <path class="cls-15" d="M144.6,315.8h3.71v.99h-3.71v4.95c0,.53.04.96.13,1.29.09.33.22.59.39.77s.37.3.61.36c.24.06.5.09.79.09.49,0,.89-.06,1.19-.17.3-.11.53-.22.7-.32l.29.97c-.17.11-.46.23-.88.37-.42.14-.88.21-1.37.21-.58,0-1.06-.07-1.45-.22-.39-.15-.7-.38-.94-.68-.23-.31-.4-.69-.5-1.14-.1-.46-.14-1-.14-1.62v-8.57l1.17-.21v2.95Z"/>
    <path class="cls-15" d="M155.74,328.44h-1.17v-12.31c.35-.12.79-.23,1.33-.34.54-.11,1.22-.16,2.05-.16.68,0,1.3.11,1.86.33s1.04.54,1.44.96.71.93.94,1.53.33,1.28.33,2.03c0,.71-.09,1.36-.28,1.95-.19.59-.46,1.1-.82,1.53-.36.43-.8.76-1.32,1s-1.12.36-1.79.36c-.61,0-1.14-.09-1.59-.26-.45-.17-.78-.34-.98-.5v3.87ZM155.74,323.44c.11.08.24.17.41.27s.35.19.57.27.45.15.7.21c.25.05.52.08.79.08.58,0,1.06-.1,1.45-.3s.71-.47.95-.81c.24-.34.41-.74.52-1.21.11-.46.16-.95.16-1.47,0-1.22-.31-2.16-.92-2.82-.61-.65-1.42-.98-2.43-.98-.58,0-1.04.03-1.4.08-.35.05-.62.11-.8.17v6.5Z"/>
    <path class="cls-15" d="M168.23,315.62c.38,0,.75.03,1.09.09.34.06.58.12.71.18l-.23,1.01c-.1-.05-.29-.1-.59-.15-.29-.05-.68-.08-1.16-.08-.5,0-.91.04-1.22.11-.31.07-.51.13-.6.18v8.15h-1.17v-8.88c.3-.13.71-.27,1.24-.4.53-.14,1.17-.21,1.93-.21Z"/>
    <path class="cls-15" d="M179.73,320.47c0,.73-.1,1.4-.31,2s-.5,1.11-.88,1.53c-.38.42-.83.75-1.34.98-.52.23-1.09.35-1.71.35s-1.19-.12-1.71-.35c-.52-.23-.96-.56-1.34-.98-.38-.42-.67-.93-.88-1.53-.21-.6-.31-1.27-.31-2s.1-1.4.31-2c.21-.6.5-1.11.88-1.54s.82-.76,1.34-.99c.52-.23,1.09-.35,1.71-.35s1.19.12,1.71.35c.52.23.96.56,1.34.99s.67.94.88,1.54.31,1.27.31,2ZM178.49,320.47c0-1.16-.27-2.09-.81-2.78-.54-.69-1.27-1.04-2.2-1.04s-1.66.35-2.2,1.04c-.54.69-.81,1.62-.81,2.78s.27,2.09.81,2.77c.54.68,1.27,1.03,2.2,1.03s1.66-.34,2.2-1.03c.54-.68.81-1.61.81-2.77Z"/>
    <path class="cls-15" d="M180.53,328.48c-.13,0-.3-.02-.49-.05-.2-.04-.34-.08-.44-.13l.16-.95c.08.02.2.05.34.07s.28.04.41.04c.71,0,1.18-.2,1.41-.59.23-.4.35-.99.35-1.78v-9.27h1.17v9.22c0,1.18-.22,2.04-.67,2.61s-1.19.85-2.25.85ZM183.71,313c0,.28-.08.5-.25.66s-.37.24-.61.24-.44-.08-.61-.24c-.17-.16-.25-.38-.25-.66s.08-.5.25-.66c.17-.16.37-.24.61-.24s.44.08.61.24.25.38.25.66Z"/>
    <path class="cls-15" d="M185.98,320.45c0-.82.12-1.53.35-2.13.23-.61.54-1.11.92-1.52.38-.41.81-.71,1.3-.91.49-.2.99-.3,1.5-.3,1.14,0,2.05.37,2.73,1.12.68.74,1.02,1.89,1.02,3.44,0,.1,0,.19,0,.29,0,.1-.02.19-.03.27h-6.53c.04,1.14.32,2.02.85,2.63.53.61,1.37.92,2.52.92.64,0,1.14-.06,1.51-.18.37-.12.64-.22.81-.31l.22,1.01c-.17.1-.48.21-.95.34-.46.13-1,.2-1.63.2-.82,0-1.51-.12-2.09-.36-.58-.24-1.05-.58-1.42-1.01-.37-.43-.64-.95-.81-1.54-.17-.59-.25-1.25-.25-1.95ZM192.59,319.71c-.02-.97-.25-1.73-.68-2.27-.43-.54-1.04-.81-1.84-.81-.42,0-.8.08-1.12.25-.33.17-.62.39-.86.68-.25.28-.44.61-.58.98-.14.37-.22.76-.24,1.17h5.33Z"/>
    <path class="cls-15" d="M200.25,325.31c-.72,0-1.36-.11-1.91-.34-.55-.23-1.01-.55-1.38-.98-.37-.43-.65-.94-.84-1.53-.19-.59-.29-1.25-.29-1.97s.1-1.4.3-2c.2-.6.48-1.12.85-1.55.37-.43.82-.77,1.35-1,.53-.23,1.12-.35,1.78-.35.5,0,.98.04,1.41.13s.78.19,1.02.32l-.31,1.01c-.24-.12-.51-.22-.81-.29-.3-.07-.7-.11-1.21-.11-1.03,0-1.81.33-2.35,1-.53.67-.8,1.61-.8,2.83,0,.55.06,1.06.18,1.52.12.46.31.86.58,1.19s.62.59,1.04.77c.43.19.94.28,1.56.28.5,0,.93-.06,1.27-.17.34-.11.59-.21.75-.3l.25,1.01c-.22.12-.56.24-1.02.35-.46.11-.95.17-1.45.17Z"/>
    <path class="cls-15" d="M205.78,315.8h3.71v.99h-3.71v4.95c0,.53.04.96.13,1.29.09.33.22.59.39.77s.37.3.61.36c.24.06.5.09.79.09.49,0,.89-.06,1.19-.17.3-.11.53-.22.7-.32l.29.97c-.17.11-.46.23-.88.37-.42.14-.88.21-1.37.21-.58,0-1.06-.07-1.45-.22-.39-.15-.7-.38-.94-.68-.23-.31-.4-.69-.5-1.14-.1-.46-.14-1-.14-1.62v-8.57l1.17-.21v2.95Z"/>
    <path class="cls-15" d="M214.17,319.39h9v1.03h-9v-1.03Z"/>
    <path class="cls-15" d="M133.58,342.07c0,.73-.1,1.4-.31,2-.21.6-.5,1.11-.88,1.53-.38.42-.83.75-1.34.98-.52.23-1.09.35-1.71.35s-1.19-.12-1.71-.35-.96-.56-1.34-.98c-.38-.42-.67-.93-.88-1.53-.21-.6-.31-1.27-.31-2s.1-1.4.31-2c.21-.6.5-1.11.88-1.54.38-.43.82-.76,1.34-.99s1.09-.35,1.71-.35,1.19.12,1.71.35c.52.23.96.56,1.34.99.38.43.67.94.88,1.54.21.6.31,1.27.31,2ZM132.34,342.07c0-1.16-.27-2.09-.81-2.78s-1.27-1.04-2.2-1.04-1.66.34-2.2,1.04-.81,1.62-.81,2.78.27,2.09.81,2.77,1.27,1.03,2.2,1.03,1.66-.34,2.2-1.03.81-1.61.81-2.77Z"/>
    <path class="cls-15" d="M136.12,337.73c.35-.1.82-.2,1.4-.32.59-.12,1.31-.18,2.16-.18.71,0,1.3.1,1.77.31s.85.49,1.13.87c.28.38.48.83.6,1.36.12.53.18,1.11.18,1.75v5.2h-1.17v-4.82c0-.66-.04-1.22-.13-1.67s-.24-.83-.45-1.12c-.21-.29-.49-.5-.83-.62-.34-.13-.77-.19-1.29-.19-.55,0-1.03.03-1.43.09-.4.06-.66.11-.78.16v8.17h-1.17v-8.98Z"/>
    <path class="cls-15" d="M145.8,342.05c0-.82.12-1.53.35-2.13.23-.61.54-1.11.92-1.52.38-.41.81-.71,1.3-.91.49-.2.99-.3,1.5-.3,1.14,0,2.05.37,2.73,1.12.68.74,1.02,1.89,1.02,3.44,0,.1,0,.19,0,.29,0,.1-.02.19-.03.27h-6.53c.04,1.14.32,2.02.85,2.63.53.61,1.37.92,2.52.92.64,0,1.14-.06,1.51-.18s.64-.22.81-.31l.22,1.01c-.17.1-.48.21-.95.34s-1,.2-1.63.2c-.82,0-1.51-.12-2.09-.36-.58-.24-1.05-.58-1.42-1.01s-.64-.95-.81-1.54c-.17-.59-.25-1.24-.25-1.95ZM152.41,341.31c-.02-.97-.25-1.73-.68-2.27s-1.04-.81-1.84-.81c-.42,0-.8.08-1.12.25-.33.17-.62.39-.86.68-.25.28-.44.61-.58.98-.14.37-.22.76-.24,1.17h5.33Z"/>
    <path class="cls-15" d="M166.02,344.91c-.12-.3-.29-.7-.52-1.19-.22-.49-.47-1.03-.75-1.61-.28-.58-.56-1.18-.85-1.8-.29-.62-.57-1.2-.83-1.74-.27-.54-.5-1.01-.71-1.42-.21-.41-.36-.7-.45-.86-.16,1.5-.28,3.13-.37,4.89-.09,1.76-.17,3.6-.24,5.54h-1.21c.11-2.27.23-4.44.37-6.52.14-2.08.31-4.06.51-5.96h1.08c.36.6.75,1.29,1.15,2.08.41.79.81,1.6,1.22,2.45s.79,1.68,1.17,2.5c.38.82.71,1.56,1,2.22.29-.66.62-1.4,1-2.22.38-.82.77-1.66,1.17-2.5s.81-1.66,1.22-2.45c.41-.79.79-1.48,1.15-2.08h1.03c.2,1.9.38,3.88.51,5.96.14,2.08.26,4.25.37,6.52h-1.24c-.07-1.93-.15-3.78-.24-5.54s-.21-3.39-.37-4.89c-.1.17-.25.46-.45.86-.2.41-.44.88-.7,1.42-.26.54-.54,1.12-.83,1.74-.29.62-.57,1.22-.85,1.8-.28.58-.53,1.12-.75,1.61-.22.49-.39.89-.51,1.19h-1.1Z"/>
    <path class="cls-15" d="M175.97,346.71v-12.47h7.2v1.06h-5.98v4.34h5.33v1.04h-5.33v4.97h6.44v1.06h-7.67Z"/>
    <path class="cls-15" d="M188.57,345.9c1.14,0,1.96-.24,2.45-.71.49-.48.74-1.12.74-1.92,0-.53-.1-.97-.3-1.32-.2-.35-.47-.63-.81-.84-.34-.21-.74-.36-1.19-.45-.45-.09-.93-.13-1.43-.13h-.18v-.97h.41c.32,0,.66-.03,1-.1.34-.07.65-.19.94-.37.28-.18.52-.42.7-.72s.28-.68.28-1.15c0-.39-.07-.73-.2-1.01-.13-.28-.31-.5-.53-.67s-.48-.29-.77-.37c-.29-.08-.6-.12-.93-.12-.65,0-1.15.09-1.51.27-.36.18-.65.35-.88.5l-.5-.92c.12-.08.27-.18.46-.29.19-.11.4-.21.66-.31.25-.1.53-.18.84-.24.31-.07.64-.1,1-.1.62,0,1.16.08,1.61.23.45.16.82.37,1.12.66.3.28.52.62.67,1.01.14.39.22.81.22,1.27,0,.73-.2,1.33-.58,1.79-.39.46-.89.79-1.5,1,.34.08.66.21.98.39.32.17.6.4.85.67.25.27.46.6.61.98s.23.83.23,1.35-.09,1.02-.28,1.46c-.19.45-.46.83-.83,1.16-.37.33-.83.59-1.4.77-.56.19-1.22.28-1.98.28-.4,0-.76-.03-1.09-.08-.33-.05-.62-.12-.87-.19s-.47-.14-.64-.22c-.17-.07-.3-.13-.39-.18l.31-1.04c.07.05.19.11.36.18.17.07.37.14.6.21s.5.12.79.17c.29.05.61.07.96.07Z"/>
    <path class="cls-15" d="M196.41,336.79c.72-.25,1.37-.57,1.93-.96s1.12-.92,1.68-1.59h.83v12.47h-1.17v-10.69c-.13.14-.3.29-.51.45s-.45.31-.71.46-.54.29-.83.43c-.29.14-.58.25-.87.33l-.34-.9Z"/>
    <path class="cls-15" d="M205.71,340.48c0-2.11.35-3.73,1.04-4.84.7-1.12,1.69-1.67,2.97-1.67s2.26.56,2.96,1.67c.7,1.12,1.05,2.73,1.05,4.84s-.35,3.71-1.05,4.82c-.7,1.12-1.69,1.67-2.96,1.67s-2.26-.56-2.96-1.67c-.7-1.12-1.05-2.72-1.05-4.82ZM212.46,340.48c0-.72-.04-1.41-.14-2.06-.09-.65-.24-1.23-.46-1.74-.22-.5-.5-.91-.85-1.21-.35-.3-.78-.45-1.3-.45s-.97.15-1.31.45c-.35.3-.63.7-.84,1.21s-.36,1.08-.45,1.74c-.09.65-.14,1.34-.14,2.06s.04,1.41.14,2.06c.09.65.24,1.23.45,1.73s.49.9.84,1.2c.35.3.79.45,1.31.45s.95-.15,1.3-.45c.35-.3.63-.7.85-1.2.22-.5.37-1.07.46-1.73.09-.65.14-1.34.14-2.06Z"/>
    <path class="cls-15" d="M221.55,337.4h3.71v.99h-3.71v4.95c0,.53.04.96.13,1.29.09.33.22.58.39.76.17.18.37.3.61.36.24.06.5.09.79.09.49,0,.89-.06,1.19-.17.3-.11.53-.22.7-.31l.29.97c-.17.11-.46.23-.88.37-.42.14-.88.21-1.37.21-.58,0-1.06-.08-1.45-.23-.39-.15-.7-.38-.94-.68-.23-.31-.4-.69-.5-1.14-.1-.46-.14-1-.14-1.62v-8.57l1.17-.22v2.95Z"/>
    <path class="cls-15" d="M226.86,342.05c0-.82.12-1.53.35-2.13.23-.61.54-1.11.92-1.52.38-.41.81-.71,1.3-.91.49-.2.99-.3,1.5-.3,1.14,0,2.05.37,2.73,1.12.68.74,1.02,1.89,1.02,3.44,0,.1,0,.19,0,.29,0,.1-.02.19-.03.27h-6.53c.04,1.14.32,2.02.85,2.63.53.61,1.37.92,2.52.92.64,0,1.14-.06,1.51-.18s.64-.22.81-.31l.22,1.01c-.17.1-.48.21-.95.34s-1,.2-1.63.2c-.82,0-1.51-.12-2.09-.36-.58-.24-1.05-.58-1.42-1.01s-.64-.95-.81-1.54c-.17-.59-.25-1.24-.25-1.95ZM233.46,341.31c-.02-.97-.25-1.73-.68-2.27s-1.04-.81-1.84-.81c-.42,0-.8.08-1.12.25-.33.17-.62.39-.86.68-.25.28-.44.61-.58.98-.14.37-.22.76-.24,1.17h5.33Z"/>
    <path class="cls-15" d="M240.1,337.19c.61,0,1.13.09,1.56.26.43.17.77.41,1.03.72.26.31.46.67.58,1.09.12.42.18.88.18,1.37v5.87c-.12.04-.29.08-.52.12-.23.04-.49.09-.79.14-.3.05-.63.09-1,.12-.37.03-.74.05-1.12.05-.49,0-.95-.05-1.36-.16-.41-.11-.77-.28-1.08-.51-.31-.23-.55-.53-.72-.9-.17-.37-.26-.81-.26-1.34s.1-.94.29-1.3c.19-.36.46-.66.81-.89.35-.23.76-.41,1.24-.51.48-.11,1-.16,1.57-.16.17,0,.34,0,.53.03s.37.04.54.07c.17.03.32.06.45.09.13.03.21.06.26.08v-.58c0-.32-.02-.64-.07-.94s-.15-.58-.31-.83c-.16-.25-.39-.44-.68-.59s-.68-.23-1.16-.23c-.68,0-1.19.05-1.53.14s-.58.17-.74.23l-.16-1.03c.2-.1.52-.19.94-.27.43-.08.94-.12,1.54-.12ZM240.21,345.87c.46,0,.85-.02,1.2-.04.34-.03.63-.07.87-.12v-3.28c-.13-.06-.34-.12-.63-.19s-.68-.1-1.19-.1c-.29,0-.59.02-.9.06s-.6.13-.86.27c-.26.14-.48.33-.65.57s-.25.56-.25.95c0,.35.06.64.17.88.11.24.28.43.49.58.21.14.46.25.76.31.29.07.63.1,1,.1Z"/>
    <path class="cls-15" d="M246.44,337.73c.35-.1.8-.2,1.36-.32.56-.12,1.28-.18,2.17-.18,1.18,0,2.03.34,2.56,1.03.06-.05.18-.13.35-.24.17-.11.39-.23.66-.35.26-.12.57-.22.93-.3s.75-.13,1.18-.13c.71,0,1.28.11,1.72.32s.78.5,1.02.88c.24.38.4.83.49,1.36.08.53.13,1.1.13,1.73v5.2h-1.17v-4.82c0-.61-.03-1.14-.08-1.59-.05-.45-.16-.82-.32-1.12-.16-.29-.39-.52-.69-.67-.3-.15-.69-.22-1.17-.22-.36,0-.69.03-.98.1-.29.07-.55.15-.76.24-.22.1-.39.19-.53.29-.14.1-.24.17-.3.22.11.31.19.66.24,1.05.05.39.08.8.08,1.23v5.29h-1.17v-4.82c0-.61-.03-1.14-.08-1.59-.05-.45-.17-.82-.33-1.12-.17-.29-.4-.52-.71-.67-.31-.15-.71-.22-1.21-.22-.56,0-1.04.03-1.43.09s-.64.11-.75.16v8.17h-1.17v-8.98Z"/>
    <path class="cls-15" d="M125.59,362.93c0-1.74.29-3.34.86-4.81.57-1.46,1.31-2.77,2.23-3.91l.84.58c-.95,1.18-1.64,2.42-2.08,3.73-.44,1.31-.66,2.78-.66,4.4s.22,3.09.66,4.4,1.13,2.56,2.08,3.73l-.84.58c-.91-1.14-1.66-2.44-2.23-3.91-.57-1.46-.86-3.07-.86-4.8Z"/>
    <path class="cls-15" d="M133.85,367.52c.97,0,1.73-.18,2.27-.53.54-.35.81-.93.81-1.72,0-.46-.09-.84-.26-1.14-.17-.31-.41-.57-.69-.78-.29-.21-.62-.39-.99-.54-.37-.15-.76-.31-1.17-.47-.52-.2-.98-.41-1.39-.63-.41-.21-.76-.46-1.04-.73-.29-.27-.51-.58-.66-.93-.15-.35-.23-.76-.23-1.22,0-1.07.35-1.88,1.06-2.43.71-.55,1.69-.83,2.95-.83.34,0,.67.03.99.07.32.05.63.11.91.19.28.08.54.17.77.26.23.1.43.2.58.31l-.43,1.03c-.35-.24-.77-.43-1.27-.58-.5-.14-1.03-.22-1.61-.22-.4,0-.76.04-1.09.12-.33.08-.62.2-.85.38-.24.17-.43.39-.57.66-.14.26-.21.58-.21.95s.07.71.22.97.34.49.6.68c.26.19.56.37.91.52.35.16.73.32,1.13.49.49.21.96.41,1.4.61.44.2.82.44,1.14.72.32.28.58.61.77,1.01.19.4.29.88.29,1.46,0,1.13-.39,1.97-1.18,2.54-.79.56-1.85.85-3.19.85-.48,0-.92-.03-1.31-.09-.4-.06-.75-.14-1.06-.23-.31-.09-.58-.18-.79-.28-.22-.1-.38-.18-.5-.25l.4-1.06c.12.07.28.16.49.25.2.1.44.19.72.28s.59.17.94.23c.35.06.73.09,1.15.09Z"/>
    <path class="cls-15" d="M148.88,368.31c-.24-.61-.46-1.2-.66-1.77-.2-.56-.39-1.12-.57-1.65h-6.09c-.21.54-.41,1.09-.61,1.66-.2.57-.41,1.15-.63,1.76h-1.28c.47-1.3.92-2.51,1.34-3.63.42-1.12.83-2.18,1.24-3.18.4-1,.81-1.96,1.21-2.88.4-.92.82-1.85,1.26-2.78h1.08c.44.92.86,1.85,1.25,2.77s.8,1.89,1.2,2.89c.41,1,.82,2.06,1.24,3.19.42,1.12.88,2.33,1.38,3.63h-1.35ZM144.59,357.24c-.45,1.04-.89,2.09-1.32,3.15-.43,1.07-.87,2.22-1.33,3.45h5.32c-.46-1.24-.91-2.39-1.35-3.46-.44-1.07-.88-2.12-1.33-3.15Z"/>
    <path class="cls-15" d="M155.17,355.73c1.76,0,3.08.34,3.94,1.01.86.67,1.3,1.63,1.3,2.86,0,.71-.13,1.31-.38,1.81s-.61.9-1.08,1.21c-.47.31-1.04.53-1.72.67-.68.14-1.44.21-2.29.21h-1.69v4.82h-1.22v-12.24c.43-.12.94-.21,1.52-.26.58-.05,1.12-.08,1.63-.08ZM155.22,356.79c-.46,0-.84.02-1.16.04-.32.03-.59.06-.82.08v5.51h1.55c.66,0,1.26-.04,1.79-.12.53-.08.99-.22,1.37-.43.38-.21.67-.5.87-.87s.31-.85.31-1.42-.11-1.01-.33-1.37c-.22-.36-.52-.64-.88-.86-.37-.21-.78-.36-1.25-.44-.47-.08-.95-.13-1.44-.13Z"/>
    <path class="cls-15" d="M160.93,371.64h-1.19l6.14-17.42h1.15l-6.1,17.42Z"/>
    <path class="cls-15" d="M170.92,367.52c.97,0,1.73-.18,2.27-.53.54-.35.81-.93.81-1.72,0-.46-.09-.84-.26-1.14-.17-.31-.41-.57-.69-.78-.29-.21-.62-.39-.99-.54-.37-.15-.76-.31-1.17-.47-.52-.2-.98-.41-1.39-.63-.41-.21-.76-.46-1.04-.73-.29-.27-.51-.58-.66-.93-.15-.35-.23-.76-.23-1.22,0-1.07.35-1.88,1.06-2.43.71-.55,1.69-.83,2.95-.83.34,0,.67.03.99.07.32.05.63.11.91.19.28.08.54.17.77.26.23.1.43.2.58.31l-.43,1.03c-.35-.24-.77-.43-1.27-.58-.5-.14-1.03-.22-1.61-.22-.4,0-.76.04-1.09.12-.33.08-.62.2-.85.38-.24.17-.43.39-.57.66-.14.26-.21.58-.21.95s.07.71.22.97.34.49.6.68c.26.19.56.37.91.52.35.16.73.32,1.13.49.49.21.96.41,1.4.61.44.2.82.44,1.14.72.32.28.58.61.77,1.01.19.4.29.88.29,1.46,0,1.13-.39,1.97-1.18,2.54-.79.56-1.85.85-3.19.85-.48,0-.92-.03-1.31-.09-.4-.06-.75-.14-1.06-.23-.31-.09-.58-.18-.79-.28-.22-.1-.38-.18-.5-.25l.4-1.06c.12.07.28.16.49.25.2.1.44.19.72.28s.59.17.94.23c.35.06.73.09,1.15.09Z"/>
    <path class="cls-15" d="M178.57,359h3.71v.99h-3.71v4.95c0,.53.04.96.13,1.29.09.33.22.58.39.76s.37.3.61.36c.24.06.5.09.79.09.49,0,.89-.06,1.19-.17.3-.11.53-.22.7-.31l.29.97c-.17.11-.46.23-.88.37-.42.14-.88.21-1.37.21-.58,0-1.06-.08-1.45-.23-.39-.15-.7-.38-.94-.68-.23-.31-.4-.69-.5-1.14-.1-.46-.14-1-.14-1.62v-8.57l1.17-.22v2.95Z"/>
    <path class="cls-15" d="M187.26,358.79c.61,0,1.13.09,1.56.26.43.17.77.41,1.03.72.26.31.46.67.58,1.09.12.42.18.88.18,1.37v5.87c-.12.04-.29.07-.52.12-.23.04-.49.09-.79.14-.3.05-.63.09-1,.12-.37.03-.74.05-1.12.05-.49,0-.95-.05-1.36-.16-.41-.11-.77-.28-1.08-.51-.31-.23-.55-.53-.72-.9-.17-.37-.26-.81-.26-1.34s.1-.94.29-1.3c.19-.36.46-.66.81-.89s.76-.41,1.24-.51c.48-.11,1-.16,1.57-.16.17,0,.34,0,.53.03s.37.04.54.07c.17.03.32.06.45.09.13.03.21.06.26.08v-.58c0-.32-.02-.64-.07-.94-.05-.31-.15-.58-.31-.83s-.39-.44-.68-.59c-.29-.15-.68-.23-1.16-.23-.68,0-1.19.05-1.53.14-.34.1-.58.17-.74.23l-.16-1.03c.2-.1.52-.19.94-.27.43-.08.94-.13,1.54-.13ZM187.37,367.46c.46,0,.85-.01,1.2-.04.34-.03.63-.07.87-.12v-3.28c-.13-.06-.34-.12-.63-.19-.29-.07-.68-.1-1.19-.1-.29,0-.59.02-.9.06-.31.04-.6.13-.86.27-.26.14-.48.33-.65.57s-.25.56-.25.96c0,.35.06.64.17.88.11.24.28.43.49.58.21.14.46.25.76.32s.63.1,1,.1Z"/>
    <path class="cls-15" d="M193.6,359.33c.35-.1.82-.2,1.4-.32.59-.12,1.31-.18,2.16-.18.71,0,1.3.1,1.77.31.47.21.85.5,1.13.87.28.38.48.83.6,1.36.12.53.18,1.11.18,1.75v5.2h-1.17v-4.82c0-.66-.04-1.22-.13-1.67-.09-.46-.24-.83-.45-1.12-.21-.29-.49-.5-.83-.62-.34-.13-.77-.19-1.29-.19-.55,0-1.03.03-1.43.09-.4.06-.66.12-.78.16v8.17h-1.17v-8.98Z"/>
    <path class="cls-15" d="M207.26,354.34c.5,0,.92.04,1.23.12.32.08.52.15.62.21l-.23,1.01c-.13-.06-.33-.12-.58-.19-.26-.07-.58-.1-.98-.1-.83,0-1.42.21-1.77.63s-.53,1.09-.53,2.02v.97h3.74v.99h-3.74v8.32h-1.17v-10.31c0-1.21.28-2.12.84-2.74.56-.61,1.42-.92,2.58-.92Z"/>
    <path class="cls-15" d="M218.54,363.67c0,.73-.1,1.4-.31,2s-.5,1.11-.88,1.53-.83.75-1.34.98c-.52.23-1.09.35-1.71.35s-1.19-.12-1.71-.35-.96-.56-1.34-.98-.67-.93-.88-1.53c-.21-.6-.31-1.27-.31-2s.1-1.4.31-2c.21-.6.5-1.11.88-1.54.38-.43.82-.76,1.34-.99.52-.23,1.09-.35,1.71-.35s1.19.12,1.71.35c.52.23.96.56,1.34.99.38.43.67.94.88,1.54.21.6.31,1.27.31,2ZM217.3,363.67c0-1.16-.27-2.09-.81-2.78-.54-.69-1.27-1.04-2.2-1.04s-1.66.34-2.2,1.04c-.54.69-.81,1.62-.81,2.78s.27,2.09.81,2.77c.54.68,1.27,1.03,2.2,1.03s1.66-.34,2.2-1.03c.54-.68.81-1.61.81-2.77Z"/>
    <path class="cls-15" d="M224.25,358.83c.38,0,.75.03,1.09.09.34.06.58.12.71.18l-.23,1.01c-.1-.05-.29-.1-.59-.15s-.68-.08-1.16-.08c-.5,0-.91.04-1.22.11-.31.07-.51.13-.6.18v8.15h-1.17v-8.87c.3-.13.71-.27,1.24-.41.53-.14,1.17-.21,1.93-.21Z"/>
    <path class="cls-15" d="M235.21,368.02c-.35.12-.79.23-1.33.34-.54.11-1.22.16-2.05.16-.68,0-1.31-.11-1.86-.33-.56-.22-1.04-.54-1.44-.96-.4-.42-.71-.93-.94-1.53-.22-.6-.33-1.28-.33-2.03,0-.71.09-1.36.28-1.95.19-.59.46-1.11.82-1.54.36-.43.8-.77,1.32-1.01.52-.24,1.12-.36,1.79-.36.61,0,1.14.09,1.59.26.45.17.78.34.98.49v-5l1.17-.21v13.68ZM234.04,360.7c-.11-.08-.24-.17-.4-.27-.16-.1-.35-.19-.57-.27-.22-.08-.45-.15-.7-.21s-.52-.08-.79-.08c-.58,0-1.06.1-1.45.31s-.71.48-.94.82c-.24.34-.41.74-.52,1.21s-.16.95-.16,1.47c0,1.22.31,2.16.92,2.82.61.65,1.42.98,2.43.98.58,0,1.04-.03,1.4-.08.35-.05.62-.11.8-.17v-6.52Z"/>
    <path class="cls-15" d="M240.84,362.93c0,1.74-.28,3.34-.85,4.8-.57,1.46-1.31,2.77-2.22,3.91l-.85-.58c.95-1.18,1.64-2.42,2.08-3.73.44-1.31.66-2.78.66-4.4s-.22-3.09-.66-4.4c-.44-1.31-1.13-2.56-2.08-3.73l.85-.58c.91,1.14,1.65,2.44,2.22,3.91.57,1.46.85,3.07.85,4.81Z"/>
    <path class="cls-15" d="M245.54,367.54c0,.28-.09.51-.26.7-.17.19-.42.29-.73.29s-.56-.1-.73-.29c-.17-.19-.26-.43-.26-.7s.09-.51.26-.7.42-.29.73-.29.56.1.73.29.26.43.26.7Z"/>
  </g>
  <text id="text9-4" data-name="text9" class="cls-19" transform="translate(339.67 298.58)"><tspan x="0" y="0">2017</tspan></text>
  <text class="cls-16" transform="translate(341.9 325.17)"><tspan x="0" y="0">Opening of inno.space</tspan><tspan x="0" y="21.6">with Lar</tspan><tspan class="cls-1" x="64.46" y="21.6">r</tspan><tspan x="71.57" y="21.6">y Leife</tspan><tspan class="cls-23" x="124" y="21.6">r</tspan><tspan x="129.94" y="21.6">, 2 </tspan><tspan x="0" y="43.2">ME310 teams </tspan><tspan class="cls-31" x="0" y="64.8">(</tspan><tspan x="5.45" y="64.8">SA</tspan><tspan class="cls-25" x="26.3" y="64.8">P</tspan><tspan x="36.05" y="64.8">/Stanford and </tspan><tspan x="0" y="86.4">Roche</tspan><tspan class="cls-36" x="49.98" y="86.4">/</tspan><tspan x="55.75" y="86.4">Aalt</tspan><tspan class="cls-29" x="88" y="86.4">o</tspan><tspan x="98.19" y="86.4">).</tspan></text>
  <text id="text9-5" data-name="text9" class="cls-19" transform="translate(557.48 298.58)"><tspan x="0" y="0">2019</tspan></text>
  <text class="cls-16" transform="translate(559.7 325.17)"><tspan x="0" y="0">6 teams; new signature</tspan><tspan x="0" y="21.6">program in </tspan><tspan x="0" y="43.2">collaboration with </tspan><tspan x="0" y="64.8">University of</tspan><tspan class="cls-32" x="0" y="86.4">T</tspan><tspan x="9.25" y="86.4">artu </tspan><tspan class="cls-30" x="46.46" y="86.4">(</tspan><tspan x="51.69" y="86.4">GDI</tspan><tspan class="cls-35" x="80.64" y="86.4">P</tspan><tspan x="91.06" y="86.4">).</tspan></text>
  <text id="text9-6" data-name="text9" class="cls-19" transform="translate(775.28 298.58)"><tspan x="0" y="0">2021</tspan></text>
  <text class="cls-16" transform="translate(777.5 325.17)"><tspan x="0" y="0">6 teams; new signature</tspan><tspan x="0" y="21.6">program in </tspan><tspan x="0" y="43.2">collaboration with </tspan><tspan x="0" y="64.8">HAMK University (iPD</tspan><tspan class="cls-4" x="171.14" y="64.8">P</tspan><tspan x="181.56" y="64.8">)</tspan></text>
  <text id="text9-7" data-name="text9" class="cls-19" transform="translate(993.07 298.58)"><tspan x="0" y="0">2023</tspan></text>
  <text class="cls-16" transform="translate(995.3 325.17)"><tspan x="0" y="0">13 teams; new program </tspan><tspan x="0" y="21.6">in collaboration with </tspan><tspan x="0" y="43.2">funding project SHEL</tspan><tspan class="cls-28" x="168.64" y="43.2">L</tspan><tspan x="177.93" y="43.2">S </tspan><tspan x="0" y="64.8">(PI</tspan><tspan class="cls-24" x="20.7" y="64.8">Y</tspan><tspan x="31.27" y="64.8">); opening </tspan><tspan x="0" y="86.4">ma</tspan><tspan class="cls-34" x="24.7" y="86.4">k</tspan><tspan x="33.34" y="86.4">e</tspan><tspan class="cls-23" x="43.2" y="86.4">r</tspan><tspan x="49.14" y="86.4">.space.</tspan></text>
  <text id="text9-8" data-name="text9" class="cls-19" transform="translate(1210.8749 298.5764)"><tspan x="0" y="0">2025</tspan></text>
  <text class="cls-16" transform="translate(1213.0976 325.1733)"><tspan x="0" y="0">7 teams; two </tspan><tspan class="cls-27" x="107.51" y="0">T</tspan><tspan x="116.85" y="0">ransforMA </tspan><tspan x="0" y="21.6">– funded cooperations </tspan><tspan x="0" y="43.2">(PD</tspan><tspan class="cls-4" x="28.87" y="43.2">P</tspan><tspan x="39.29" y="43.2">); preparing new </tspan><tspan class="cls-23" x="0" y="64.8">T</tspan><tspan x="9.07" y="64.8">ech-Driven-Innvation </tspan><tspan x="0" y="86.4">course </tspan><tspan class="cls-2" x="57.4" y="86.4">(</tspan><tspan x="63.18" y="86.4">T</tspan><tspan class="cls-4" x="73.04" y="86.4">D</tspan><tspan x="85.44" y="86.4">X)</tspan></text>
  <text class="cls-16" transform="translate(234.5 60.43)"><tspan x="0" y="0">One ME310 team</tspan><tspan class="cls-31" x="0" y="21.6">(</tspan><tspan x="5.45" y="21.6">SA</tspan><tspan class="cls-25" x="26.3" y="21.6">P</tspan><tspan x="36.05" y="21.6">/Stanford); </tspan><tspan class="cls-33" x="0" y="43.2">W</tspan><tspan x="16.38" y="43.2">e get funding for the </tspan><tspan x="0" y="64.8">room</tspan></text>
  <text class="cls-16" transform="translate(451.83 60.43)"><tspan class="cls-33" x="0" y="0">W</tspan><tspan x="16.38" y="0">e become officially </tspan><tspan x="0" y="21.6">part of the Design </tspan><tspan class="cls-13" x="0" y="43.2">F</tspan><tspan x="8.64" y="43.2">acto</tspan><tspan class="cls-1" x="43.52" y="43.2">r</tspan><tspan x="50.63" y="43.2">y Global </tspan><tspan x="0" y="64.8">Network; 4 teams; 2 </tspan><tspan x="0" y="86.4">new programs </tspan><tspan class="cls-31" x="119.41" y="86.4">(</tspan><tspan x="124.86" y="86.4">SQUAD </tspan><tspan x="0" y="108">and CBI); we become </tspan><tspan x="0" y="129.6">part of the Digital Hub.</tspan></text>
  <text class="cls-16" transform="translate(669.15 60.43)"><tspan x="0" y="0">6 teams; first blended</tspan><tspan x="0" y="21.6">course formats (Rapid</tspan><tspan x="0" y="43.2">Prototyping for </tspan><tspan x="0" y="64.8">Innovatio</tspan><tspan class="cls-22" x="74.93" y="64.8">n</tspan><tspan x="84.92" y="64.8">).</tspan></text>
  <text class="cls-16" transform="translate(886.47 60.43)"><tspan x="0" y="0">8 teams; ramping up </tspan><tspan x="0" y="21.6">mirco course formats </tspan><tspan x="0" y="43.2">for digital fabrication </tspan><tspan x="0" y="64.8">devices.</tspan></text>
  <text class="cls-16" transform="translate(1103.788 60.4345)"><tspan x="0" y="0">9 teams; first </tspan><tspan class="cls-27" x="0" y="21.6">T</tspan><tspan x="9.34" y="21.6">ransforMAfunded </tspan><tspan x="0" y="43.2">cooperations (PD</tspan><tspan class="cls-4" x="138.11" y="43.2">P</tspan><tspan x="148.53" y="43.2">) </tspan><tspan x="0" y="64.8">sucsessfully finnished; </tspan><tspan x="0" y="86.4">new sustainability </tspan><tspan class="cls-33" x="0" y="108">W</tspan><tspan x="16.38" y="108">orkshop established </tspan><tspan x="0" y="129.6">(xR)</tspan></text>
  <text class="cls-16" transform="translate(1321.1083 60.4345)"><tspan x="0" y="0">9 teams; first </tspan><tspan x="0" y="21.6">T</tspan><tspan class="cls-4" x="9.86" y="21.6">D</tspan><tspan class="cls-3" x="22.27" y="21.6">X</tspan><tspan class="cls-26" x="32.9" y="21.6">-</tspan><tspan class="cls-14" x="37.28" y="21.6">T</tspan><tspan x="46.35" y="21.6">eams; two </tspan><tspan class="cls-27" x="0" y="43.2">T</tspan><tspan x="9.34" y="43.2">ransforMA PDP</tspan><tspan class="cls-36" x="132.32" y="43.2">-</tspan><tspan class="cls-23" x="136.69" y="43.2">T</tspan><tspan x="145.76" y="43.2">eams; </tspan><tspan x="0" y="64.8">micro</tspan><tspan class="cls-36" x="45.29" y="64.8">-</tspan><tspan class="cls-27" x="49.66" y="64.8">T</tspan><tspan x="59" y="64.8">ransforMA-Coop</tspan><tspan x="0" y="86.4">erations; ma</tspan><tspan class="cls-34" x="98.64" y="86.4">k</tspan><tspan x="107.28" y="86.4">e</tspan><tspan class="cls-23" x="117.14" y="86.4">r</tspan><tspan x="123.08" y="86.4">.space </tspan><tspan x="0" y="108">reloaded</tspan></text>
</svg>