<svg id="Ebene_1" data-name="Ebene 1" xmlns="http://www.w3.org/2000/svg" viewBox="0 0 1920 1080"><defs><style>.cls-1{fill:#fff;}.cls-2{font-size:25px;fill:#ff8000;font-family:Impact, Impact;}.cls-3{letter-spacing:0.02em;}.cls-4{letter-spacing:0em;}.cls-5{letter-spacing:-0.04em;}.cls-6{font-size:17px;font-family:GillSans, Gill Sans;}.cls-7{letter-spacing:-0.02em;}</style></defs><title>2019_02_06_designthinking</title><path d="M1052.75,703.53c-1.25,2.55-2.42,4.9-3.55,7.26-1.89,3.92-3.57,7.95-5.7,11.73a34,34,0,0,1-5.23,6.89,10.29,10.29,0,0,1-10.65,3,78.08,78.08,0,0,1-11.77-4.58c-31.54-15.31-59-36.35-84.51-60.17-1.23-1.15-2.47-2.28-3.92-3.62-1,.91-1.91,1.66-2.72,2.51-6.38,6.69-14.28,9.11-23.35,8.61-8.5-.47-16.75-2.29-25-4.28-11.15-2.7-22.25-5.66-33.49-8a66.39,66.39,0,0,0-29.87.21,47.94,47.94,0,0,0-15.14,6.81c-5,3.35-6.29,2.93-8.25-2.91-4,1.31-8,2.63-12,3.93-26.1,8.48-52.41,16.22-79.34,21.66-7.81,1.58-15.7,2.81-23.56,4.15a12.73,12.73,0,0,1-3.6.09,6.23,6.23,0,0,1-5.81-5.94,12.72,12.72,0,0,1,1.47-7.73,82.54,82.54,0,0,1,6-9.47c14.52-19.19,30.87-36.6,50.17-51.11.38-.29.7-.65,1.35-1.25-22-41.13-27.4-85-20.2-130.7a4,4,0,0,0-1-.56c-4.34-.64-5.31-2.2-3.83-6.4a87.51,87.51,0,0,1,10.89-20.83,22.18,22.18,0,0,0,2.13-3.76c3.22-7.42,6.39-14.87,9.57-22.31.23-.54.42-1.1.88-2.32-1.7.56-2.9.93-4.09,1.36a473.3,473.3,0,0,1-60.88,17.69c-.59.13-1.17.34-1.76.42-2.4.31-4.17-.9-4.55-3.08s.45-3.46,3-4.1c6.57-1.63,13.18-3.06,19.73-4.76a518.12,518.12,0,0,0,52.41-17,8.75,8.75,0,0,0,4.38-3.53A128.47,128.47,0,0,1,774.35,381a13.79,13.79,0,0,0,4.67-4.4c23.9-34.88,54.81-61.67,92.91-80.07a98.87,98.87,0,0,1,30.35-9.39c14-1.82,27.21.48,39.31,8.06.71.45,1.46.84,2.41,1.39l3.39-1.81c5.88-3.17,11.93-5.8,18.63-6.82a31,31,0,0,1,18.33,2.92c1.29.61,2.59,1.18,4.29,2,.42-1.65.72-3,1.13-4.36,1.21-3.92,2.45-7.84,3.73-11.73a3.12,3.12,0,0,1,3.18-2.47,3.89,3.89,0,0,1,3.7,2.45,18.33,18.33,0,0,1,.8,2.41c2.21,7.79,4.48,15.56,6.55,23.39a8.38,8.38,0,0,0,3.82,5.34c20.53,13.26,40.86,26.82,60,42,7.94,6.32,15.41,13.24,23.1,19.87,4.39,3.79,8.79,7.55,13.3,11.42,1.37-.72,2.54-1.3,3.67-1.94a128.1,128.1,0,0,1,34.6-13.69,27,27,0,0,1,4.3-.56c4.38-.25,8,1.46,10.06,5.24a45.27,45.27,0,0,1,4.57,11c1.64,6.8,2.72,13.74,3.79,20.67.43,2.83,1.43,4.25,4.43,5.07,21.5,5.84,42.26,13.8,62.82,22.3a23.51,23.51,0,0,0,7,1.59c4.21.34,8.46.3,12.69.45a34.78,34.78,0,0,1,4.34.33c3.14.51,4.29,2.63,3.05,5.5-.43,1-1,1.94-1.63,3.27l3.38,1.93c6.3,3.58,8.36,8.74,6.07,15.64a29.25,29.25,0,0,1-2.57,5.59c-7.8,13.23-15.73,26.38-23.48,39.63a890.86,890.86,0,0,0-49.21,98.18c-7.06,16.43-13.45,33.15-20.11,49.75-.72,1.79-1.13,3.69-1.7,5.54a43.34,43.34,0,0,1-2.1,6.54c-4,8.06-6.29,16.72-9.31,25.13-.29.8-.49,1.63-.83,2.4-1.46,3.31-4.6,3.76-6.77.85-1.8-2.42-3.35-5-5-7.55-.86-1.3-1.76-2.58-2.93-4.3-1,1.17-1.91,2.09-2.72,3-7,8.24-14.73,15.7-23.92,21.52-10.37,6.57-21.55,10.37-34,9.62-9-.55-17.58-3.13-25.82-6.77C1058.1,706,1055.61,704.84,1052.75,703.53Zm104.64-242.9c-10.81,7.52-17,10.46-27.4,13.19-16.91,4.43-34,4.12-51.12,1.8-14.64-2-28.95-5.48-43.16-9.45-1.21-.34-2.46-.58-3.89-.91,0,3,0,5.52,0,8,.36,16.33.47,32.65-3.33,48.69a3.1,3.1,0,0,0,1,3.22c2.44,2.51,4.85,5.07,7.26,7.62,39.1,41.34,76,84.55,108.6,131.24.53.76,1.17,1.43,2,2.42.87-1.22,1.59-2.14,2.23-3.12,8.53-13.13,15.16-27.22,21-41.73a14.88,14.88,0,0,0,.83-3.86q1.95-17.66,3.82-35.32c1.37-12.74,2.72-25.47,4.14-38.21,1.09-9.85,2.31-19.68,3.4-29.53.77-7,1.78-13.92,2-20.91.43-12.53-5.23-21.84-16.23-27.81C1164.87,464.05,1161.1,462.42,1157.39,460.64Zm-169.18,33c-1.42.94-2.41,1.62-3.43,2.26-6.14,3.87-12.16,7.92-18.44,11.55-20.18,11.65-41.62,19.87-64.76,23.35a61.41,61.41,0,0,0-9.93,1.92c-25.88,8.44-50.06,5-72.66-10.07l-3.19-2.14c-1.13,2.25-2,4.24-3.08,6.09-1.25,2.09-.94,3.59.75,5.42,7.29,7.92,14.39,16,21.59,24q14.7,16.3,29.5,32.52a9.44,9.44,0,0,0,3.74,2.66c18,5.85,35.12,13.69,51.81,22.51a7.22,7.22,0,0,0,5.52.63q19.19-4.67,38.45-9A6.44,6.44,0,0,0,968,603c10.29-13,20.74-25.84,30.88-38.94A124.55,124.55,0,0,0,1014,539.75c2.1-4.58,3.88-9.31,5.85-14.08ZM730.39,616.93c1.49-1,2.69-1.76,3.85-2.57,13.34-9.27,27.31-17.4,42.51-23.26a6.27,6.27,0,0,0,4.12-4.45,490.51,490.51,0,0,1,20-52.07c.58-1.3,1.09-2.64,1.6-3.88-4.95-6.23-9.93-12.14-14.51-18.37s-9-12.57-13-19.19-7.14-13.57-10.75-20.53c-16.71,7.71-33.88,13.67-51.85,16.46-4.16,17.09-5.89,49,0,77.76A175.06,175.06,0,0,0,730.39,616.93ZM955.27,461.87c-.65-.7-1.26-1.43-2-2.09-5.76-5.52-11.59-11-17.27-16.58a9.45,9.45,0,0,0-6.39-2.86c-11.81-.8-23.61-2-35.44-2.49-9-.41-18.13-.06-27.2-.11a5.7,5.7,0,0,0-5.31,2.92,768.18,768.18,0,0,0-39.25,66.49c-.55,1.06-1,2.14-1.62,3.34a13.4,13.4,0,0,0,1.88,1.34c4,1.9,8,4,12.18,5.57a129.31,129.31,0,0,0,55.63,7.27,14.89,14.89,0,0,0,4.49-1.27,98.83,98.83,0,0,0,27.59-17.84c13.39-12,23.5-26.57,32.16-42.21A9.27,9.27,0,0,0,955.27,461.87ZM1025.83,532a22.69,22.69,0,0,0-1.1,2.05,142.88,142.88,0,0,1-20.3,35.44c-7.71,10.08-15.87,19.82-23.83,29.71-.71.88-1.41,1.78-2.45,3.1a23.24,23.24,0,0,0,2.47,0c5.62-.79,11.23-1.66,16.87-2.38,14.28-1.83,28.62-3.08,43-2.45a119.62,119.62,0,0,1,35.18,6.37c5.76,2,6.19,2.7,5.18,8.74a342.46,342.46,0,0,1-9.1,40.64c-.33,1.13-.56,2.29-.94,3.83,11.54,1.89,22.82,3.74,34.1,5.57s22.36,4,33.73,5.43C1105.15,619.32,1066.78,574.85,1025.83,532ZM888.58,625.28a22.79,22.79,0,0,0-1.38-1.9c-7.53-8-15-16-22.67-24a9.72,9.72,0,0,0-4-2.28A158,158,0,0,0,833,590.93c-15.07-2-29.88-1-44.36,3.95a5.17,5.17,0,0,0-3.8,3.79,419.51,419.51,0,0,0-13.56,64.08,10.75,10.75,0,0,0,.19,2.18c.93-.21,1.64-.31,2.31-.53q16.31-5.47,32.61-11a20.35,20.35,0,0,0,3.27-1.54A100.22,100.22,0,0,1,836,641.67,189.18,189.18,0,0,0,859.62,635c4.64-1.72,9.36-3.23,14.05-4.8S883.3,627,888.58,625.28ZM1162,454.71c1.58.75,2.81,1.24,3.94,1.89,4.18,2.41,8.54,4.57,12.44,7.38a30.72,30.72,0,0,1,12.49,20.12c1.18,6.38.86,12.77.25,19.15q-1.54,16.24-3.33,32.45c-1.57,14.41-3.22,28.81-4.83,43.22-.35,3.12-.63,6.25-.94,9.38l.72.14c.51-1.32,1.06-2.62,1.53-4q9.19-26.18,20.82-51.37c13.36-29,28.41-57.11,43.77-85.07.74-1.34,1.41-2.71,2.19-4.23-3.44-1.52-6.47-3-9.62-4.2a23.73,23.73,0,0,0-6.58-1.67c-7.35-.52-14.72-.76-22.09-1.12q-20.28-1-40.56-2a25.54,25.54,0,0,0-2.64.16C1168.14,442,1166,448.6,1162,454.71ZM1073.64,611c-1.73-.58-3.08-1.07-4.46-1.48-12.16-3.64-24.64-4.8-37.27-4.7-19.89.16-39.52,2.8-59.08,6.21a6.1,6.1,0,0,0-3.91,2.34c-4.64,5.74-9.35,11.41-14,17.13a18.15,18.15,0,0,0-1.29,2.14c6,3.71,11.68,7.32,17.46,10.83a7.91,7.91,0,0,0,3.09.91c8.52,1,17.05,1.93,25.56,3,15.82,2,31.63,4.19,47.43,6.31,5.25.7,10.5,1.46,16.09,2.24A314.73,314.73,0,0,0,1073.64,611Zm-8.14-196.43c11.56-10.71,23.22-20.62,36.1-29.18a601.23,601.23,0,0,0-90-68.42c.39,1.94.61,3.12.86,4.28,1.78,8.14,3.82,16.24,5.29,24.43,2.68,14.86,5.08,29.76,7.46,44.67a6.29,6.29,0,0,0,3.65,5.25c8.08,4.1,16,8.45,24.06,12.65C1057,410.38,1061.16,412.38,1065.5,414.57ZM932.14,658c.8.86,1.26,1.42,1.78,1.91a425.33,425.33,0,0,0,43.67,36.52,267.74,267.74,0,0,0,46.34,26.92c6.21,2.8,9.72,1.56,12.72-4.43,1.84-3.68,3.76-7.31,5.62-11,1.31-2.57,2.57-5.16,3.92-7.9-1.13-.76-2-1.37-2.91-1.94-4.51-2.82-9.06-5.59-13.54-8.44Q1001,671.35,972.2,653a11.91,11.91,0,0,0-4.56-2c-8.39-1.07-16.82-1.89-25.22-2.85a3.17,3.17,0,0,0-3.17,1.2C937,652.2,934.64,655,932.14,658ZM894.49,381.57l-.4-.61c-1.15.29-2.31.53-3.43.87-28.3,8.63-56.39,17.9-84.15,28.16-13,4.81-26,9.9-38.47,16a4.74,4.74,0,0,0-3,4.38,79.64,79.64,0,0,0,1.49,22.34c.6,3.15,1.46,6.25,2.26,9.62,1.5-.66,2.51-1,3.45-1.54,10.78-5.71,21.57-11.4,32.32-17.17,13.52-7.25,27-14.52,41.28-20.3a48.35,48.35,0,0,0,12.82-7.91,156.51,156.51,0,0,1,17.4-13,29,29,0,0,0,9.21-8.33C888.2,389.81,891.4,385.73,894.49,381.57Zm-2.79,16.75a35.13,35.13,0,0,1,16.86,8.35,9,9,0,0,0,6.19,2.28c17.42.16,34.7,2.17,52,3.74,3.45.31,6.91.54,10.4.81,3.85-11.13,6.28-22.14,6.21-33.64a3.74,3.74,0,0,0-2-3.48q-10.67-6.86-21.21-13.9a3.88,3.88,0,0,0-4-.4c-3.38,1.3-6.79,2.52-10.26,3.55-11.69,3.45-23.41,6.81-35.12,10.2-1.87.54-3.55,1.14-4.82,2.88-4.18,5.77-8.53,11.42-12.79,17.13C892.67,396.49,892.32,397.25,891.7,398.31Zm7.63-102.87c-.39,0-1.1.07-1.79.19a97.31,97.31,0,0,0-27.28,9.53c-30.21,15.65-55.49,37.26-76.59,63.84-.5.63-.86,1.36-1.62,2.57,1.2-.36,1.86-.52,2.5-.76,14.69-5.54,29.28-11.4,44.1-16.57a310.32,310.32,0,0,0,68.93-33.55l3.33-2.22Zm132.36,161.79c1.53.51,2.31.79,3.1,1a312.49,312.49,0,0,0,38.1,8.89c15.83,2.52,31.71,3.61,47.66,1a75.61,75.61,0,0,0,24.33-8c1.08-.59,2.07-1.35,3.33-2.17a10.81,10.81,0,0,0-1.39-.88q-33.72-12.36-66.38-27.3a10.78,10.78,0,0,0-3.49-.87c-4-.35-8-.47-11.94-.9a6.83,6.83,0,0,0-6.06,2.34c-6.12,6.19-12.4,12.23-18.62,18.33ZM672.59,689.07c9.21,1.07,84.49-17.33,90.31-21.94-3.25-2.9-6.58-5.7-9.7-8.7S747,652.3,744.13,649s-5.75-6.85-8.45-10.42-5-7-7.5-10.59c-1.12.81-1.92,1.34-2.68,1.93-17.1,13.28-31.93,28.82-45.42,45.68a75.87,75.87,0,0,0-5.8,8.75A26,26,0,0,0,672.59,689.07Zm466.86-12.39c-4.07-1.76-66-12.2-70.9-12l-12.16,31.45a85.54,85.54,0,0,0,20.39,8.47c10.72,2.84,21.27,2.46,31.51-2.18,12.4-5.61,22.19-14.45,30.76-24.8A3.57,3.57,0,0,0,1139.46,676.69Zm23.7-265.27c-19.34-5.22-38.58-9.7-54.92-21.45a256.19,256.19,0,0,0-35.4,27.5,22.1,22.1,0,0,0,13.35,4.83c9.64.6,19.29,1.23,28.93,1.81q22.42,1.37,44.85,2.69a29.25,29.25,0,0,0,3.2-.16Zm-392.21-5.56c7.36-2,147.78-70.4,151.79-73.76l-6.87-7.85c-5.16,3.21-10,6.31-15,9.32-20.34,12.35-42.12,21.49-64.57,29.22-15.18,5.23-30.4,10.43-44.86,17.5-11.19,5.47-7.9,2.37-14.47,13.63C774.87,397.53,773.18,401.39,770.94,405.86Zm246.7-16.78c-.22-2.19-.3-3.62-.53-5-.86-5.49-1.72-11-2.65-16.45q-4.71-27.68-11.65-54.89a4.74,4.74,0,0,0-1.23-2.53c-2.46-1.87-5.08-3.53-8-5.53-2.65,13.55-4.61,26.63-11.79,37.93.41,1,.71,1.79,1.05,2.56a89.47,89.47,0,0,1,7.49,26c.22,1.87,1.28,2.71,2.68,3.53q11.08,6.54,22.13,13.12C1015.73,388.14,1016.36,388.43,1017.64,389.08ZM789,586.67c1.47-.33,2.5-.53,3.52-.79a103,103,0,0,1,27.59-3.4,146.83,146.83,0,0,1,29.41,3.73,15.15,15.15,0,0,0,2.76,0l-44-48.79C804.75,542.55,790.62,578.54,789,586.67Zm138.06-247-.52-.47c-.76.33-1.54.64-2.29,1-15.93,7.85-31.79,15.81-47.78,23.53q-53,25.6-106.13,51a7.76,7.76,0,0,0-1.93,1,7,7,0,0,0-1.07,1.81,7.63,7.63,0,0,0,3.37-.77c7.56-3.2,15-6.6,22.7-9.57,34.68-13.51,70-25,105.71-35.57a11.71,11.71,0,0,0,6.37-4.31c6.39-8.35,13-16.55,19.48-24.81C925.73,341.59,926.41,340.63,927.11,339.69ZM829.28,653.3l.19.79c1.17.15,2.35.28,3.52.45,4.78.67,9.62,1,14.32,2.09,11.07,2.46,22.06,5.31,33.11,7.86,7.65,1.76,15.33,3.5,23.25,3.22a23.58,23.58,0,0,0,18-9c-4-4-7.82-7.77-11.58-11.66a6.64,6.64,0,0,0-4.71-2.18,355.82,355.82,0,0,0-45.25,0C849.18,645.61,839.42,650,829.28,653.3Zm-71.7-221.35a11,11,0,0,0-1.78.56c-13.39,7.69-25.65,16.78-35.5,28.84a8.85,8.85,0,0,0-1.66,2.35,123.11,123.11,0,0,0-4.89,17.58c17.23-2.76,32.92-8.53,48.43-15.75A103,103,0,0,1,757.58,431.95ZM1061,663.85c-3.83-1.89-68.38-10.6-73.55-9.9,20.66,13.33,40.88,26.52,62.4,38.68Zm-326.7-40.46c6,11.46,23.64,31.59,30,34.47,1.8-9.71,3.42-19.45,5.45-29.1s4.42-19.09,6.81-29.28A215.91,215.91,0,0,0,734.33,623.39ZM814.4,506.29c11.94-23.29,25.12-45.3,38.89-67.2-3.18-.09-6.11.28-9.06.47a6,6,0,0,0-4.13,1.92c-9.72,10.09-19.55,20.09-29.15,30.29a46.45,46.45,0,0,0-6,8.6,14.89,14.89,0,0,0-1.65,11.56C805,498.08,809.41,502.11,814.4,506.29Zm159.69-65.46a15.58,15.58,0,0,0,1.62.69q22.82,6.41,45.64,12.77a14,14,0,0,0,2.73.15c0-1.32.06-2.37,0-3.42q-.79-11.38-1.62-22.75c-.26-3.53-.27-3.51-3.81-3.8-8.18-.68-16.36-1.39-24.53-2.08l-11.66-1Zm284.09,6.28c-32.43,55.44-59.22,113.19-79.11,174.08a7,7,0,0,0,1.06-1.8c2.16-5.12,4.27-10.26,6.47-15.36,21.2-49.26,45.52-96.87,74.48-142.06a27.54,27.54,0,0,0,1.61-2.84C1265.42,453.5,1264.13,450,1258.18,447.11Zm-285-105.28a117.05,117.05,0,0,0-29.24-36L922,320c2.84,3.42,5.26,6.52,8.32,8.95,1.5-.71,2.71-1.26,3.9-1.84,2-.94,3.88-2,5.88-2.83s3.47-.52,4.56.86a3.92,3.92,0,0,1,0,4.72c-.46.71-1,1.34-1.56,2l-4,5c2.92,3.41,15.56,13.1,20.36,15.62A40.41,40.41,0,0,0,973.14,341.83ZM917.31,519.38c12.91-.69,58.2-22.79,65-31.43-7-6.86-13.89-13.86-21.39-20.68C949.5,487.39,936.21,505.34,917.31,519.38Zm71.27-35.68c5.46-2.88,25.47-19.8,27.44-23.26-15-4.51-29.87-9.2-45.2-12.67l-6.15,12.62Zm126.67-97.88c8.28,6.79,38.22,17.86,46.71,17.29-.51-2.73-.93-5.44-1.55-8.11-1.24-5.4-2.26-10.88-4-16.13-1.91-5.83-5-7.19-11-5.79-.59.14-1.16.32-1.74.5a141.29,141.29,0,0,0-24.11,9.77C1118.26,384.09,1116.93,384.87,1115.25,385.82Zm-93.57,130.09c2.67-5.42,4.63-42.68,2.47-51.21l-29.67,24.74ZM991.1,382.64c-.33,11.15-2.84,21.29-6,31.66l36.05,3.06c-.13-2.17-.15-3.83-.33-5.48-.37-3.36-1-6.7-1.2-10.07a5.37,5.37,0,0,0-3.11-4.82c-7.59-4.23-15.08-8.65-22.62-13C993.15,383.61,992.39,383.28,991.1,382.64Zm-71.53,33.87a10.13,10.13,0,0,0,1,1.45c5.17,5.08,10.31,10.19,15.6,15.14a8,8,0,0,0,3.88,1.59c7.59,1.42,15.2,2.73,22.81,4.07,1.17.21,2.34.36,3.82.58L974.47,421C968.41,418.92,925.86,415.48,919.57,416.51Zm31.67-114.26c10.41,9.31,18.8,20.25,26.44,32.56,5.7-11.08,7.55-22.53,9.41-33.81C975.8,293.11,961.74,293.63,951.24,302.25ZM809.8,515.4c-1.27-1.35-2.35-2.47-3.4-3.62A74.11,74.11,0,0,1,789.9,484c-2.34-7.27-2.95-14.63-.91-22.09a10.45,10.45,0,0,0,.1-1.74l-17.85,9.21c7.91,20.36,20.53,37.23,34.33,53.52.59-.55.94-.74,1.09-1C807.68,519.8,808.67,517.74,809.8,515.4Zm352.45-81-59-3.56-.18.9c17,7.28,34.17,14.12,51.68,20.3C1158.85,446.83,1161.05,441.19,1162.25,434.39Zm-237.84-1.75c-1.32-1.45-2-2.25-2.72-3-3.76-3.75-7.64-7.39-11.28-11.25a6.25,6.25,0,0,0-5.42-2.08,161.42,161.42,0,0,0-27.2,3.86c-.93.21-2.12.4-2.64,1a65.12,65.12,0,0,0-6.37,9.36A404.62,404.62,0,0,1,924.41,432.64Zm-22,196.05c3.16,3.2,5.74,5.86,8.41,8.45a3.44,3.44,0,0,0,1.94.79c7.56.76,15.12,1.49,22.68,2.13a3.59,3.59,0,0,0,2.56-.85,61.33,61.33,0,0,0,4-4.92c-6.61-3.69-12.8-7.17-19-10.57a3.55,3.55,0,0,0-2.41-.28C914.77,625,909,626.77,902.43,628.7ZM827.14,443.06a50.64,50.64,0,0,0-14.4,4.49,39.2,39.2,0,0,0-12.61,9c-6.1,6.67-6.17,14.36-4,23.28C804.6,465.3,816.52,454.84,827.14,443.06Zm343.37-15.63,44.52,2.24c-4.67-3.54-40.3-15.45-44.52-15.36ZM934.32,343.18c-4.32,4.14-17,20.6-17.91,23.31,11.43-3.41,22.85-6.28,34.56-10.3ZM907.52,294.5a79.74,79.74,0,0,0,10.19,19.75l19.2-12.91C927.58,296,918.18,294,907.52,294.5Zm121.82,130.92c.63,7.48.83,14.38,1.71,22.07l20.33-19.62-.27-.77Zm29-5.16.1-.86-31.35-16.27,1.56,14.8ZM911.11,618.36l-.06-.9c-10.23-5.06-20.53-9.93-31.56-13.31,5.26,6.12,10.74,11.89,16.28,17.6a2.33,2.33,0,0,0,1.87.65C902.15,621.13,906.63,619.73,911.11,618.36ZM742.69,417.69l.6.73c5.65-2.42,11.34-4.76,16.93-7.31a5.32,5.32,0,0,0,2.1-2.68c1.69-3.87,3.24-7.81,4.82-11.73.29-.72.49-1.47,1-3A116.47,116.47,0,0,0,742.69,417.69ZM933.49,619.81l-.26,1,13.38,7.69c4.64-4.47,10.45-11.93,11.15-14.46Zm-175-199.7c-1,.38-2,.73-3,1.13-4,1.66-8,3.27-12,5-3.38,1.48-7.31,2.46-9.88,4.87s-3.83,6.33-5.61,9.61a25.36,25.36,0,0,0-1.1,2.71,6.43,6.43,0,0,0,2.47-1.29c6.58-4.67,13.13-9.39,19.78-13.95,2.48-1.7,5.2-3,7.82-4.52C758.39,422.93,759.46,422.07,758.54,420.11Zm222.82-52.72.7-.52a68.14,68.14,0,0,0-5.4-17.28l-10.28,8ZM948,443l-.37,1,11.54,11.09,4.44-9.11Zm220.39,203.81-.67-.19-13.08,23.08c5.28-1.18,7.59-3.08,9.11-7.26,1.11-3.05,2.3-6.08,3.26-9.19C1167.63,651.19,1167.92,649,1168.37,646.84ZM899.31,636.7c-3.64-5.63-4-5.77-9.72-4-1.71.55-3.43,1.06-5.13,1.65-1.4.48-2.76,1-4.14,1.58l.15.73Zm.38-227.55a15.55,15.55,0,0,0-8-3.68c-5.15-.73-7.09.54-9.19,6ZM920.12,646c2.28,2.88,4.18,5,6.83,6.62,1.48-1.75,3.15-3.09,4-5.61ZM851.78,431.49c7.63,0,9.51-1.25,10.66-6.62A15.94,15.94,0,0,0,851.78,431.49ZM996.91,291.08c-2.73,5.43-1.72,7.45,2.28,7.83ZM952.79,641.85,953,641l-4.55-2.73-2,3Zm201.83,35.77,2.57,3.46,1.31-4.16Z"/><path class="cls-1" d="M1157.39,460.64c3.71,1.78,7.48,3.42,11.08,5.37,11,6,16.66,15.28,16.23,27.81-.24,7-1.25,13.95-2,20.91-1.09,9.85-2.31,19.68-3.4,29.53-1.41,12.73-2.76,25.47-4.14,38.21q-1.91,17.66-3.82,35.32a14.88,14.88,0,0,1-.83,3.86c-5.8,14.5-12.42,28.6-21,41.73-.64,1-1.35,1.9-2.23,3.12-.81-1-1.46-1.66-2-2.42-32.64-46.69-69.49-89.9-108.6-131.24-2.41-2.55-4.81-5.1-7.26-7.62a3.1,3.1,0,0,1-1-3.22c3.8-16,3.69-32.36,3.33-48.69-.06-2.52,0-5,0-8,1.43.33,2.68.57,3.89.91,14.21,4,28.52,7.47,43.16,9.45,17.14,2.32,34.22,2.63,51.12-1.8C1140.39,471.1,1146.57,468.15,1157.39,460.64Z"/><path class="cls-1" d="M988.2,493.66l31.62,32c-2,4.77-3.75,9.5-5.85,14.08A124.55,124.55,0,0,1,998.85,564C988.71,577.12,978.26,590,968,603a6.44,6.44,0,0,1-3.88,2.37q-19.25,4.41-38.45,9a7.22,7.22,0,0,1-5.52-.63c-16.69-8.83-33.82-16.66-51.81-22.51a9.44,9.44,0,0,1-3.74-2.66q-14.82-16.2-29.5-32.52c-7.21-8-14.31-16.09-21.59-24-1.68-1.83-2-3.33-.75-5.42,1.1-1.85,2-3.84,3.08-6.09l3.19,2.14c22.6,15,46.78,18.51,72.66,10.07a61.41,61.41,0,0,1,9.93-1.92c23.14-3.48,44.59-11.7,64.76-23.35,6.28-3.62,12.3-7.68,18.44-11.55C985.79,495.28,986.78,494.6,988.2,493.66Z"/><path class="cls-1" d="M730.39,616.93a175.06,175.06,0,0,1-18-50.11c-5.91-28.77-4.17-60.66,0-77.76,18-2.79,35.14-8.75,51.85-16.46,3.61,7,6.83,14,10.75,20.53s8.42,13,13,19.19,9.56,12.14,14.51,18.37c-.51,1.25-1,2.58-1.6,3.88a490.51,490.51,0,0,0-20,52.07,6.27,6.27,0,0,1-4.12,4.45c-15.19,5.86-29.17,14-42.51,23.26C733.07,615.16,731.88,615.93,730.39,616.93Z"/><path class="cls-1" d="M955.27,461.87a9.27,9.27,0,0,1-.5,1.49C946.11,479,936,493.54,922.61,505.57A98.83,98.83,0,0,1,895,523.41a14.89,14.89,0,0,1-4.49,1.27,129.31,129.31,0,0,1-55.63-7.27c-4.18-1.54-8.14-3.67-12.18-5.57a13.4,13.4,0,0,1-1.88-1.34c.58-1.19,1.07-2.28,1.62-3.34a768.18,768.18,0,0,1,39.25-66.49,5.7,5.7,0,0,1,5.31-2.92c9.07,0,18.15-.3,27.2.11,11.82.54,23.62,1.7,35.44,2.49a9.45,9.45,0,0,1,6.39,2.86c5.68,5.6,11.51,11.06,17.27,16.58C954,460.44,954.62,461.18,955.27,461.87Z"/><path class="cls-1" d="M1025.83,532c40.94,42.81,79.31,87.28,112.84,136-11.37-1.43-22.52-3.61-33.73-5.43s-22.56-3.68-34.1-5.57c.38-1.55.61-2.71.94-3.83a342.46,342.46,0,0,0,9.1-40.64c1-6,.58-6.7-5.18-8.74a119.62,119.62,0,0,0-35.18-6.37c-14.42-.62-28.75.62-43,2.45-5.63.72-11.24,1.6-16.87,2.38a23.24,23.24,0,0,1-2.47,0c1-1.32,1.74-2.22,2.45-3.1,8-9.89,16.12-19.63,23.83-29.71a142.88,142.88,0,0,0,20.3-35.44A22.69,22.69,0,0,1,1025.83,532Z"/><path class="cls-1" d="M888.58,625.28c-5.28,1.73-10.1,3.29-14.9,4.9s-9.41,3.08-14.05,4.8A189.18,189.18,0,0,1,836,641.67a100.22,100.22,0,0,0-26.26,10.2,20.35,20.35,0,0,1-3.27,1.54q-16.29,5.53-32.61,11c-.67.22-1.38.32-2.31.53a10.75,10.75,0,0,1-.19-2.18,419.51,419.51,0,0,1,13.56-64.08,5.17,5.17,0,0,1,3.8-3.79c14.47-5,29.28-5.92,44.36-3.95a158,158,0,0,1,27.53,6.19,9.72,9.72,0,0,1,4,2.28c7.62,7.93,15.13,16,22.67,24A22.79,22.79,0,0,1,888.58,625.28Z"/><path class="cls-1" d="M1162,454.71c4-6.11,6.15-12.74,7.58-19.71a25.54,25.54,0,0,1,2.64-.16q20.28,1,40.56,2c7.36.36,14.74.6,22.09,1.12a23.73,23.73,0,0,1,6.58,1.67c3.15,1.19,6.18,2.68,9.62,4.2-.78,1.51-1.46,2.89-2.19,4.23-15.36,28-30.42,56.08-43.77,85.07q-11.61,25.2-20.82,51.37c-.47,1.33-1,2.64-1.53,4l-.72-.14c.31-3.13.59-6.26.94-9.38,1.6-14.41,3.26-28.81,4.83-43.22q1.76-16.21,3.33-32.45c.6-6.38.92-12.77-.25-19.15A30.72,30.72,0,0,0,1178.37,464c-3.9-2.8-8.26-5-12.44-7.38C1164.8,455.95,1163.57,455.46,1162,454.71Z"/><path class="cls-1" d="M1073.64,611a314.73,314.73,0,0,1-10.39,45c-5.59-.78-10.84-1.54-16.09-2.24-15.81-2.12-31.62-4.27-47.43-6.31-8.51-1.1-17-2-25.56-3a7.91,7.91,0,0,1-3.09-.91c-5.78-3.51-11.5-7.12-17.46-10.83a18.15,18.15,0,0,1,1.29-2.14c4.66-5.72,9.38-11.39,14-17.13a6.1,6.1,0,0,1,3.91-2.34c19.55-3.4,39.19-6,59.08-6.21,12.63-.1,25.11,1.05,37.27,4.7C1070.56,609.92,1071.91,610.42,1073.64,611Z"/><path class="cls-1" d="M1065.5,414.57c-4.34-2.18-8.47-4.19-12.53-6.31-8-4.2-16-8.55-24.06-12.65a6.29,6.29,0,0,1-3.65-5.25c-2.38-14.91-4.78-29.81-7.46-44.67-1.48-8.2-3.51-16.29-5.29-24.43-.25-1.16-.47-2.34-.86-4.28a601.23,601.23,0,0,1,90,68.42C1088.72,393.94,1077.06,403.85,1065.5,414.57Z"/><path class="cls-1" d="M932.14,658c2.5-3,4.84-5.78,7.11-8.61a3.17,3.17,0,0,1,3.17-1.2c8.41,1,16.83,1.78,25.22,2.85a11.91,11.91,0,0,1,4.56,2q28.79,18.27,57.53,36.63c4.49,2.86,9,5.62,13.54,8.44.91.57,1.78,1.18,2.91,1.94-1.35,2.73-2.62,5.32-3.92,7.9-1.86,3.66-3.79,7.3-5.62,11-3,6-6.51,7.23-12.72,4.43a267.74,267.74,0,0,1-46.34-26.92,425.33,425.33,0,0,1-43.67-36.52C933.4,659.4,932.94,658.84,932.14,658Z"/><path class="cls-1" d="M894.49,381.57c-3.08,4.16-6.29,8.24-9.21,12.51a29,29,0,0,1-9.21,8.33,156.51,156.51,0,0,0-17.4,13,48.35,48.35,0,0,1-12.82,7.91c-14.23,5.78-27.76,13-41.28,20.3C793.81,449.35,783,455,772.24,460.75c-.94.5-2,.87-3.45,1.54-.8-3.37-1.66-6.47-2.26-9.62A79.64,79.64,0,0,1,765,430.33a4.74,4.74,0,0,1,3-4.38c12.52-6.07,25.44-11.15,38.47-16,27.76-10.25,55.85-19.52,84.15-28.16,1.13-.34,2.29-.58,3.43-.87Z"/><path class="cls-1" d="M891.7,398.31c.62-1.06,1-1.82,1.46-2.48,4.26-5.71,8.62-11.36,12.79-17.13,1.26-1.75,2.95-2.35,4.82-2.88,11.71-3.38,23.43-6.74,35.12-10.2,3.47-1,6.88-2.25,10.26-3.55a3.88,3.88,0,0,1,4,.4q10.54,7.05,21.21,13.9a3.74,3.74,0,0,1,2,3.48c.07,11.5-2.37,22.51-6.21,33.64-3.49-.27-7-.5-10.4-.81-17.32-1.57-34.6-3.59-52-3.74a9,9,0,0,1-6.19-2.28A35.13,35.13,0,0,0,891.7,398.31Z"/><path class="cls-1" d="M899.33,295.44l11.58,23-3.33,2.22a310.32,310.32,0,0,1-68.93,33.55c-14.82,5.18-29.41,11-44.1,16.57-.64.24-1.3.4-2.5.76.76-1.21,1.12-1.95,1.62-2.57,21.11-26.59,46.38-48.19,76.59-63.84a97.31,97.31,0,0,1,27.28-9.53C898.23,295.51,898.94,295.48,899.33,295.44Z"/><path class="cls-1" d="M1031.69,457.23l8.67-8.52c6.22-6.1,12.49-12.14,18.62-18.33A6.83,6.83,0,0,1,1065,428c4,.43,8,.55,11.94.9a10.78,10.78,0,0,1,3.49.87q32.65,15,66.38,27.3a10.81,10.81,0,0,1,1.39.88c-1.26.83-2.25,1.58-3.33,2.17a75.61,75.61,0,0,1-24.33,8c-15.95,2.61-31.83,1.52-47.66-1a312.49,312.49,0,0,1-38.1-8.89C1034,458,1033.23,457.74,1031.69,457.23Z"/><path class="cls-1" d="M672.59,689.07a26,26,0,0,1,1.69-4.68,75.87,75.87,0,0,1,5.8-8.75c13.49-16.86,28.32-32.4,45.42-45.68.76-.59,1.56-1.12,2.68-1.93,2.53,3.59,4.91,7.17,7.5,10.59s5.49,7.07,8.45,10.42,5.93,6.38,9.07,9.39,6.45,5.8,9.7,8.7C757.09,671.74,681.8,690.14,672.59,689.07Z"/><path class="cls-1" d="M1139.46,676.69a3.57,3.57,0,0,1-.4,1c-8.57,10.36-18.36,19.19-30.76,24.8-10.24,4.64-20.79,5-31.51,2.18a85.54,85.54,0,0,1-20.39-8.47l12.16-31.45C1073.47,664.48,1135.39,674.93,1139.46,676.69Z"/><path class="cls-1" d="M1163.15,411.42v15.22a29.25,29.25,0,0,1-3.2.16q-22.42-1.32-44.85-2.69c-9.64-.59-19.29-1.22-28.93-1.81a22.1,22.1,0,0,1-13.35-4.83,256.19,256.19,0,0,1,35.4-27.5C1124.57,401.72,1143.82,406.2,1163.15,411.42Z"/><path class="cls-1" d="M770.94,405.86c2.24-4.47,3.92-8.33,6-11.94,6.57-11.26,3.28-8.15,14.47-13.63,14.45-7.07,29.67-12.27,44.86-17.5,22.44-7.73,44.23-16.87,64.57-29.22,4.94-3,9.83-6.1,15-9.32l6.87,7.85C918.72,335.46,778.31,403.82,770.94,405.86Z"/><path class="cls-1" d="M1017.64,389.08c-1.27-.65-1.91-.94-2.51-1.29q-11.07-6.56-22.13-13.12c-1.39-.82-2.46-1.66-2.68-3.53a89.47,89.47,0,0,0-7.49-26c-.34-.77-.64-1.55-1.05-2.56,7.18-11.29,9.13-24.38,11.79-37.93,2.94,2,5.56,3.66,8,5.53a4.74,4.74,0,0,1,1.23,2.53q6.91,27.21,11.65,54.89c.93,5.47,1.79,11,2.65,16.45C1017.33,385.46,1017.42,386.89,1017.64,389.08Z"/><path class="cls-1" d="M789,586.67c1.57-8.13,15.7-44.12,19.3-49.23l44,48.79a15.15,15.15,0,0,1-2.76,0,146.83,146.83,0,0,0-29.41-3.73,103,103,0,0,0-27.59,3.4C791.55,586.14,790.51,586.34,789,586.67Z"/><path class="cls-1" d="M927.11,339.69c-.7.94-1.38,1.9-2.11,2.82-6.5,8.26-13.09,16.46-19.48,24.81a11.71,11.71,0,0,1-6.37,4.31c-35.66,10.59-71,22.06-105.71,35.57-7.65,3-15.13,6.37-22.7,9.57a7.63,7.63,0,0,1-3.37.77,7,7,0,0,1,1.07-1.81,7.76,7.76,0,0,1,1.93-1q53.07-25.49,106.13-51c16-7.72,31.86-15.69,47.78-23.53.75-.37,1.53-.67,2.29-1Z"/><path class="cls-1" d="M829.28,653.3c10.13-3.33,19.9-7.69,30.87-8.4a355.82,355.82,0,0,1,45.25,0,6.64,6.64,0,0,1,4.71,2.18c3.76,3.89,7.62,7.69,11.58,11.66a23.58,23.58,0,0,1-18,9c-7.93.28-15.61-1.46-23.25-3.22-11.05-2.55-22-5.4-33.11-7.86-4.7-1-9.54-1.42-14.32-2.09-1.17-.16-2.35-.3-3.52-.45Z"/><path class="cls-1" d="M757.58,431.95a103,103,0,0,0,4.6,33.59c-15.51,7.23-31.2,13-48.43,15.75a123.11,123.11,0,0,1,4.89-17.58,8.85,8.85,0,0,1,1.66-2.35c9.85-12.05,22.1-21.15,35.5-28.84A11,11,0,0,1,757.58,431.95Z"/><path class="cls-1" d="M1061,663.85l-11.15,28.78c-21.52-12.16-41.73-25.36-62.4-38.68C992.64,653.25,1057.19,662,1061,663.85Z"/><path class="cls-1" d="M734.33,623.39a215.91,215.91,0,0,1,42.25-23.91c-2.39,10.19-4.8,19.69-6.81,29.28s-3.65,19.4-5.45,29.1C758,655,740.35,634.85,734.33,623.39Z"/><path class="cls-1" d="M814.4,506.29c-5-4.18-9.43-8.21-11.08-14.36A14.89,14.89,0,0,1,805,480.37a46.45,46.45,0,0,1,6-8.6c9.6-10.21,19.42-20.2,29.15-30.29a6,6,0,0,1,4.13-1.92c2.95-.19,5.89-.56,9.06-.47C839.52,461,826.34,483,814.4,506.29Z"/><path class="cls-1" d="M974.09,440.83l8.35-19.4,11.66,1c8.18.69,16.35,1.4,24.53,2.08,3.54.29,3.55.27,3.81,3.8q.83,11.38,1.62,22.75c.07,1,0,2.1,0,3.42a14,14,0,0,1-2.73-.15q-22.83-6.35-45.64-12.77A15.58,15.58,0,0,1,974.09,440.83Z"/><path class="cls-1" d="M1258.18,447.11c5.95,2.86,7.25,6.39,4.51,12a27.54,27.54,0,0,1-1.61,2.84c-29,45.18-53.29,92.8-74.48,142.06-2.2,5.1-4.31,10.24-6.47,15.36a7,7,0,0,1-1.06,1.8C1199,560.3,1225.75,502.56,1258.18,447.11Z"/><path class="cls-1" d="M973.14,341.83a40.41,40.41,0,0,1-13.71,10.68c-4.8-2.52-17.44-12.2-20.36-15.62l4-5c.53-.66,1.11-1.29,1.56-2a3.92,3.92,0,0,0,0-4.72c-1.1-1.38-2.53-1.72-4.56-.86s-3.92,1.88-5.88,2.83c-1.2.58-2.4,1.13-3.9,1.84-3.06-2.43-5.48-5.52-8.32-8.95l21.9-14.17A117.05,117.05,0,0,1,973.14,341.83Z"/><path class="cls-1" d="M917.31,519.38c18.9-14,32.19-32,43.57-52.11,7.5,6.82,14.4,13.82,21.39,20.68C975.51,496.59,930.22,518.69,917.31,519.38Z"/><path class="cls-1" d="M988.58,483.7l-23.91-23.31,6.15-12.62c15.33,3.47,30.2,8.16,45.2,12.67C1014,463.9,994,480.82,988.58,483.7Z"/><path class="cls-1" d="M1115.25,385.82c1.68-.95,3-1.73,4.37-2.46a141.29,141.29,0,0,1,24.11-9.77c.57-.18,1.15-.36,1.74-.5,6-1.4,9.05,0,11,5.79,1.72,5.25,2.74,10.73,4,16.13.61,2.67,1,5.38,1.55,8.11C1153.47,403.68,1123.53,392.61,1115.25,385.82Z"/><path class="cls-1" d="M1021.68,515.91l-27.2-26.47,29.67-24.74C1026.3,473.23,1024.34,510.49,1021.68,515.91Z"/><path class="cls-1" d="M991.1,382.64c1.29.64,2,1,2.75,1.37,7.53,4.34,15,8.76,22.62,13a5.37,5.37,0,0,1,3.11,4.82c.23,3.37.83,6.71,1.2,10.07.18,1.64.21,3.3.33,5.48l-36.05-3.06C988.26,403.93,990.77,393.79,991.1,382.64Z"/><path class="cls-1" d="M919.57,416.51c6.3-1,48.84,2.41,54.91,4.5l-7.78,18.33c-1.48-.22-2.65-.38-3.82-.58-7.61-1.34-15.22-2.64-22.81-4.07a8,8,0,0,1-3.88-1.59c-5.29-5-10.43-10.06-15.6-15.14A10.13,10.13,0,0,1,919.57,416.51Z"/><path class="cls-1" d="M951.24,302.25c10.5-8.62,24.56-9.14,35.86-1.25-1.87,11.28-3.71,22.72-9.41,33.81C970,322.5,961.64,311.56,951.24,302.25Z"/><path class="cls-1" d="M809.8,515.4c-1.13,2.34-2.12,4.41-3.15,6.45-.15.29-.5.49-1.09,1-13.8-16.28-26.42-33.16-34.33-53.52l17.85-9.21a10.45,10.45,0,0,1-.1,1.74c-2,7.46-1.43,14.82.91,22.09a74.11,74.11,0,0,0,16.5,27.79C807.46,512.93,808.53,514.05,809.8,515.4Z"/><path class="cls-1" d="M1162.25,434.39c-1.2,6.8-3.4,12.43-7.53,17.64-17.5-6.18-34.68-13-51.68-20.3l.18-.9Z"/><path class="cls-1" d="M924.41,432.64a404.62,404.62,0,0,0-55.63-2,65.12,65.12,0,0,1,6.37-9.36c.52-.64,1.71-.83,2.64-1a161.42,161.42,0,0,1,27.2-3.86,6.25,6.25,0,0,1,5.42,2.08c3.64,3.86,7.52,7.5,11.28,11.25C922.42,430.39,923.09,431.19,924.41,432.64Z"/><path class="cls-1" d="M902.43,628.7c6.58-1.93,12.34-3.65,18.13-5.26a3.55,3.55,0,0,1,2.41.28c6.23,3.4,12.42,6.88,19,10.57a61.33,61.33,0,0,1-4,4.92,3.59,3.59,0,0,1-2.56.85c-7.57-.63-15.13-1.37-22.68-2.13a3.44,3.44,0,0,1-1.94-.79C908.17,634.56,905.59,631.89,902.43,628.7Z"/><path class="cls-1" d="M827.14,443.06c-10.62,11.78-22.54,22.25-31,36.72-2.21-8.92-2.15-16.61,4-23.28a39.2,39.2,0,0,1,12.61-9A50.64,50.64,0,0,1,827.14,443.06Z"/><path class="cls-1" d="M1170.51,427.43V414.31c4.23-.09,39.85,11.82,44.52,15.36Z"/><path class="cls-1" d="M934.32,343.18l16.65,13c-11.71,4-23.13,6.88-34.56,10.3C917.3,363.78,930,347.32,934.32,343.18Z"/><path class="cls-1" d="M907.52,294.5c10.66-.47,20.07,1.52,29.39,6.84l-19.2,12.91A79.74,79.74,0,0,1,907.52,294.5Z"/><path class="cls-1" d="M1029.34,425.42l21.78,1.68.27.77-20.33,19.62C1030.17,439.8,1030,432.91,1029.34,425.42Z"/><path class="cls-1" d="M1058.33,420.26l-29.7-2.33-1.56-14.8,31.35,16.27Z"/><path class="cls-1" d="M911.11,618.36c-4.48,1.37-9,2.77-13.47,4a2.33,2.33,0,0,1-1.87-.65c-5.54-5.71-11-11.48-16.28-17.6,11,3.37,21.33,8.25,31.56,13.31Z"/><path class="cls-1" d="M742.69,417.69a116.47,116.47,0,0,1,25.46-24c-.52,1.57-.72,2.32-1,3-1.58,3.92-3.13,7.86-4.82,11.73a5.32,5.32,0,0,1-2.1,2.68c-5.59,2.55-11.27,4.9-16.93,7.31Z"/><path class="cls-1" d="M933.49,619.81l24.27-5.8c-.7,2.52-6.5,10-11.15,14.46l-13.38-7.69Z"/><path class="cls-1" d="M758.54,420.11c.92,2-.15,2.82-1.51,3.58-2.62,1.48-5.35,2.82-7.82,4.52-6.65,4.56-13.2,9.28-19.78,13.95a6.43,6.43,0,0,1-2.47,1.29,25.36,25.36,0,0,1,1.1-2.71c1.78-3.28,3-7.18,5.61-9.61s6.49-3.39,9.88-4.87c4-1.74,8-3.36,12-5C756.53,420.84,757.52,420.49,758.54,420.11Z"/><path class="cls-1" d="M981.35,367.38l-15-9.78,10.28-8a68.14,68.14,0,0,1,5.4,17.28Z"/><path class="cls-1" d="M948,443l15.61,3-4.44,9.11L947.61,444Z"/><path class="cls-1" d="M1168.37,646.84c-.45,2.15-.74,4.35-1.38,6.44-1,3.1-2.14,6.13-3.26,9.19-1.52,4.18-3.83,6.08-9.11,7.26l13.08-23.08Z"/><path class="cls-1" d="M899.31,636.7H880.47l-.15-.73c1.38-.53,2.75-1.1,4.14-1.58,1.7-.59,3.42-1.1,5.13-1.65C895.3,630.93,895.67,631.07,899.31,636.7Z"/><path class="cls-1" d="M899.69,409.15l-17.14,2.33c2.1-5.47,4-6.74,9.19-6A15.55,15.55,0,0,1,899.69,409.15Z"/><path class="cls-1" d="M920.12,646l10.86,1c-.89,2.52-2.55,3.86-4,5.61C924.29,651.08,922.4,648.92,920.12,646Z"/><path class="cls-1" d="M851.78,431.49a15.94,15.94,0,0,1,10.66-6.62C861.29,430.25,859.41,431.47,851.78,431.49Z"/><path class="cls-1" d="M996.91,291.08l2.28,7.83C995.19,298.52,994.18,296.51,996.91,291.08Z"/><path class="cls-1" d="M952.79,641.85l-6.31-.59,2-3L953,641Z"/><path class="cls-1" d="M1154.62,677.62l3.88-.7-1.31,4.16Z"/><text class="cls-2" transform="translate(1380.21 469.15)">User Research</text><text class="cls-2" transform="translate(1230.95 788.15)">Ideation</text><text class="cls-2" transform="translate(625.97 789.15)">Proto<tspan class="cls-3" x="54.68" y="0">t</tspan><tspan class="cls-4" x="62.79" y="0">yping</tspan></text><text class="cls-2" transform="translate(448.13 467.15)"><tspan class="cls-5">T</tspan><tspan x="10.47" y="0">esting</tspan></text><text class="cls-6" transform="translate(386.15 498.01)">(<tspan class="cls-7" x="5.5" y="0">r</tspan><tspan x="11.89" y="0">e)explo</tspan><tspan class="cls-7" x="63.77" y="0">r</tspan><tspan x="70.17" y="0">e the design space</tspan></text><text class="cls-6" transform="translate(588.15 818.01)">(<tspan class="cls-7" x="5.5" y="0">r</tspan><tspan x="11.89" y="0">e)explo</tspan><tspan class="cls-7" x="63.77" y="0">r</tspan><tspan x="70.17" y="0">e the design space</tspan></text><text class="cls-6" transform="translate(1176.15 817.01)">(<tspan class="cls-7" x="5.5" y="0">r</tspan><tspan x="11.89" y="0">e)explo</tspan><tspan class="cls-7" x="63.77" y="0">r</tspan><tspan x="70.17" y="0">e the design space</tspan></text><text class="cls-6" transform="translate(1357.15 496.01)">(<tspan class="cls-7" x="5.5" y="0">r</tspan><tspan x="11.89" y="0">e)explo</tspan><tspan class="cls-7" x="63.77" y="0">r</tspan><tspan x="70.17" y="0">e the design space</tspan></text><text class="cls-2" transform="translate(859.37 175.15)">Context exploration</text><text class="cls-6" transform="translate(862.15 206.01)">(<tspan class="cls-7" x="5.5" y="0">r</tspan><tspan x="11.89" y="0">e)explo</tspan><tspan class="cls-7" x="63.77" y="0">r</tspan><tspan x="70.17" y="0">e the design space</tspan></text><path d="M1420.76,389.43c-2.19,1.24-3.25.34-4.2-1.21-1.66-2.71-3.37-5.39-5.12-8-22.17-33.7-50-62-81.92-86.5-39.62-30.43-83.33-53.43-130-71.08-1.36-.52-2.74-1-4.08-1.57s-1.55-1.62-.74-3.07a23.54,23.54,0,0,1,2.6.65c54.21,20.15,104.45,47.32,148.87,84.66,28,23.53,52.29,50.34,71.7,81.44C1418.88,386.26,1419.8,387.84,1420.76,389.43Z"/><path d="M730.3,219.37c1.12,2.42.08,3.19-1.46,3.78-4.32,1.67-8.65,3.34-12.94,5.09C671,246.63,629.05,270.14,591.3,300.8c-30.48,24.76-56.88,53.2-77.61,86.71-1.52,2.46-1.55,2.44-4.66,2.11.86-1.48,1.6-2.84,2.41-4.14,20.62-33.24,46.79-61.54,77-86.21,38.4-31.37,81.13-55.33,126.93-74C720.26,223.24,725.2,221.37,730.3,219.37Z"/><path d="M843.48,847.62a713.6,713.6,0,0,0,236.23,1.17c1.08,2.45-.07,3-1.74,3.23-5.11.76-10.21,1.6-15.32,2.32a717.69,717.69,0,0,1-121.76,6.29,623,623,0,0,1-65-5.23c-9.71-1.32-19.4-2.8-29.1-4.21-.78-.11-1.55-.34-2.33-.49C842.8,850.37,842.85,849.31,843.48,847.62Z"/><path d="M1456.15,548.65a250.92,250.92,0,0,1-24.66,81.63c-14.69,29.73-34.17,56-57.26,79.74-4.9,5-10.07,9.79-15.07,14.72-1.53,1.51-3.14,2.38-5.8,1.31,1.38-1.3,2.58-2.45,3.81-3.58,24.79-22.88,46.28-48.45,63.2-77.74a257.2,257.2,0,0,0,31.21-84.94c.55-3.13.87-6.3,1.4-9.43C1453.31,548.41,1453.4,548.43,1456.15,548.65Z"/><path d="M576.66,726c-2.69.91-4.17.43-5.58-.87-39.16-36.24-69.83-78.17-86.86-129.27a250.08,250.08,0,0,1-10.15-43.67c-.17-1.15-.13-2.33-.19-3.52,2.47-1.13,2.73.29,3,2.06,1.4,8,2.61,16,4.44,23.81,8.54,36.56,25.06,69.37,47.35,99.41A346.74,346.74,0,0,0,573,722.78C574.06,723.75,575.15,724.67,576.66,726Z"/><path d="M1419.06,364l.6,28.11,2.26-1.3-24.64-13.53c-1.69-.93-3.21,1.66-1.51,2.59l24.64,13.53a1.51,1.51,0,0,0,2.26-1.3l-.6-28.11c0-1.93-3-1.93-3,0Z"/><path d="M1381,717.75l-26.81,8.48,1.85,1.85,6.06-27.45c.42-1.88-2.48-2.68-2.89-.8l-6.06,27.45a1.52,1.52,0,0,0,1.85,1.85l26.81-8.48c1.83-.58,1.05-3.48-.8-2.89Z"/><path d="M862.81,866,842,847l-.66,2.51L868.13,841c1.83-.59,1-3.48-.8-2.89l-26.78,8.56a1.51,1.51,0,0,0-.66,2.51l20.8,18.91c1.43,1.3,3.55-.82,2.12-2.12Z"/><path d="M463.16,570.71l13.9-24.44h-2.59l14.22,24.26a1.5,1.5,0,0,0,2.59-1.51l-14.22-24.26a1.51,1.51,0,0,0-2.59,0l-13.9,24.44a1.5,1.5,0,0,0,2.59,1.51Z"/><path d="M704.17,221.42l28.11-.5-1.3-2.26-13.62,24.6c-.94,1.69,1.65,3.21,2.59,1.51l13.62-24.6a1.51,1.51,0,0,0-1.3-2.26l-28.11.5c-1.93,0-1.93,3,0,3Z"/></svg>