<svg id="Ebene_1" data-name="Ebene 1" xmlns="http://www.w3.org/2000/svg" viewBox="0 0 1920 1080"><defs><style>.cls-1,.cls-4{fill:none;}.cls-1{stroke:#000;}.cls-1,.cls-3,.cls-4{stroke-miterlimit:10;}.cls-2{fill:#01a0c6;}.cls-3{fill:#ff8000;stroke:#fff;}.cls-3,.cls-4{stroke-width:2px;}.cls-4{stroke:#ff8000;}.cls-5{font-size:50px;font-family:Impact, Impact;}.cls-6{font-size:10px;font-family:GillSans-Light, Gill Sans;}.cls-7{letter-spacing:-0.02em;}.cls-8{letter-spacing:-0.01em;}.cls-9{letter-spacing:0.08em;}.cls-10{letter-spacing:0.07em;}.cls-11{letter-spacing:-0.02em;}.cls-12{letter-spacing:0.04em;}.cls-13{letter-spacing:-0.08em;}.cls-14{letter-spacing:0.02em;}.cls-15{letter-spacing:-0.03em;}.cls-16{letter-spacing:0.08em;}</style></defs><title>2019_02_06_timeline</title><line class="cls-1" x1="721.5" y1="589.5" x2="603.5" y2="589.5"/><line class="cls-1" x1="721.5" y1="877.5" x2="603.5" y2="877.5"/><line class="cls-1" x1="599.5" y1="948.5" x2="599.49" y2="156.5"/><line class="cls-2" x1="599.5" y1="948.5" x2="599.49" y2="156.5"/><line class="cls-1" x1="721.5" y1="301.5" x2="599.5" y2="301.5"/><line class="cls-1" x1="721.5" y1="156.5" x2="599.5" y2="156.5"/><circle class="cls-3" cx="599.65" cy="877.12" r="12.35"/><circle class="cls-3" cx="599.65" cy="752.4" r="12.35"/><circle class="cls-3" cx="599.35" cy="589.99" r="12.35"/><circle class="cls-3" cx="599.65" cy="445.34" r="12.35"/><circle class="cls-3" cx="599.65" cy="301.38" r="12.35"/><circle class="cls-4" cx="783.7" cy="156.71" r="63.29"/><text class="cls-5" transform="translate(739 319.55)">2018</text><text class="cls-6" transform="translate(751 157.82)">2019 – present</text><text class="cls-6" transform="translate(852.5 282.82)">inn<tspan class="cls-7" x="11.68" y="0">o</tspan><tspan x="16.9" y="0">.space is of</tspan><tspan class="cls-7" x="59.34" y="0">f</tspan><tspan x="61.54" y="0">icial</tspan><tspan class="cls-8" x="75.62" y="0">l</tspan><tspan x="77.4" y="0">y pa</tspan><tspan class="cls-9" x="93.71" y="0">r</tspan><tspan x="97.84" y="0">t of the </tspan><tspan x="0" y="12">Design Facto</tspan><tspan class="cls-10" x="50.82" y="12">r</tspan><tspan x="54.84" y="12">y Global Net</tspan><tspan class="cls-11" x="105.83" y="12">w</tspan><tspan x="112.75" y="12">o</tspan><tspan class="cls-12" x="118.17" y="12">r</tspan><tspan x="121.9" y="12">k</tspan><tspan class="cls-13" x="126.17" y="12">;</tspan><tspan x="127.14" y="12" xml:space="preserve"> 4 </tspan><tspan x="0" y="24">teams</tspan><tspan class="cls-13" x="23.33" y="24">;</tspan><tspan x="24.29" y="24" xml:space="preserve"> 2 new prog</tspan><tspan class="cls-14" x="72.51" y="24">r</tspan><tspan x="76.09" y="24">ams (S</tspan><tspan class="cls-11" x="102.41" y="24">Q</tspan><tspan class="cls-15" x="110.49" y="24">U</tspan><tspan x="117.18" y="24">AD and </tspan><tspan x="0" y="36">CBI)</tspan><tspan class="cls-13" x="17.49" y="36">;</tspan><tspan x="18.45" y="36" xml:space="preserve"> Becomes pa</tspan><tspan class="cls-9" x="69.1" y="36">r</tspan><tspan x="73.23" y="36">t of the Digital Hu</tspan><tspan class="cls-7" x="144.58" y="36">b</tspan><tspan class="cls-13" x="149.48" y="36">.</tspan></text><text class="cls-5" transform="translate(739 607.55)">2016</text><text class="cls-6" transform="translate(852.5 594.82)">One team (SAP/Stan<tspan class="cls-8" x="82.74" y="0">f</tspan><tspan x="85.05" y="0">ord)</tspan><tspan class="cls-13" x="102.23" y="0">;</tspan><tspan x="103.19" y="0" xml:space="preserve"> Funding </tspan><tspan class="cls-8" x="139.08" y="0">f</tspan><tspan x="141.39" y="0">or </tspan><tspan x="0" y="12">the room</tspan></text><text class="cls-5" transform="translate(739 895.55)">2014</text><text class="cls-6" transform="translate(852.5 871.82)">Ki<tspan class="cls-12" x="7.19" y="0">r</tspan><tspan x="10.92" y="0">stin goes to Stan</tspan><tspan class="cls-8" x="75.93" y="0">f</tspan><tspan x="78.23" y="0">ord as a visitor </tspan><tspan x="0" y="12">pro</tspan><tspan class="cls-11" x="13.85" y="12">f</tspan><tspan x="16.1" y="12">esso</tspan><tspan class="cls-16" x="33.39" y="12">r</tspan><tspan class="cls-13" x="37.57" y="12">;</tspan><tspan x="38.54" y="12" xml:space="preserve"> Meets La</tspan><tspan class="cls-14" x="77" y="12">r</tspan><tspan class="cls-10" x="80.58" y="12">r</tspan><tspan x="84.6" y="12">y Lei</tspan><tspan class="cls-11" x="102.92" y="12">f</tspan><tspan x="105.17" y="12">er and b</tspan><tspan class="cls-14" x="138.21" y="12">r</tspan><tspan x="141.79" y="12">ings </tspan><tspan x="0" y="24">ME310 to HSMA</tspan></text><text class="cls-5" transform="translate(641 462.55)">2017</text><text class="cls-6" transform="translate(754.5 438.82)">Opening of inn<tspan class="cls-7" x="59.14" y="0">o</tspan><tspan x="64.36" y="0">.space with La</tspan><tspan class="cls-14" x="119.38" y="0">r</tspan><tspan class="cls-10" x="122.96" y="0">r</tspan><tspan x="126.99" y="0">y </tspan><tspan x="0" y="12">Lei</tspan><tspan class="cls-11" x="11.36" y="12">f</tspan><tspan x="13.61" y="12">e</tspan><tspan class="cls-16" x="18.4" y="12">r</tspan><tspan class="cls-13" x="22.58" y="12">;</tspan><tspan x="23.55" y="12" xml:space="preserve"> 2 teams (SAP/Stan</tspan><tspan class="cls-8" x="99.69" y="12">f</tspan><tspan x="101.99" y="12">ord and </tspan><tspan x="0" y="24">Roche/Aalto Uni</tspan><tspan class="cls-11" x="65.62" y="24">v</tspan><tspan x="69.74" y="24">e</tspan><tspan class="cls-12" x="74.53" y="24">r</tspan><tspan x="78.26" y="24">sity)</tspan></text><text class="cls-5" transform="translate(641 751.55)">2015</text><text class="cls-6" transform="translate(754.5 750.82)">1st project - one team (SAP/Stan<tspan class="cls-8" x="130.66" y="0">f</tspan><tspan x="132.96" y="0">ord)</tspan></text><path d="M360,804.9h6.85v39.9h99.52v8.3H366.82V893H360Z"/><path d="M360,783.81H466.34V792H360Z"/><path d="M409.37,710.86,360,670.45v-8.32H466.34v8.3H372l49.72,40.47L372,751.52h94.34v8.22H360v-8.23Z"/><path d="M360,579.51h6.85v49.8h42.56v-48.5h6.93v48.5h43.17v-51h6.85v59.24H360Z"/><path d="M360,553h99.52V500.4h6.85v60.84H360Z"/><path d="M360,480H466.34v8.22H360Z"/><path d="M360,359.91H466.34v6.77l-93,80.87h93v8.22H360v-7l93-80.68H360Z"/><path d="M360,277.22h6.85V327h42.56v-48.5h6.93V327h43.17V276h6.85v59.24H360Z"/></svg>